<?xml version="1.0" encoding="utf-8" standalone="no"?>
<!DOCTYPE svg PUBLIC "-//W3C//DTD SVG 1.1//EN"
  "http://www.w3.org/Graphics/SVG/1.1/DTD/svg11.dtd">
<svg xmlns:xlink="http://www.w3.org/1999/xlink" width="252pt" height="180pt" viewBox="0 0 252 180" xmlns="http://www.w3.org/2000/svg" version="1.1">
 <metadata>
  <rdf:RDF xmlns:dc="http://purl.org/dc/elements/1.1/" xmlns:cc="http://creativecommons.org/ns#" xmlns:rdf="http://www.w3.org/1999/02/22-rdf-syntax-ns#">
   <cc:Work>
    <dc:type rdf:resource="http://purl.org/dc/dcmitype/StillImage"/>
    <dc:date>2024-11-22T16:14:33.845580</dc:date>
    <dc:format>image/svg+xml</dc:format>
    <dc:creator>
     <cc:Agent>
      <dc:title>Matplotlib v3.8.0, https://matplotlib.org/</dc:title>
     </cc:Agent>
    </dc:creator>
   </cc:Work>
  </rdf:RDF>
 </metadata>
 <defs>
  <style type="text/css">*{stroke-linejoin: round; stroke-linecap: butt}</style>
 </defs>
 <g id="figure_1">
  <g id="patch_1">
   <path d="M 0 180 
L 252 180 
L 252 0 
L 0 0 
z
" style="fill: #ffffff"/>
  </g>
  <g id="axes_1">
   <g id="patch_2">
    <path d="M 35.76 145.5 
L 243.713 145.5 
L 243.713 7.56 
L 35.76 7.56 
z
" style="fill: #ffffff"/>
   </g>
   <g id="matplotlib.axis_1">
    <g id="xtick_1">
     <g id="line2d_1">
      <defs>
       <path id="md3c727c797" d="M 0 0 
L 0 6 
" style="stroke: #262626; stroke-width: 1.25"/>
      </defs>
      <g>
       <use xlink:href="#md3c727c797" x="61.754125" y="145.5" style="fill: #262626; stroke: #262626; stroke-width: 1.25"/>
      </g>
     </g>
     <g id="text_1">
      <!-- A -->
      <g style="fill: #262626" transform="translate(59.419516 160.010469) scale(0.07 -0.07)">
       <defs>
        <path id="ArialMT-41" d="M -9 0 
L 1750 4581 
L 2403 4581 
L 4278 0 
L 3588 0 
L 3053 1388 
L 1138 1388 
L 634 0 
L -9 0 
z
M 1313 1881 
L 2866 1881 
L 2388 3150 
Q 2169 3728 2063 4100 
Q 1975 3659 1816 3225 
L 1313 1881 
z
" transform="scale(0.015625)"/>
       </defs>
       <use xlink:href="#ArialMT-41"/>
      </g>
     </g>
    </g>
    <g id="xtick_2">
     <g id="line2d_2">
      <g>
       <use xlink:href="#md3c727c797" x="113.742375" y="145.5" style="fill: #262626; stroke: #262626; stroke-width: 1.25"/>
      </g>
     </g>
     <g id="text_2">
      <!-- G -->
      <g style="fill: #262626" transform="translate(111.020031 160.010469) scale(0.07 -0.07)">
       <defs>
        <path id="ArialMT-47" d="M 2638 1797 
L 2638 2334 
L 4578 2338 
L 4578 638 
Q 4131 281 3656 101 
Q 3181 -78 2681 -78 
Q 2006 -78 1454 211 
Q 903 500 622 1047 
Q 341 1594 341 2269 
Q 341 2938 620 3517 
Q 900 4097 1425 4378 
Q 1950 4659 2634 4659 
Q 3131 4659 3532 4498 
Q 3934 4338 4162 4050 
Q 4391 3763 4509 3300 
L 3963 3150 
Q 3859 3500 3706 3700 
Q 3553 3900 3268 4020 
Q 2984 4141 2638 4141 
Q 2222 4141 1919 4014 
Q 1616 3888 1430 3681 
Q 1244 3475 1141 3228 
Q 966 2803 966 2306 
Q 966 1694 1177 1281 
Q 1388 869 1791 669 
Q 2194 469 2647 469 
Q 3041 469 3416 620 
Q 3791 772 3984 944 
L 3984 1797 
L 2638 1797 
z
" transform="scale(0.015625)"/>
       </defs>
       <use xlink:href="#ArialMT-47"/>
      </g>
     </g>
    </g>
    <g id="xtick_3">
     <g id="line2d_3">
      <g>
       <use xlink:href="#md3c727c797" x="165.730625" y="145.5" style="fill: #262626; stroke: #262626; stroke-width: 1.25"/>
      </g>
     </g>
     <g id="text_3">
      <!-- C -->
      <g style="fill: #262626" transform="translate(163.202969 160.010469) scale(0.07 -0.07)">
       <defs>
        <path id="ArialMT-43" d="M 3763 1606 
L 4369 1453 
Q 4178 706 3683 314 
Q 3188 -78 2472 -78 
Q 1731 -78 1267 223 
Q 803 525 561 1097 
Q 319 1669 319 2325 
Q 319 3041 592 3573 
Q 866 4106 1370 4382 
Q 1875 4659 2481 4659 
Q 3169 4659 3637 4309 
Q 4106 3959 4291 3325 
L 3694 3184 
Q 3534 3684 3231 3912 
Q 2928 4141 2469 4141 
Q 1941 4141 1586 3887 
Q 1231 3634 1087 3207 
Q 944 2781 944 2328 
Q 944 1744 1114 1308 
Q 1284 872 1643 656 
Q 2003 441 2422 441 
Q 2931 441 3284 734 
Q 3638 1028 3763 1606 
z
" transform="scale(0.015625)"/>
       </defs>
       <use xlink:href="#ArialMT-43"/>
      </g>
     </g>
    </g>
    <g id="xtick_4">
     <g id="line2d_4">
      <g>
       <use xlink:href="#md3c727c797" x="217.718875" y="145.5" style="fill: #262626; stroke: #262626; stroke-width: 1.25"/>
      </g>
     </g>
     <g id="text_4">
      <!-- U -->
      <g style="fill: #262626" transform="translate(215.191219 160.010469) scale(0.07 -0.07)">
       <defs>
        <path id="ArialMT-55" d="M 3500 4581 
L 4106 4581 
L 4106 1934 
Q 4106 1244 3950 837 
Q 3794 431 3386 176 
Q 2978 -78 2316 -78 
Q 1672 -78 1262 144 
Q 853 366 678 786 
Q 503 1206 503 1934 
L 503 4581 
L 1109 4581 
L 1109 1938 
Q 1109 1341 1220 1058 
Q 1331 775 1601 622 
Q 1872 469 2263 469 
Q 2931 469 3215 772 
Q 3500 1075 3500 1938 
L 3500 4581 
z
" transform="scale(0.015625)"/>
       </defs>
       <use xlink:href="#ArialMT-55"/>
      </g>
     </g>
    </g>
    <g id="text_5">
     <!-- 5′ context of synonymous C→U mutation -->
     <g style="fill: #262626" transform="translate(76.444469 170.4975) scale(0.07 -0.07)">
      <defs>
       <path id="ArialMT-35" d="M 266 1200 
L 856 1250 
Q 922 819 1161 601 
Q 1400 384 1738 384 
Q 2144 384 2425 690 
Q 2706 997 2706 1503 
Q 2706 1984 2436 2262 
Q 2166 2541 1728 2541 
Q 1456 2541 1237 2417 
Q 1019 2294 894 2097 
L 366 2166 
L 809 4519 
L 3088 4519 
L 3088 3981 
L 1259 3981 
L 1013 2750 
Q 1425 3038 1878 3038 
Q 2478 3038 2890 2622 
Q 3303 2206 3303 1553 
Q 3303 931 2941 478 
Q 2500 -78 1738 -78 
Q 1113 -78 717 272 
Q 322 622 266 1200 
z
" transform="scale(0.015625)"/>
       <path id="ArialMT-2032" d="M 400 2959 
L 438 3816 
L 600 4581 
L 1244 4581 
L 1078 3816 
L 750 2959 
L 400 2959 
z
" transform="scale(0.015625)"/>
       <path id="ArialMT-20" transform="scale(0.015625)"/>
       <path id="ArialMT-63" d="M 2588 1216 
L 3141 1144 
Q 3050 572 2676 248 
Q 2303 -75 1759 -75 
Q 1078 -75 664 370 
Q 250 816 250 1647 
Q 250 2184 428 2587 
Q 606 2991 970 3192 
Q 1334 3394 1763 3394 
Q 2303 3394 2647 3120 
Q 2991 2847 3088 2344 
L 2541 2259 
Q 2463 2594 2264 2762 
Q 2066 2931 1784 2931 
Q 1359 2931 1093 2626 
Q 828 2322 828 1663 
Q 828 994 1084 691 
Q 1341 388 1753 388 
Q 2084 388 2306 591 
Q 2528 794 2588 1216 
z
" transform="scale(0.015625)"/>
       <path id="ArialMT-6f" d="M 213 1659 
Q 213 2581 725 3025 
Q 1153 3394 1769 3394 
Q 2453 3394 2887 2945 
Q 3322 2497 3322 1706 
Q 3322 1066 3130 698 
Q 2938 331 2570 128 
Q 2203 -75 1769 -75 
Q 1072 -75 642 372 
Q 213 819 213 1659 
z
M 791 1659 
Q 791 1022 1069 705 
Q 1347 388 1769 388 
Q 2188 388 2466 706 
Q 2744 1025 2744 1678 
Q 2744 2294 2464 2611 
Q 2184 2928 1769 2928 
Q 1347 2928 1069 2612 
Q 791 2297 791 1659 
z
" transform="scale(0.015625)"/>
       <path id="ArialMT-6e" d="M 422 0 
L 422 3319 
L 928 3319 
L 928 2847 
Q 1294 3394 1984 3394 
Q 2284 3394 2536 3286 
Q 2788 3178 2913 3003 
Q 3038 2828 3088 2588 
Q 3119 2431 3119 2041 
L 3119 0 
L 2556 0 
L 2556 2019 
Q 2556 2363 2490 2533 
Q 2425 2703 2258 2804 
Q 2091 2906 1866 2906 
Q 1506 2906 1245 2678 
Q 984 2450 984 1813 
L 984 0 
L 422 0 
z
" transform="scale(0.015625)"/>
       <path id="ArialMT-74" d="M 1650 503 
L 1731 6 
Q 1494 -44 1306 -44 
Q 1000 -44 831 53 
Q 663 150 594 308 
Q 525 466 525 972 
L 525 2881 
L 113 2881 
L 113 3319 
L 525 3319 
L 525 4141 
L 1084 4478 
L 1084 3319 
L 1650 3319 
L 1650 2881 
L 1084 2881 
L 1084 941 
Q 1084 700 1114 631 
Q 1144 563 1211 522 
Q 1278 481 1403 481 
Q 1497 481 1650 503 
z
" transform="scale(0.015625)"/>
       <path id="ArialMT-65" d="M 2694 1069 
L 3275 997 
Q 3138 488 2766 206 
Q 2394 -75 1816 -75 
Q 1088 -75 661 373 
Q 234 822 234 1631 
Q 234 2469 665 2931 
Q 1097 3394 1784 3394 
Q 2450 3394 2872 2941 
Q 3294 2488 3294 1666 
Q 3294 1616 3291 1516 
L 816 1516 
Q 847 969 1125 678 
Q 1403 388 1819 388 
Q 2128 388 2347 550 
Q 2566 713 2694 1069 
z
M 847 1978 
L 2700 1978 
Q 2663 2397 2488 2606 
Q 2219 2931 1791 2931 
Q 1403 2931 1139 2672 
Q 875 2413 847 1978 
z
" transform="scale(0.015625)"/>
       <path id="ArialMT-78" d="M 47 0 
L 1259 1725 
L 138 3319 
L 841 3319 
L 1350 2541 
Q 1494 2319 1581 2169 
Q 1719 2375 1834 2534 
L 2394 3319 
L 3066 3319 
L 1919 1756 
L 3153 0 
L 2463 0 
L 1781 1031 
L 1600 1309 
L 728 0 
L 47 0 
z
" transform="scale(0.015625)"/>
       <path id="ArialMT-66" d="M 556 0 
L 556 2881 
L 59 2881 
L 59 3319 
L 556 3319 
L 556 3672 
Q 556 4006 616 4169 
Q 697 4388 901 4523 
Q 1106 4659 1475 4659 
Q 1713 4659 2000 4603 
L 1916 4113 
Q 1741 4144 1584 4144 
Q 1328 4144 1222 4034 
Q 1116 3925 1116 3625 
L 1116 3319 
L 1763 3319 
L 1763 2881 
L 1116 2881 
L 1116 0 
L 556 0 
z
" transform="scale(0.015625)"/>
       <path id="ArialMT-73" d="M 197 991 
L 753 1078 
Q 800 744 1014 566 
Q 1228 388 1613 388 
Q 2000 388 2187 545 
Q 2375 703 2375 916 
Q 2375 1106 2209 1216 
Q 2094 1291 1634 1406 
Q 1016 1563 777 1677 
Q 538 1791 414 1992 
Q 291 2194 291 2438 
Q 291 2659 392 2848 
Q 494 3038 669 3163 
Q 800 3259 1026 3326 
Q 1253 3394 1513 3394 
Q 1903 3394 2198 3281 
Q 2494 3169 2634 2976 
Q 2775 2784 2828 2463 
L 2278 2388 
Q 2241 2644 2061 2787 
Q 1881 2931 1553 2931 
Q 1166 2931 1000 2803 
Q 834 2675 834 2503 
Q 834 2394 903 2306 
Q 972 2216 1119 2156 
Q 1203 2125 1616 2013 
Q 2213 1853 2448 1751 
Q 2684 1650 2818 1456 
Q 2953 1263 2953 975 
Q 2953 694 2789 445 
Q 2625 197 2315 61 
Q 2006 -75 1616 -75 
Q 969 -75 630 194 
Q 291 463 197 991 
z
" transform="scale(0.015625)"/>
       <path id="ArialMT-79" d="M 397 -1278 
L 334 -750 
Q 519 -800 656 -800 
Q 844 -800 956 -737 
Q 1069 -675 1141 -563 
Q 1194 -478 1313 -144 
Q 1328 -97 1363 -6 
L 103 3319 
L 709 3319 
L 1400 1397 
Q 1534 1031 1641 628 
Q 1738 1016 1872 1384 
L 2581 3319 
L 3144 3319 
L 1881 -56 
Q 1678 -603 1566 -809 
Q 1416 -1088 1222 -1217 
Q 1028 -1347 759 -1347 
Q 597 -1347 397 -1278 
z
" transform="scale(0.015625)"/>
       <path id="ArialMT-6d" d="M 422 0 
L 422 3319 
L 925 3319 
L 925 2853 
Q 1081 3097 1340 3245 
Q 1600 3394 1931 3394 
Q 2300 3394 2536 3241 
Q 2772 3088 2869 2813 
Q 3263 3394 3894 3394 
Q 4388 3394 4653 3120 
Q 4919 2847 4919 2278 
L 4919 0 
L 4359 0 
L 4359 2091 
Q 4359 2428 4304 2576 
Q 4250 2725 4106 2815 
Q 3963 2906 3769 2906 
Q 3419 2906 3187 2673 
Q 2956 2441 2956 1928 
L 2956 0 
L 2394 0 
L 2394 2156 
Q 2394 2531 2256 2718 
Q 2119 2906 1806 2906 
Q 1569 2906 1367 2781 
Q 1166 2656 1075 2415 
Q 984 2175 984 1722 
L 984 0 
L 422 0 
z
" transform="scale(0.015625)"/>
       <path id="ArialMT-75" d="M 2597 0 
L 2597 488 
Q 2209 -75 1544 -75 
Q 1250 -75 995 37 
Q 741 150 617 320 
Q 494 491 444 738 
Q 409 903 409 1263 
L 409 3319 
L 972 3319 
L 972 1478 
Q 972 1038 1006 884 
Q 1059 663 1231 536 
Q 1403 409 1656 409 
Q 1909 409 2131 539 
Q 2353 669 2445 892 
Q 2538 1116 2538 1541 
L 2538 3319 
L 3100 3319 
L 3100 0 
L 2597 0 
z
" transform="scale(0.015625)"/>
       <path id="ArialMT-2192" d="M 4859 2738 
Q 5275 2284 5578 2048 
Q 5881 1813 6150 1697 
L 6150 1556 
Q 5841 1406 5550 1173 
Q 5259 941 4856 491 
L 4616 491 
Q 4909 1119 5231 1456 
L 247 1456 
L 247 1772 
L 5231 1772 
Q 4994 2075 4900 2222 
Q 4806 2369 4622 2738 
L 4859 2738 
z
" transform="scale(0.015625)"/>
       <path id="ArialMT-61" d="M 2588 409 
Q 2275 144 1986 34 
Q 1697 -75 1366 -75 
Q 819 -75 525 192 
Q 231 459 231 875 
Q 231 1119 342 1320 
Q 453 1522 633 1644 
Q 813 1766 1038 1828 
Q 1203 1872 1538 1913 
Q 2219 1994 2541 2106 
Q 2544 2222 2544 2253 
Q 2544 2597 2384 2738 
Q 2169 2928 1744 2928 
Q 1347 2928 1158 2789 
Q 969 2650 878 2297 
L 328 2372 
Q 403 2725 575 2942 
Q 747 3159 1072 3276 
Q 1397 3394 1825 3394 
Q 2250 3394 2515 3294 
Q 2781 3194 2906 3042 
Q 3031 2891 3081 2659 
Q 3109 2516 3109 2141 
L 3109 1391 
Q 3109 606 3145 398 
Q 3181 191 3288 0 
L 2700 0 
Q 2613 175 2588 409 
z
M 2541 1666 
Q 2234 1541 1622 1453 
Q 1275 1403 1131 1340 
Q 988 1278 909 1158 
Q 831 1038 831 891 
Q 831 666 1001 516 
Q 1172 366 1500 366 
Q 1825 366 2078 508 
Q 2331 650 2450 897 
Q 2541 1088 2541 1459 
L 2541 1666 
z
" transform="scale(0.015625)"/>
       <path id="ArialMT-69" d="M 425 3934 
L 425 4581 
L 988 4581 
L 988 3934 
L 425 3934 
z
M 425 0 
L 425 3319 
L 988 3319 
L 988 0 
L 425 0 
z
" transform="scale(0.015625)"/>
      </defs>
      <use xlink:href="#ArialMT-35"/>
      <use xlink:href="#ArialMT-2032" x="55.615234"/>
      <use xlink:href="#ArialMT-20" x="74.365234"/>
      <use xlink:href="#ArialMT-63" x="102.148438"/>
      <use xlink:href="#ArialMT-6f" x="152.148438"/>
      <use xlink:href="#ArialMT-6e" x="207.763672"/>
      <use xlink:href="#ArialMT-74" x="263.378906"/>
      <use xlink:href="#ArialMT-65" x="291.162109"/>
      <use xlink:href="#ArialMT-78" x="346.777344"/>
      <use xlink:href="#ArialMT-74" x="396.777344"/>
      <use xlink:href="#ArialMT-20" x="424.560547"/>
      <use xlink:href="#ArialMT-6f" x="452.34375"/>
      <use xlink:href="#ArialMT-66" x="507.958984"/>
      <use xlink:href="#ArialMT-20" x="535.742188"/>
      <use xlink:href="#ArialMT-73" x="563.525391"/>
      <use xlink:href="#ArialMT-79" x="613.525391"/>
      <use xlink:href="#ArialMT-6e" x="663.525391"/>
      <use xlink:href="#ArialMT-6f" x="719.140625"/>
      <use xlink:href="#ArialMT-6e" x="774.755859"/>
      <use xlink:href="#ArialMT-79" x="830.371094"/>
      <use xlink:href="#ArialMT-6d" x="880.371094"/>
      <use xlink:href="#ArialMT-6f" x="963.671875"/>
      <use xlink:href="#ArialMT-75" x="1019.287109"/>
      <use xlink:href="#ArialMT-73" x="1074.902344"/>
      <use xlink:href="#ArialMT-20" x="1124.902344"/>
      <use xlink:href="#ArialMT-43" x="1152.685547"/>
      <use xlink:href="#ArialMT-2192" x="1224.902344"/>
      <use xlink:href="#ArialMT-55" x="1324.902344"/>
      <use xlink:href="#ArialMT-20" x="1397.119141"/>
      <use xlink:href="#ArialMT-6d" x="1424.902344"/>
      <use xlink:href="#ArialMT-75" x="1508.203125"/>
      <use xlink:href="#ArialMT-74" x="1563.818359"/>
      <use xlink:href="#ArialMT-61" x="1591.601562"/>
      <use xlink:href="#ArialMT-74" x="1647.216797"/>
      <use xlink:href="#ArialMT-69" x="1675"/>
      <use xlink:href="#ArialMT-6f" x="1697.216797"/>
      <use xlink:href="#ArialMT-6e" x="1752.832031"/>
     </g>
    </g>
   </g>
   <g id="matplotlib.axis_2">
    <g id="ytick_1">
     <g id="line2d_5">
      <defs>
       <path id="mcf41cec063" d="M 0 0 
L -6 0 
" style="stroke: #262626; stroke-width: 1.25"/>
      </defs>
      <g>
       <use xlink:href="#mcf41cec063" x="35.76" y="134.005" style="fill: #262626; stroke: #262626; stroke-width: 1.25"/>
      </g>
     </g>
     <g id="text_6">
      <!-- −3 -->
      <g style="fill: #262626" transform="translate(18.278906 136.510234) scale(0.07 -0.07)">
       <defs>
        <path id="ArialMT-2212" d="M 3381 1997 
L 356 1997 
L 356 2522 
L 3381 2522 
L 3381 1997 
z
" transform="scale(0.015625)"/>
        <path id="ArialMT-33" d="M 269 1209 
L 831 1284 
Q 928 806 1161 595 
Q 1394 384 1728 384 
Q 2125 384 2398 659 
Q 2672 934 2672 1341 
Q 2672 1728 2419 1979 
Q 2166 2231 1775 2231 
Q 1616 2231 1378 2169 
L 1441 2663 
Q 1497 2656 1531 2656 
Q 1891 2656 2178 2843 
Q 2466 3031 2466 3422 
Q 2466 3731 2256 3934 
Q 2047 4138 1716 4138 
Q 1388 4138 1169 3931 
Q 950 3725 888 3313 
L 325 3413 
Q 428 3978 793 4289 
Q 1159 4600 1703 4600 
Q 2078 4600 2393 4439 
Q 2709 4278 2876 4000 
Q 3044 3722 3044 3409 
Q 3044 3113 2884 2869 
Q 2725 2625 2413 2481 
Q 2819 2388 3044 2092 
Q 3269 1797 3269 1353 
Q 3269 753 2831 336 
Q 2394 -81 1725 -81 
Q 1122 -81 723 278 
Q 325 638 269 1209 
z
" transform="scale(0.015625)"/>
       </defs>
       <use xlink:href="#ArialMT-2212"/>
       <use xlink:href="#ArialMT-33" x="58.398438"/>
      </g>
     </g>
    </g>
    <g id="ytick_2">
     <g id="line2d_6">
      <g>
       <use xlink:href="#mcf41cec063" x="35.76" y="111.015" style="fill: #262626; stroke: #262626; stroke-width: 1.25"/>
      </g>
     </g>
     <g id="text_7">
      <!-- −2 -->
      <g style="fill: #262626" transform="translate(18.278906 113.520234) scale(0.07 -0.07)">
       <defs>
        <path id="ArialMT-32" d="M 3222 541 
L 3222 0 
L 194 0 
Q 188 203 259 391 
Q 375 700 629 1000 
Q 884 1300 1366 1694 
Q 2113 2306 2375 2664 
Q 2638 3022 2638 3341 
Q 2638 3675 2398 3904 
Q 2159 4134 1775 4134 
Q 1369 4134 1125 3890 
Q 881 3647 878 3216 
L 300 3275 
Q 359 3922 746 4261 
Q 1134 4600 1788 4600 
Q 2447 4600 2831 4234 
Q 3216 3869 3216 3328 
Q 3216 3053 3103 2787 
Q 2991 2522 2730 2228 
Q 2469 1934 1863 1422 
Q 1356 997 1212 845 
Q 1069 694 975 541 
L 3222 541 
z
" transform="scale(0.015625)"/>
       </defs>
       <use xlink:href="#ArialMT-2212"/>
       <use xlink:href="#ArialMT-32" x="58.398438"/>
      </g>
     </g>
    </g>
    <g id="ytick_3">
     <g id="line2d_7">
      <g>
       <use xlink:href="#mcf41cec063" x="35.76" y="88.025" style="fill: #262626; stroke: #262626; stroke-width: 1.25"/>
      </g>
     </g>
     <g id="text_8">
      <!-- −1 -->
      <g style="fill: #262626" transform="translate(18.278906 90.530234) scale(0.07 -0.07)">
       <defs>
        <path id="ArialMT-31" d="M 2384 0 
L 1822 0 
L 1822 3584 
Q 1619 3391 1289 3197 
Q 959 3003 697 2906 
L 697 3450 
Q 1169 3672 1522 3987 
Q 1875 4303 2022 4600 
L 2384 4600 
L 2384 0 
z
" transform="scale(0.015625)"/>
       </defs>
       <use xlink:href="#ArialMT-2212"/>
       <use xlink:href="#ArialMT-31" x="58.398438"/>
      </g>
     </g>
    </g>
    <g id="ytick_4">
     <g id="line2d_8">
      <g>
       <use xlink:href="#mcf41cec063" x="35.76" y="65.035" style="fill: #262626; stroke: #262626; stroke-width: 1.25"/>
      </g>
     </g>
     <g id="text_9">
      <!-- 0 -->
      <g style="fill: #262626" transform="translate(22.367344 67.540234) scale(0.07 -0.07)">
       <defs>
        <path id="ArialMT-30" d="M 266 2259 
Q 266 3072 433 3567 
Q 600 4063 929 4331 
Q 1259 4600 1759 4600 
Q 2128 4600 2406 4451 
Q 2684 4303 2865 4023 
Q 3047 3744 3150 3342 
Q 3253 2941 3253 2259 
Q 3253 1453 3087 958 
Q 2922 463 2592 192 
Q 2263 -78 1759 -78 
Q 1097 -78 719 397 
Q 266 969 266 2259 
z
M 844 2259 
Q 844 1131 1108 757 
Q 1372 384 1759 384 
Q 2147 384 2411 759 
Q 2675 1134 2675 2259 
Q 2675 3391 2411 3762 
Q 2147 4134 1753 4134 
Q 1366 4134 1134 3806 
Q 844 3388 844 2259 
z
" transform="scale(0.015625)"/>
       </defs>
       <use xlink:href="#ArialMT-30"/>
      </g>
     </g>
    </g>
    <g id="ytick_5">
     <g id="line2d_9">
      <g>
       <use xlink:href="#mcf41cec063" x="35.76" y="42.045" style="fill: #262626; stroke: #262626; stroke-width: 1.25"/>
      </g>
     </g>
     <g id="text_10">
      <!-- 1 -->
      <g style="fill: #262626" transform="translate(22.367344 44.550234) scale(0.07 -0.07)">
       <use xlink:href="#ArialMT-31"/>
      </g>
     </g>
    </g>
    <g id="ytick_6">
     <g id="line2d_10">
      <g>
       <use xlink:href="#mcf41cec063" x="35.76" y="19.055" style="fill: #262626; stroke: #262626; stroke-width: 1.25"/>
      </g>
     </g>
     <g id="text_11">
      <!-- 2 -->
      <g style="fill: #262626" transform="translate(22.367344 21.560234) scale(0.07 -0.07)">
       <use xlink:href="#ArialMT-32"/>
      </g>
     </g>
    </g>
    <g id="text_12">
     <!-- Estimated mutational fitness -->
     <g style="fill: #262626" transform="translate(12.887656 120.298047) rotate(-90) scale(0.07 -0.07)">
      <defs>
       <path id="ArialMT-45" d="M 506 0 
L 506 4581 
L 3819 4581 
L 3819 4041 
L 1113 4041 
L 1113 2638 
L 3647 2638 
L 3647 2100 
L 1113 2100 
L 1113 541 
L 3925 541 
L 3925 0 
L 506 0 
z
" transform="scale(0.015625)"/>
       <path id="ArialMT-64" d="M 2575 0 
L 2575 419 
Q 2259 -75 1647 -75 
Q 1250 -75 917 144 
Q 584 363 401 755 
Q 219 1147 219 1656 
Q 219 2153 384 2558 
Q 550 2963 881 3178 
Q 1213 3394 1622 3394 
Q 1922 3394 2156 3267 
Q 2391 3141 2538 2938 
L 2538 4581 
L 3097 4581 
L 3097 0 
L 2575 0 
z
M 797 1656 
Q 797 1019 1065 703 
Q 1334 388 1700 388 
Q 2069 388 2326 689 
Q 2584 991 2584 1609 
Q 2584 2291 2321 2609 
Q 2059 2928 1675 2928 
Q 1300 2928 1048 2622 
Q 797 2316 797 1656 
z
" transform="scale(0.015625)"/>
       <path id="ArialMT-6c" d="M 409 0 
L 409 4581 
L 972 4581 
L 972 0 
L 409 0 
z
" transform="scale(0.015625)"/>
      </defs>
      <use xlink:href="#ArialMT-45"/>
      <use xlink:href="#ArialMT-73" x="66.699219"/>
      <use xlink:href="#ArialMT-74" x="116.699219"/>
      <use xlink:href="#ArialMT-69" x="144.482422"/>
      <use xlink:href="#ArialMT-6d" x="166.699219"/>
      <use xlink:href="#ArialMT-61" x="250"/>
      <use xlink:href="#ArialMT-74" x="305.615234"/>
      <use xlink:href="#ArialMT-65" x="333.398438"/>
      <use xlink:href="#ArialMT-64" x="389.013672"/>
      <use xlink:href="#ArialMT-20" x="444.628906"/>
      <use xlink:href="#ArialMT-6d" x="472.412109"/>
      <use xlink:href="#ArialMT-75" x="555.712891"/>
      <use xlink:href="#ArialMT-74" x="611.328125"/>
      <use xlink:href="#ArialMT-61" x="639.111328"/>
      <use xlink:href="#ArialMT-74" x="694.726562"/>
      <use xlink:href="#ArialMT-69" x="722.509766"/>
      <use xlink:href="#ArialMT-6f" x="744.726562"/>
      <use xlink:href="#ArialMT-6e" x="800.341797"/>
      <use xlink:href="#ArialMT-61" x="855.957031"/>
      <use xlink:href="#ArialMT-6c" x="911.572266"/>
      <use xlink:href="#ArialMT-20" x="933.789062"/>
      <use xlink:href="#ArialMT-66" x="961.572266"/>
      <use xlink:href="#ArialMT-69" x="989.355469"/>
      <use xlink:href="#ArialMT-74" x="1011.572266"/>
      <use xlink:href="#ArialMT-6e" x="1039.355469"/>
      <use xlink:href="#ArialMT-65" x="1094.970703"/>
      <use xlink:href="#ArialMT-73" x="1150.585938"/>
      <use xlink:href="#ArialMT-73" x="1200.585938"/>
     </g>
    </g>
   </g>
   <g id="PolyCollection_1">
    <defs>
     <path id="m0485a6c6af" d="M 59.674595 -62.672069 
L 59.644593 -62.672069 
L 59.62981 -63.715232 
L 59.609685 -64.758395 
L 59.583185 -65.801558 
L 59.549424 -66.844721 
L 59.507794 -67.887884 
L 59.458088 -68.931047 
L 59.400593 -69.97421 
L 59.33613 -71.017373 
L 59.266022 -72.060536 
L 59.191982 -73.103698 
L 59.11593 -74.146861 
L 59.039731 -75.190024 
L 58.964899 -76.233187 
L 58.892269 -77.27635 
L 58.821687 -78.319513 
L 58.751763 -79.362676 
L 58.679728 -80.405839 
L 58.601451 -81.449002 
L 58.511659 -82.492165 
L 58.404375 -83.535328 
L 58.273537 -84.578491 
L 58.113745 -85.621654 
L 57.921004 -86.664817 
L 57.693332 -87.70798 
L 57.4311 -88.751143 
L 57.137016 -89.794306 
L 56.815759 -90.837469 
L 56.473337 -91.880632 
L 56.116331 -92.923795 
L 55.751242 -93.966958 
L 55.384119 -95.010121 
L 55.020553 -96.053284 
L 54.666042 -97.096447 
L 54.326539 -98.13961 
L 54.008945 -99.182773 
L 53.72126 -100.225936 
L 53.472191 -101.269098 
L 53.270156 -102.312261 
L 53.121838 -103.355424 
L 53.03058 -104.398587 
L 52.995041 -105.44175 
L 53.008487 -106.484913 
L 53.058971 -107.528076 
L 53.130435 -108.571239 
L 53.204536 -109.614402 
L 53.262837 -110.657565 
L 53.288895 -111.700728 
L 53.269841 -112.743891 
L 53.197164 -113.787054 
L 53.06663 -114.830217 
L 52.877455 -115.87338 
L 52.63101 -116.916543 
L 52.329434 -117.959706 
L 51.974501 -119.002869 
L 51.567045 -120.046032 
L 51.107064 -121.089195 
L 50.594502 -122.132358 
L 50.030549 -123.175521 
L 49.419199 -124.218684 
L 48.768743 -125.261847 
L 48.092902 -126.30501 
L 47.411326 -127.348173 
L 46.749334 -128.391335 
L 46.136809 -129.434498 
L 45.606341 -130.477661 
L 45.190768 -131.520824 
L 44.920352 -132.563987 
L 44.819891 -133.60715 
L 44.906114 -134.650313 
L 45.18568 -135.693476 
L 45.654099 -136.736639 
L 46.295787 -137.779802 
L 47.085321 -138.822965 
L 47.98981 -139.866128 
L 48.972053 -140.909291 
L 49.994047 -141.952454 
L 51.020316 -142.995617 
L 52.020566 -144.03878 
L 52.971328 -145.081943 
L 53.856489 -146.125106 
L 54.666804 -147.168269 
L 55.398696 -148.211432 
L 56.05273 -149.254595 
L 56.632089 -150.297758 
L 57.141345 -151.340921 
L 57.585601 -152.384084 
L 57.970026 -153.427247 
L 58.299668 -154.47041 
L 58.579434 -155.513573 
L 58.814127 -156.556735 
L 59.008476 -157.599898 
L 59.167137 -158.643061 
L 59.29465 -159.686224 
L 59.395391 -160.729387 
L 59.473505 -161.77255 
L 59.532851 -162.815713 
L 59.57695 -163.858876 
L 59.608947 -164.902039 
L 59.631577 -165.945202 
L 59.674595 -165.945202 
L 59.674595 -165.945202 
L 59.674595 -164.902039 
L 59.674595 -163.858876 
L 59.674595 -162.815713 
L 59.674595 -161.77255 
L 59.674595 -160.729387 
L 59.674595 -159.686224 
L 59.674595 -158.643061 
L 59.674595 -157.599898 
L 59.674595 -156.556735 
L 59.674595 -155.513573 
L 59.674595 -154.47041 
L 59.674595 -153.427247 
L 59.674595 -152.384084 
L 59.674595 -151.340921 
L 59.674595 -150.297758 
L 59.674595 -149.254595 
L 59.674595 -148.211432 
L 59.674595 -147.168269 
L 59.674595 -146.125106 
L 59.674595 -145.081943 
L 59.674595 -144.03878 
L 59.674595 -142.995617 
L 59.674595 -141.952454 
L 59.674595 -140.909291 
L 59.674595 -139.866128 
L 59.674595 -138.822965 
L 59.674595 -137.779802 
L 59.674595 -136.736639 
L 59.674595 -135.693476 
L 59.674595 -134.650313 
L 59.674595 -133.60715 
L 59.674595 -132.563987 
L 59.674595 -131.520824 
L 59.674595 -130.477661 
L 59.674595 -129.434498 
L 59.674595 -128.391335 
L 59.674595 -127.348173 
L 59.674595 -126.30501 
L 59.674595 -125.261847 
L 59.674595 -124.218684 
L 59.674595 -123.175521 
L 59.674595 -122.132358 
L 59.674595 -121.089195 
L 59.674595 -120.046032 
L 59.674595 -119.002869 
L 59.674595 -117.959706 
L 59.674595 -116.916543 
L 59.674595 -115.87338 
L 59.674595 -114.830217 
L 59.674595 -113.787054 
L 59.674595 -112.743891 
L 59.674595 -111.700728 
L 59.674595 -110.657565 
L 59.674595 -109.614402 
L 59.674595 -108.571239 
L 59.674595 -107.528076 
L 59.674595 -106.484913 
L 59.674595 -105.44175 
L 59.674595 -104.398587 
L 59.674595 -103.355424 
L 59.674595 -102.312261 
L 59.674595 -101.269098 
L 59.674595 -100.225936 
L 59.674595 -99.182773 
L 59.674595 -98.13961 
L 59.674595 -97.096447 
L 59.674595 -96.053284 
L 59.674595 -95.010121 
L 59.674595 -93.966958 
L 59.674595 -92.923795 
L 59.674595 -91.880632 
L 59.674595 -90.837469 
L 59.674595 -89.794306 
L 59.674595 -88.751143 
L 59.674595 -87.70798 
L 59.674595 -86.664817 
L 59.674595 -85.621654 
L 59.674595 -84.578491 
L 59.674595 -83.535328 
L 59.674595 -82.492165 
L 59.674595 -81.449002 
L 59.674595 -80.405839 
L 59.674595 -79.362676 
L 59.674595 -78.319513 
L 59.674595 -77.27635 
L 59.674595 -76.233187 
L 59.674595 -75.190024 
L 59.674595 -74.146861 
L 59.674595 -73.103698 
L 59.674595 -72.060536 
L 59.674595 -71.017373 
L 59.674595 -69.97421 
L 59.674595 -68.931047 
L 59.674595 -67.887884 
L 59.674595 -66.844721 
L 59.674595 -65.801558 
L 59.674595 -64.758395 
L 59.674595 -63.715232 
L 59.674595 -62.672069 
z
"/>
    </defs>
    <g clip-path="url(#p343dfdd319)">
     <use xlink:href="#m0485a6c6af" x="0" y="180" style="fill: #2b8e70"/>
    </g>
   </g>
   <g id="PolyCollection_2">
    <defs>
     <path id="m1d09f38a4a" d="M 63.860051 -47.663063 
L 63.833655 -47.663063 
L 63.833655 -48.679079 
L 63.833655 -49.695095 
L 63.833655 -50.711111 
L 63.833655 -51.727127 
L 63.833655 -52.743143 
L 63.833655 -53.759159 
L 63.833655 -54.775174 
L 63.833655 -55.79119 
L 63.833655 -56.807206 
L 63.833655 -57.823222 
L 63.833655 -58.839238 
L 63.833655 -59.855254 
L 63.833655 -60.87127 
L 63.833655 -61.887285 
L 63.833655 -62.903301 
L 63.833655 -63.919317 
L 63.833655 -64.935333 
L 63.833655 -65.951349 
L 63.833655 -66.967365 
L 63.833655 -67.983381 
L 63.833655 -68.999396 
L 63.833655 -70.015412 
L 63.833655 -71.031428 
L 63.833655 -72.047444 
L 63.833655 -73.06346 
L 63.833655 -74.079476 
L 63.833655 -75.095492 
L 63.833655 -76.111507 
L 63.833655 -77.127523 
L 63.833655 -78.143539 
L 63.833655 -79.159555 
L 63.833655 -80.175571 
L 63.833655 -81.191587 
L 63.833655 -82.207603 
L 63.833655 -83.223619 
L 63.833655 -84.239634 
L 63.833655 -85.25565 
L 63.833655 -86.271666 
L 63.833655 -87.287682 
L 63.833655 -88.303698 
L 63.833655 -89.319714 
L 63.833655 -90.33573 
L 63.833655 -91.351745 
L 63.833655 -92.367761 
L 63.833655 -93.383777 
L 63.833655 -94.399793 
L 63.833655 -95.415809 
L 63.833655 -96.431825 
L 63.833655 -97.447841 
L 63.833655 -98.463856 
L 63.833655 -99.479872 
L 63.833655 -100.495888 
L 63.833655 -101.511904 
L 63.833655 -102.52792 
L 63.833655 -103.543936 
L 63.833655 -104.559952 
L 63.833655 -105.575967 
L 63.833655 -106.591983 
L 63.833655 -107.607999 
L 63.833655 -108.624015 
L 63.833655 -109.640031 
L 63.833655 -110.656047 
L 63.833655 -111.672063 
L 63.833655 -112.688078 
L 63.833655 -113.704094 
L 63.833655 -114.72011 
L 63.833655 -115.736126 
L 63.833655 -116.752142 
L 63.833655 -117.768158 
L 63.833655 -118.784174 
L 63.833655 -119.80019 
L 63.833655 -120.816205 
L 63.833655 -121.832221 
L 63.833655 -122.848237 
L 63.833655 -123.864253 
L 63.833655 -124.880269 
L 63.833655 -125.896285 
L 63.833655 -126.912301 
L 63.833655 -127.928316 
L 63.833655 -128.944332 
L 63.833655 -129.960348 
L 63.833655 -130.976364 
L 63.833655 -131.99238 
L 63.833655 -133.008396 
L 63.833655 -134.024412 
L 63.833655 -135.040427 
L 63.833655 -136.056443 
L 63.833655 -137.072459 
L 63.833655 -138.088475 
L 63.833655 -139.104491 
L 63.833655 -140.120507 
L 63.833655 -141.136523 
L 63.833655 -142.152538 
L 63.833655 -143.168554 
L 63.833655 -144.18457 
L 63.833655 -145.200586 
L 63.833655 -146.216602 
L 63.833655 -147.232618 
L 63.833655 -148.248634 
L 63.887714 -148.248634 
L 63.887714 -148.248634 
L 63.920503 -147.232618 
L 63.968672 -146.216602 
L 64.03692 -145.200586 
L 64.130196 -144.18457 
L 64.253195 -143.168554 
L 64.409691 -142.152538 
L 64.601817 -141.136523 
L 64.829385 -140.120507 
L 65.089403 -139.104491 
L 65.375917 -138.088475 
L 65.680244 -137.072459 
L 65.991616 -136.056443 
L 66.298156 -135.040427 
L 66.58804 -134.024412 
L 66.850704 -133.008396 
L 67.07796 -131.99238 
L 67.264935 -130.976364 
L 67.410779 -129.960348 
L 67.519085 -128.944332 
L 67.597946 -127.928316 
L 67.659548 -126.912301 
L 67.71922 -125.896285 
L 67.793953 -124.880269 
L 67.900522 -123.864253 
L 68.05351 -122.848237 
L 68.263587 -121.832221 
L 68.536397 -120.816205 
L 68.872252 -119.80019 
L 69.266671 -118.784174 
L 69.711587 -117.768158 
L 70.196919 -116.752142 
L 70.712167 -115.736126 
L 71.247718 -114.72011 
L 71.795654 -113.704094 
L 72.349971 -112.688078 
L 72.906254 -111.672063 
L 73.460954 -110.656047 
L 74.010532 -109.640031 
L 74.550748 -108.624015 
L 75.076344 -107.607999 
L 75.581278 -106.591983 
L 76.059411 -105.575967 
L 76.505405 -104.559952 
L 76.915409 -103.543936 
L 77.287147 -102.52792 
L 77.619197 -101.511904 
L 77.909594 -100.495888 
L 78.154188 -99.479872 
L 78.345405 -98.463856 
L 78.472037 -97.447841 
L 78.520384 -96.431825 
L 78.476662 -95.415809 
L 78.330133 -94.399793 
L 78.076153 -93.383777 
L 77.718288 -92.367761 
L 77.268901 -91.351745 
L 76.747981 -90.33573 
L 76.18047 -89.319714 
L 75.592632 -88.303698 
L 75.008255 -87.287682 
L 74.445444 -86.271666 
L 73.914607 -85.25565 
L 73.417996 -84.239634 
L 72.95082 -83.223619 
L 72.503631 -82.207603 
L 72.06541 -81.191587 
L 71.626636 -80.175571 
L 71.181638 -79.159555 
L 70.729698 -78.143539 
L 70.274756 -77.127523 
L 69.823892 -76.111507 
L 69.385137 -75.095492 
L 68.965286 -74.079476 
L 68.568331 -73.06346 
L 68.194894 -72.047444 
L 67.842686 -71.031428 
L 67.507721 -70.015412 
L 67.185805 -68.999396 
L 66.873825 -67.983381 
L 66.570487 -66.967365 
L 66.27641 -65.951349 
L 65.993668 -64.935333 
L 65.725036 -63.919317 
L 65.473236 -62.903301 
L 65.240375 -61.887285 
L 65.027695 -60.87127 
L 64.835603 -59.855254 
L 64.663875 -58.839238 
L 64.511914 -57.823222 
L 64.378962 -56.807206 
L 64.264199 -55.79119 
L 64.166748 -54.775174 
L 64.085613 -53.759159 
L 64.019598 -52.743143 
L 63.967272 -51.727127 
L 63.926978 -50.711111 
L 63.896903 -49.695095 
L 63.87519 -48.679079 
L 63.860051 -47.663063 
z
"/>
    </defs>
    <g clip-path="url(#p343dfdd319)">
     <use xlink:href="#m1d09f38a4a" x="0" y="180" style="fill: #be631d"/>
    </g>
   </g>
   <g id="PolyCollection_3">
    <defs>
     <path id="mc3f022e64c" d="M 111.662845 -68.296642 
L 111.536827 -68.296642 
L 111.49458 -69.380791 
L 111.442388 -70.46494 
L 111.379305 -71.549089 
L 111.304658 -72.633237 
L 111.218104 -73.717386 
L 111.119629 -74.801535 
L 111.009488 -75.885684 
L 110.888081 -76.969833 
L 110.755764 -78.053981 
L 110.612622 -79.13813 
L 110.458245 -80.222279 
L 110.291533 -81.306428 
L 110.110599 -82.390576 
L 109.912793 -83.474725 
L 109.694878 -84.558874 
L 109.453356 -85.643023 
L 109.184916 -86.727171 
L 108.886949 -87.81132 
L 108.558057 -88.895469 
L 108.198475 -89.979618 
L 107.810336 -91.063767 
L 107.397727 -92.147915 
L 106.966509 -93.232064 
L 106.523915 -94.316213 
L 106.077987 -95.400362 
L 105.636904 -96.48451 
L 105.208305 -97.568659 
L 104.798679 -98.652808 
L 104.412917 -99.736957 
L 104.05404 -100.821105 
L 103.723173 -101.905254 
L 103.419707 -102.989403 
L 103.141663 -104.073552 
L 102.886171 -105.157701 
L 102.650012 -106.241849 
L 102.430154 -107.325998 
L 102.224207 -108.410147 
L 102.030744 -109.494296 
L 101.849451 -110.578444 
L 101.681093 -111.662593 
L 101.527307 -112.746742 
L 101.390261 -113.830891 
L 101.272239 -114.915039 
L 101.175231 -115.999188 
L 101.100578 -117.083337 
L 101.048758 -118.167486 
L 101.019326 -119.251635 
L 101.011041 -120.335783 
L 101.022136 -121.419932 
L 101.050704 -122.504081 
L 101.095133 -123.58823 
L 101.154518 -124.672378 
L 101.228998 -125.756527 
L 101.319943 -126.840676 
L 101.429991 -127.924825 
L 101.562893 -129.008974 
L 101.723194 -130.093122 
L 101.915774 -131.177271 
L 102.145292 -132.26142 
L 102.415606 -133.345569 
L 102.729207 -134.429717 
L 103.086763 -135.513866 
L 103.486794 -136.598015 
L 103.925551 -137.682164 
L 104.397093 -138.766312 
L 104.893574 -139.850461 
L 105.405695 -140.93461 
L 105.923296 -142.018759 
L 106.436008 -143.102908 
L 106.933901 -144.187056 
L 107.408085 -145.271205 
L 107.851194 -146.355354 
L 108.257725 -147.439503 
L 108.62423 -148.523651 
L 108.949336 -149.6078 
L 109.233623 -150.691949 
L 109.479382 -151.776098 
L 109.690276 -152.860246 
L 109.870937 -153.944395 
L 110.026545 -155.028544 
L 110.162399 -156.112693 
L 110.283544 -157.196842 
L 110.394445 -158.28099 
L 110.498752 -159.365139 
L 110.599165 -160.449288 
L 110.697387 -161.533437 
L 110.794183 -162.617585 
L 110.889507 -163.701734 
L 110.982688 -164.785883 
L 111.072644 -165.870032 
L 111.158108 -166.95418 
L 111.23782 -168.038329 
L 111.310699 -169.122478 
L 111.375949 -170.206627 
L 111.433125 -171.290776 
L 111.482143 -172.374924 
L 111.523253 -173.459073 
L 111.556977 -174.543222 
L 111.584038 -175.627371 
L 111.662845 -175.627371 
L 111.662845 -175.627371 
L 111.662845 -174.543222 
L 111.662845 -173.459073 
L 111.662845 -172.374924 
L 111.662845 -171.290776 
L 111.662845 -170.206627 
L 111.662845 -169.122478 
L 111.662845 -168.038329 
L 111.662845 -166.95418 
L 111.662845 -165.870032 
L 111.662845 -164.785883 
L 111.662845 -163.701734 
L 111.662845 -162.617585 
L 111.662845 -161.533437 
L 111.662845 -160.449288 
L 111.662845 -159.365139 
L 111.662845 -158.28099 
L 111.662845 -157.196842 
L 111.662845 -156.112693 
L 111.662845 -155.028544 
L 111.662845 -153.944395 
L 111.662845 -152.860246 
L 111.662845 -151.776098 
L 111.662845 -150.691949 
L 111.662845 -149.6078 
L 111.662845 -148.523651 
L 111.662845 -147.439503 
L 111.662845 -146.355354 
L 111.662845 -145.271205 
L 111.662845 -144.187056 
L 111.662845 -143.102908 
L 111.662845 -142.018759 
L 111.662845 -140.93461 
L 111.662845 -139.850461 
L 111.662845 -138.766312 
L 111.662845 -137.682164 
L 111.662845 -136.598015 
L 111.662845 -135.513866 
L 111.662845 -134.429717 
L 111.662845 -133.345569 
L 111.662845 -132.26142 
L 111.662845 -131.177271 
L 111.662845 -130.093122 
L 111.662845 -129.008974 
L 111.662845 -127.924825 
L 111.662845 -126.840676 
L 111.662845 -125.756527 
L 111.662845 -124.672378 
L 111.662845 -123.58823 
L 111.662845 -122.504081 
L 111.662845 -121.419932 
L 111.662845 -120.335783 
L 111.662845 -119.251635 
L 111.662845 -118.167486 
L 111.662845 -117.083337 
L 111.662845 -115.999188 
L 111.662845 -114.915039 
L 111.662845 -113.830891 
L 111.662845 -112.746742 
L 111.662845 -111.662593 
L 111.662845 -110.578444 
L 111.662845 -109.494296 
L 111.662845 -108.410147 
L 111.662845 -107.325998 
L 111.662845 -106.241849 
L 111.662845 -105.157701 
L 111.662845 -104.073552 
L 111.662845 -102.989403 
L 111.662845 -101.905254 
L 111.662845 -100.821105 
L 111.662845 -99.736957 
L 111.662845 -98.652808 
L 111.662845 -97.568659 
L 111.662845 -96.48451 
L 111.662845 -95.400362 
L 111.662845 -94.316213 
L 111.662845 -93.232064 
L 111.662845 -92.147915 
L 111.662845 -91.063767 
L 111.662845 -89.979618 
L 111.662845 -88.895469 
L 111.662845 -87.81132 
L 111.662845 -86.727171 
L 111.662845 -85.643023 
L 111.662845 -84.558874 
L 111.662845 -83.474725 
L 111.662845 -82.390576 
L 111.662845 -81.306428 
L 111.662845 -80.222279 
L 111.662845 -79.13813 
L 111.662845 -78.053981 
L 111.662845 -76.969833 
L 111.662845 -75.885684 
L 111.662845 -74.801535 
L 111.662845 -73.717386 
L 111.662845 -72.633237 
L 111.662845 -71.549089 
L 111.662845 -70.46494 
L 111.662845 -69.380791 
L 111.662845 -68.296642 
z
"/>
    </defs>
    <g clip-path="url(#p343dfdd319)">
     <use xlink:href="#mc3f022e64c" x="0" y="180" style="fill: #2b8e70"/>
    </g>
   </g>
   <g id="PolyCollection_4">
    <path d="M 115.846662 218.548273 
L 115.821905 218.548273 
L 115.821905 216.624315 
L 115.821905 214.700357 
L 115.821905 212.776399 
L 115.821905 210.852441 
L 115.821905 208.928483 
L 115.821905 207.004525 
L 115.821905 205.080567 
L 115.821905 203.156609 
L 115.821905 201.232651 
L 115.821905 199.308693 
L 115.821905 197.384735 
L 115.821905 195.460777 
L 115.821905 193.536819 
L 115.821905 191.612861 
L 115.821905 189.688903 
L 115.821905 187.764945 
L 115.821905 185.840987 
L 115.821905 183.917029 
L 115.821905 181.993071 
L 115.821905 180.069112 
L 115.821905 178.145154 
L 115.821905 176.221196 
L 115.821905 174.297238 
L 115.821905 172.37328 
L 115.821905 170.449322 
L 115.821905 168.525364 
L 115.821905 166.601406 
L 115.821905 164.677448 
L 115.821905 162.75349 
L 115.821905 160.829532 
L 115.821905 158.905574 
L 115.821905 156.981616 
L 115.821905 155.057658 
L 115.821905 153.1337 
L 115.821905 151.209742 
L 115.821905 149.285784 
L 115.821905 147.361826 
L 115.821905 145.437868 
L 115.821905 143.51391 
L 115.821905 141.589952 
L 115.821905 139.665994 
L 115.821905 137.742036 
L 115.821905 135.818078 
L 115.821905 133.89412 
L 115.821905 131.970162 
L 115.821905 130.046204 
L 115.821905 128.122246 
L 115.821905 126.198288 
L 115.821905 124.27433 
L 115.821905 122.350372 
L 115.821905 120.426414 
L 115.821905 118.502456 
L 115.821905 116.578498 
L 115.821905 114.65454 
L 115.821905 112.730582 
L 115.821905 110.806624 
L 115.821905 108.882666 
L 115.821905 106.958708 
L 115.821905 105.03475 
L 115.821905 103.110792 
L 115.821905 101.186834 
L 115.821905 99.262876 
L 115.821905 97.338918 
L 115.821905 95.41496 
L 115.821905 93.491002 
L 115.821905 91.567044 
L 115.821905 89.643086 
L 115.821905 87.719128 
L 115.821905 85.79517 
L 115.821905 83.871212 
L 115.821905 81.947254 
L 115.821905 80.023296 
L 115.821905 78.099338 
L 115.821905 76.17538 
L 115.821905 74.251422 
L 115.821905 72.327464 
L 115.821905 70.403506 
L 115.821905 68.479548 
L 115.821905 66.55559 
L 115.821905 64.631631 
L 115.821905 62.707673 
L 115.821905 60.783715 
L 115.821905 58.859757 
L 115.821905 56.935799 
L 115.821905 55.011841 
L 115.821905 53.087883 
L 115.821905 51.163925 
L 115.821905 49.239967 
L 115.821905 47.316009 
L 115.821905 45.392051 
L 115.821905 43.468093 
L 115.821905 41.544135 
L 115.821905 39.620177 
L 115.821905 37.696219 
L 115.821905 35.772261 
L 115.821905 33.848303 
L 115.821905 31.924345 
L 115.821905 30.000387 
L 115.821905 28.076429 
L 115.868002 28.076429 
L 115.868002 28.076429 
L 115.906868 30.000387 
L 115.965207 31.924345 
L 116.04405 33.848303 
L 116.140535 35.772261 
L 116.249045 37.696219 
L 116.364889 39.620177 
L 116.489128 41.544135 
L 116.631919 43.468093 
L 116.812048 45.392051 
L 117.052189 47.316009 
L 117.371598 49.239967 
L 117.779177 51.163925 
L 118.269948 53.087883 
L 118.826932 55.011841 
L 119.428392 56.935799 
L 120.057475 58.859757 
L 120.709302 60.783715 
L 121.391487 62.707673 
L 122.11835 64.631631 
L 122.903523 66.55559 
L 123.756108 68.479548 
L 124.6811 70.403506 
L 125.679133 72.327464 
L 126.739381 74.251422 
L 127.825004 76.17538 
L 128.859428 78.099338 
L 129.726863 80.023296 
L 130.29606 81.947254 
L 130.463047 83.871212 
L 130.194503 85.79517 
L 129.548761 87.719128 
L 128.661 89.643086 
L 127.697869 91.567044 
L 126.802692 93.491002 
L 126.055572 95.41496 
L 125.462614 97.338918 
L 124.972896 99.262876 
L 124.510502 101.186834 
L 124.006193 103.110792 
L 123.417696 105.03475 
L 122.734944 106.958708 
L 121.973291 108.882666 
L 121.161647 110.806624 
L 120.332343 112.730582 
L 119.516211 114.65454 
L 118.741969 116.578498 
L 118.036559 118.502456 
L 117.423617 120.426414 
L 116.919822 122.350372 
L 116.531154 124.27433 
L 116.251532 126.198288 
L 116.064883 128.122246 
L 115.949733 130.046204 
L 115.884265 131.970162 
L 115.850039 133.89412 
L 115.833616 135.818078 
L 115.826393 137.742036 
L 115.823486 139.665994 
L 115.822416 141.589952 
L 115.822056 143.51391 
L 115.821946 145.437868 
L 115.821915 147.361826 
L 115.821907 149.285784 
L 115.821905 151.209742 
L 115.821905 153.1337 
L 115.821905 155.057658 
L 115.821905 156.981616 
L 115.821905 158.905574 
L 115.821905 160.829532 
L 115.821905 162.75349 
L 115.821905 164.677448 
L 115.821905 166.601406 
L 115.821905 168.525364 
L 115.821905 170.449322 
L 115.821905 172.37328 
L 115.821905 174.297238 
L 115.821906 176.221196 
L 115.82191 178.145154 
L 115.821927 180.069112 
L 115.821983 181.993071 
L 115.82216 183.917029 
L 115.82266 185.840987 
L 115.823931 187.764945 
L 115.826835 189.688903 
L 115.832784 191.612861 
L 115.843675 193.536819 
L 115.861416 195.460777 
L 115.886941 197.384735 
L 115.918992 199.308693 
L 115.953348 201.232651 
L 115.983299 203.156609 
L 116.001631 205.080567 
L 116.003417 207.004525 
L 115.988159 208.928483 
L 115.96001 210.852441 
L 115.92595 212.776399 
L 115.892994 214.700357 
L 115.865957 216.624315 
L 115.846662 218.548273 
z
" clip-path="url(#p343dfdd319)" style="fill: #be631d"/>
   </g>
   <g id="PolyCollection_5">
    <defs>
     <path id="m6d9c40d47c" d="M 163.651095 -77.441331 
L 163.571524 -77.441331 
L 163.540399 -78.361104 
L 163.499425 -79.280878 
L 163.446317 -80.200651 
L 163.3785 -81.120425 
L 163.293141 -82.040198 
L 163.18719 -82.959972 
L 163.05745 -83.879745 
L 162.900677 -84.799519 
L 162.713705 -85.719292 
L 162.493618 -86.639066 
L 162.237947 -87.558839 
L 161.944914 -88.478613 
L 161.613681 -89.398386 
L 161.24462 -90.31816 
L 160.839554 -91.237933 
L 160.401957 -92.157707 
L 159.937077 -93.07748 
L 159.451951 -93.997254 
L 158.955298 -94.917027 
L 158.457279 -95.8368 
L 157.969114 -96.756574 
L 157.502595 -97.676347 
L 157.06951 -98.596121 
L 156.681009 -99.515894 
L 156.346985 -100.435668 
L 156.075482 -101.355441 
L 155.872195 -102.275215 
L 155.740083 -103.194988 
L 155.679121 -104.114762 
L 155.686217 -105.034535 
L 155.755282 -105.954309 
L 155.877466 -106.874082 
L 156.041525 -107.793856 
L 156.234318 -108.713629 
L 156.441384 -109.633403 
L 156.647571 -110.553176 
L 156.837674 -111.47295 
L 156.997034 -112.392723 
L 157.112078 -113.312497 
L 157.170755 -114.23227 
L 157.162882 -115.152043 
L 157.080387 -116.071817 
L 156.917487 -116.99159 
L 156.670827 -117.911364 
L 156.339601 -118.831137 
L 155.925705 -119.750911 
L 155.433894 -120.670684 
L 154.871962 -121.590458 
L 154.250861 -122.510231 
L 153.58474 -123.430005 
L 152.890807 -124.349778 
L 152.18896 -125.269552 
L 151.501161 -126.189325 
L 150.850539 -127.109099 
L 150.260276 -128.028872 
L 149.752352 -128.948646 
L 149.346281 -129.868419 
L 149.057958 -130.788193 
L 148.89876 -131.707966 
L 148.874978 -132.627739 
L 148.987667 -133.547513 
L 149.232877 -134.467286 
L 149.602254 -135.38706 
L 150.083876 -136.306833 
L 150.663244 -137.226607 
L 151.324268 -138.14638 
L 152.050181 -139.066154 
L 152.824265 -139.985927 
L 153.630397 -140.905701 
L 154.453385 -141.825474 
L 155.279158 -142.745248 
L 156.094855 -143.665021 
L 156.888866 -144.584795 
L 157.650895 -145.504568 
L 158.372051 -146.424342 
L 159.044979 -147.344115 
L 159.664023 -148.263889 
L 160.225363 -149.183662 
L 160.72711 -150.103436 
L 161.169299 -151.023209 
L 161.553779 -151.942982 
L 161.883977 -152.862756 
L 162.164566 -153.782529 
L 162.401054 -154.702303 
L 162.599357 -155.622076 
L 162.765384 -156.54185 
L 162.904688 -157.461623 
L 163.0222 -158.381397 
L 163.122079 -159.30117 
L 163.207657 -160.220944 
L 163.28148 -161.140717 
L 163.345413 -162.060491 
L 163.400785 -162.980264 
L 163.448543 -163.900038 
L 163.489396 -164.819811 
L 163.523933 -165.739585 
L 163.552702 -166.659358 
L 163.576261 -167.579132 
L 163.595196 -168.498905 
L 163.651095 -168.498905 
L 163.651095 -168.498905 
L 163.651095 -167.579132 
L 163.651095 -166.659358 
L 163.651095 -165.739585 
L 163.651095 -164.819811 
L 163.651095 -163.900038 
L 163.651095 -162.980264 
L 163.651095 -162.060491 
L 163.651095 -161.140717 
L 163.651095 -160.220944 
L 163.651095 -159.30117 
L 163.651095 -158.381397 
L 163.651095 -157.461623 
L 163.651095 -156.54185 
L 163.651095 -155.622076 
L 163.651095 -154.702303 
L 163.651095 -153.782529 
L 163.651095 -152.862756 
L 163.651095 -151.942982 
L 163.651095 -151.023209 
L 163.651095 -150.103436 
L 163.651095 -149.183662 
L 163.651095 -148.263889 
L 163.651095 -147.344115 
L 163.651095 -146.424342 
L 163.651095 -145.504568 
L 163.651095 -144.584795 
L 163.651095 -143.665021 
L 163.651095 -142.745248 
L 163.651095 -141.825474 
L 163.651095 -140.905701 
L 163.651095 -139.985927 
L 163.651095 -139.066154 
L 163.651095 -138.14638 
L 163.651095 -137.226607 
L 163.651095 -136.306833 
L 163.651095 -135.38706 
L 163.651095 -134.467286 
L 163.651095 -133.547513 
L 163.651095 -132.627739 
L 163.651095 -131.707966 
L 163.651095 -130.788193 
L 163.651095 -129.868419 
L 163.651095 -128.948646 
L 163.651095 -128.028872 
L 163.651095 -127.109099 
L 163.651095 -126.189325 
L 163.651095 -125.269552 
L 163.651095 -124.349778 
L 163.651095 -123.430005 
L 163.651095 -122.510231 
L 163.651095 -121.590458 
L 163.651095 -120.670684 
L 163.651095 -119.750911 
L 163.651095 -118.831137 
L 163.651095 -117.911364 
L 163.651095 -116.99159 
L 163.651095 -116.071817 
L 163.651095 -115.152043 
L 163.651095 -114.23227 
L 163.651095 -113.312497 
L 163.651095 -112.392723 
L 163.651095 -111.47295 
L 163.651095 -110.553176 
L 163.651095 -109.633403 
L 163.651095 -108.713629 
L 163.651095 -107.793856 
L 163.651095 -106.874082 
L 163.651095 -105.954309 
L 163.651095 -105.034535 
L 163.651095 -104.114762 
L 163.651095 -103.194988 
L 163.651095 -102.275215 
L 163.651095 -101.355441 
L 163.651095 -100.435668 
L 163.651095 -99.515894 
L 163.651095 -98.596121 
L 163.651095 -97.676347 
L 163.651095 -96.756574 
L 163.651095 -95.8368 
L 163.651095 -94.917027 
L 163.651095 -93.997254 
L 163.651095 -93.07748 
L 163.651095 -92.157707 
L 163.651095 -91.237933 
L 163.651095 -90.31816 
L 163.651095 -89.398386 
L 163.651095 -88.478613 
L 163.651095 -87.558839 
L 163.651095 -86.639066 
L 163.651095 -85.719292 
L 163.651095 -84.799519 
L 163.651095 -83.879745 
L 163.651095 -82.959972 
L 163.651095 -82.040198 
L 163.651095 -81.120425 
L 163.651095 -80.200651 
L 163.651095 -79.280878 
L 163.651095 -78.361104 
L 163.651095 -77.441331 
z
"/>
    </defs>
    <g clip-path="url(#p343dfdd319)">
     <use xlink:href="#m6d9c40d47c" x="0" y="180" style="fill: #2b8e70"/>
    </g>
   </g>
   <g id="PolyCollection_6">
    <defs>
     <path id="mf901d107cc" d="M 167.841485 13.010816 
L 167.810155 13.010816 
L 167.810155 11.306962 
L 167.810155 9.603107 
L 167.810155 7.899253 
L 167.810155 6.195399 
L 167.810155 4.491544 
L 167.810155 2.78769 
L 167.810155 1.083835 
L 167.810155 -0.620019 
L 167.810155 -2.323874 
L 167.810155 -4.027728 
L 167.810155 -5.731583 
L 167.810155 -7.435437 
L 167.810155 -9.139292 
L 167.810155 -10.843146 
L 167.810155 -12.547001 
L 167.810155 -14.250855 
L 167.810155 -15.95471 
L 167.810155 -17.658564 
L 167.810155 -19.362419 
L 167.810155 -21.066273 
L 167.810155 -22.770128 
L 167.810155 -24.473982 
L 167.810155 -26.177836 
L 167.810155 -27.881691 
L 167.810155 -29.585545 
L 167.810155 -31.2894 
L 167.810155 -32.993254 
L 167.810155 -34.697109 
L 167.810155 -36.400963 
L 167.810155 -38.104818 
L 167.810155 -39.808672 
L 167.810155 -41.512527 
L 167.810155 -43.216381 
L 167.810155 -44.920236 
L 167.810155 -46.62409 
L 167.810155 -48.327945 
L 167.810155 -50.031799 
L 167.810155 -51.735654 
L 167.810155 -53.439508 
L 167.810155 -55.143363 
L 167.810155 -56.847217 
L 167.810155 -58.551071 
L 167.810155 -60.254926 
L 167.810155 -61.95878 
L 167.810155 -63.662635 
L 167.810155 -65.366489 
L 167.810155 -67.070344 
L 167.810155 -68.774198 
L 167.810155 -70.478053 
L 167.810155 -72.181907 
L 167.810155 -73.885762 
L 167.810155 -75.589616 
L 167.810155 -77.293471 
L 167.810155 -78.997325 
L 167.810155 -80.70118 
L 167.810155 -82.405034 
L 167.810155 -84.108889 
L 167.810155 -85.812743 
L 167.810155 -87.516597 
L 167.810155 -89.220452 
L 167.810155 -90.924306 
L 167.810155 -92.628161 
L 167.810155 -94.332015 
L 167.810155 -96.03587 
L 167.810155 -97.739724 
L 167.810155 -99.443579 
L 167.810155 -101.147433 
L 167.810155 -102.851288 
L 167.810155 -104.555142 
L 167.810155 -106.258997 
L 167.810155 -107.962851 
L 167.810155 -109.666706 
L 167.810155 -111.37056 
L 167.810155 -113.074415 
L 167.810155 -114.778269 
L 167.810155 -116.482124 
L 167.810155 -118.185978 
L 167.810155 -119.889832 
L 167.810155 -121.593687 
L 167.810155 -123.297541 
L 167.810155 -125.001396 
L 167.810155 -126.70525 
L 167.810155 -128.409105 
L 167.810155 -130.112959 
L 167.810155 -131.816814 
L 167.810155 -133.520668 
L 167.810155 -135.224523 
L 167.810155 -136.928377 
L 167.810155 -138.632232 
L 167.810155 -140.336086 
L 167.810155 -142.039941 
L 167.810155 -143.743795 
L 167.810155 -145.44765 
L 167.810155 -147.151504 
L 167.810155 -148.855359 
L 167.810155 -150.559213 
L 167.810155 -152.263067 
L 167.810155 -153.966922 
L 167.810155 -155.670776 
L 167.880634 -155.670776 
L 167.880634 -155.670776 
L 167.935967 -153.966922 
L 168.020367 -152.263067 
L 168.140089 -150.559213 
L 168.298624 -148.855359 
L 168.495433 -147.151504 
L 168.725523 -145.44765 
L 168.979951 -143.743795 
L 169.247139 -142.039941 
L 169.5148 -140.336086 
L 169.772295 -138.632232 
L 170.01294 -136.928377 
L 170.235426 -135.224523 
L 170.443438 -133.520668 
L 170.643367 -131.816814 
L 170.841377 -130.112959 
L 171.041936 -128.409105 
L 171.249436 -126.70525 
L 171.472662 -125.001396 
L 171.729904 -123.297541 
L 172.051583 -121.593687 
L 172.477995 -119.889832 
L 173.051688 -118.185978 
L 173.806248 -116.482124 
L 174.754933 -114.778269 
L 175.883213 -113.074415 
L 177.148177 -111.37056 
L 178.48536 -109.666706 
L 179.820523 -107.962851 
L 181.081821 -106.258997 
L 182.207716 -104.555142 
L 183.148268 -102.851288 
L 183.861066 -101.147433 
L 184.306285 -99.443579 
L 184.446395 -97.739724 
L 184.253854 -96.03587 
L 183.725201 -94.332015 
L 182.894517 -92.628161 
L 181.836788 -90.924306 
L 180.654864 -89.220452 
L 179.452126 -87.516597 
L 178.302135 -85.812743 
L 177.230217 -84.108889 
L 176.21668 -82.405034 
L 175.219691 -80.70118 
L 174.205138 -78.997325 
L 173.168042 -77.293471 
L 172.136463 -75.589616 
L 171.159347 -73.885762 
L 170.287398 -72.181907 
L 169.556964 -70.478053 
L 168.982557 -68.774198 
L 168.557986 -67.070344 
L 168.262695 -65.366489 
L 168.069394 -63.662635 
L 167.950384 -61.95878 
L 167.881587 -60.254926 
L 167.844326 -58.551071 
L 167.825466 -56.847217 
L 167.816565 -55.143363 
L 167.812657 -53.439508 
L 167.811064 -51.735654 
L 167.810462 -50.031799 
L 167.810251 -48.327945 
L 167.810183 -46.62409 
L 167.810163 -44.920236 
L 167.810157 -43.216381 
L 167.810155 -41.512527 
L 167.810155 -39.808672 
L 167.810155 -38.104818 
L 167.810155 -36.400963 
L 167.810155 -34.697109 
L 167.810155 -32.993254 
L 167.810155 -31.2894 
L 167.810156 -29.585545 
L 167.810157 -27.881691 
L 167.810164 -26.177836 
L 167.810185 -24.473982 
L 167.81025 -22.770128 
L 167.810435 -21.066273 
L 167.810915 -19.362419 
L 167.812059 -17.658564 
L 167.814554 -15.95471 
L 167.819536 -14.250855 
L 167.828619 -12.547001 
L 167.843695 -10.843146 
L 167.866382 -9.139292 
L 167.897148 -7.435437 
L 167.934371 -5.731583 
L 167.973846 -4.027728 
L 168.009234 -2.323874 
L 168.033605 -0.620019 
L 168.041622 1.083835 
L 168.03144 2.78769 
L 168.005395 4.491544 
L 167.969134 6.195399 
L 167.929627 7.899253 
L 167.893015 9.603107 
L 167.863192 11.306962 
L 167.841485 13.010816 
z
"/>
    </defs>
    <g clip-path="url(#p343dfdd319)">
     <use xlink:href="#mf901d107cc" x="0" y="180" style="fill: #be631d"/>
    </g>
   </g>
   <g id="PolyCollection_7">
    <path d="M 215.639345 200.809716 
L 215.615832 200.809716 
L 215.599151 198.779553 
L 215.57614 196.749389 
L 215.547917 194.719225 
L 215.517685 192.689061 
L 215.490424 190.658897 
L 215.471657 188.628733 
L 215.46565 186.598569 
L 215.47384 184.568405 
L 215.494276 182.538241 
L 215.522374 180.508077 
L 215.552585 178.477914 
L 215.580148 176.44775 
L 215.60219 174.417586 
L 215.617892 172.387422 
L 215.627951 170.357258 
L 215.633778 168.327094 
L 215.636843 166.29693 
L 215.638311 164.266766 
L 215.638952 162.236602 
L 215.639207 160.206438 
L 215.639301 158.176275 
L 215.639332 156.146111 
L 215.639341 154.115947 
L 215.639344 152.085783 
L 215.639345 150.055619 
L 215.639345 148.025455 
L 215.639345 145.995291 
L 215.639345 143.965127 
L 215.639345 141.934963 
L 215.639345 139.9048 
L 215.639345 137.874636 
L 215.639345 135.844472 
L 215.639345 133.814308 
L 215.639344 131.784144 
L 215.639339 129.75398 
L 215.639324 127.723816 
L 215.639273 125.693652 
L 215.639114 123.663488 
L 215.638662 121.633324 
L 215.637474 119.603161 
L 215.634597 117.572997 
L 215.628164 115.542833 
L 215.614879 113.512669 
L 215.589543 111.482505 
L 215.54491 109.452341 
L 215.472288 107.422177 
L 215.363166 105.392013 
L 215.211774 103.361849 
L 215.017773 101.331685 
L 214.787696 99.301522 
L 214.533675 97.271358 
L 214.268928 95.241194 
L 214.001279 93.21103 
L 213.727874 91.180866 
L 213.434872 89.150702 
L 213.104284 87.120538 
L 212.726493 85.090374 
L 212.313042 83.06021 
L 211.902517 81.030046 
L 211.554447 78.999883 
L 211.331514 76.969719 
L 211.276423 74.939555 
L 211.392832 72.909391 
L 211.637954 70.879227 
L 211.928694 68.849063 
L 212.157106 66.818899 
L 212.208096 64.788735 
L 211.974176 62.758571 
L 211.366989 60.728407 
L 210.329509 58.698244 
L 208.852899 56.66808 
L 206.99678 54.637916 
L 204.904115 52.607752 
L 202.797602 50.577588 
L 200.948324 48.547424 
L 199.619614 46.51726 
L 199.003105 44.487096 
L 199.170916 42.456932 
L 200.062629 40.426769 
L 201.510836 38.396605 
L 203.293029 36.366441 
L 205.188866 34.336277 
L 207.023415 32.306113 
L 208.6863 30.275949 
L 210.12788 28.245785 
L 211.341511 26.215621 
L 212.343024 24.185457 
L 213.155521 22.155293 
L 213.802172 20.12513 
L 214.305075 18.094966 
L 214.686398 16.064802 
L 214.968809 14.034638 
L 215.174314 12.004474 
L 215.322319 9.97431 
L 215.428225 7.944146 
L 215.503248 5.913982 
L 215.555271 3.883818 
L 215.590052 1.853654 
L 215.612137 -0.176509 
L 215.639345 -0.176509 
L 215.639345 -0.176509 
L 215.639345 1.853654 
L 215.639345 3.883818 
L 215.639345 5.913982 
L 215.639345 7.944146 
L 215.639345 9.97431 
L 215.639345 12.004474 
L 215.639345 14.034638 
L 215.639345 16.064802 
L 215.639345 18.094966 
L 215.639345 20.12513 
L 215.639345 22.155293 
L 215.639345 24.185457 
L 215.639345 26.215621 
L 215.639345 28.245785 
L 215.639345 30.275949 
L 215.639345 32.306113 
L 215.639345 34.336277 
L 215.639345 36.366441 
L 215.639345 38.396605 
L 215.639345 40.426769 
L 215.639345 42.456932 
L 215.639345 44.487096 
L 215.639345 46.51726 
L 215.639345 48.547424 
L 215.639345 50.577588 
L 215.639345 52.607752 
L 215.639345 54.637916 
L 215.639345 56.66808 
L 215.639345 58.698244 
L 215.639345 60.728407 
L 215.639345 62.758571 
L 215.639345 64.788735 
L 215.639345 66.818899 
L 215.639345 68.849063 
L 215.639345 70.879227 
L 215.639345 72.909391 
L 215.639345 74.939555 
L 215.639345 76.969719 
L 215.639345 78.999883 
L 215.639345 81.030046 
L 215.639345 83.06021 
L 215.639345 85.090374 
L 215.639345 87.120538 
L 215.639345 89.150702 
L 215.639345 91.180866 
L 215.639345 93.21103 
L 215.639345 95.241194 
L 215.639345 97.271358 
L 215.639345 99.301522 
L 215.639345 101.331685 
L 215.639345 103.361849 
L 215.639345 105.392013 
L 215.639345 107.422177 
L 215.639345 109.452341 
L 215.639345 111.482505 
L 215.639345 113.512669 
L 215.639345 115.542833 
L 215.639345 117.572997 
L 215.639345 119.603161 
L 215.639345 121.633324 
L 215.639345 123.663488 
L 215.639345 125.693652 
L 215.639345 127.723816 
L 215.639345 129.75398 
L 215.639345 131.784144 
L 215.639345 133.814308 
L 215.639345 135.844472 
L 215.639345 137.874636 
L 215.639345 139.9048 
L 215.639345 141.934963 
L 215.639345 143.965127 
L 215.639345 145.995291 
L 215.639345 148.025455 
L 215.639345 150.055619 
L 215.639345 152.085783 
L 215.639345 154.115947 
L 215.639345 156.146111 
L 215.639345 158.176275 
L 215.639345 160.206438 
L 215.639345 162.236602 
L 215.639345 164.266766 
L 215.639345 166.29693 
L 215.639345 168.327094 
L 215.639345 170.357258 
L 215.639345 172.387422 
L 215.639345 174.417586 
L 215.639345 176.44775 
L 215.639345 178.477914 
L 215.639345 180.508077 
L 215.639345 182.538241 
L 215.639345 184.568405 
L 215.639345 186.598569 
L 215.639345 188.628733 
L 215.639345 190.658897 
L 215.639345 192.689061 
L 215.639345 194.719225 
L 215.639345 196.749389 
L 215.639345 198.779553 
L 215.639345 200.809716 
z
" clip-path="url(#p343dfdd319)" style="fill: #2b8e70"/>
   </g>
   <g id="PolyCollection_8">
    <defs>
     <path id="mb06e4e3ee8" d="M 219.815844 -12.378736 
L 219.798405 -12.378736 
L 219.798405 -13.953603 
L 219.798405 -15.52847 
L 219.798405 -17.103337 
L 219.798405 -18.678205 
L 219.798405 -20.253072 
L 219.798405 -21.827939 
L 219.798405 -23.402806 
L 219.798405 -24.977674 
L 219.798405 -26.552541 
L 219.798405 -28.127408 
L 219.798405 -29.702275 
L 219.798405 -31.277143 
L 219.798405 -32.85201 
L 219.798405 -34.426877 
L 219.798405 -36.001744 
L 219.798405 -37.576611 
L 219.798405 -39.151479 
L 219.798405 -40.726346 
L 219.798405 -42.301213 
L 219.798405 -43.87608 
L 219.798405 -45.450948 
L 219.798405 -47.025815 
L 219.798405 -48.600682 
L 219.798405 -50.175549 
L 219.798405 -51.750416 
L 219.798405 -53.325284 
L 219.798405 -54.900151 
L 219.798405 -56.475018 
L 219.798405 -58.049885 
L 219.798405 -59.624753 
L 219.798405 -61.19962 
L 219.798405 -62.774487 
L 219.798405 -64.349354 
L 219.798405 -65.924221 
L 219.798405 -67.499089 
L 219.798405 -69.073956 
L 219.798405 -70.648823 
L 219.798405 -72.22369 
L 219.798405 -73.798558 
L 219.798405 -75.373425 
L 219.798405 -76.948292 
L 219.798405 -78.523159 
L 219.798405 -80.098027 
L 219.798405 -81.672894 
L 219.798405 -83.247761 
L 219.798405 -84.822628 
L 219.798405 -86.397495 
L 219.798405 -87.972363 
L 219.798405 -89.54723 
L 219.798405 -91.122097 
L 219.798405 -92.696964 
L 219.798405 -94.271832 
L 219.798405 -95.846699 
L 219.798405 -97.421566 
L 219.798405 -98.996433 
L 219.798405 -100.5713 
L 219.798405 -102.146168 
L 219.798405 -103.721035 
L 219.798405 -105.295902 
L 219.798405 -106.870769 
L 219.798405 -108.445637 
L 219.798405 -110.020504 
L 219.798405 -111.595371 
L 219.798405 -113.170238 
L 219.798405 -114.745106 
L 219.798405 -116.319973 
L 219.798405 -117.89484 
L 219.798405 -119.469707 
L 219.798405 -121.044574 
L 219.798405 -122.619442 
L 219.798405 -124.194309 
L 219.798405 -125.769176 
L 219.798405 -127.344043 
L 219.798405 -128.918911 
L 219.798405 -130.493778 
L 219.798405 -132.068645 
L 219.798405 -133.643512 
L 219.798405 -135.218379 
L 219.798405 -136.793247 
L 219.798405 -138.368114 
L 219.798405 -139.942981 
L 219.798405 -141.517848 
L 219.798405 -143.092716 
L 219.798405 -144.667583 
L 219.798405 -146.24245 
L 219.798405 -147.817317 
L 219.798405 -149.392184 
L 219.798405 -150.967052 
L 219.798405 -152.541919 
L 219.798405 -154.116786 
L 219.798405 -155.691653 
L 219.798405 -157.266521 
L 219.798405 -158.841388 
L 219.798405 -160.416255 
L 219.798405 -161.991122 
L 219.798405 -163.56599 
L 219.798405 -165.140857 
L 219.798405 -166.715724 
L 219.798405 -168.290591 
L 219.81594 -168.290591 
L 219.81594 -168.290591 
L 219.827257 -166.715724 
L 219.842765 -165.140857 
L 219.86224 -163.56599 
L 219.884611 -161.991122 
L 219.908157 -160.416255 
L 219.931152 -158.841388 
L 219.952866 -157.266521 
L 219.974615 -155.691653 
L 220.000458 -154.116786 
L 220.037228 -152.541919 
L 220.09375 -150.967052 
L 220.179371 -149.392184 
L 220.302015 -147.817317 
L 220.466099 -146.24245 
L 220.67075 -144.667583 
L 220.908888 -143.092716 
L 221.167755 -141.517848 
L 221.431226 -139.942981 
L 221.683565 -138.368114 
L 221.913609 -136.793247 
L 222.117897 -135.218379 
L 222.301538 -133.643512 
L 222.476478 -132.068645 
L 222.658012 -130.493778 
L 222.861164 -128.918911 
L 223.098559 -127.344043 
L 223.380492 -125.769176 
L 223.716554 -124.194309 
L 224.117187 -122.619442 
L 224.593455 -121.044574 
L 225.154271 -119.469707 
L 225.801856 -117.89484 
L 226.527416 -116.319973 
L 227.309206 -114.745106 
L 228.114258 -113.170238 
L 228.903538 -111.595371 
L 229.638956 -110.020504 
L 230.290123 -108.445637 
L 230.83907 -106.870769 
L 231.281894 -105.295902 
L 231.627004 -103.721035 
L 231.890206 -102.146168 
L 232.087526 -100.5713 
L 232.227582 -98.996433 
L 232.30631 -97.421566 
L 232.306753 -95.846699 
L 232.205098 -94.271832 
L 231.9812 -92.696964 
L 231.629203 -91.122097 
L 231.163205 -89.54723 
L 230.615062 -87.972363 
L 230.025275 -86.397495 
L 229.431311 -84.822628 
L 228.858631 -83.247761 
L 228.317684 -81.672894 
L 227.806669 -80.098027 
L 227.317184 -78.523159 
L 226.839326 -76.948292 
L 226.364414 -75.373425 
L 225.885587 -73.798558 
L 225.397702 -72.22369 
L 224.897713 -70.648823 
L 224.385642 -69.073956 
L 223.865469 -67.499089 
L 223.345194 -65.924221 
L 222.835844 -64.349354 
L 222.349713 -62.774487 
L 221.89839 -61.19962 
L 221.49107 -59.624753 
L 221.133521 -58.049885 
L 220.827846 -56.475018 
L 220.572987 -54.900151 
L 220.365648 -53.325284 
L 220.201257 -51.750416 
L 220.074659 -50.175549 
L 219.980465 -48.600682 
L 219.913201 -47.025815 
L 219.867454 -45.450948 
L 219.838124 -43.87608 
L 219.820763 -42.301213 
L 219.811888 -40.726346 
L 219.809142 -39.151479 
L 219.811262 -37.576611 
L 219.817829 -36.001744 
L 219.828833 -34.426877 
L 219.844131 -32.85201 
L 219.862926 -31.277143 
L 219.88343 -29.702275 
L 219.90291 -28.127408 
L 219.918171 -26.552541 
L 219.926373 -24.977674 
L 219.925884 -23.402806 
L 219.916801 -21.827939 
L 219.900922 -20.253072 
L 219.881165 -18.678205 
L 219.860693 -17.103337 
L 219.842112 -15.52847 
L 219.826998 -13.953603 
L 219.815844 -12.378736 
z
"/>
    </defs>
    <g clip-path="url(#p343dfdd319)">
     <use xlink:href="#mb06e4e3ee8" x="0" y="180" style="fill: #be631d"/>
    </g>
   </g>
   <g id="patch_3">
    <path d="M 61.754125 65.035 
L 61.754125 65.035 
L 61.754125 65.035 
L 61.754125 65.035 
z
" clip-path="url(#p343dfdd319)" style="fill: #2b8e70"/>
   </g>
   <g id="patch_4">
    <path d="M 61.754125 65.035 
L 61.754125 65.035 
L 61.754125 65.035 
L 61.754125 65.035 
z
" clip-path="url(#p343dfdd319)" style="fill: #be631d"/>
   </g>
   <g id="line2d_11">
    <path d="M 57.174595 106.175605 
L 57.174595 25.207124 
" clip-path="url(#p343dfdd319)" style="fill: none; stroke: #000000; stroke-linecap: round"/>
   </g>
   <g id="line2d_12">
    <path d="M 57.174595 70.472595 
L 57.174595 43.903512 
" clip-path="url(#p343dfdd319)" style="fill: none; stroke: #000000; stroke-width: 5; stroke-linecap: round"/>
   </g>
   <g id="line2d_13">
    <path d="M 57.174595 52.376476 
" clip-path="url(#p343dfdd319)" style="fill: none; stroke: #373737; stroke-width: 1.5; stroke-linecap: round"/>
    <defs>
     <path id="mb815a27894" d="M 2.083333 0 
L -2.083333 -0 
" style="stroke: #ffffff"/>
    </defs>
    <g clip-path="url(#p343dfdd319)">
     <use xlink:href="#mb815a27894" x="57.174595" y="52.376476" style="fill: #ffffff; stroke: #ffffff"/>
    </g>
   </g>
   <g id="line2d_14">
    <path d="M 66.333655 122.408844 
L 66.333655 41.679459 
" clip-path="url(#p343dfdd319)" style="fill: none; stroke: #000000; stroke-linecap: round"/>
   </g>
   <g id="line2d_15">
    <path d="M 66.333655 92.034456 
L 66.333655 70.937338 
" clip-path="url(#p343dfdd319)" style="fill: none; stroke: #000000; stroke-width: 5; stroke-linecap: round"/>
   </g>
   <g id="line2d_16">
    <path d="M 66.333655 82.623959 
" clip-path="url(#p343dfdd319)" style="fill: none; stroke: #373737; stroke-width: 1.5; stroke-linecap: round"/>
    <g clip-path="url(#p343dfdd319)">
     <use xlink:href="#mb815a27894" x="66.333655" y="82.623959" style="fill: #ffffff; stroke: #ffffff"/>
    </g>
   </g>
   <g id="line2d_17">
    <path d="M 109.162845 96.62326 
L 109.162845 19.452727 
" clip-path="url(#p343dfdd319)" style="fill: none; stroke: #000000; stroke-linecap: round"/>
   </g>
   <g id="line2d_18">
    <path d="M 109.162845 74.928976 
L 109.162845 47.868597 
" clip-path="url(#p343dfdd319)" style="fill: none; stroke: #000000; stroke-width: 5; stroke-linecap: round"/>
   </g>
   <g id="line2d_19">
    <path d="M 109.162845 61.551325 
" clip-path="url(#p343dfdd319)" style="fill: none; stroke: #373737; stroke-width: 1.5; stroke-linecap: round"/>
    <g clip-path="url(#p343dfdd319)">
     <use xlink:href="#mb815a27894" x="109.162845" y="61.551325" style="fill: #ffffff; stroke: #ffffff"/>
    </g>
   </g>
   <g id="line2d_20">
    <path d="M 118.321905 119.767293 
L 118.321905 41.120802 
" clip-path="url(#p343dfdd319)" style="fill: none; stroke: #000000; stroke-linecap: round"/>
   </g>
   <g id="line2d_21">
    <path d="M 118.321905 97.018688 
L 118.321905 74.476993 
" clip-path="url(#p343dfdd319)" style="fill: none; stroke: #000000; stroke-width: 5; stroke-linecap: round"/>
   </g>
   <g id="line2d_22">
    <path d="M 118.321905 85.010781 
" clip-path="url(#p343dfdd319)" style="fill: none; stroke: #373737; stroke-width: 1.5; stroke-linecap: round"/>
    <g clip-path="url(#p343dfdd319)">
     <use xlink:href="#mb815a27894" x="118.321905" y="85.010781" style="fill: #ffffff; stroke: #ffffff"/>
    </g>
   </g>
   <g id="line2d_23">
    <path d="M 161.151095 89.896386 
L 161.151095 24.163378 
" clip-path="url(#p343dfdd319)" style="fill: none; stroke: #000000; stroke-linecap: round"/>
   </g>
   <g id="line2d_24">
    <path d="M 161.151095 72.072239 
L 161.151095 45.693743 
" clip-path="url(#p343dfdd319)" style="fill: none; stroke: #000000; stroke-width: 5; stroke-linecap: round"/>
   </g>
   <g id="line2d_25">
    <path d="M 161.151095 51.943345 
" clip-path="url(#p343dfdd319)" style="fill: none; stroke: #373737; stroke-width: 1.5; stroke-linecap: round"/>
    <g clip-path="url(#p343dfdd319)">
     <use xlink:href="#mb815a27894" x="161.151095" y="51.943345" style="fill: #ffffff; stroke: #ffffff"/>
    </g>
   </g>
   <g id="line2d_26">
    <path d="M 170.310155 106.977956 
L 170.310155 47.176138 
" clip-path="url(#p343dfdd319)" style="fill: none; stroke: #000000; stroke-linecap: round"/>
   </g>
   <g id="line2d_27">
    <path d="M 170.310155 88.9446 
L 170.310155 72.20696 
" clip-path="url(#p343dfdd319)" style="fill: none; stroke: #000000; stroke-width: 5; stroke-linecap: round"/>
   </g>
   <g id="line2d_28">
    <path d="M 170.310155 81.182256 
" clip-path="url(#p343dfdd319)" style="fill: none; stroke: #373737; stroke-width: 1.5; stroke-linecap: round"/>
    <g clip-path="url(#p343dfdd319)">
     <use xlink:href="#mb815a27894" x="170.310155" y="81.182256" style="fill: #ffffff; stroke: #ffffff"/>
    </g>
   </g>
   <g id="line2d_29">
    <path d="M 213.139345 79.267879 
L 213.139345 20.887303 
" clip-path="url(#p343dfdd319)" style="fill: none; stroke: #000000; stroke-linecap: round"/>
   </g>
   <g id="line2d_30">
    <path d="M 213.139345 55.78256 
L 213.139345 40.103495 
" clip-path="url(#p343dfdd319)" style="fill: none; stroke: #000000; stroke-width: 5; stroke-linecap: round"/>
   </g>
   <g id="line2d_31">
    <path d="M 213.139345 46.02319 
" clip-path="url(#p343dfdd319)" style="fill: none; stroke: #373737; stroke-width: 1.5; stroke-linecap: round"/>
    <g clip-path="url(#p343dfdd319)">
     <use xlink:href="#mb815a27894" x="213.139345" y="46.02319" style="fill: #ffffff; stroke: #ffffff"/>
    </g>
   </g>
   <g id="line2d_32">
    <path d="M 222.298405 124.498635 
L 222.298405 34.375536 
" clip-path="url(#p343dfdd319)" style="fill: none; stroke: #000000; stroke-linecap: round"/>
   </g>
   <g id="line2d_33">
    <path d="M 222.298405 95.051894 
L 222.298405 70.703529 
" clip-path="url(#p343dfdd319)" style="fill: none; stroke: #000000; stroke-width: 5; stroke-linecap: round"/>
   </g>
   <g id="line2d_34">
    <path d="M 222.298405 83.125141 
" clip-path="url(#p343dfdd319)" style="fill: none; stroke: #373737; stroke-width: 1.5; stroke-linecap: round"/>
    <g clip-path="url(#p343dfdd319)">
     <use xlink:href="#mb815a27894" x="222.298405" y="83.125141" style="fill: #ffffff; stroke: #ffffff"/>
    </g>
   </g>
   <g id="patch_5">
    <path d="M 35.76 145.5 
L 35.76 7.56 
" style="fill: none; stroke: #262626; stroke-width: 1.25; stroke-linejoin: miter; stroke-linecap: square"/>
   </g>
   <g id="patch_6">
    <path d="M 35.76 145.5 
L 243.713 145.5 
" style="fill: none; stroke: #262626; stroke-width: 1.25; stroke-linejoin: miter; stroke-linecap: square"/>
   </g>
   <g id="legend_1">
    <g id="patch_7">
     <path d="M 184.14757 142 
L 239.15882 142 
Q 240.55882 142 240.55882 140.6 
L 240.55882 121.496563 
Q 240.55882 120.096563 239.15882 120.096563 
L 184.14757 120.096563 
Q 182.74757 120.096563 182.74757 121.496563 
L 182.74757 140.6 
Q 182.74757 142 184.14757 142 
z
" style="fill: #ffffff; opacity: 0.8; stroke: #cccccc; stroke-linejoin: miter"/>
    </g>
    <g id="patch_8">
     <path d="M 185.54757 127.907031 
L 199.54757 127.907031 
L 199.54757 123.007031 
L 185.54757 123.007031 
z
" style="fill: #2b8e70"/>
    </g>
    <g id="text_13">
     <!-- Unpaired -->
     <g style="fill: #262626" transform="translate(202.34757 127.907031) scale(0.07 -0.07)">
      <defs>
       <path id="ArialMT-70" d="M 422 -1272 
L 422 3319 
L 934 3319 
L 934 2888 
Q 1116 3141 1344 3267 
Q 1572 3394 1897 3394 
Q 2322 3394 2647 3175 
Q 2972 2956 3137 2557 
Q 3303 2159 3303 1684 
Q 3303 1175 3120 767 
Q 2938 359 2589 142 
Q 2241 -75 1856 -75 
Q 1575 -75 1351 44 
Q 1128 163 984 344 
L 984 -1272 
L 422 -1272 
z
M 931 1641 
Q 931 1000 1190 694 
Q 1450 388 1819 388 
Q 2194 388 2461 705 
Q 2728 1022 2728 1688 
Q 2728 2322 2467 2637 
Q 2206 2953 1844 2953 
Q 1484 2953 1207 2617 
Q 931 2281 931 1641 
z
" transform="scale(0.015625)"/>
       <path id="ArialMT-72" d="M 416 0 
L 416 3319 
L 922 3319 
L 922 2816 
Q 1116 3169 1280 3281 
Q 1444 3394 1641 3394 
Q 1925 3394 2219 3213 
L 2025 2691 
Q 1819 2813 1613 2813 
Q 1428 2813 1281 2702 
Q 1134 2591 1072 2394 
Q 978 2094 978 1738 
L 978 0 
L 416 0 
z
" transform="scale(0.015625)"/>
      </defs>
      <use xlink:href="#ArialMT-55"/>
      <use xlink:href="#ArialMT-6e" x="72.216797"/>
      <use xlink:href="#ArialMT-70" x="127.832031"/>
      <use xlink:href="#ArialMT-61" x="183.447266"/>
      <use xlink:href="#ArialMT-69" x="239.0625"/>
      <use xlink:href="#ArialMT-72" x="261.279297"/>
      <use xlink:href="#ArialMT-65" x="294.580078"/>
      <use xlink:href="#ArialMT-64" x="350.195312"/>
     </g>
    </g>
    <g id="patch_9">
     <path d="M 185.54757 137.80875 
L 199.54757 137.80875 
L 199.54757 132.90875 
L 185.54757 132.90875 
z
" style="fill: #be631d"/>
    </g>
    <g id="text_14">
     <!-- Basepaired -->
     <g style="fill: #262626" transform="translate(202.34757 137.80875) scale(0.07 -0.07)">
      <defs>
       <path id="ArialMT-42" d="M 469 0 
L 469 4581 
L 2188 4581 
Q 2713 4581 3030 4442 
Q 3347 4303 3526 4014 
Q 3706 3725 3706 3409 
Q 3706 3116 3547 2856 
Q 3388 2597 3066 2438 
Q 3481 2316 3704 2022 
Q 3928 1728 3928 1328 
Q 3928 1006 3792 729 
Q 3656 453 3456 303 
Q 3256 153 2954 76 
Q 2653 0 2216 0 
L 469 0 
z
M 1075 2656 
L 2066 2656 
Q 2469 2656 2644 2709 
Q 2875 2778 2992 2937 
Q 3109 3097 3109 3338 
Q 3109 3566 3000 3739 
Q 2891 3913 2687 3977 
Q 2484 4041 1991 4041 
L 1075 4041 
L 1075 2656 
z
M 1075 541 
L 2216 541 
Q 2509 541 2628 563 
Q 2838 600 2978 687 
Q 3119 775 3209 942 
Q 3300 1109 3300 1328 
Q 3300 1584 3169 1773 
Q 3038 1963 2805 2039 
Q 2572 2116 2134 2116 
L 1075 2116 
L 1075 541 
z
" transform="scale(0.015625)"/>
      </defs>
      <use xlink:href="#ArialMT-42"/>
      <use xlink:href="#ArialMT-61" x="66.699219"/>
      <use xlink:href="#ArialMT-73" x="122.314453"/>
      <use xlink:href="#ArialMT-65" x="172.314453"/>
      <use xlink:href="#ArialMT-70" x="227.929688"/>
      <use xlink:href="#ArialMT-61" x="283.544922"/>
      <use xlink:href="#ArialMT-69" x="339.160156"/>
      <use xlink:href="#ArialMT-72" x="361.376953"/>
      <use xlink:href="#ArialMT-65" x="394.677734"/>
      <use xlink:href="#ArialMT-64" x="450.292969"/>
     </g>
    </g>
   </g>
  </g>
 </g>
 <defs>
  <clipPath id="p343dfdd319">
   <rect x="35.76" y="7.56" width="207.953" height="137.94"/>
  </clipPath>
 </defs>
</svg>
