<?xml version="1.0" encoding="utf-8" standalone="no"?>
<!DOCTYPE svg PUBLIC "-//W3C//DTD SVG 1.1//EN"
  "http://www.w3.org/Graphics/SVG/1.1/DTD/svg11.dtd">
<svg xmlns:xlink="http://www.w3.org/1999/xlink" width="252pt" height="180pt" viewBox="0 0 252 180" xmlns="http://www.w3.org/2000/svg" version="1.1">
 <metadata>
  <rdf:RDF xmlns:dc="http://purl.org/dc/elements/1.1/" xmlns:cc="http://creativecommons.org/ns#" xmlns:rdf="http://www.w3.org/1999/02/22-rdf-syntax-ns#">
   <cc:Work>
    <dc:type rdf:resource="http://purl.org/dc/dcmitype/StillImage"/>
    <dc:date>2024-02-27T22:22:57.757937</dc:date>
    <dc:format>image/svg+xml</dc:format>
    <dc:creator>
     <cc:Agent>
      <dc:title>Matplotlib v3.8.2, https://matplotlib.org/</dc:title>
     </cc:Agent>
    </dc:creator>
   </cc:Work>
  </rdf:RDF>
 </metadata>
 <defs>
  <style type="text/css">*{stroke-linejoin: round; stroke-linecap: butt}</style>
 </defs>
 <g id="figure_1">
  <g id="patch_1">
   <path d="M 0 180 
L 252 180 
L 252 0 
L 0 0 
z
" style="fill: #ffffff"/>
  </g>
  <g id="axes_1">
   <g id="patch_2">
    <path d="M 35.76 156.22 
L 244.44 156.22 
L 244.44 7.56 
L 35.76 7.56 
z
" style="fill: #ffffff"/>
   </g>
   <g id="matplotlib.axis_1">
    <g id="xtick_1">
     <g id="line2d_1">
      <defs>
       <path id="m778af9012e" d="M 0 0 
L 0 6 
" style="stroke: #262626; stroke-width: 1.25"/>
      </defs>
      <g>
       <use xlink:href="#m778af9012e" x="53.15" y="156.22" style="fill: #262626; stroke: #262626; stroke-width: 1.25"/>
      </g>
     </g>
     <g id="text_1">
      <!-- G→A -->
      <g style="fill: #262626" transform="translate(44.593047 170.730469) scale(0.07 -0.07)">
       <defs>
        <path id="ArialMT-47" d="M 2638 1797 
L 2638 2334 
L 4578 2338 
L 4578 638 
Q 4131 281 3656 101 
Q 3181 -78 2681 -78 
Q 2006 -78 1454 211 
Q 903 500 622 1047 
Q 341 1594 341 2269 
Q 341 2938 620 3517 
Q 900 4097 1425 4378 
Q 1950 4659 2634 4659 
Q 3131 4659 3532 4498 
Q 3934 4338 4162 4050 
Q 4391 3763 4509 3300 
L 3963 3150 
Q 3859 3500 3706 3700 
Q 3553 3900 3268 4020 
Q 2984 4141 2638 4141 
Q 2222 4141 1919 4014 
Q 1616 3888 1430 3681 
Q 1244 3475 1141 3228 
Q 966 2803 966 2306 
Q 966 1694 1177 1281 
Q 1388 869 1791 669 
Q 2194 469 2647 469 
Q 3041 469 3416 620 
Q 3791 772 3984 944 
L 3984 1797 
L 2638 1797 
z
" transform="scale(0.015625)"/>
        <path id="ArialMT-2192" d="M 4859 2738 
Q 5275 2284 5578 2048 
Q 5881 1813 6150 1697 
L 6150 1556 
Q 5841 1406 5550 1173 
Q 5259 941 4856 491 
L 4616 491 
Q 4909 1119 5231 1456 
L 247 1456 
L 247 1772 
L 5231 1772 
Q 4994 2075 4900 2222 
Q 4806 2369 4622 2738 
L 4859 2738 
z
" transform="scale(0.015625)"/>
        <path id="ArialMT-41" d="M -9 0 
L 1750 4581 
L 2403 4581 
L 4278 0 
L 3588 0 
L 3053 1388 
L 1138 1388 
L 634 0 
L -9 0 
z
M 1313 1881 
L 2866 1881 
L 2388 3150 
Q 2169 3728 2063 4100 
Q 1975 3659 1816 3225 
L 1313 1881 
z
" transform="scale(0.015625)"/>
       </defs>
       <use xlink:href="#ArialMT-47"/>
       <use xlink:href="#ArialMT-2192" x="77.783203"/>
       <use xlink:href="#ArialMT-41" x="177.783203"/>
      </g>
     </g>
    </g>
    <g id="xtick_2">
     <g id="line2d_2">
      <g>
       <use xlink:href="#m778af9012e" x="87.93" y="156.22" style="fill: #262626; stroke: #262626; stroke-width: 1.25"/>
      </g>
     </g>
     <g id="text_2">
      <!-- C→T -->
      <g style="fill: #262626" transform="translate(79.764609 170.730469) scale(0.07 -0.07)">
       <defs>
        <path id="ArialMT-43" d="M 3763 1606 
L 4369 1453 
Q 4178 706 3683 314 
Q 3188 -78 2472 -78 
Q 1731 -78 1267 223 
Q 803 525 561 1097 
Q 319 1669 319 2325 
Q 319 3041 592 3573 
Q 866 4106 1370 4382 
Q 1875 4659 2481 4659 
Q 3169 4659 3637 4309 
Q 4106 3959 4291 3325 
L 3694 3184 
Q 3534 3684 3231 3912 
Q 2928 4141 2469 4141 
Q 1941 4141 1586 3887 
Q 1231 3634 1087 3207 
Q 944 2781 944 2328 
Q 944 1744 1114 1308 
Q 1284 872 1643 656 
Q 2003 441 2422 441 
Q 2931 441 3284 734 
Q 3638 1028 3763 1606 
z
" transform="scale(0.015625)"/>
        <path id="ArialMT-54" d="M 1659 0 
L 1659 4041 
L 150 4041 
L 150 4581 
L 3781 4581 
L 3781 4041 
L 2266 4041 
L 2266 0 
L 1659 0 
z
" transform="scale(0.015625)"/>
       </defs>
       <use xlink:href="#ArialMT-43"/>
       <use xlink:href="#ArialMT-2192" x="72.216797"/>
       <use xlink:href="#ArialMT-54" x="172.216797"/>
      </g>
     </g>
    </g>
    <g id="xtick_3">
     <g id="line2d_3">
      <g>
       <use xlink:href="#m778af9012e" x="122.71" y="156.22" style="fill: #262626; stroke: #262626; stroke-width: 1.25"/>
      </g>
     </g>
     <g id="text_3">
      <!-- T→C -->
      <g style="fill: #262626" transform="translate(114.544609 170.730469) scale(0.07 -0.07)">
       <use xlink:href="#ArialMT-54"/>
       <use xlink:href="#ArialMT-2192" x="61.083984"/>
       <use xlink:href="#ArialMT-43" x="161.083984"/>
      </g>
     </g>
    </g>
    <g id="xtick_4">
     <g id="line2d_4">
      <g>
       <use xlink:href="#m778af9012e" x="157.49" y="156.22" style="fill: #262626; stroke: #262626; stroke-width: 1.25"/>
      </g>
     </g>
     <g id="text_4">
      <!-- C→A -->
      <g style="fill: #262626" transform="translate(149.127734 170.730469) scale(0.07 -0.07)">
       <use xlink:href="#ArialMT-43"/>
       <use xlink:href="#ArialMT-2192" x="72.216797"/>
       <use xlink:href="#ArialMT-41" x="172.216797"/>
      </g>
     </g>
    </g>
    <g id="xtick_5">
     <g id="line2d_5">
      <g>
       <use xlink:href="#m778af9012e" x="192.27" y="156.22" style="fill: #262626; stroke: #262626; stroke-width: 1.25"/>
      </g>
     </g>
     <g id="text_5">
      <!-- A→G -->
      <g style="fill: #262626" transform="translate(183.713047 170.730469) scale(0.07 -0.07)">
       <use xlink:href="#ArialMT-41"/>
       <use xlink:href="#ArialMT-2192" x="66.699219"/>
       <use xlink:href="#ArialMT-47" x="166.699219"/>
      </g>
     </g>
    </g>
    <g id="xtick_6">
     <g id="line2d_6">
      <g>
       <use xlink:href="#m778af9012e" x="227.05" y="156.22" style="fill: #262626; stroke: #262626; stroke-width: 1.25"/>
      </g>
     </g>
     <g id="text_6">
      <!-- G→T -->
      <g style="fill: #262626" transform="translate(218.689922 170.730469) scale(0.07 -0.07)">
       <use xlink:href="#ArialMT-47"/>
       <use xlink:href="#ArialMT-2192" x="77.783203"/>
       <use xlink:href="#ArialMT-54" x="177.783203"/>
      </g>
     </g>
    </g>
   </g>
   <g id="matplotlib.axis_2">
    <g id="ytick_1">
     <g id="line2d_7">
      <defs>
       <path id="m44fd0ea201" d="M 0 0 
L -6 0 
" style="stroke: #262626; stroke-width: 1.25"/>
      </defs>
      <g>
       <use xlink:href="#m44fd0ea201" x="35.76" y="143.831667" style="fill: #262626; stroke: #262626; stroke-width: 1.25"/>
      </g>
     </g>
     <g id="text_7">
      <!-- −3 -->
      <g style="fill: #262626" transform="translate(18.278906 146.336901) scale(0.07 -0.07)">
       <defs>
        <path id="ArialMT-2212" d="M 3381 1997 
L 356 1997 
L 356 2522 
L 3381 2522 
L 3381 1997 
z
" transform="scale(0.015625)"/>
        <path id="ArialMT-33" d="M 269 1209 
L 831 1284 
Q 928 806 1161 595 
Q 1394 384 1728 384 
Q 2125 384 2398 659 
Q 2672 934 2672 1341 
Q 2672 1728 2419 1979 
Q 2166 2231 1775 2231 
Q 1616 2231 1378 2169 
L 1441 2663 
Q 1497 2656 1531 2656 
Q 1891 2656 2178 2843 
Q 2466 3031 2466 3422 
Q 2466 3731 2256 3934 
Q 2047 4138 1716 4138 
Q 1388 4138 1169 3931 
Q 950 3725 888 3313 
L 325 3413 
Q 428 3978 793 4289 
Q 1159 4600 1703 4600 
Q 2078 4600 2393 4439 
Q 2709 4278 2876 4000 
Q 3044 3722 3044 3409 
Q 3044 3113 2884 2869 
Q 2725 2625 2413 2481 
Q 2819 2388 3044 2092 
Q 3269 1797 3269 1353 
Q 3269 753 2831 336 
Q 2394 -81 1725 -81 
Q 1122 -81 723 278 
Q 325 638 269 1209 
z
" transform="scale(0.015625)"/>
       </defs>
       <use xlink:href="#ArialMT-2212"/>
       <use xlink:href="#ArialMT-33" x="58.398438"/>
      </g>
     </g>
    </g>
    <g id="ytick_2">
     <g id="line2d_8">
      <g>
       <use xlink:href="#m44fd0ea201" x="35.76" y="119.055" style="fill: #262626; stroke: #262626; stroke-width: 1.25"/>
      </g>
     </g>
     <g id="text_8">
      <!-- −2 -->
      <g style="fill: #262626" transform="translate(18.278906 121.560234) scale(0.07 -0.07)">
       <defs>
        <path id="ArialMT-32" d="M 3222 541 
L 3222 0 
L 194 0 
Q 188 203 259 391 
Q 375 700 629 1000 
Q 884 1300 1366 1694 
Q 2113 2306 2375 2664 
Q 2638 3022 2638 3341 
Q 2638 3675 2398 3904 
Q 2159 4134 1775 4134 
Q 1369 4134 1125 3890 
Q 881 3647 878 3216 
L 300 3275 
Q 359 3922 746 4261 
Q 1134 4600 1788 4600 
Q 2447 4600 2831 4234 
Q 3216 3869 3216 3328 
Q 3216 3053 3103 2787 
Q 2991 2522 2730 2228 
Q 2469 1934 1863 1422 
Q 1356 997 1212 845 
Q 1069 694 975 541 
L 3222 541 
z
" transform="scale(0.015625)"/>
       </defs>
       <use xlink:href="#ArialMT-2212"/>
       <use xlink:href="#ArialMT-32" x="58.398438"/>
      </g>
     </g>
    </g>
    <g id="ytick_3">
     <g id="line2d_9">
      <g>
       <use xlink:href="#m44fd0ea201" x="35.76" y="94.278333" style="fill: #262626; stroke: #262626; stroke-width: 1.25"/>
      </g>
     </g>
     <g id="text_9">
      <!-- −1 -->
      <g style="fill: #262626" transform="translate(18.278906 96.783568) scale(0.07 -0.07)">
       <defs>
        <path id="ArialMT-31" d="M 2384 0 
L 1822 0 
L 1822 3584 
Q 1619 3391 1289 3197 
Q 959 3003 697 2906 
L 697 3450 
Q 1169 3672 1522 3987 
Q 1875 4303 2022 4600 
L 2384 4600 
L 2384 0 
z
" transform="scale(0.015625)"/>
       </defs>
       <use xlink:href="#ArialMT-2212"/>
       <use xlink:href="#ArialMT-31" x="58.398438"/>
      </g>
     </g>
    </g>
    <g id="ytick_4">
     <g id="line2d_10">
      <g>
       <use xlink:href="#m44fd0ea201" x="35.76" y="69.501667" style="fill: #262626; stroke: #262626; stroke-width: 1.25"/>
      </g>
     </g>
     <g id="text_10">
      <!-- 0 -->
      <g style="fill: #262626" transform="translate(22.367344 72.006901) scale(0.07 -0.07)">
       <defs>
        <path id="ArialMT-30" d="M 266 2259 
Q 266 3072 433 3567 
Q 600 4063 929 4331 
Q 1259 4600 1759 4600 
Q 2128 4600 2406 4451 
Q 2684 4303 2865 4023 
Q 3047 3744 3150 3342 
Q 3253 2941 3253 2259 
Q 3253 1453 3087 958 
Q 2922 463 2592 192 
Q 2263 -78 1759 -78 
Q 1097 -78 719 397 
Q 266 969 266 2259 
z
M 844 2259 
Q 844 1131 1108 757 
Q 1372 384 1759 384 
Q 2147 384 2411 759 
Q 2675 1134 2675 2259 
Q 2675 3391 2411 3762 
Q 2147 4134 1753 4134 
Q 1366 4134 1134 3806 
Q 844 3388 844 2259 
z
" transform="scale(0.015625)"/>
       </defs>
       <use xlink:href="#ArialMT-30"/>
      </g>
     </g>
    </g>
    <g id="ytick_5">
     <g id="line2d_11">
      <g>
       <use xlink:href="#m44fd0ea201" x="35.76" y="44.725" style="fill: #262626; stroke: #262626; stroke-width: 1.25"/>
      </g>
     </g>
     <g id="text_11">
      <!-- 1 -->
      <g style="fill: #262626" transform="translate(22.367344 47.230234) scale(0.07 -0.07)">
       <use xlink:href="#ArialMT-31"/>
      </g>
     </g>
    </g>
    <g id="ytick_6">
     <g id="line2d_12">
      <g>
       <use xlink:href="#m44fd0ea201" x="35.76" y="19.948333" style="fill: #262626; stroke: #262626; stroke-width: 1.25"/>
      </g>
     </g>
     <g id="text_12">
      <!-- 2 -->
      <g style="fill: #262626" transform="translate(22.367344 22.453568) scale(0.07 -0.07)">
       <use xlink:href="#ArialMT-32"/>
      </g>
     </g>
    </g>
    <g id="text_13">
     <!-- Estimated mutational fitness -->
     <g style="fill: #262626" transform="translate(12.887656 125.658047) rotate(-90) scale(0.07 -0.07)">
      <defs>
       <path id="ArialMT-45" d="M 506 0 
L 506 4581 
L 3819 4581 
L 3819 4041 
L 1113 4041 
L 1113 2638 
L 3647 2638 
L 3647 2100 
L 1113 2100 
L 1113 541 
L 3925 541 
L 3925 0 
L 506 0 
z
" transform="scale(0.015625)"/>
       <path id="ArialMT-73" d="M 197 991 
L 753 1078 
Q 800 744 1014 566 
Q 1228 388 1613 388 
Q 2000 388 2187 545 
Q 2375 703 2375 916 
Q 2375 1106 2209 1216 
Q 2094 1291 1634 1406 
Q 1016 1563 777 1677 
Q 538 1791 414 1992 
Q 291 2194 291 2438 
Q 291 2659 392 2848 
Q 494 3038 669 3163 
Q 800 3259 1026 3326 
Q 1253 3394 1513 3394 
Q 1903 3394 2198 3281 
Q 2494 3169 2634 2976 
Q 2775 2784 2828 2463 
L 2278 2388 
Q 2241 2644 2061 2787 
Q 1881 2931 1553 2931 
Q 1166 2931 1000 2803 
Q 834 2675 834 2503 
Q 834 2394 903 2306 
Q 972 2216 1119 2156 
Q 1203 2125 1616 2013 
Q 2213 1853 2448 1751 
Q 2684 1650 2818 1456 
Q 2953 1263 2953 975 
Q 2953 694 2789 445 
Q 2625 197 2315 61 
Q 2006 -75 1616 -75 
Q 969 -75 630 194 
Q 291 463 197 991 
z
" transform="scale(0.015625)"/>
       <path id="ArialMT-74" d="M 1650 503 
L 1731 6 
Q 1494 -44 1306 -44 
Q 1000 -44 831 53 
Q 663 150 594 308 
Q 525 466 525 972 
L 525 2881 
L 113 2881 
L 113 3319 
L 525 3319 
L 525 4141 
L 1084 4478 
L 1084 3319 
L 1650 3319 
L 1650 2881 
L 1084 2881 
L 1084 941 
Q 1084 700 1114 631 
Q 1144 563 1211 522 
Q 1278 481 1403 481 
Q 1497 481 1650 503 
z
" transform="scale(0.015625)"/>
       <path id="ArialMT-69" d="M 425 3934 
L 425 4581 
L 988 4581 
L 988 3934 
L 425 3934 
z
M 425 0 
L 425 3319 
L 988 3319 
L 988 0 
L 425 0 
z
" transform="scale(0.015625)"/>
       <path id="ArialMT-6d" d="M 422 0 
L 422 3319 
L 925 3319 
L 925 2853 
Q 1081 3097 1340 3245 
Q 1600 3394 1931 3394 
Q 2300 3394 2536 3241 
Q 2772 3088 2869 2813 
Q 3263 3394 3894 3394 
Q 4388 3394 4653 3120 
Q 4919 2847 4919 2278 
L 4919 0 
L 4359 0 
L 4359 2091 
Q 4359 2428 4304 2576 
Q 4250 2725 4106 2815 
Q 3963 2906 3769 2906 
Q 3419 2906 3187 2673 
Q 2956 2441 2956 1928 
L 2956 0 
L 2394 0 
L 2394 2156 
Q 2394 2531 2256 2718 
Q 2119 2906 1806 2906 
Q 1569 2906 1367 2781 
Q 1166 2656 1075 2415 
Q 984 2175 984 1722 
L 984 0 
L 422 0 
z
" transform="scale(0.015625)"/>
       <path id="ArialMT-61" d="M 2588 409 
Q 2275 144 1986 34 
Q 1697 -75 1366 -75 
Q 819 -75 525 192 
Q 231 459 231 875 
Q 231 1119 342 1320 
Q 453 1522 633 1644 
Q 813 1766 1038 1828 
Q 1203 1872 1538 1913 
Q 2219 1994 2541 2106 
Q 2544 2222 2544 2253 
Q 2544 2597 2384 2738 
Q 2169 2928 1744 2928 
Q 1347 2928 1158 2789 
Q 969 2650 878 2297 
L 328 2372 
Q 403 2725 575 2942 
Q 747 3159 1072 3276 
Q 1397 3394 1825 3394 
Q 2250 3394 2515 3294 
Q 2781 3194 2906 3042 
Q 3031 2891 3081 2659 
Q 3109 2516 3109 2141 
L 3109 1391 
Q 3109 606 3145 398 
Q 3181 191 3288 0 
L 2700 0 
Q 2613 175 2588 409 
z
M 2541 1666 
Q 2234 1541 1622 1453 
Q 1275 1403 1131 1340 
Q 988 1278 909 1158 
Q 831 1038 831 891 
Q 831 666 1001 516 
Q 1172 366 1500 366 
Q 1825 366 2078 508 
Q 2331 650 2450 897 
Q 2541 1088 2541 1459 
L 2541 1666 
z
" transform="scale(0.015625)"/>
       <path id="ArialMT-65" d="M 2694 1069 
L 3275 997 
Q 3138 488 2766 206 
Q 2394 -75 1816 -75 
Q 1088 -75 661 373 
Q 234 822 234 1631 
Q 234 2469 665 2931 
Q 1097 3394 1784 3394 
Q 2450 3394 2872 2941 
Q 3294 2488 3294 1666 
Q 3294 1616 3291 1516 
L 816 1516 
Q 847 969 1125 678 
Q 1403 388 1819 388 
Q 2128 388 2347 550 
Q 2566 713 2694 1069 
z
M 847 1978 
L 2700 1978 
Q 2663 2397 2488 2606 
Q 2219 2931 1791 2931 
Q 1403 2931 1139 2672 
Q 875 2413 847 1978 
z
" transform="scale(0.015625)"/>
       <path id="ArialMT-64" d="M 2575 0 
L 2575 419 
Q 2259 -75 1647 -75 
Q 1250 -75 917 144 
Q 584 363 401 755 
Q 219 1147 219 1656 
Q 219 2153 384 2558 
Q 550 2963 881 3178 
Q 1213 3394 1622 3394 
Q 1922 3394 2156 3267 
Q 2391 3141 2538 2938 
L 2538 4581 
L 3097 4581 
L 3097 0 
L 2575 0 
z
M 797 1656 
Q 797 1019 1065 703 
Q 1334 388 1700 388 
Q 2069 388 2326 689 
Q 2584 991 2584 1609 
Q 2584 2291 2321 2609 
Q 2059 2928 1675 2928 
Q 1300 2928 1048 2622 
Q 797 2316 797 1656 
z
" transform="scale(0.015625)"/>
       <path id="ArialMT-20" transform="scale(0.015625)"/>
       <path id="ArialMT-75" d="M 2597 0 
L 2597 488 
Q 2209 -75 1544 -75 
Q 1250 -75 995 37 
Q 741 150 617 320 
Q 494 491 444 738 
Q 409 903 409 1263 
L 409 3319 
L 972 3319 
L 972 1478 
Q 972 1038 1006 884 
Q 1059 663 1231 536 
Q 1403 409 1656 409 
Q 1909 409 2131 539 
Q 2353 669 2445 892 
Q 2538 1116 2538 1541 
L 2538 3319 
L 3100 3319 
L 3100 0 
L 2597 0 
z
" transform="scale(0.015625)"/>
       <path id="ArialMT-6f" d="M 213 1659 
Q 213 2581 725 3025 
Q 1153 3394 1769 3394 
Q 2453 3394 2887 2945 
Q 3322 2497 3322 1706 
Q 3322 1066 3130 698 
Q 2938 331 2570 128 
Q 2203 -75 1769 -75 
Q 1072 -75 642 372 
Q 213 819 213 1659 
z
M 791 1659 
Q 791 1022 1069 705 
Q 1347 388 1769 388 
Q 2188 388 2466 706 
Q 2744 1025 2744 1678 
Q 2744 2294 2464 2611 
Q 2184 2928 1769 2928 
Q 1347 2928 1069 2612 
Q 791 2297 791 1659 
z
" transform="scale(0.015625)"/>
       <path id="ArialMT-6e" d="M 422 0 
L 422 3319 
L 928 3319 
L 928 2847 
Q 1294 3394 1984 3394 
Q 2284 3394 2536 3286 
Q 2788 3178 2913 3003 
Q 3038 2828 3088 2588 
Q 3119 2431 3119 2041 
L 3119 0 
L 2556 0 
L 2556 2019 
Q 2556 2363 2490 2533 
Q 2425 2703 2258 2804 
Q 2091 2906 1866 2906 
Q 1506 2906 1245 2678 
Q 984 2450 984 1813 
L 984 0 
L 422 0 
z
" transform="scale(0.015625)"/>
       <path id="ArialMT-6c" d="M 409 0 
L 409 4581 
L 972 4581 
L 972 0 
L 409 0 
z
" transform="scale(0.015625)"/>
       <path id="ArialMT-66" d="M 556 0 
L 556 2881 
L 59 2881 
L 59 3319 
L 556 3319 
L 556 3672 
Q 556 4006 616 4169 
Q 697 4388 901 4523 
Q 1106 4659 1475 4659 
Q 1713 4659 2000 4603 
L 1916 4113 
Q 1741 4144 1584 4144 
Q 1328 4144 1222 4034 
Q 1116 3925 1116 3625 
L 1116 3319 
L 1763 3319 
L 1763 2881 
L 1116 2881 
L 1116 0 
L 556 0 
z
" transform="scale(0.015625)"/>
      </defs>
      <use xlink:href="#ArialMT-45"/>
      <use xlink:href="#ArialMT-73" x="66.699219"/>
      <use xlink:href="#ArialMT-74" x="116.699219"/>
      <use xlink:href="#ArialMT-69" x="144.482422"/>
      <use xlink:href="#ArialMT-6d" x="166.699219"/>
      <use xlink:href="#ArialMT-61" x="250"/>
      <use xlink:href="#ArialMT-74" x="305.615234"/>
      <use xlink:href="#ArialMT-65" x="333.398438"/>
      <use xlink:href="#ArialMT-64" x="389.013672"/>
      <use xlink:href="#ArialMT-20" x="444.628906"/>
      <use xlink:href="#ArialMT-6d" x="472.412109"/>
      <use xlink:href="#ArialMT-75" x="555.712891"/>
      <use xlink:href="#ArialMT-74" x="611.328125"/>
      <use xlink:href="#ArialMT-61" x="639.111328"/>
      <use xlink:href="#ArialMT-74" x="694.726562"/>
      <use xlink:href="#ArialMT-69" x="722.509766"/>
      <use xlink:href="#ArialMT-6f" x="744.726562"/>
      <use xlink:href="#ArialMT-6e" x="800.341797"/>
      <use xlink:href="#ArialMT-61" x="855.957031"/>
      <use xlink:href="#ArialMT-6c" x="911.572266"/>
      <use xlink:href="#ArialMT-20" x="933.789062"/>
      <use xlink:href="#ArialMT-66" x="961.572266"/>
      <use xlink:href="#ArialMT-69" x="989.355469"/>
      <use xlink:href="#ArialMT-74" x="1011.572266"/>
      <use xlink:href="#ArialMT-6e" x="1039.355469"/>
      <use xlink:href="#ArialMT-65" x="1094.970703"/>
      <use xlink:href="#ArialMT-73" x="1150.585938"/>
      <use xlink:href="#ArialMT-73" x="1200.585938"/>
     </g>
    </g>
   </g>
   <g id="PolyCollection_1">
    <path d="M 51.7588 226.925258 
L 51.745223 226.925258 
L 51.732701 224.684745 
L 51.714695 222.444231 
L 51.693279 220.203718 
L 51.673233 217.963205 
L 51.660566 215.722692 
L 51.659659 213.482179 
L 51.670842 211.241666 
L 51.690199 209.001153 
L 51.711765 206.76064 
L 51.730451 204.520126 
L 51.743779 202.279613 
L 51.751803 200.0391 
L 51.755935 197.798587 
L 51.757769 195.558074 
L 51.758474 193.317561 
L 51.758709 191.077048 
L 51.758778 188.836535 
L 51.758795 186.596022 
L 51.758799 184.355508 
L 51.7588 182.114995 
L 51.7588 179.874482 
L 51.7588 177.633969 
L 51.7588 175.393456 
L 51.7588 173.152943 
L 51.7588 170.91243 
L 51.758799 168.671917 
L 51.758794 166.431403 
L 51.758771 164.19089 
L 51.758683 161.950377 
L 51.75839 159.709864 
L 51.757535 157.469351 
L 51.755372 155.228838 
L 51.75063 152.988325 
L 51.741682 150.747812 
L 51.727263 148.507299 
L 51.707698 146.266785 
L 51.685911 144.026272 
L 51.667084 141.785759 
L 51.656414 139.545246 
L 51.655905 137.304733 
L 51.662317 135.06422 
L 51.667786 132.823707 
L 51.6625 130.583194 
L 51.637038 128.34268 
L 51.582219 126.102167 
L 51.486746 123.861654 
L 51.335451 121.621141 
L 51.111397 119.380628 
L 50.802198 117.140115 
L 50.406898 114.899602 
L 49.938404 112.659089 
L 49.41953 110.418576 
L 48.875212 108.178062 
L 48.324862 105.937549 
L 47.77659 103.697036 
L 47.222991 101.456523 
L 46.639631 99.21601 
L 45.990612 96.975497 
L 45.245057 94.734984 
L 44.401511 92.494471 
L 43.508435 90.253957 
L 42.666766 88.013444 
L 42.008757 85.772931 
L 41.660307 83.532418 
L 41.702221 81.291905 
L 42.145076 79.051392 
L 42.925949 76.810879 
L 43.927443 74.570366 
L 45.011612 72.329853 
L 46.055355 70.089339 
L 46.974355 67.848826 
L 47.730505 65.608313 
L 48.326332 63.3678 
L 48.792403 61.127287 
L 49.171512 58.886774 
L 49.502546 56.646261 
L 49.808507 54.405748 
L 50.093435 52.165234 
L 50.349431 49.924721 
L 50.569152 47.684208 
L 50.75534 45.443695 
L 50.9207 43.203182 
L 51.078736 40.962669 
L 51.233382 38.722156 
L 51.375949 36.481643 
L 51.491315 34.24113 
L 51.567947 32.000616 
L 51.604531 29.760103 
L 51.610082 27.51959 
L 51.599272 25.279077 
L 51.586717 23.038564 
L 51.582945 20.798051 
L 51.592753 18.557538 
L 51.615471 16.317025 
L 51.646443 14.076511 
L 51.679273 11.835998 
L 51.708256 9.595485 
L 51.730098 7.354972 
L 51.744298 5.114459 
L 51.7588 5.114459 
L 51.7588 5.114459 
L 51.7588 7.354972 
L 51.7588 9.595485 
L 51.7588 11.835998 
L 51.7588 14.076511 
L 51.7588 16.317025 
L 51.7588 18.557538 
L 51.7588 20.798051 
L 51.7588 23.038564 
L 51.7588 25.279077 
L 51.7588 27.51959 
L 51.7588 29.760103 
L 51.7588 32.000616 
L 51.7588 34.24113 
L 51.7588 36.481643 
L 51.7588 38.722156 
L 51.7588 40.962669 
L 51.7588 43.203182 
L 51.7588 45.443695 
L 51.7588 47.684208 
L 51.7588 49.924721 
L 51.7588 52.165234 
L 51.7588 54.405748 
L 51.7588 56.646261 
L 51.7588 58.886774 
L 51.7588 61.127287 
L 51.7588 63.3678 
L 51.7588 65.608313 
L 51.7588 67.848826 
L 51.7588 70.089339 
L 51.7588 72.329853 
L 51.7588 74.570366 
L 51.7588 76.810879 
L 51.7588 79.051392 
L 51.7588 81.291905 
L 51.7588 83.532418 
L 51.7588 85.772931 
L 51.7588 88.013444 
L 51.7588 90.253957 
L 51.7588 92.494471 
L 51.7588 94.734984 
L 51.7588 96.975497 
L 51.7588 99.21601 
L 51.7588 101.456523 
L 51.7588 103.697036 
L 51.7588 105.937549 
L 51.7588 108.178062 
L 51.7588 110.418576 
L 51.7588 112.659089 
L 51.7588 114.899602 
L 51.7588 117.140115 
L 51.7588 119.380628 
L 51.7588 121.621141 
L 51.7588 123.861654 
L 51.7588 126.102167 
L 51.7588 128.34268 
L 51.7588 130.583194 
L 51.7588 132.823707 
L 51.7588 135.06422 
L 51.7588 137.304733 
L 51.7588 139.545246 
L 51.7588 141.785759 
L 51.7588 144.026272 
L 51.7588 146.266785 
L 51.7588 148.507299 
L 51.7588 150.747812 
L 51.7588 152.988325 
L 51.7588 155.228838 
L 51.7588 157.469351 
L 51.7588 159.709864 
L 51.7588 161.950377 
L 51.7588 164.19089 
L 51.7588 166.431403 
L 51.7588 168.671917 
L 51.7588 170.91243 
L 51.7588 173.152943 
L 51.7588 175.393456 
L 51.7588 177.633969 
L 51.7588 179.874482 
L 51.7588 182.114995 
L 51.7588 184.355508 
L 51.7588 186.596022 
L 51.7588 188.836535 
L 51.7588 191.077048 
L 51.7588 193.317561 
L 51.7588 195.558074 
L 51.7588 197.798587 
L 51.7588 200.0391 
L 51.7588 202.279613 
L 51.7588 204.520126 
L 51.7588 206.76064 
L 51.7588 209.001153 
L 51.7588 211.241666 
L 51.7588 213.482179 
L 51.7588 215.722692 
L 51.7588 217.963205 
L 51.7588 220.203718 
L 51.7588 222.444231 
L 51.7588 224.684745 
L 51.7588 226.925258 
z
" clip-path="url(#p4a455272d1)" style="fill: #2b8e70"/>
   </g>
   <g id="PolyCollection_2">
    <path d="M 54.547926 224.066256 
L 54.5412 224.066256 
L 54.5412 222.039418 
L 54.5412 220.012581 
L 54.5412 217.985743 
L 54.5412 215.958905 
L 54.5412 213.932067 
L 54.5412 211.90523 
L 54.5412 209.878392 
L 54.5412 207.851554 
L 54.5412 205.824717 
L 54.5412 203.797879 
L 54.5412 201.771041 
L 54.5412 199.744204 
L 54.5412 197.717366 
L 54.5412 195.690528 
L 54.5412 193.66369 
L 54.5412 191.636853 
L 54.5412 189.610015 
L 54.5412 187.583177 
L 54.5412 185.55634 
L 54.5412 183.529502 
L 54.5412 181.502664 
L 54.5412 179.475827 
L 54.5412 177.448989 
L 54.5412 175.422151 
L 54.5412 173.395314 
L 54.5412 171.368476 
L 54.5412 169.341638 
L 54.5412 167.3148 
L 54.5412 165.287963 
L 54.5412 163.261125 
L 54.5412 161.234287 
L 54.5412 159.20745 
L 54.5412 157.180612 
L 54.5412 155.153774 
L 54.5412 153.126937 
L 54.5412 151.100099 
L 54.5412 149.073261 
L 54.5412 147.046423 
L 54.5412 145.019586 
L 54.5412 142.992748 
L 54.5412 140.96591 
L 54.5412 138.939073 
L 54.5412 136.912235 
L 54.5412 134.885397 
L 54.5412 132.85856 
L 54.5412 130.831722 
L 54.5412 128.804884 
L 54.5412 126.778047 
L 54.5412 124.751209 
L 54.5412 122.724371 
L 54.5412 120.697533 
L 54.5412 118.670696 
L 54.5412 116.643858 
L 54.5412 114.61702 
L 54.5412 112.590183 
L 54.5412 110.563345 
L 54.5412 108.536507 
L 54.5412 106.50967 
L 54.5412 104.482832 
L 54.5412 102.455994 
L 54.5412 100.429157 
L 54.5412 98.402319 
L 54.5412 96.375481 
L 54.5412 94.348643 
L 54.5412 92.321806 
L 54.5412 90.294968 
L 54.5412 88.26813 
L 54.5412 86.241293 
L 54.5412 84.214455 
L 54.5412 82.187617 
L 54.5412 80.16078 
L 54.5412 78.133942 
L 54.5412 76.107104 
L 54.5412 74.080266 
L 54.5412 72.053429 
L 54.5412 70.026591 
L 54.5412 67.999753 
L 54.5412 65.972916 
L 54.5412 63.946078 
L 54.5412 61.91924 
L 54.5412 59.892403 
L 54.5412 57.865565 
L 54.5412 55.838727 
L 54.5412 53.81189 
L 54.5412 51.785052 
L 54.5412 49.758214 
L 54.5412 47.731376 
L 54.5412 45.704539 
L 54.5412 43.677701 
L 54.5412 41.650863 
L 54.5412 39.624026 
L 54.5412 37.597188 
L 54.5412 35.57035 
L 54.5412 33.543513 
L 54.5412 31.516675 
L 54.5412 29.489837 
L 54.5412 27.462999 
L 54.5412 25.436162 
L 54.5412 23.409324 
L 54.548482 23.409324 
L 54.548482 23.409324 
L 54.557574 25.436162 
L 54.573328 27.462999 
L 54.597764 29.489837 
L 54.634064 31.516675 
L 54.689117 33.543513 
L 54.774715 35.57035 
L 54.903672 37.597188 
L 55.080814 39.624026 
L 55.295758 41.650863 
L 55.527564 43.677701 
L 55.762516 45.704539 
L 56.010034 47.731376 
L 56.297744 49.758214 
L 56.646558 51.785052 
L 57.049735 53.81189 
L 57.476391 55.838727 
L 57.894236 57.865565 
L 58.29047 59.892403 
L 58.677693 61.91924 
L 59.08611 63.946078 
L 59.548798 65.972916 
L 60.087431 67.999753 
L 60.707114 70.026591 
L 61.40239 72.053429 
L 62.160385 74.080266 
L 62.94522 76.107104 
L 63.675839 78.133942 
L 64.232525 80.16078 
L 64.50435 82.187617 
L 64.445449 84.214455 
L 64.098396 86.241293 
L 63.570565 88.26813 
L 62.978559 90.294968 
L 62.393132 92.321806 
L 61.820649 94.348643 
L 61.233356 96.375481 
L 60.618215 98.402319 
L 59.996787 100.429157 
L 59.40099 102.455994 
L 58.838085 104.482832 
L 58.287342 106.50967 
L 57.730005 108.536507 
L 57.174465 110.563345 
L 56.649606 112.590183 
L 56.181228 114.61702 
L 55.780676 116.643858 
L 55.449835 118.670696 
L 55.186746 120.697533 
L 54.985119 122.724371 
L 54.834456 124.751209 
L 54.724124 126.778047 
L 54.646586 128.804884 
L 54.596608 130.831722 
L 54.569091 132.85856 
L 54.558605 134.885397 
L 54.56017 136.912235 
L 54.569262 138.939073 
L 54.580851 140.96591 
L 54.589296 142.992748 
L 54.590268 145.019586 
L 54.583154 147.046423 
L 54.571243 149.073261 
L 54.559216 151.100099 
L 54.550248 153.126937 
L 54.545006 155.153774 
L 54.542549 157.180612 
L 54.54164 159.20745 
L 54.541498 161.234287 
L 54.541963 163.261125 
L 54.543508 165.287963 
L 54.54719 167.3148 
L 54.554238 169.341638 
L 54.564965 171.368476 
L 54.577476 173.395314 
L 54.587571 175.422151 
L 54.590838 177.448989 
L 54.585696 179.475827 
L 54.574602 181.502664 
L 54.562198 183.529502 
L 54.552254 185.55634 
L 54.546073 187.583177 
L 54.542999 189.610015 
L 54.541757 191.636853 
L 54.541348 193.66369 
L 54.541256 195.690528 
L 54.541324 197.717366 
L 54.541669 199.744204 
L 54.54275 201.771041 
L 54.545501 203.797879 
L 54.551195 205.824717 
L 54.560649 207.851554 
L 54.572892 209.878392 
L 54.584446 211.90523 
L 54.590619 213.932067 
L 54.588491 215.958905 
L 54.579097 217.985743 
L 54.566632 220.012581 
L 54.555492 222.039418 
L 54.547926 224.066256 
z
" clip-path="url(#p4a455272d1)" style="fill: #be631d"/>
   </g>
   <g id="PolyCollection_3">
    <path d="M 86.5388 217.410527 
L 86.532196 217.410527 
L 86.525301 215.250686 
L 86.515229 213.090844 
L 86.503637 210.931003 
L 86.493985 208.771161 
L 86.490005 206.61132 
L 86.493412 204.451479 
L 86.50273 202.291637 
L 86.514312 200.131796 
L 86.524596 197.971955 
L 86.531762 195.812113 
L 86.53582 193.652272 
L 86.537722 191.49243 
L 86.538467 189.332589 
L 86.538712 187.172748 
L 86.53878 185.012906 
L 86.538796 182.853065 
L 86.538799 180.693223 
L 86.5388 178.533382 
L 86.5388 176.373541 
L 86.5388 174.213699 
L 86.5388 172.053858 
L 86.5388 169.894016 
L 86.5388 167.734175 
L 86.5388 165.574334 
L 86.5388 163.414492 
L 86.5388 161.254651 
L 86.5388 159.094809 
L 86.5388 156.934968 
L 86.5388 154.775127 
L 86.5388 152.615285 
L 86.5388 150.455444 
L 86.5388 148.295603 
L 86.5388 146.135761 
L 86.5388 143.97592 
L 86.5388 141.816078 
L 86.5388 139.656237 
L 86.538798 137.496396 
L 86.538789 135.336554 
L 86.538744 133.176713 
L 86.538563 131.016871 
L 86.537935 128.85703 
L 86.536063 126.697189 
L 86.531266 124.537347 
L 86.520662 122.377506 
L 86.50032 120.217664 
L 86.466143 118.057823 
L 86.415175 115.897982 
L 86.346472 113.73814 
L 86.260954 111.578299 
L 86.1604 109.418457 
L 86.046011 107.258616 
L 85.916354 105.098775 
L 85.764735 102.938933 
L 85.577749 100.779092 
L 85.337669 98.619251 
L 85.02904 96.459409 
L 84.645746 94.299568 
L 84.194142 92.139726 
L 83.692834 89.979885 
L 83.174938 87.820044 
L 82.694318 85.660202 
L 82.324726 83.500361 
L 82.137434 81.340519 
L 82.161664 79.180678 
L 82.356487 77.020837 
L 82.62151 74.860995 
L 82.842159 72.701154 
L 82.936037 70.541312 
L 82.868911 68.381471 
L 82.636473 66.22163 
L 82.233285 64.061788 
L 81.635748 61.901947 
L 80.813939 59.742105 
L 79.769216 57.582264 
L 78.578067 55.422423 
L 77.411956 53.262581 
L 76.507297 51.10274 
L 76.087476 48.942899 
L 76.275267 46.783057 
L 77.045414 44.623216 
L 78.241339 42.463374 
L 79.641074 40.303533 
L 81.034893 38.143692 
L 82.278985 35.98385 
L 83.309057 33.824009 
L 84.122151 31.664167 
L 84.747818 29.504326 
L 85.224965 27.344485 
L 85.58867 25.184643 
L 85.864978 23.024802 
L 86.071464 20.86496 
L 86.221116 18.705119 
L 86.326012 16.545278 
L 86.398199 14.385436 
L 86.448127 12.225595 
L 86.483025 10.065753 
L 86.506983 7.905912 
L 86.522392 5.746071 
L 86.531297 3.586229 
L 86.5388 3.586229 
L 86.5388 3.586229 
L 86.5388 5.746071 
L 86.5388 7.905912 
L 86.5388 10.065753 
L 86.5388 12.225595 
L 86.5388 14.385436 
L 86.5388 16.545278 
L 86.5388 18.705119 
L 86.5388 20.86496 
L 86.5388 23.024802 
L 86.5388 25.184643 
L 86.5388 27.344485 
L 86.5388 29.504326 
L 86.5388 31.664167 
L 86.5388 33.824009 
L 86.5388 35.98385 
L 86.5388 38.143692 
L 86.5388 40.303533 
L 86.5388 42.463374 
L 86.5388 44.623216 
L 86.5388 46.783057 
L 86.5388 48.942899 
L 86.5388 51.10274 
L 86.5388 53.262581 
L 86.5388 55.422423 
L 86.5388 57.582264 
L 86.5388 59.742105 
L 86.5388 61.901947 
L 86.5388 64.061788 
L 86.5388 66.22163 
L 86.5388 68.381471 
L 86.5388 70.541312 
L 86.5388 72.701154 
L 86.5388 74.860995 
L 86.5388 77.020837 
L 86.5388 79.180678 
L 86.5388 81.340519 
L 86.5388 83.500361 
L 86.5388 85.660202 
L 86.5388 87.820044 
L 86.5388 89.979885 
L 86.5388 92.139726 
L 86.5388 94.299568 
L 86.5388 96.459409 
L 86.5388 98.619251 
L 86.5388 100.779092 
L 86.5388 102.938933 
L 86.5388 105.098775 
L 86.5388 107.258616 
L 86.5388 109.418457 
L 86.5388 111.578299 
L 86.5388 113.73814 
L 86.5388 115.897982 
L 86.5388 118.057823 
L 86.5388 120.217664 
L 86.5388 122.377506 
L 86.5388 124.537347 
L 86.5388 126.697189 
L 86.5388 128.85703 
L 86.5388 131.016871 
L 86.5388 133.176713 
L 86.5388 135.336554 
L 86.5388 137.496396 
L 86.5388 139.656237 
L 86.5388 141.816078 
L 86.5388 143.97592 
L 86.5388 146.135761 
L 86.5388 148.295603 
L 86.5388 150.455444 
L 86.5388 152.615285 
L 86.5388 154.775127 
L 86.5388 156.934968 
L 86.5388 159.094809 
L 86.5388 161.254651 
L 86.5388 163.414492 
L 86.5388 165.574334 
L 86.5388 167.734175 
L 86.5388 169.894016 
L 86.5388 172.053858 
L 86.5388 174.213699 
L 86.5388 176.373541 
L 86.5388 178.533382 
L 86.5388 180.693223 
L 86.5388 182.853065 
L 86.5388 185.012906 
L 86.5388 187.172748 
L 86.5388 189.332589 
L 86.5388 191.49243 
L 86.5388 193.652272 
L 86.5388 195.812113 
L 86.5388 197.971955 
L 86.5388 200.131796 
L 86.5388 202.291637 
L 86.5388 204.451479 
L 86.5388 206.61132 
L 86.5388 208.771161 
L 86.5388 210.931003 
L 86.5388 213.090844 
L 86.5388 215.250686 
L 86.5388 217.410527 
z
" clip-path="url(#p4a455272d1)" style="fill: #2b8e70"/>
   </g>
   <g id="PolyCollection_4">
    <path d="M 89.325486 228.527986 
L 89.3212 228.527986 
L 89.3212 226.376875 
L 89.3212 224.225765 
L 89.3212 222.074655 
L 89.3212 219.923544 
L 89.3212 217.772434 
L 89.3212 215.621323 
L 89.3212 213.470213 
L 89.3212 211.319103 
L 89.3212 209.167992 
L 89.3212 207.016882 
L 89.3212 204.865771 
L 89.3212 202.714661 
L 89.3212 200.563551 
L 89.3212 198.41244 
L 89.3212 196.26133 
L 89.3212 194.110219 
L 89.3212 191.959109 
L 89.3212 189.807999 
L 89.3212 187.656888 
L 89.3212 185.505778 
L 89.3212 183.354667 
L 89.3212 181.203557 
L 89.3212 179.052447 
L 89.3212 176.901336 
L 89.3212 174.750226 
L 89.3212 172.599116 
L 89.3212 170.448005 
L 89.3212 168.296895 
L 89.3212 166.145784 
L 89.3212 163.994674 
L 89.3212 161.843564 
L 89.3212 159.692453 
L 89.3212 157.541343 
L 89.3212 155.390232 
L 89.3212 153.239122 
L 89.3212 151.088012 
L 89.3212 148.936901 
L 89.3212 146.785791 
L 89.3212 144.63468 
L 89.3212 142.48357 
L 89.3212 140.33246 
L 89.3212 138.181349 
L 89.3212 136.030239 
L 89.3212 133.879128 
L 89.3212 131.728018 
L 89.3212 129.576908 
L 89.3212 127.425797 
L 89.3212 125.274687 
L 89.3212 123.123577 
L 89.3212 120.972466 
L 89.3212 118.821356 
L 89.3212 116.670245 
L 89.3212 114.519135 
L 89.3212 112.368025 
L 89.3212 110.216914 
L 89.3212 108.065804 
L 89.3212 105.914693 
L 89.3212 103.763583 
L 89.3212 101.612473 
L 89.3212 99.461362 
L 89.3212 97.310252 
L 89.3212 95.159141 
L 89.3212 93.008031 
L 89.3212 90.856921 
L 89.3212 88.70581 
L 89.3212 86.5547 
L 89.3212 84.403589 
L 89.3212 82.252479 
L 89.3212 80.101369 
L 89.3212 77.950258 
L 89.3212 75.799148 
L 89.3212 73.648038 
L 89.3212 71.496927 
L 89.3212 69.345817 
L 89.3212 67.194706 
L 89.3212 65.043596 
L 89.3212 62.892486 
L 89.3212 60.741375 
L 89.3212 58.590265 
L 89.3212 56.439154 
L 89.3212 54.288044 
L 89.3212 52.136934 
L 89.3212 49.985823 
L 89.3212 47.834713 
L 89.3212 45.683602 
L 89.3212 43.532492 
L 89.3212 41.381382 
L 89.3212 39.230271 
L 89.3212 37.079161 
L 89.3212 34.928051 
L 89.3212 32.77694 
L 89.3212 30.62583 
L 89.3212 28.474719 
L 89.3212 26.323609 
L 89.3212 24.172499 
L 89.3212 22.021388 
L 89.3212 19.870278 
L 89.3212 17.719167 
L 89.3212 15.568057 
L 89.325488 15.568057 
L 89.325488 15.568057 
L 89.330892 17.719167 
L 89.338969 19.870278 
L 89.347766 22.021388 
L 89.354181 24.172499 
L 89.357186 26.323609 
L 89.360949 28.474719 
L 89.374639 30.62583 
L 89.409354 32.77694 
L 89.476003 34.928051 
L 89.585589 37.079161 
L 89.747477 39.230271 
L 89.961438 41.381382 
L 90.209309 43.532492 
L 90.458683 45.683602 
L 90.680984 47.834713 
L 90.869216 49.985823 
L 91.037657 52.136934 
L 91.203785 54.288044 
L 91.374373 56.439154 
L 91.553196 58.590265 
L 91.758697 60.741375 
L 92.028732 62.892486 
L 92.407794 65.043596 
L 92.924949 67.194706 
L 93.572117 69.345817 
L 94.300117 71.496927 
L 95.043888 73.648038 
L 95.756332 75.799148 
L 96.416736 77.950258 
L 97.014184 80.101369 
L 97.539252 82.252479 
L 97.992687 84.403589 
L 98.375382 86.5547 
L 98.644501 88.70581 
L 98.691109 90.856921 
L 98.400528 93.008031 
L 97.762301 95.159141 
L 96.920376 97.310252 
L 96.100038 99.461362 
L 95.464592 101.612473 
L 95.020178 103.763583 
L 94.646563 105.914693 
L 94.219603 108.065804 
L 93.708097 110.216914 
L 93.165174 112.368025 
L 92.651203 114.519135 
L 92.181345 116.670245 
L 91.736407 118.821356 
L 91.300596 120.972466 
L 90.880061 123.123577 
L 90.495454 125.274687 
L 90.166909 127.425797 
L 89.90407 129.576908 
L 89.704158 131.728018 
L 89.557473 133.879128 
L 89.454535 136.030239 
L 89.387981 138.181349 
L 89.350115 140.33246 
L 89.331816 142.48357 
L 89.324464 144.63468 
L 89.322051 146.785791 
L 89.321479 148.936901 
L 89.321675 151.088012 
L 89.322738 153.239122 
L 89.325482 155.390232 
L 89.33087 157.541343 
L 89.338873 159.692453 
L 89.347333 161.843564 
L 89.352467 163.994674 
L 89.351469 166.145784 
L 89.344909 168.296895 
L 89.336227 170.448005 
L 89.328911 172.599116 
L 89.324433 174.750226 
L 89.32245 176.901336 
L 89.322191 179.052447 
L 89.323505 181.203557 
L 89.327026 183.354667 
L 89.333406 185.505778 
L 89.341927 187.656888 
L 89.349682 189.807999 
L 89.352868 191.959109 
L 89.349689 194.110219 
L 89.341937 196.26133 
L 89.333415 198.41244 
L 89.327031 200.563551 
L 89.323508 202.714661 
L 89.322191 204.865771 
L 89.322449 207.016882 
L 89.324429 209.167992 
L 89.328904 211.319103 
L 89.336217 213.470213 
L 89.344899 215.621323 
L 89.351464 217.772434 
L 89.352469 219.923544 
L 89.347341 222.074655 
L 89.338883 224.225765 
L 89.330878 226.376875 
L 89.325486 228.527986 
z
" clip-path="url(#p4a455272d1)" style="fill: #be631d"/>
   </g>
   <g id="PolyCollection_5">
    <path d="M 121.3188 200.745189 
L 121.313906 200.745189 
L 121.303859 198.259859 
L 121.289699 195.774528 
L 121.282638 193.289197 
L 121.290131 190.803867 
L 121.304299 188.318536 
L 121.31412 185.833206 
L 121.317836 183.347875 
L 121.318673 180.862545 
L 121.318789 178.377214 
L 121.318799 175.891883 
L 121.3188 173.406553 
L 121.3188 170.921222 
L 121.318795 168.435892 
L 121.318738 165.950561 
L 121.318328 163.465231 
L 121.316495 160.9799 
L 121.311622 158.494569 
L 121.304538 156.009239 
L 121.300706 153.523908 
L 121.30401 151.038578 
L 121.310044 148.553247 
L 121.310763 146.067917 
L 121.302039 143.582586 
L 121.288434 141.097255 
L 121.28273 138.611925 
L 121.291373 136.126594 
L 121.305171 133.641264 
L 121.312629 131.155933 
L 121.309975 128.670603 
L 121.296878 126.185272 
L 121.274484 123.699941 
L 121.247241 121.214611 
L 121.221714 118.72928 
L 121.19857 116.24395 
L 121.15764 113.758619 
L 121.059336 111.273289 
L 120.881217 108.787958 
L 120.645055 106.302627 
L 120.372215 103.817297 
L 120.027144 101.331966 
L 119.539216 98.846636 
L 118.879675 96.361305 
L 118.128959 93.875975 
L 117.405655 91.390644 
L 116.698692 88.905313 
L 115.898566 86.419983 
L 114.983677 83.934652 
L 114.094814 81.449322 
L 113.440497 78.963991 
L 113.092681 76.478661 
L 112.923927 73.99333 
L 112.80132 71.507999 
L 112.710818 69.022669 
L 112.672905 66.537338 
L 112.735733 64.052008 
L 113.031298 61.566677 
L 113.653062 59.081347 
L 114.554686 56.596016 
L 115.606194 54.110685 
L 116.633698 51.625355 
L 117.51131 49.140024 
L 118.238498 46.654694 
L 118.842307 44.169363 
L 119.309922 41.684033 
L 119.637098 39.198702 
L 119.874092 36.713371 
L 120.111278 34.228041 
L 120.394851 31.74271 
L 120.677298 29.25738 
L 120.889556 26.772049 
L 121.021811 24.286719 
L 121.106318 21.801388 
L 121.167289 19.316057 
L 121.212009 16.830727 
L 121.243972 14.345396 
L 121.266487 11.860066 
L 121.282596 9.374735 
L 121.293644 6.889404 
L 121.297855 4.404074 
L 121.296333 1.918743 
L 121.294326 -0.566587 
L 121.294213 -3.051918 
L 121.296731 -5.537248 
L 121.303177 -8.022579 
L 121.310673 -10.50791 
L 121.313998 -12.99324 
L 121.311058 -15.478571 
L 121.304421 -17.963901 
L 121.300714 -20.449232 
L 121.304221 -22.934562 
L 121.311242 -25.419893 
L 121.315859 -27.905224 
L 121.315945 -30.390554 
L 121.311481 -32.875885 
L 121.30446 -35.361215 
L 121.300719 -37.846546 
L 121.30425 -40.331876 
L 121.311329 -42.817207 
L 121.316353 -45.302538 
L 121.3188 -45.302538 
L 121.3188 -45.302538 
L 121.3188 -42.817207 
L 121.3188 -40.331876 
L 121.3188 -37.846546 
L 121.3188 -35.361215 
L 121.3188 -32.875885 
L 121.3188 -30.390554 
L 121.3188 -27.905224 
L 121.3188 -25.419893 
L 121.3188 -22.934562 
L 121.3188 -20.449232 
L 121.3188 -17.963901 
L 121.3188 -15.478571 
L 121.3188 -12.99324 
L 121.3188 -10.50791 
L 121.3188 -8.022579 
L 121.3188 -5.537248 
L 121.3188 -3.051918 
L 121.3188 -0.566587 
L 121.3188 1.918743 
L 121.3188 4.404074 
L 121.3188 6.889404 
L 121.3188 9.374735 
L 121.3188 11.860066 
L 121.3188 14.345396 
L 121.3188 16.830727 
L 121.3188 19.316057 
L 121.3188 21.801388 
L 121.3188 24.286719 
L 121.3188 26.772049 
L 121.3188 29.25738 
L 121.3188 31.74271 
L 121.3188 34.228041 
L 121.3188 36.713371 
L 121.3188 39.198702 
L 121.3188 41.684033 
L 121.3188 44.169363 
L 121.3188 46.654694 
L 121.3188 49.140024 
L 121.3188 51.625355 
L 121.3188 54.110685 
L 121.3188 56.596016 
L 121.3188 59.081347 
L 121.3188 61.566677 
L 121.3188 64.052008 
L 121.3188 66.537338 
L 121.3188 69.022669 
L 121.3188 71.507999 
L 121.3188 73.99333 
L 121.3188 76.478661 
L 121.3188 78.963991 
L 121.3188 81.449322 
L 121.3188 83.934652 
L 121.3188 86.419983 
L 121.3188 88.905313 
L 121.3188 91.390644 
L 121.3188 93.875975 
L 121.3188 96.361305 
L 121.3188 98.846636 
L 121.3188 101.331966 
L 121.3188 103.817297 
L 121.3188 106.302627 
L 121.3188 108.787958 
L 121.3188 111.273289 
L 121.3188 113.758619 
L 121.3188 116.24395 
L 121.3188 118.72928 
L 121.3188 121.214611 
L 121.3188 123.699941 
L 121.3188 126.185272 
L 121.3188 128.670603 
L 121.3188 131.155933 
L 121.3188 133.641264 
L 121.3188 136.126594 
L 121.3188 138.611925 
L 121.3188 141.097255 
L 121.3188 143.582586 
L 121.3188 146.067917 
L 121.3188 148.553247 
L 121.3188 151.038578 
L 121.3188 153.523908 
L 121.3188 156.009239 
L 121.3188 158.494569 
L 121.3188 160.9799 
L 121.3188 163.465231 
L 121.3188 165.950561 
L 121.3188 168.435892 
L 121.3188 170.921222 
L 121.3188 173.406553 
L 121.3188 175.891883 
L 121.3188 178.377214 
L 121.3188 180.862545 
L 121.3188 183.347875 
L 121.3188 185.833206 
L 121.3188 188.318536 
L 121.3188 190.803867 
L 121.3188 193.289197 
L 121.3188 195.774528 
L 121.3188 198.259859 
L 121.3188 200.745189 
z
" clip-path="url(#p4a455272d1)" style="fill: #2b8e70"/>
   </g>
   <g id="PolyCollection_6">
    <path d="M 124.103837 200.168279 
L 124.1012 200.168279 
L 124.1012 198.194091 
L 124.1012 196.219902 
L 124.1012 194.245714 
L 124.1012 192.271526 
L 124.1012 190.297338 
L 124.1012 188.323149 
L 124.1012 186.348961 
L 124.1012 184.374773 
L 124.1012 182.400585 
L 124.1012 180.426396 
L 124.1012 178.452208 
L 124.1012 176.47802 
L 124.1012 174.503832 
L 124.1012 172.529644 
L 124.1012 170.555455 
L 124.1012 168.581267 
L 124.1012 166.607079 
L 124.1012 164.632891 
L 124.1012 162.658702 
L 124.1012 160.684514 
L 124.1012 158.710326 
L 124.1012 156.736138 
L 124.1012 154.76195 
L 124.1012 152.787761 
L 124.1012 150.813573 
L 124.1012 148.839385 
L 124.1012 146.865197 
L 124.1012 144.891008 
L 124.1012 142.91682 
L 124.1012 140.942632 
L 124.1012 138.968444 
L 124.1012 136.994255 
L 124.1012 135.020067 
L 124.1012 133.045879 
L 124.1012 131.071691 
L 124.1012 129.097503 
L 124.1012 127.123314 
L 124.1012 125.149126 
L 124.1012 123.174938 
L 124.1012 121.20075 
L 124.1012 119.226561 
L 124.1012 117.252373 
L 124.1012 115.278185 
L 124.1012 113.303997 
L 124.1012 111.329809 
L 124.1012 109.35562 
L 124.1012 107.381432 
L 124.1012 105.407244 
L 124.1012 103.433056 
L 124.1012 101.458867 
L 124.1012 99.484679 
L 124.1012 97.510491 
L 124.1012 95.536303 
L 124.1012 93.562114 
L 124.1012 91.587926 
L 124.1012 89.613738 
L 124.1012 87.63955 
L 124.1012 85.665362 
L 124.1012 83.691173 
L 124.1012 81.716985 
L 124.1012 79.742797 
L 124.1012 77.768609 
L 124.1012 75.79442 
L 124.1012 73.820232 
L 124.1012 71.846044 
L 124.1012 69.871856 
L 124.1012 67.897668 
L 124.1012 65.923479 
L 124.1012 63.949291 
L 124.1012 61.975103 
L 124.1012 60.000915 
L 124.1012 58.026726 
L 124.1012 56.052538 
L 124.1012 54.07835 
L 124.1012 52.104162 
L 124.1012 50.129973 
L 124.1012 48.155785 
L 124.1012 46.181597 
L 124.1012 44.207409 
L 124.1012 42.233221 
L 124.1012 40.259032 
L 124.1012 38.284844 
L 124.1012 36.310656 
L 124.1012 34.336468 
L 124.1012 32.362279 
L 124.1012 30.388091 
L 124.1012 28.413903 
L 124.1012 26.439715 
L 124.1012 24.465527 
L 124.1012 22.491338 
L 124.1012 20.51715 
L 124.1012 18.542962 
L 124.1012 16.568774 
L 124.1012 14.594585 
L 124.1012 12.620397 
L 124.1012 10.646209 
L 124.1012 8.672021 
L 124.1012 6.697832 
L 124.1012 4.723644 
L 124.103912 4.723644 
L 124.103912 4.723644 
L 124.10875 6.697832 
L 124.116939 8.672021 
L 124.126955 10.646209 
L 124.136748 12.620397 
L 124.145626 14.594585 
L 124.153502 16.568774 
L 124.16135 18.542962 
L 124.173222 20.51715 
L 124.194423 22.491338 
L 124.229385 24.465527 
L 124.281778 26.439715 
L 124.350273 28.413903 
L 124.428035 30.388091 
L 124.51886 32.362279 
L 124.649674 34.336468 
L 124.851292 36.310656 
L 125.120761 38.284844 
L 125.406689 40.259032 
L 125.645978 42.233221 
L 125.828584 44.207409 
L 126.011899 46.181597 
L 126.256674 48.155785 
L 126.577685 50.129973 
L 126.985796 52.104162 
L 127.54058 54.07835 
L 128.296685 56.052538 
L 129.202248 58.026726 
L 130.11221 60.000915 
L 130.918603 61.975103 
L 131.630009 63.949291 
L 132.312942 65.923479 
L 132.994565 67.897668 
L 133.651603 69.871856 
L 134.23573 71.846044 
L 134.640345 73.820232 
L 134.72455 75.79442 
L 134.460664 77.768609 
L 133.991767 79.742797 
L 133.499554 81.716985 
L 133.043448 83.691173 
L 132.514918 85.665362 
L 131.757761 87.63955 
L 130.761631 89.613738 
L 129.712007 91.587926 
L 128.83853 93.562114 
L 128.22269 95.536303 
L 127.742932 97.510491 
L 127.220208 99.484679 
L 126.612586 101.458867 
L 126.023767 103.433056 
L 125.552679 105.407244 
L 125.208343 107.381432 
L 124.950708 109.35562 
L 124.746555 111.329809 
L 124.576809 113.303997 
L 124.428598 115.278185 
L 124.301757 117.252373 
L 124.209242 119.226561 
L 124.160955 121.20075 
L 124.152351 123.174938 
L 124.167433 125.149126 
L 124.187656 127.123314 
L 124.199474 129.097503 
L 124.197843 131.071691 
L 124.185319 133.045879 
L 124.168021 135.020067 
L 124.151604 136.994255 
L 124.139247 138.968444 
L 124.131749 140.942632 
L 124.128203 142.91682 
L 124.125892 144.891008 
L 124.122651 146.865197 
L 124.12009 148.839385 
L 124.120564 150.813573 
L 124.121893 152.787761 
L 124.119675 154.76195 
L 124.113553 156.736138 
L 124.107185 158.710326 
L 124.103284 160.684514 
L 124.10172 162.658702 
L 124.101293 164.632891 
L 124.101212 166.607079 
L 124.101201 168.581267 
L 124.1012 170.555455 
L 124.1012 172.529644 
L 124.1012 174.503832 
L 124.1012 176.47802 
L 124.101202 178.452208 
L 124.101216 180.426396 
L 124.101318 182.400585 
L 124.10183 184.374773 
L 124.103622 186.348961 
L 124.107866 188.323149 
L 124.114344 190.297338 
L 124.11977 192.271526 
L 124.119997 194.245714 
L 124.114832 196.219902 
L 124.108283 198.194091 
L 124.103837 200.168279 
z
" clip-path="url(#p4a455272d1)" style="fill: #be631d"/>
   </g>
   <g id="PolyCollection_7">
    <defs>
     <path id="m8cd7e43165" d="M 156.0988 -26.715197 
L 156.082487 -26.715197 
L 156.072801 -28.242133 
L 156.059575 -29.769068 
L 156.042705 -31.296003 
L 156.022631 -32.822939 
L 156.000392 -34.349874 
L 155.977518 -35.876809 
L 155.955796 -37.403745 
L 155.936965 -38.93068 
L 155.922448 -40.457615 
L 155.913203 -41.98455 
L 155.909678 -43.511486 
L 155.91182 -45.038421 
L 155.919069 -46.565356 
L 155.930305 -48.092292 
L 155.943813 -49.619227 
L 155.957366 -51.146162 
L 155.968466 -52.673098 
L 155.974729 -54.200033 
L 155.974278 -55.726968 
L 155.965952 -57.253904 
L 155.949233 -58.780839 
L 155.923872 -60.307774 
L 155.889362 -61.83471 
L 155.844456 -63.361645 
L 155.786893 -64.88858 
L 155.71336 -66.415516 
L 155.6196 -67.942451 
L 155.500533 -69.469386 
L 155.350374 -70.996321 
L 155.162911 -72.523257 
L 154.932217 -74.050192 
L 154.653941 -75.577127 
L 154.32701 -77.104063 
L 153.955116 -78.630998 
L 153.547201 -80.157933 
L 153.11633 -81.684869 
L 152.677018 -83.211804 
L 152.241844 -84.738739 
L 151.818671 -86.265675 
L 151.409674 -87.79261 
L 151.012668 -89.319545 
L 150.624165 -90.846481 
L 150.242845 -92.373416 
L 149.871931 -93.900351 
L 149.519494 -95.427287 
L 149.196583 -96.954222 
L 148.913987 -98.481157 
L 148.678886 -100.008093 
L 148.492659 -101.535028 
L 148.350697 -103.061963 
L 148.244395 -104.588898 
L 148.164739 -106.115834 
L 148.10627 -107.642769 
L 148.069892 -109.169704 
L 148.063304 -110.69664 
L 148.098718 -112.223575 
L 148.188761 -113.75051 
L 148.342278 -115.277446 
L 148.561846 -116.804381 
L 148.843885 -118.331316 
L 149.180932 -119.858252 
L 149.564655 -121.385187 
L 149.987991 -122.912122 
L 150.445524 -124.439058 
L 150.932251 -125.965993 
L 151.441686 -127.492928 
L 151.964431 -129.019864 
L 152.487949 -130.546799 
L 152.997622 -132.073734 
L 153.478632 -133.60067 
L 153.91796 -135.127605 
L 154.305898 -136.65454 
L 154.636772 -138.181475 
L 154.9089 -139.708411 
L 155.124085 -141.235346 
L 155.286921 -142.762281 
L 155.404115 -144.289217 
L 155.483827 -145.816152 
L 155.534922 -147.343087 
L 155.566104 -148.870023 
L 155.585039 -150.396958 
L 155.597687 -151.923893 
L 155.608097 -153.450829 
L 155.6187 -154.977764 
L 155.630952 -156.504699 
L 155.646011 -158.031635 
L 155.665133 -159.55857 
L 155.689648 -161.085505 
L 155.720581 -162.612441 
L 155.758156 -164.139376 
L 155.801456 -165.666311 
L 155.848421 -167.193246 
L 155.89621 -168.720182 
L 155.941785 -170.247117 
L 155.982534 -171.774052 
L 156.016716 -173.300988 
L 156.043638 -174.827923 
L 156.063563 -176.354858 
L 156.077429 -177.881794 
L 156.0988 -177.881794 
L 156.0988 -177.881794 
L 156.0988 -176.354858 
L 156.0988 -174.827923 
L 156.0988 -173.300988 
L 156.0988 -171.774052 
L 156.0988 -170.247117 
L 156.0988 -168.720182 
L 156.0988 -167.193246 
L 156.0988 -165.666311 
L 156.0988 -164.139376 
L 156.0988 -162.612441 
L 156.0988 -161.085505 
L 156.0988 -159.55857 
L 156.0988 -158.031635 
L 156.0988 -156.504699 
L 156.0988 -154.977764 
L 156.0988 -153.450829 
L 156.0988 -151.923893 
L 156.0988 -150.396958 
L 156.0988 -148.870023 
L 156.0988 -147.343087 
L 156.0988 -145.816152 
L 156.0988 -144.289217 
L 156.0988 -142.762281 
L 156.0988 -141.235346 
L 156.0988 -139.708411 
L 156.0988 -138.181475 
L 156.0988 -136.65454 
L 156.0988 -135.127605 
L 156.0988 -133.60067 
L 156.0988 -132.073734 
L 156.0988 -130.546799 
L 156.0988 -129.019864 
L 156.0988 -127.492928 
L 156.0988 -125.965993 
L 156.0988 -124.439058 
L 156.0988 -122.912122 
L 156.0988 -121.385187 
L 156.0988 -119.858252 
L 156.0988 -118.331316 
L 156.0988 -116.804381 
L 156.0988 -115.277446 
L 156.0988 -113.75051 
L 156.0988 -112.223575 
L 156.0988 -110.69664 
L 156.0988 -109.169704 
L 156.0988 -107.642769 
L 156.0988 -106.115834 
L 156.0988 -104.588898 
L 156.0988 -103.061963 
L 156.0988 -101.535028 
L 156.0988 -100.008093 
L 156.0988 -98.481157 
L 156.0988 -96.954222 
L 156.0988 -95.427287 
L 156.0988 -93.900351 
L 156.0988 -92.373416 
L 156.0988 -90.846481 
L 156.0988 -89.319545 
L 156.0988 -87.79261 
L 156.0988 -86.265675 
L 156.0988 -84.738739 
L 156.0988 -83.211804 
L 156.0988 -81.684869 
L 156.0988 -80.157933 
L 156.0988 -78.630998 
L 156.0988 -77.104063 
L 156.0988 -75.577127 
L 156.0988 -74.050192 
L 156.0988 -72.523257 
L 156.0988 -70.996321 
L 156.0988 -69.469386 
L 156.0988 -67.942451 
L 156.0988 -66.415516 
L 156.0988 -64.88858 
L 156.0988 -63.361645 
L 156.0988 -61.83471 
L 156.0988 -60.307774 
L 156.0988 -58.780839 
L 156.0988 -57.253904 
L 156.0988 -55.726968 
L 156.0988 -54.200033 
L 156.0988 -52.673098 
L 156.0988 -51.146162 
L 156.0988 -49.619227 
L 156.0988 -48.092292 
L 156.0988 -46.565356 
L 156.0988 -45.038421 
L 156.0988 -43.511486 
L 156.0988 -41.98455 
L 156.0988 -40.457615 
L 156.0988 -38.93068 
L 156.0988 -37.403745 
L 156.0988 -35.876809 
L 156.0988 -34.349874 
L 156.0988 -32.822939 
L 156.0988 -31.296003 
L 156.0988 -29.769068 
L 156.0988 -28.242133 
L 156.0988 -26.715197 
z
"/>
    </defs>
    <g clip-path="url(#p4a455272d1)">
     <use xlink:href="#m8cd7e43165" x="0" y="180" style="fill: #2b8e70"/>
    </g>
   </g>
   <g id="PolyCollection_8">
    <path d="M 158.888557 192.790064 
L 158.8812 192.790064 
L 158.8812 190.792345 
L 158.8812 188.794626 
L 158.8812 186.796907 
L 158.8812 184.799188 
L 158.8812 182.801468 
L 158.8812 180.803749 
L 158.8812 178.80603 
L 158.8812 176.808311 
L 158.8812 174.810592 
L 158.8812 172.812873 
L 158.8812 170.815154 
L 158.8812 168.817434 
L 158.8812 166.819715 
L 158.8812 164.821996 
L 158.8812 162.824277 
L 158.8812 160.826558 
L 158.8812 158.828839 
L 158.8812 156.83112 
L 158.8812 154.8334 
L 158.8812 152.835681 
L 158.8812 150.837962 
L 158.8812 148.840243 
L 158.8812 146.842524 
L 158.8812 144.844805 
L 158.8812 142.847086 
L 158.8812 140.849367 
L 158.8812 138.851647 
L 158.8812 136.853928 
L 158.8812 134.856209 
L 158.8812 132.85849 
L 158.8812 130.860771 
L 158.8812 128.863052 
L 158.8812 126.865333 
L 158.8812 124.867613 
L 158.8812 122.869894 
L 158.8812 120.872175 
L 158.8812 118.874456 
L 158.8812 116.876737 
L 158.8812 114.879018 
L 158.8812 112.881299 
L 158.8812 110.883579 
L 158.8812 108.88586 
L 158.8812 106.888141 
L 158.8812 104.890422 
L 158.8812 102.892703 
L 158.8812 100.894984 
L 158.8812 98.897265 
L 158.8812 96.899546 
L 158.8812 94.901826 
L 158.8812 92.904107 
L 158.8812 90.906388 
L 158.8812 88.908669 
L 158.8812 86.91095 
L 158.8812 84.913231 
L 158.8812 82.915512 
L 158.8812 80.917792 
L 158.8812 78.920073 
L 158.8812 76.922354 
L 158.8812 74.924635 
L 158.8812 72.926916 
L 158.8812 70.929197 
L 158.8812 68.931478 
L 158.8812 66.933758 
L 158.8812 64.936039 
L 158.8812 62.93832 
L 158.8812 60.940601 
L 158.8812 58.942882 
L 158.8812 56.945163 
L 158.8812 54.947444 
L 158.8812 52.949725 
L 158.8812 50.952005 
L 158.8812 48.954286 
L 158.8812 46.956567 
L 158.8812 44.958848 
L 158.8812 42.961129 
L 158.8812 40.96341 
L 158.8812 38.965691 
L 158.8812 36.967971 
L 158.8812 34.970252 
L 158.8812 32.972533 
L 158.8812 30.974814 
L 158.8812 28.977095 
L 158.8812 26.979376 
L 158.8812 24.981657 
L 158.8812 22.983937 
L 158.8812 20.986218 
L 158.8812 18.988499 
L 158.8812 16.99078 
L 158.8812 14.993061 
L 158.8812 12.995342 
L 158.8812 10.997623 
L 158.8812 8.999904 
L 158.8812 7.002184 
L 158.8812 5.004465 
L 158.8812 3.006746 
L 158.8812 1.009027 
L 158.8812 -0.988692 
L 158.8812 -2.986411 
L 158.8812 -4.98413 
L 158.889435 -4.98413 
L 158.889435 -4.98413 
L 158.896854 -2.986411 
L 158.908353 -0.988692 
L 158.924366 1.009027 
L 158.944414 3.006746 
L 158.966931 5.004465 
L 158.98943 7.002184 
L 159.008972 8.999904 
L 159.022847 10.997623 
L 159.02932 12.995342 
L 159.028244 14.993061 
L 159.021261 16.99078 
L 159.011443 18.988499 
L 159.002608 20.986218 
L 158.998794 22.983937 
L 159.004117 24.981657 
L 159.02264 26.979376 
L 159.057715 28.977095 
L 159.110913 30.974814 
L 159.181636 32.972533 
L 159.268605 34.970252 
L 159.373049 36.967971 
L 159.501673 38.965691 
L 159.666808 40.96341 
L 159.882611 42.961129 
L 160.15872 44.958848 
L 160.494625 46.956567 
L 160.877896 48.954286 
L 161.287576 50.952005 
L 161.701719 52.949725 
L 162.106032 54.947444 
L 162.499646 56.945163 
L 162.894581 58.942882 
L 163.308065 60.940601 
L 163.750945 62.93832 
L 164.21857 64.936039 
L 164.690013 66.933758 
L 165.136686 68.931478 
L 165.53521 70.929197 
L 165.876366 72.926916 
L 166.164514 74.924635 
L 166.408337 76.922354 
L 166.609403 78.920073 
L 166.755894 80.917792 
L 166.824774 82.915512 
L 166.790293 84.913231 
L 166.633885 86.91095 
L 166.35138 88.908669 
L 165.95588 90.906388 
L 165.476355 92.904107 
L 164.952505 94.901826 
L 164.42689 96.899546 
L 163.936358 98.897265 
L 163.505342 100.894984 
L 163.142755 102.892703 
L 162.842372 104.890422 
L 162.585559 106.888141 
L 162.345715 108.88586 
L 162.094541 110.883579 
L 161.809704 112.881299 
L 161.48172 114.879018 
L 161.117026 116.876737 
L 160.735588 118.874456 
L 160.364183 120.872175 
L 160.028433 122.869894 
L 159.74667 124.867613 
L 159.527177 126.865333 
L 159.368691 128.863052 
L 159.262999 130.860771 
L 159.198151 132.85849 
L 159.161139 134.856209 
L 159.139743 136.853928 
L 159.12393 138.851647 
L 159.107208 140.849367 
L 159.087516 142.847086 
L 159.066698 144.844805 
L 159.048216 146.842524 
L 159.034152 148.840243 
L 159.023458 150.837962 
L 159.012616 152.835681 
L 158.998083 154.8334 
L 158.97863 156.83112 
L 158.955976 158.828839 
L 158.933605 160.826558 
L 158.914903 162.824277 
L 158.901908 164.821996 
L 158.895157 166.819715 
L 158.894236 168.817434 
L 158.898318 170.815154 
L 158.906265 172.812873 
L 158.916387 174.810592 
L 158.926318 176.808311 
L 158.933397 178.80603 
L 158.935525 180.803749 
L 158.932029 182.801468 
L 158.923946 184.799188 
L 158.913512 186.796907 
L 158.903153 188.794626 
L 158.894605 190.792345 
L 158.888557 192.790064 
z
" clip-path="url(#p4a455272d1)" style="fill: #be631d"/>
   </g>
   <g id="PolyCollection_9">
    <path d="M 190.8788 202.315322 
L 190.874282 202.315322 
L 190.86484 200.046188 
L 190.851616 197.777055 
L 190.845445 195.507921 
L 190.85301 193.238788 
L 190.866234 190.969654 
L 190.874942 188.70052 
L 190.878054 186.431387 
L 190.878709 184.162253 
L 190.878793 181.89312 
L 190.8788 179.623986 
L 190.8788 177.354852 
L 190.8788 175.085719 
L 190.8788 172.816585 
L 190.8788 170.547452 
L 190.8788 168.278318 
L 190.8788 166.009184 
L 190.8788 163.740051 
L 190.8788 161.470917 
L 190.8788 159.201784 
L 190.8788 156.93265 
L 190.8788 154.663516 
L 190.8788 152.394383 
L 190.8788 150.125249 
L 190.8788 147.856116 
L 190.8788 145.586982 
L 190.8788 143.317848 
L 190.8788 141.048715 
L 190.8788 138.779581 
L 190.8788 136.510448 
L 190.8788 134.241314 
L 190.8788 131.97218 
L 190.878799 129.703047 
L 190.878789 127.433913 
L 190.87866 125.16478 
L 190.877651 122.895646 
L 190.872713 120.626512 
L 190.857574 118.357379 
L 190.827713 116.088245 
L 190.782671 113.819112 
L 190.703676 111.549978 
L 190.541435 109.280844 
L 190.270886 107.011711 
L 189.922685 104.742577 
L 189.508687 102.473444 
L 188.973367 100.20431 
L 188.220044 97.935176 
L 187.130603 95.666043 
L 185.659348 93.396909 
L 184.031856 91.127776 
L 182.645313 88.858642 
L 181.618016 86.589508 
L 180.775844 84.320375 
L 180.092167 82.051241 
L 179.7492 79.782108 
L 179.795896 77.512974 
L 180.064556 75.24384 
L 180.467985 72.974707 
L 181.087844 70.705573 
L 181.969531 68.43644 
L 183.062937 66.167306 
L 184.234245 63.898172 
L 185.335235 61.629039 
L 186.368058 59.359905 
L 187.396091 57.090772 
L 188.342574 54.821638 
L 189.044035 52.552504 
L 189.438249 50.283371 
L 189.641684 48.014237 
L 189.819874 45.745104 
L 190.018496 43.47597 
L 190.195939 41.206836 
L 190.34049 38.937703 
L 190.470017 36.668569 
L 190.587896 34.399436 
L 190.683004 32.130302 
L 190.749076 29.861169 
L 190.794683 27.592035 
L 190.826382 25.322901 
L 190.8391 23.053768 
L 190.835881 20.784634 
L 190.827195 18.515501 
L 190.81278 16.246367 
L 190.793538 13.977233 
L 190.78748 11.7081 
L 190.808186 9.438966 
L 190.841827 7.169833 
L 190.866104 4.900699 
L 190.875991 2.631565 
L 190.878403 0.362432 
L 190.878757 -1.906702 
L 190.878707 -4.175835 
L 190.878054 -6.444969 
L 190.874942 -8.714103 
L 190.866234 -10.983236 
L 190.85301 -13.25237 
L 190.845445 -15.521503 
L 190.851616 -17.790637 
L 190.86484 -20.059771 
L 190.874282 -22.328904 
L 190.8788 -22.328904 
L 190.8788 -22.328904 
L 190.8788 -20.059771 
L 190.8788 -17.790637 
L 190.8788 -15.521503 
L 190.8788 -13.25237 
L 190.8788 -10.983236 
L 190.8788 -8.714103 
L 190.8788 -6.444969 
L 190.8788 -4.175835 
L 190.8788 -1.906702 
L 190.8788 0.362432 
L 190.8788 2.631565 
L 190.8788 4.900699 
L 190.8788 7.169833 
L 190.8788 9.438966 
L 190.8788 11.7081 
L 190.8788 13.977233 
L 190.8788 16.246367 
L 190.8788 18.515501 
L 190.8788 20.784634 
L 190.8788 23.053768 
L 190.8788 25.322901 
L 190.8788 27.592035 
L 190.8788 29.861169 
L 190.8788 32.130302 
L 190.8788 34.399436 
L 190.8788 36.668569 
L 190.8788 38.937703 
L 190.8788 41.206836 
L 190.8788 43.47597 
L 190.8788 45.745104 
L 190.8788 48.014237 
L 190.8788 50.283371 
L 190.8788 52.552504 
L 190.8788 54.821638 
L 190.8788 57.090772 
L 190.8788 59.359905 
L 190.8788 61.629039 
L 190.8788 63.898172 
L 190.8788 66.167306 
L 190.8788 68.43644 
L 190.8788 70.705573 
L 190.8788 72.974707 
L 190.8788 75.24384 
L 190.8788 77.512974 
L 190.8788 79.782108 
L 190.8788 82.051241 
L 190.8788 84.320375 
L 190.8788 86.589508 
L 190.8788 88.858642 
L 190.8788 91.127776 
L 190.8788 93.396909 
L 190.8788 95.666043 
L 190.8788 97.935176 
L 190.8788 100.20431 
L 190.8788 102.473444 
L 190.8788 104.742577 
L 190.8788 107.011711 
L 190.8788 109.280844 
L 190.8788 111.549978 
L 190.8788 113.819112 
L 190.8788 116.088245 
L 190.8788 118.357379 
L 190.8788 120.626512 
L 190.8788 122.895646 
L 190.8788 125.16478 
L 190.8788 127.433913 
L 190.8788 129.703047 
L 190.8788 131.97218 
L 190.8788 134.241314 
L 190.8788 136.510448 
L 190.8788 138.779581 
L 190.8788 141.048715 
L 190.8788 143.317848 
L 190.8788 145.586982 
L 190.8788 147.856116 
L 190.8788 150.125249 
L 190.8788 152.394383 
L 190.8788 154.663516 
L 190.8788 156.93265 
L 190.8788 159.201784 
L 190.8788 161.470917 
L 190.8788 163.740051 
L 190.8788 166.009184 
L 190.8788 168.278318 
L 190.8788 170.547452 
L 190.8788 172.816585 
L 190.8788 175.085719 
L 190.8788 177.354852 
L 190.8788 179.623986 
L 190.8788 181.89312 
L 190.8788 184.162253 
L 190.8788 186.431387 
L 190.8788 188.70052 
L 190.8788 190.969654 
L 190.8788 193.238788 
L 190.8788 195.507921 
L 190.8788 197.777055 
L 190.8788 200.046188 
L 190.8788 202.315322 
z
" clip-path="url(#p4a455272d1)" style="fill: #2b8e70"/>
   </g>
   <g id="PolyCollection_10">
    <path d="M 193.666183 175.693054 
L 193.6612 175.693054 
L 193.6612 173.722612 
L 193.6612 171.75217 
L 193.6612 169.781727 
L 193.6612 167.811285 
L 193.6612 165.840843 
L 193.6612 163.8704 
L 193.6612 161.899958 
L 193.6612 159.929515 
L 193.6612 157.959073 
L 193.6612 155.988631 
L 193.6612 154.018188 
L 193.6612 152.047746 
L 193.6612 150.077303 
L 193.6612 148.106861 
L 193.6612 146.136419 
L 193.6612 144.165976 
L 193.6612 142.195534 
L 193.6612 140.225091 
L 193.6612 138.254649 
L 193.6612 136.284207 
L 193.6612 134.313764 
L 193.6612 132.343322 
L 193.6612 130.37288 
L 193.6612 128.402437 
L 193.6612 126.431995 
L 193.6612 124.461552 
L 193.6612 122.49111 
L 193.6612 120.520668 
L 193.6612 118.550225 
L 193.6612 116.579783 
L 193.6612 114.60934 
L 193.6612 112.638898 
L 193.6612 110.668456 
L 193.6612 108.698013 
L 193.6612 106.727571 
L 193.6612 104.757129 
L 193.6612 102.786686 
L 193.6612 100.816244 
L 193.6612 98.845801 
L 193.6612 96.875359 
L 193.6612 94.904917 
L 193.6612 92.934474 
L 193.6612 90.964032 
L 193.6612 88.993589 
L 193.6612 87.023147 
L 193.6612 85.052705 
L 193.6612 83.082262 
L 193.6612 81.11182 
L 193.6612 79.141378 
L 193.6612 77.170935 
L 193.6612 75.200493 
L 193.6612 73.23005 
L 193.6612 71.259608 
L 193.6612 69.289166 
L 193.6612 67.318723 
L 193.6612 65.348281 
L 193.6612 63.377838 
L 193.6612 61.407396 
L 193.6612 59.436954 
L 193.6612 57.466511 
L 193.6612 55.496069 
L 193.6612 53.525627 
L 193.6612 51.555184 
L 193.6612 49.584742 
L 193.6612 47.614299 
L 193.6612 45.643857 
L 193.6612 43.673415 
L 193.6612 41.702972 
L 193.6612 39.73253 
L 193.6612 37.762087 
L 193.6612 35.791645 
L 193.6612 33.821203 
L 193.6612 31.85076 
L 193.6612 29.880318 
L 193.6612 27.909875 
L 193.6612 25.939433 
L 193.6612 23.968991 
L 193.6612 21.998548 
L 193.6612 20.028106 
L 193.6612 18.057664 
L 193.6612 16.087221 
L 193.6612 14.116779 
L 193.6612 12.146336 
L 193.6612 10.175894 
L 193.6612 8.205452 
L 193.6612 6.235009 
L 193.6612 4.264567 
L 193.6612 2.294124 
L 193.6612 0.323682 
L 193.6612 -1.64676 
L 193.6612 -3.617203 
L 193.6612 -5.587645 
L 193.6612 -7.558087 
L 193.6612 -9.52853 
L 193.6612 -11.498972 
L 193.6612 -13.469415 
L 193.6612 -15.439857 
L 193.6612 -17.410299 
L 193.6612 -19.380742 
L 193.666183 -19.380742 
L 193.666183 -19.380742 
L 193.673914 -17.410299 
L 193.68539 -15.439857 
L 193.695521 -13.469415 
L 193.697514 -11.498972 
L 193.689852 -9.52853 
L 193.678058 -7.558087 
L 193.668597 -5.587645 
L 193.66362 -3.617203 
L 193.661792 -1.64676 
L 193.661318 0.323682 
L 193.661293 2.294124 
L 193.661653 4.264567 
L 193.663149 6.235009 
L 193.667505 8.205452 
L 193.676588 10.175894 
L 193.690102 12.146336 
L 193.705053 14.116779 
L 193.720203 16.087221 
L 193.73905 18.057664 
L 193.763001 20.028106 
L 193.784928 21.998548 
L 193.79848 23.968991 
L 193.811244 25.939433 
L 193.83928 27.909875 
L 193.889208 29.880318 
L 193.951308 31.85076 
L 194.012792 33.821203 
L 194.077878 35.791645 
L 194.164853 37.762087 
L 194.278776 39.73253 
L 194.410549 41.702972 
L 194.572707 43.673415 
L 194.808311 45.643857 
L 195.156656 47.614299 
L 195.620642 49.584742 
L 196.148155 51.555184 
L 196.642897 53.525627 
L 197.042121 55.496069 
L 197.40614 57.466511 
L 197.895257 59.436954 
L 198.638707 61.407396 
L 199.653566 63.377838 
L 200.882991 65.348281 
L 202.221412 67.318723 
L 203.463994 69.289166 
L 204.35088 71.259608 
L 204.757552 73.23005 
L 204.7908 75.200493 
L 204.665363 77.170935 
L 204.521291 79.141378 
L 204.343169 81.11182 
L 204.01393 83.082262 
L 203.437479 85.052705 
L 202.612527 87.023147 
L 201.626958 88.993589 
L 200.622333 90.964032 
L 199.725037 92.934474 
L 198.961421 94.904917 
L 198.25502 96.875359 
L 197.517573 98.845801 
L 196.729177 100.816244 
L 195.944654 102.786686 
L 195.246261 104.757129 
L 194.692346 106.727571 
L 194.299898 108.698013 
L 194.05404 110.668456 
L 193.918316 112.638898 
L 193.846179 114.60934 
L 193.800034 116.579783 
L 193.762569 118.550225 
L 193.730319 120.520668 
L 193.703547 122.49111 
L 193.683441 124.461552 
L 193.671452 126.431995 
L 193.667881 128.402437 
L 193.672051 130.37288 
L 193.682179 132.343322 
L 193.693294 134.313764 
L 193.698019 136.284207 
L 193.692715 138.254649 
L 193.681317 140.225091 
L 193.670776 142.195534 
L 193.664599 144.165976 
L 193.6621 146.136419 
L 193.661378 148.106861 
L 193.661226 150.077303 
L 193.661204 152.047746 
L 193.661215 154.018188 
L 193.661307 155.988631 
L 193.661791 157.959073 
L 193.66362 159.929515 
L 193.668597 161.899958 
L 193.678058 163.8704 
L 193.689852 165.840843 
L 193.697514 167.811285 
L 193.695521 169.781727 
L 193.68539 171.75217 
L 193.673914 173.722612 
L 193.666183 175.693054 
z
" clip-path="url(#p4a455272d1)" style="fill: #be631d"/>
   </g>
   <g id="PolyCollection_11">
    <defs>
     <path id="mea3c5f8b8c" d="M 225.6588 -23.110716 
L 225.622486 -23.110716 
L 225.611153 -24.557029 
L 225.597473 -26.003342 
L 225.581359 -27.449655 
L 225.562844 -28.895968 
L 225.542102 -30.342281 
L 225.519457 -31.788594 
L 225.495375 -33.234907 
L 225.470427 -34.68122 
L 225.445248 -36.127533 
L 225.420459 -37.573846 
L 225.396591 -39.020159 
L 225.374001 -40.466472 
L 225.352798 -41.912785 
L 225.332793 -43.359098 
L 225.313476 -44.805411 
L 225.294035 -46.251724 
L 225.273412 -47.698037 
L 225.250402 -49.14435 
L 225.223761 -50.590663 
L 225.192348 -52.036976 
L 225.155243 -53.483289 
L 225.111848 -54.929601 
L 225.061957 -56.375914 
L 225.005772 -57.822227 
L 224.943877 -59.26854 
L 224.877166 -60.714853 
L 224.806741 -62.161166 
L 224.733788 -63.607479 
L 224.659463 -65.053792 
L 224.584787 -66.500105 
L 224.510575 -67.946418 
L 224.4374 -69.392731 
L 224.365603 -70.839044 
L 224.295322 -72.285357 
L 224.226557 -73.73167 
L 224.159228 -75.177983 
L 224.093229 -76.624296 
L 224.028452 -78.070609 
L 223.964778 -79.516922 
L 223.902022 -80.963235 
L 223.839846 -82.409548 
L 223.777646 -83.855861 
L 223.714437 -85.302174 
L 223.648751 -86.748487 
L 223.578586 -88.1948 
L 223.501418 -89.641113 
L 223.41429 -91.087426 
L 223.313984 -92.533739 
L 223.197267 -93.980052 
L 223.06118 -95.426365 
L 222.903348 -96.872678 
L 222.722257 -98.318991 
L 222.517474 -99.765304 
L 222.289776 -101.211617 
L 222.041156 -102.65793 
L 221.774727 -104.104243 
L 221.494521 -105.550556 
L 221.205216 -106.996869 
L 220.91184 -108.443182 
L 220.619476 -109.889495 
L 220.333019 -111.335808 
L 220.057 -112.782121 
L 219.795491 -114.228434 
L 219.552087 -115.674746 
L 219.329951 -117.121059 
L 219.131888 -118.567372 
L 218.960445 -120.013685 
L 218.81799 -121.459998 
L 218.706768 -122.906311 
L 218.628936 -124.352624 
L 218.586548 -125.798937 
L 218.58152 -127.24525 
L 218.61557 -128.691563 
L 218.690124 -130.137876 
L 218.806217 -131.584189 
L 218.964364 -133.030502 
L 219.164426 -134.476815 
L 219.405467 -135.923128 
L 219.685616 -137.369441 
L 220.001959 -138.815754 
L 220.350467 -140.262067 
L 220.726005 -141.70838 
L 221.122413 -143.154693 
L 221.532682 -144.601006 
L 221.949219 -146.047319 
L 222.364182 -147.493632 
L 222.769863 -148.939945 
L 223.159074 -150.386258 
L 223.525506 -151.832571 
L 223.864024 -153.278884 
L 224.170868 -154.725197 
L 224.443744 -156.17151 
L 224.681808 -157.617823 
L 224.885546 -159.064136 
L 225.056577 -160.510449 
L 225.197403 -161.956762 
L 225.311131 -163.403075 
L 225.401209 -164.849388 
L 225.471181 -166.295701 
L 225.6588 -166.295701 
L 225.6588 -166.295701 
L 225.6588 -164.849388 
L 225.6588 -163.403075 
L 225.6588 -161.956762 
L 225.6588 -160.510449 
L 225.6588 -159.064136 
L 225.6588 -157.617823 
L 225.6588 -156.17151 
L 225.6588 -154.725197 
L 225.6588 -153.278884 
L 225.6588 -151.832571 
L 225.6588 -150.386258 
L 225.6588 -148.939945 
L 225.6588 -147.493632 
L 225.6588 -146.047319 
L 225.6588 -144.601006 
L 225.6588 -143.154693 
L 225.6588 -141.70838 
L 225.6588 -140.262067 
L 225.6588 -138.815754 
L 225.6588 -137.369441 
L 225.6588 -135.923128 
L 225.6588 -134.476815 
L 225.6588 -133.030502 
L 225.6588 -131.584189 
L 225.6588 -130.137876 
L 225.6588 -128.691563 
L 225.6588 -127.24525 
L 225.6588 -125.798937 
L 225.6588 -124.352624 
L 225.6588 -122.906311 
L 225.6588 -121.459998 
L 225.6588 -120.013685 
L 225.6588 -118.567372 
L 225.6588 -117.121059 
L 225.6588 -115.674746 
L 225.6588 -114.228434 
L 225.6588 -112.782121 
L 225.6588 -111.335808 
L 225.6588 -109.889495 
L 225.6588 -108.443182 
L 225.6588 -106.996869 
L 225.6588 -105.550556 
L 225.6588 -104.104243 
L 225.6588 -102.65793 
L 225.6588 -101.211617 
L 225.6588 -99.765304 
L 225.6588 -98.318991 
L 225.6588 -96.872678 
L 225.6588 -95.426365 
L 225.6588 -93.980052 
L 225.6588 -92.533739 
L 225.6588 -91.087426 
L 225.6588 -89.641113 
L 225.6588 -88.1948 
L 225.6588 -86.748487 
L 225.6588 -85.302174 
L 225.6588 -83.855861 
L 225.6588 -82.409548 
L 225.6588 -80.963235 
L 225.6588 -79.516922 
L 225.6588 -78.070609 
L 225.6588 -76.624296 
L 225.6588 -75.177983 
L 225.6588 -73.73167 
L 225.6588 -72.285357 
L 225.6588 -70.839044 
L 225.6588 -69.392731 
L 225.6588 -67.946418 
L 225.6588 -66.500105 
L 225.6588 -65.053792 
L 225.6588 -63.607479 
L 225.6588 -62.161166 
L 225.6588 -60.714853 
L 225.6588 -59.26854 
L 225.6588 -57.822227 
L 225.6588 -56.375914 
L 225.6588 -54.929601 
L 225.6588 -53.483289 
L 225.6588 -52.036976 
L 225.6588 -50.590663 
L 225.6588 -49.14435 
L 225.6588 -47.698037 
L 225.6588 -46.251724 
L 225.6588 -44.805411 
L 225.6588 -43.359098 
L 225.6588 -41.912785 
L 225.6588 -40.466472 
L 225.6588 -39.020159 
L 225.6588 -37.573846 
L 225.6588 -36.127533 
L 225.6588 -34.68122 
L 225.6588 -33.234907 
L 225.6588 -31.788594 
L 225.6588 -30.342281 
L 225.6588 -28.895968 
L 225.6588 -27.449655 
L 225.6588 -26.003342 
L 225.6588 -24.557029 
L 225.6588 -23.110716 
z
"/>
    </defs>
    <g clip-path="url(#p4a455272d1)">
     <use xlink:href="#mea3c5f8b8c" x="0" y="180" style="fill: #2b8e70"/>
    </g>
   </g>
   <g id="PolyCollection_12">
    <defs>
     <path id="m0d1c2e2752" d="M 228.455114 -19.261639 
L 228.4412 -19.261639 
L 228.4412 -20.847703 
L 228.4412 -22.433767 
L 228.4412 -24.019831 
L 228.4412 -25.605895 
L 228.4412 -27.191958 
L 228.4412 -28.778022 
L 228.4412 -30.364086 
L 228.4412 -31.95015 
L 228.4412 -33.536214 
L 228.4412 -35.122278 
L 228.4412 -36.708341 
L 228.4412 -38.294405 
L 228.4412 -39.880469 
L 228.4412 -41.466533 
L 228.4412 -43.052597 
L 228.4412 -44.63866 
L 228.4412 -46.224724 
L 228.4412 -47.810788 
L 228.4412 -49.396852 
L 228.4412 -50.982916 
L 228.4412 -52.56898 
L 228.4412 -54.155043 
L 228.4412 -55.741107 
L 228.4412 -57.327171 
L 228.4412 -58.913235 
L 228.4412 -60.499299 
L 228.4412 -62.085362 
L 228.4412 -63.671426 
L 228.4412 -65.25749 
L 228.4412 -66.843554 
L 228.4412 -68.429618 
L 228.4412 -70.015682 
L 228.4412 -71.601745 
L 228.4412 -73.187809 
L 228.4412 -74.773873 
L 228.4412 -76.359937 
L 228.4412 -77.946001 
L 228.4412 -79.532065 
L 228.4412 -81.118128 
L 228.4412 -82.704192 
L 228.4412 -84.290256 
L 228.4412 -85.87632 
L 228.4412 -87.462384 
L 228.4412 -89.048447 
L 228.4412 -90.634511 
L 228.4412 -92.220575 
L 228.4412 -93.806639 
L 228.4412 -95.392703 
L 228.4412 -96.978767 
L 228.4412 -98.56483 
L 228.4412 -100.150894 
L 228.4412 -101.736958 
L 228.4412 -103.323022 
L 228.4412 -104.909086 
L 228.4412 -106.49515 
L 228.4412 -108.081213 
L 228.4412 -109.667277 
L 228.4412 -111.253341 
L 228.4412 -112.839405 
L 228.4412 -114.425469 
L 228.4412 -116.011532 
L 228.4412 -117.597596 
L 228.4412 -119.18366 
L 228.4412 -120.769724 
L 228.4412 -122.355788 
L 228.4412 -123.941852 
L 228.4412 -125.527915 
L 228.4412 -127.113979 
L 228.4412 -128.700043 
L 228.4412 -130.286107 
L 228.4412 -131.872171 
L 228.4412 -133.458235 
L 228.4412 -135.044298 
L 228.4412 -136.630362 
L 228.4412 -138.216426 
L 228.4412 -139.80249 
L 228.4412 -141.388554 
L 228.4412 -142.974617 
L 228.4412 -144.560681 
L 228.4412 -146.146745 
L 228.4412 -147.732809 
L 228.4412 -149.318873 
L 228.4412 -150.904937 
L 228.4412 -152.491 
L 228.4412 -154.077064 
L 228.4412 -155.663128 
L 228.4412 -157.249192 
L 228.4412 -158.835256 
L 228.4412 -160.421319 
L 228.4412 -162.007383 
L 228.4412 -163.593447 
L 228.4412 -165.179511 
L 228.4412 -166.765575 
L 228.4412 -168.351639 
L 228.4412 -169.937702 
L 228.4412 -171.523766 
L 228.4412 -173.10983 
L 228.4412 -174.695894 
L 228.4412 -176.281958 
L 228.452876 -176.281958 
L 228.452876 -176.281958 
L 228.457859 -174.695894 
L 228.464294 -173.10983 
L 228.472349 -171.523766 
L 228.48216 -169.937702 
L 228.49385 -168.351639 
L 228.507577 -166.765575 
L 228.523612 -165.179511 
L 228.54245 -163.593447 
L 228.564917 -162.007383 
L 228.592266 -160.421319 
L 228.626226 -158.835256 
L 228.668983 -157.249192 
L 228.723075 -155.663128 
L 228.791208 -154.077064 
L 228.876011 -152.491 
L 228.979752 -150.904937 
L 229.104072 -149.318873 
L 229.249753 -147.732809 
L 229.416562 -146.146745 
L 229.603165 -144.560681 
L 229.807141 -142.974617 
L 230.025062 -141.388554 
L 230.252663 -139.80249 
L 230.485063 -138.216426 
L 230.717061 -136.630362 
L 230.94345 -135.044298 
L 231.159364 -133.458235 
L 231.360595 -131.872171 
L 231.543846 -130.286107 
L 231.706916 -128.700043 
L 231.848761 -127.113979 
L 231.969478 -125.527915 
L 232.070195 -123.941852 
L 232.152913 -122.355788 
L 232.22032 -120.769724 
L 232.275584 -119.18366 
L 232.322138 -117.597596 
L 232.363458 -116.011532 
L 232.402834 -114.425469 
L 232.443162 -112.839405 
L 232.486774 -111.253341 
L 232.535325 -109.667277 
L 232.589762 -108.081213 
L 232.650355 -106.49515 
L 232.716777 -104.909086 
L 232.788198 -103.323022 
L 232.863365 -101.736958 
L 232.940678 -100.150894 
L 233.018258 -98.56483 
L 233.094047 -96.978767 
L 233.165963 -95.392703 
L 233.232108 -93.806639 
L 233.291024 -92.220575 
L 233.341926 -90.634511 
L 233.384861 -89.048447 
L 233.420741 -87.462384 
L 233.451202 -85.87632 
L 233.478299 -84.290256 
L 233.504064 -82.704192 
L 233.529984 -81.118128 
L 233.556479 -79.532065 
L 233.582475 -77.946001 
L 233.605132 -76.359937 
L 233.619827 -74.773873 
L 233.620419 -73.187809 
L 233.599808 -71.601745 
L 233.550739 -70.015682 
L 233.466744 -68.429618 
L 233.343069 -66.843554 
L 233.177422 -65.25749 
L 232.970393 -63.671426 
L 232.725464 -62.085362 
L 232.448618 -60.499299 
L 232.147628 -58.913235 
L 231.831175 -57.327171 
L 231.507979 -55.741107 
L 231.186077 -54.155043 
L 230.872345 -52.56898 
L 230.572282 -50.982916 
L 230.290018 -49.396852 
L 230.028457 -47.810788 
L 229.789479 -46.224724 
L 229.574122 -44.63866 
L 229.382723 -43.052597 
L 229.215005 -41.466533 
L 229.070141 -39.880469 
L 228.946811 -38.294405 
L 228.843296 -36.708341 
L 228.757584 -35.122278 
L 228.68751 -33.536214 
L 228.630886 -31.95015 
L 228.585624 -30.364086 
L 228.549817 -28.778022 
L 228.521786 -27.191958 
L 228.500089 -25.605895 
L 228.483511 -24.019831 
L 228.471032 -22.433767 
L 228.461804 -20.847703 
L 228.455114 -19.261639 
z
"/>
    </defs>
    <g clip-path="url(#p4a455272d1)">
     <use xlink:href="#m0d1c2e2752" x="0" y="180" style="fill: #be631d"/>
    </g>
   </g>
   <g id="patch_3">
    <path d="M 53.15 69.501667 
L 53.15 69.501667 
L 53.15 69.501667 
L 53.15 69.501667 
z
" clip-path="url(#p4a455272d1)" style="fill: #2b8e70"/>
   </g>
   <g id="patch_4">
    <path d="M 53.15 69.501667 
L 53.15 69.501667 
L 53.15 69.501667 
L 53.15 69.501667 
z
" clip-path="url(#p4a455272d1)" style="fill: #be631d"/>
   </g>
   <g id="line2d_13">
    <path d="M 49.2588 115.155153 
L 49.2588 51.953593 
" clip-path="url(#p4a455272d1)" style="fill: none; stroke: #000000; stroke-linecap: round"/>
   </g>
   <g id="line2d_14">
    <path d="M 49.2588 91.829903 
L 49.2588 75.099459 
" clip-path="url(#p4a455272d1)" style="fill: none; stroke: #000000; stroke-width: 5; stroke-linecap: round"/>
   </g>
   <g id="line2d_15">
    <path d="M 49.2588 83.046823 
" clip-path="url(#p4a455272d1)" style="fill: none; stroke: #373737; stroke-width: 1.5; stroke-linecap: round"/>
    <defs>
     <path id="m61a79b2f6e" d="M 2.083333 0 
L -2.083333 -0 
" style="stroke: #ffffff"/>
    </defs>
    <g clip-path="url(#p4a455272d1)">
     <use xlink:href="#m61a79b2f6e" x="49.2588" y="83.046823" style="fill: #ffffff; stroke: #ffffff"/>
    </g>
   </g>
   <g id="line2d_16">
    <path d="M 57.0412 124.976623 
L 57.0412 39.809309 
" clip-path="url(#p4a455272d1)" style="fill: none; stroke: #000000; stroke-linecap: round"/>
   </g>
   <g id="line2d_17">
    <path d="M 57.0412 93.652723 
L 57.0412 72.071998 
" clip-path="url(#p4a455272d1)" style="fill: none; stroke: #000000; stroke-width: 5; stroke-linecap: round"/>
   </g>
   <g id="line2d_18">
    <path d="M 57.0412 82.864466 
" clip-path="url(#p4a455272d1)" style="fill: none; stroke: #373737; stroke-width: 1.5; stroke-linecap: round"/>
    <g clip-path="url(#p4a455272d1)">
     <use xlink:href="#m61a79b2f6e" x="57.0412" y="82.864466" style="fill: #ffffff; stroke: #ffffff"/>
    </g>
   </g>
   <g id="line2d_19">
    <path d="M 84.0388 112.878177 
L 84.0388 14.47269 
" clip-path="url(#p4a455272d1)" style="fill: none; stroke: #000000; stroke-linecap: round"/>
   </g>
   <g id="line2d_20">
    <path d="M 84.0388 73.782084 
L 84.0388 45.750258 
" clip-path="url(#p4a455272d1)" style="fill: none; stroke: #000000; stroke-width: 5; stroke-linecap: round"/>
   </g>
   <g id="line2d_21">
    <path d="M 84.0388 52.755365 
" clip-path="url(#p4a455272d1)" style="fill: none; stroke: #373737; stroke-width: 1.5; stroke-linecap: round"/>
    <g clip-path="url(#p4a455272d1)">
     <use xlink:href="#m61a79b2f6e" x="84.0388" y="52.755365" style="fill: #ffffff; stroke: #ffffff"/>
    </g>
   </g>
   <g id="line2d_22">
    <path d="M 91.8212 133.053817 
L 91.8212 41.622961 
" clip-path="url(#p4a455272d1)" style="fill: none; stroke: #000000; stroke-linecap: round"/>
   </g>
   <g id="line2d_23">
    <path d="M 91.8212 99.98378 
L 91.8212 76.480882 
" clip-path="url(#p4a455272d1)" style="fill: none; stroke: #000000; stroke-width: 5; stroke-linecap: round"/>
   </g>
   <g id="line2d_24">
    <path d="M 91.8212 88.831183 
" clip-path="url(#p4a455272d1)" style="fill: none; stroke: #373737; stroke-width: 1.5; stroke-linecap: round"/>
    <g clip-path="url(#p4a455272d1)">
     <use xlink:href="#m61a79b2f6e" x="91.8212" y="88.831183" style="fill: #ffffff; stroke: #ffffff"/>
    </g>
   </g>
   <g id="line2d_25">
    <path d="M 118.8188 111.671553 
L 118.8188 26.945264 
" clip-path="url(#p4a455272d1)" style="fill: none; stroke: #000000; stroke-linecap: round"/>
   </g>
   <g id="line2d_26">
    <path d="M 118.8188 80.501268 
L 118.8188 58.701518 
" clip-path="url(#p4a455272d1)" style="fill: none; stroke: #000000; stroke-width: 5; stroke-linecap: round"/>
   </g>
   <g id="line2d_27">
    <path d="M 118.8188 69.349972 
" clip-path="url(#p4a455272d1)" style="fill: none; stroke: #373737; stroke-width: 1.5; stroke-linecap: round"/>
    <g clip-path="url(#p4a455272d1)">
     <use xlink:href="#m61a79b2f6e" x="118.8188" y="69.349972" style="fill: #ffffff; stroke: #ffffff"/>
    </g>
   </g>
   <g id="line2d_28">
    <path d="M 126.6012 115.643253 
L 126.6012 34.224649 
" clip-path="url(#p4a455272d1)" style="fill: none; stroke: #000000; stroke-linecap: round"/>
   </g>
   <g id="line2d_29">
    <path d="M 126.6012 85.706102 
L 126.6012 65.083244 
" clip-path="url(#p4a455272d1)" style="fill: none; stroke: #000000; stroke-width: 5; stroke-linecap: round"/>
   </g>
   <g id="line2d_30">
    <path d="M 126.6012 75.340288 
" clip-path="url(#p4a455272d1)" style="fill: none; stroke: #373737; stroke-width: 1.5; stroke-linecap: round"/>
    <g clip-path="url(#p4a455272d1)">
     <use xlink:href="#m61a79b2f6e" x="126.6012" y="75.340288" style="fill: #ffffff; stroke: #ffffff"/>
    </g>
   </g>
   <g id="line2d_31">
    <path d="M 153.5988 117.00597 
L 153.5988 26.930398 
" clip-path="url(#p4a455272d1)" style="fill: none; stroke: #000000; stroke-linecap: round"/>
   </g>
   <g id="line2d_32">
    <path d="M 153.5988 83.883716 
L 153.5988 60.633354 
" clip-path="url(#p4a455272d1)" style="fill: none; stroke: #000000; stroke-width: 5; stroke-linecap: round"/>
   </g>
   <g id="line2d_33">
    <path d="M 153.5988 72.932987 
" clip-path="url(#p4a455272d1)" style="fill: none; stroke: #373737; stroke-width: 1.5; stroke-linecap: round"/>
    <g clip-path="url(#p4a455272d1)">
     <use xlink:href="#m61a79b2f6e" x="153.5988" y="72.932987" style="fill: #ffffff; stroke: #ffffff"/>
    </g>
   </g>
   <g id="line2d_34">
    <path d="M 161.3812 132.345204 
L 161.3812 35.205805 
" clip-path="url(#p4a455272d1)" style="fill: none; stroke: #000000; stroke-linecap: round"/>
   </g>
   <g id="line2d_35">
    <path d="M 161.3812 95.475046 
L 161.3812 69.344436 
" clip-path="url(#p4a455272d1)" style="fill: none; stroke: #000000; stroke-width: 5; stroke-linecap: round"/>
   </g>
   <g id="line2d_36">
    <path d="M 161.3812 83.140231 
" clip-path="url(#p4a455272d1)" style="fill: none; stroke: #373737; stroke-width: 1.5; stroke-linecap: round"/>
    <g clip-path="url(#p4a455272d1)">
     <use xlink:href="#m61a79b2f6e" x="161.3812" y="83.140231" style="fill: #ffffff; stroke: #ffffff"/>
    </g>
   </g>
   <g id="line2d_37">
    <path d="M 188.3788 109.005584 
L 188.3788 42.210168 
" clip-path="url(#p4a455272d1)" style="fill: none; stroke: #000000; stroke-linecap: round"/>
   </g>
   <g id="line2d_38">
    <path d="M 188.3788 85.563389 
L 188.3788 67.956098 
" clip-path="url(#p4a455272d1)" style="fill: none; stroke: #000000; stroke-width: 5; stroke-linecap: round"/>
   </g>
   <g id="line2d_39">
    <path d="M 188.3788 77.226784 
" clip-path="url(#p4a455272d1)" style="fill: none; stroke: #373737; stroke-width: 1.5; stroke-linecap: round"/>
    <g clip-path="url(#p4a455272d1)">
     <use xlink:href="#m61a79b2f6e" x="188.3788" y="77.226784" style="fill: #ffffff; stroke: #ffffff"/>
    </g>
   </g>
   <g id="line2d_40">
    <path d="M 196.1612 110.554126 
L 196.1612 42.111062 
" clip-path="url(#p4a455272d1)" style="fill: none; stroke: #000000; stroke-linecap: round"/>
   </g>
   <g id="line2d_41">
    <path d="M 196.1612 86.153321 
L 196.1612 68.535699 
" clip-path="url(#p4a455272d1)" style="fill: none; stroke: #000000; stroke-width: 5; stroke-linecap: round"/>
   </g>
   <g id="line2d_42">
    <path d="M 196.1612 76.813757 
" clip-path="url(#p4a455272d1)" style="fill: none; stroke: #373737; stroke-width: 1.5; stroke-linecap: round"/>
    <g clip-path="url(#p4a455272d1)">
     <use xlink:href="#m61a79b2f6e" x="196.1612" y="76.813757" style="fill: #ffffff; stroke: #ffffff"/>
    </g>
   </g>
   <g id="line2d_43">
    <path d="M 223.1588 105.281651 
L 223.1588 34.346054 
" clip-path="url(#p4a455272d1)" style="fill: none; stroke: #000000; stroke-linecap: round"/>
   </g>
   <g id="line2d_44">
    <path d="M 223.1588 72.201208 
L 223.1588 46.754766 
" clip-path="url(#p4a455272d1)" style="fill: none; stroke: #000000; stroke-width: 5; stroke-linecap: round"/>
   </g>
   <g id="line2d_45">
    <path d="M 223.1588 57.27624 
" clip-path="url(#p4a455272d1)" style="fill: none; stroke: #373737; stroke-width: 1.5; stroke-linecap: round"/>
    <g clip-path="url(#p4a455272d1)">
     <use xlink:href="#m61a79b2f6e" x="223.1588" y="57.27624" style="fill: #ffffff; stroke: #ffffff"/>
    </g>
   </g>
   <g id="line2d_46">
    <path d="M 230.9412 143.207295 
L 230.9412 21.249108 
" clip-path="url(#p4a455272d1)" style="fill: none; stroke: #000000; stroke-linecap: round"/>
   </g>
   <g id="line2d_47">
    <path d="M 230.9412 108.947978 
L 230.9412 66.065948 
" clip-path="url(#p4a455272d1)" style="fill: none; stroke: #000000; stroke-width: 5; stroke-linecap: round"/>
   </g>
   <g id="line2d_48">
    <path d="M 230.9412 89.29587 
" clip-path="url(#p4a455272d1)" style="fill: none; stroke: #373737; stroke-width: 1.5; stroke-linecap: round"/>
    <g clip-path="url(#p4a455272d1)">
     <use xlink:href="#m61a79b2f6e" x="230.9412" y="89.29587" style="fill: #ffffff; stroke: #ffffff"/>
    </g>
   </g>
   <g id="patch_5">
    <path d="M 35.76 156.22 
L 35.76 7.56 
" style="fill: none; stroke: #262626; stroke-width: 1.25; stroke-linejoin: miter; stroke-linecap: square"/>
   </g>
   <g id="patch_6">
    <path d="M 35.76 156.22 
L 244.44 156.22 
" style="fill: none; stroke: #262626; stroke-width: 1.25; stroke-linejoin: miter; stroke-linecap: square"/>
   </g>
   <g id="legend_1">
    <g id="patch_7">
     <path d="M 40.66 152.72 
L 95.67125 152.72 
Q 97.07125 152.72 97.07125 151.32 
L 97.07125 132.216563 
Q 97.07125 130.816563 95.67125 130.816563 
L 40.66 130.816563 
Q 39.26 130.816563 39.26 132.216563 
L 39.26 151.32 
Q 39.26 152.72 40.66 152.72 
z
" style="fill: #ffffff; opacity: 0.8; stroke: #cccccc; stroke-linejoin: miter"/>
    </g>
    <g id="patch_8">
     <path d="M 42.06 138.627031 
L 56.06 138.627031 
L 56.06 133.727031 
L 42.06 133.727031 
z
" style="fill: #2b8e70"/>
    </g>
    <g id="text_14">
     <!-- Unpaired -->
     <g style="fill: #262626" transform="translate(58.86 138.627031) scale(0.07 -0.07)">
      <defs>
       <path id="ArialMT-55" d="M 3500 4581 
L 4106 4581 
L 4106 1934 
Q 4106 1244 3950 837 
Q 3794 431 3386 176 
Q 2978 -78 2316 -78 
Q 1672 -78 1262 144 
Q 853 366 678 786 
Q 503 1206 503 1934 
L 503 4581 
L 1109 4581 
L 1109 1938 
Q 1109 1341 1220 1058 
Q 1331 775 1601 622 
Q 1872 469 2263 469 
Q 2931 469 3215 772 
Q 3500 1075 3500 1938 
L 3500 4581 
z
" transform="scale(0.015625)"/>
       <path id="ArialMT-70" d="M 422 -1272 
L 422 3319 
L 934 3319 
L 934 2888 
Q 1116 3141 1344 3267 
Q 1572 3394 1897 3394 
Q 2322 3394 2647 3175 
Q 2972 2956 3137 2557 
Q 3303 2159 3303 1684 
Q 3303 1175 3120 767 
Q 2938 359 2589 142 
Q 2241 -75 1856 -75 
Q 1575 -75 1351 44 
Q 1128 163 984 344 
L 984 -1272 
L 422 -1272 
z
M 931 1641 
Q 931 1000 1190 694 
Q 1450 388 1819 388 
Q 2194 388 2461 705 
Q 2728 1022 2728 1688 
Q 2728 2322 2467 2637 
Q 2206 2953 1844 2953 
Q 1484 2953 1207 2617 
Q 931 2281 931 1641 
z
" transform="scale(0.015625)"/>
       <path id="ArialMT-72" d="M 416 0 
L 416 3319 
L 922 3319 
L 922 2816 
Q 1116 3169 1280 3281 
Q 1444 3394 1641 3394 
Q 1925 3394 2219 3213 
L 2025 2691 
Q 1819 2813 1613 2813 
Q 1428 2813 1281 2702 
Q 1134 2591 1072 2394 
Q 978 2094 978 1738 
L 978 0 
L 416 0 
z
" transform="scale(0.015625)"/>
      </defs>
      <use xlink:href="#ArialMT-55"/>
      <use xlink:href="#ArialMT-6e" x="72.216797"/>
      <use xlink:href="#ArialMT-70" x="127.832031"/>
      <use xlink:href="#ArialMT-61" x="183.447266"/>
      <use xlink:href="#ArialMT-69" x="239.0625"/>
      <use xlink:href="#ArialMT-72" x="261.279297"/>
      <use xlink:href="#ArialMT-65" x="294.580078"/>
      <use xlink:href="#ArialMT-64" x="350.195312"/>
     </g>
    </g>
    <g id="patch_9">
     <path d="M 42.06 148.52875 
L 56.06 148.52875 
L 56.06 143.62875 
L 42.06 143.62875 
z
" style="fill: #be631d"/>
    </g>
    <g id="text_15">
     <!-- Basepaired -->
     <g style="fill: #262626" transform="translate(58.86 148.52875) scale(0.07 -0.07)">
      <defs>
       <path id="ArialMT-42" d="M 469 0 
L 469 4581 
L 2188 4581 
Q 2713 4581 3030 4442 
Q 3347 4303 3526 4014 
Q 3706 3725 3706 3409 
Q 3706 3116 3547 2856 
Q 3388 2597 3066 2438 
Q 3481 2316 3704 2022 
Q 3928 1728 3928 1328 
Q 3928 1006 3792 729 
Q 3656 453 3456 303 
Q 3256 153 2954 76 
Q 2653 0 2216 0 
L 469 0 
z
M 1075 2656 
L 2066 2656 
Q 2469 2656 2644 2709 
Q 2875 2778 2992 2937 
Q 3109 3097 3109 3338 
Q 3109 3566 3000 3739 
Q 2891 3913 2687 3977 
Q 2484 4041 1991 4041 
L 1075 4041 
L 1075 2656 
z
M 1075 541 
L 2216 541 
Q 2509 541 2628 563 
Q 2838 600 2978 687 
Q 3119 775 3209 942 
Q 3300 1109 3300 1328 
Q 3300 1584 3169 1773 
Q 3038 1963 2805 2039 
Q 2572 2116 2134 2116 
L 1075 2116 
L 1075 541 
z
" transform="scale(0.015625)"/>
      </defs>
      <use xlink:href="#ArialMT-42"/>
      <use xlink:href="#ArialMT-61" x="66.699219"/>
      <use xlink:href="#ArialMT-73" x="122.314453"/>
      <use xlink:href="#ArialMT-65" x="172.314453"/>
      <use xlink:href="#ArialMT-70" x="227.929688"/>
      <use xlink:href="#ArialMT-61" x="283.544922"/>
      <use xlink:href="#ArialMT-69" x="339.160156"/>
      <use xlink:href="#ArialMT-72" x="361.376953"/>
      <use xlink:href="#ArialMT-65" x="394.677734"/>
      <use xlink:href="#ArialMT-64" x="450.292969"/>
     </g>
    </g>
   </g>
  </g>
 </g>
 <defs>
  <clipPath id="p4a455272d1">
   <rect x="35.76" y="7.56" width="208.68" height="148.66"/>
  </clipPath>
 </defs>
</svg>
