<?xml version="1.0" encoding="utf-8" standalone="no"?>
<!DOCTYPE svg PUBLIC "-//W3C//DTD SVG 1.1//EN"
  "http://www.w3.org/Graphics/SVG/1.1/DTD/svg11.dtd">
<svg xmlns:xlink="http://www.w3.org/1999/xlink" width="252pt" height="180pt" viewBox="0 0 252 180" xmlns="http://www.w3.org/2000/svg" version="1.1">
 <metadata>
  <rdf:RDF xmlns:dc="http://purl.org/dc/elements/1.1/" xmlns:cc="http://creativecommons.org/ns#" xmlns:rdf="http://www.w3.org/1999/02/22-rdf-syntax-ns#">
   <cc:Work>
    <dc:type rdf:resource="http://purl.org/dc/dcmitype/StillImage"/>
    <dc:date>2024-02-28T17:16:51.464605</dc:date>
    <dc:format>image/svg+xml</dc:format>
    <dc:creator>
     <cc:Agent>
      <dc:title>Matplotlib v3.8.2, https://matplotlib.org/</dc:title>
     </cc:Agent>
    </dc:creator>
   </cc:Work>
  </rdf:RDF>
 </metadata>
 <defs>
  <style type="text/css">*{stroke-linejoin: round; stroke-linecap: butt}</style>
 </defs>
 <g id="figure_1">
  <g id="patch_1">
   <path d="M 0 180 
L 252 180 
L 252 0 
L 0 0 
z
" style="fill: #ffffff"/>
  </g>
  <g id="axes_1">
   <g id="patch_2">
    <path d="M 35.76 156.22 
L 244.44 156.22 
L 244.44 7.56 
L 35.76 7.56 
z
" style="fill: #ffffff"/>
   </g>
   <g id="matplotlib.axis_1">
    <g id="xtick_1">
     <g id="line2d_1">
      <defs>
       <path id="m0379f3d6ae" d="M 0 0 
L 0 6 
" style="stroke: #262626; stroke-width: 1.25"/>
      </defs>
      <g>
       <use xlink:href="#m0379f3d6ae" x="53.15" y="156.22" style="fill: #262626; stroke: #262626; stroke-width: 1.25"/>
      </g>
     </g>
     <g id="text_1">
      <!-- G→A -->
      <g style="fill: #262626" transform="translate(44.593047 170.730469) scale(0.07 -0.07)">
       <defs>
        <path id="ArialMT-47" d="M 2638 1797 
L 2638 2334 
L 4578 2338 
L 4578 638 
Q 4131 281 3656 101 
Q 3181 -78 2681 -78 
Q 2006 -78 1454 211 
Q 903 500 622 1047 
Q 341 1594 341 2269 
Q 341 2938 620 3517 
Q 900 4097 1425 4378 
Q 1950 4659 2634 4659 
Q 3131 4659 3532 4498 
Q 3934 4338 4162 4050 
Q 4391 3763 4509 3300 
L 3963 3150 
Q 3859 3500 3706 3700 
Q 3553 3900 3268 4020 
Q 2984 4141 2638 4141 
Q 2222 4141 1919 4014 
Q 1616 3888 1430 3681 
Q 1244 3475 1141 3228 
Q 966 2803 966 2306 
Q 966 1694 1177 1281 
Q 1388 869 1791 669 
Q 2194 469 2647 469 
Q 3041 469 3416 620 
Q 3791 772 3984 944 
L 3984 1797 
L 2638 1797 
z
" transform="scale(0.015625)"/>
        <path id="ArialMT-2192" d="M 4859 2738 
Q 5275 2284 5578 2048 
Q 5881 1813 6150 1697 
L 6150 1556 
Q 5841 1406 5550 1173 
Q 5259 941 4856 491 
L 4616 491 
Q 4909 1119 5231 1456 
L 247 1456 
L 247 1772 
L 5231 1772 
Q 4994 2075 4900 2222 
Q 4806 2369 4622 2738 
L 4859 2738 
z
" transform="scale(0.015625)"/>
        <path id="ArialMT-41" d="M -9 0 
L 1750 4581 
L 2403 4581 
L 4278 0 
L 3588 0 
L 3053 1388 
L 1138 1388 
L 634 0 
L -9 0 
z
M 1313 1881 
L 2866 1881 
L 2388 3150 
Q 2169 3728 2063 4100 
Q 1975 3659 1816 3225 
L 1313 1881 
z
" transform="scale(0.015625)"/>
       </defs>
       <use xlink:href="#ArialMT-47"/>
       <use xlink:href="#ArialMT-2192" x="77.783203"/>
       <use xlink:href="#ArialMT-41" x="177.783203"/>
      </g>
     </g>
    </g>
    <g id="xtick_2">
     <g id="line2d_2">
      <g>
       <use xlink:href="#m0379f3d6ae" x="87.93" y="156.22" style="fill: #262626; stroke: #262626; stroke-width: 1.25"/>
      </g>
     </g>
     <g id="text_2">
      <!-- C→T -->
      <g style="fill: #262626" transform="translate(79.764609 170.730469) scale(0.07 -0.07)">
       <defs>
        <path id="ArialMT-43" d="M 3763 1606 
L 4369 1453 
Q 4178 706 3683 314 
Q 3188 -78 2472 -78 
Q 1731 -78 1267 223 
Q 803 525 561 1097 
Q 319 1669 319 2325 
Q 319 3041 592 3573 
Q 866 4106 1370 4382 
Q 1875 4659 2481 4659 
Q 3169 4659 3637 4309 
Q 4106 3959 4291 3325 
L 3694 3184 
Q 3534 3684 3231 3912 
Q 2928 4141 2469 4141 
Q 1941 4141 1586 3887 
Q 1231 3634 1087 3207 
Q 944 2781 944 2328 
Q 944 1744 1114 1308 
Q 1284 872 1643 656 
Q 2003 441 2422 441 
Q 2931 441 3284 734 
Q 3638 1028 3763 1606 
z
" transform="scale(0.015625)"/>
        <path id="ArialMT-54" d="M 1659 0 
L 1659 4041 
L 150 4041 
L 150 4581 
L 3781 4581 
L 3781 4041 
L 2266 4041 
L 2266 0 
L 1659 0 
z
" transform="scale(0.015625)"/>
       </defs>
       <use xlink:href="#ArialMT-43"/>
       <use xlink:href="#ArialMT-2192" x="72.216797"/>
       <use xlink:href="#ArialMT-54" x="172.216797"/>
      </g>
     </g>
    </g>
    <g id="xtick_3">
     <g id="line2d_3">
      <g>
       <use xlink:href="#m0379f3d6ae" x="122.71" y="156.22" style="fill: #262626; stroke: #262626; stroke-width: 1.25"/>
      </g>
     </g>
     <g id="text_3">
      <!-- T→C -->
      <g style="fill: #262626" transform="translate(114.544609 170.730469) scale(0.07 -0.07)">
       <use xlink:href="#ArialMT-54"/>
       <use xlink:href="#ArialMT-2192" x="61.083984"/>
       <use xlink:href="#ArialMT-43" x="161.083984"/>
      </g>
     </g>
    </g>
    <g id="xtick_4">
     <g id="line2d_4">
      <g>
       <use xlink:href="#m0379f3d6ae" x="157.49" y="156.22" style="fill: #262626; stroke: #262626; stroke-width: 1.25"/>
      </g>
     </g>
     <g id="text_4">
      <!-- C→A -->
      <g style="fill: #262626" transform="translate(149.127734 170.730469) scale(0.07 -0.07)">
       <use xlink:href="#ArialMT-43"/>
       <use xlink:href="#ArialMT-2192" x="72.216797"/>
       <use xlink:href="#ArialMT-41" x="172.216797"/>
      </g>
     </g>
    </g>
    <g id="xtick_5">
     <g id="line2d_5">
      <g>
       <use xlink:href="#m0379f3d6ae" x="192.27" y="156.22" style="fill: #262626; stroke: #262626; stroke-width: 1.25"/>
      </g>
     </g>
     <g id="text_5">
      <!-- A→G -->
      <g style="fill: #262626" transform="translate(183.713047 170.730469) scale(0.07 -0.07)">
       <use xlink:href="#ArialMT-41"/>
       <use xlink:href="#ArialMT-2192" x="66.699219"/>
       <use xlink:href="#ArialMT-47" x="166.699219"/>
      </g>
     </g>
    </g>
    <g id="xtick_6">
     <g id="line2d_6">
      <g>
       <use xlink:href="#m0379f3d6ae" x="227.05" y="156.22" style="fill: #262626; stroke: #262626; stroke-width: 1.25"/>
      </g>
     </g>
     <g id="text_6">
      <!-- G→T -->
      <g style="fill: #262626" transform="translate(218.689922 170.730469) scale(0.07 -0.07)">
       <use xlink:href="#ArialMT-47"/>
       <use xlink:href="#ArialMT-2192" x="77.783203"/>
       <use xlink:href="#ArialMT-54" x="177.783203"/>
      </g>
     </g>
    </g>
   </g>
   <g id="matplotlib.axis_2">
    <g id="ytick_1">
     <g id="line2d_7">
      <defs>
       <path id="mc0085047aa" d="M 0 0 
L -6 0 
" style="stroke: #262626; stroke-width: 1.25"/>
      </defs>
      <g>
       <use xlink:href="#mc0085047aa" x="35.76" y="143.831667" style="fill: #262626; stroke: #262626; stroke-width: 1.25"/>
      </g>
     </g>
     <g id="text_7">
      <!-- −3 -->
      <g style="fill: #262626" transform="translate(18.278906 146.336901) scale(0.07 -0.07)">
       <defs>
        <path id="ArialMT-2212" d="M 3381 1997 
L 356 1997 
L 356 2522 
L 3381 2522 
L 3381 1997 
z
" transform="scale(0.015625)"/>
        <path id="ArialMT-33" d="M 269 1209 
L 831 1284 
Q 928 806 1161 595 
Q 1394 384 1728 384 
Q 2125 384 2398 659 
Q 2672 934 2672 1341 
Q 2672 1728 2419 1979 
Q 2166 2231 1775 2231 
Q 1616 2231 1378 2169 
L 1441 2663 
Q 1497 2656 1531 2656 
Q 1891 2656 2178 2843 
Q 2466 3031 2466 3422 
Q 2466 3731 2256 3934 
Q 2047 4138 1716 4138 
Q 1388 4138 1169 3931 
Q 950 3725 888 3313 
L 325 3413 
Q 428 3978 793 4289 
Q 1159 4600 1703 4600 
Q 2078 4600 2393 4439 
Q 2709 4278 2876 4000 
Q 3044 3722 3044 3409 
Q 3044 3113 2884 2869 
Q 2725 2625 2413 2481 
Q 2819 2388 3044 2092 
Q 3269 1797 3269 1353 
Q 3269 753 2831 336 
Q 2394 -81 1725 -81 
Q 1122 -81 723 278 
Q 325 638 269 1209 
z
" transform="scale(0.015625)"/>
       </defs>
       <use xlink:href="#ArialMT-2212"/>
       <use xlink:href="#ArialMT-33" x="58.398438"/>
      </g>
     </g>
    </g>
    <g id="ytick_2">
     <g id="line2d_8">
      <g>
       <use xlink:href="#mc0085047aa" x="35.76" y="119.055" style="fill: #262626; stroke: #262626; stroke-width: 1.25"/>
      </g>
     </g>
     <g id="text_8">
      <!-- −2 -->
      <g style="fill: #262626" transform="translate(18.278906 121.560234) scale(0.07 -0.07)">
       <defs>
        <path id="ArialMT-32" d="M 3222 541 
L 3222 0 
L 194 0 
Q 188 203 259 391 
Q 375 700 629 1000 
Q 884 1300 1366 1694 
Q 2113 2306 2375 2664 
Q 2638 3022 2638 3341 
Q 2638 3675 2398 3904 
Q 2159 4134 1775 4134 
Q 1369 4134 1125 3890 
Q 881 3647 878 3216 
L 300 3275 
Q 359 3922 746 4261 
Q 1134 4600 1788 4600 
Q 2447 4600 2831 4234 
Q 3216 3869 3216 3328 
Q 3216 3053 3103 2787 
Q 2991 2522 2730 2228 
Q 2469 1934 1863 1422 
Q 1356 997 1212 845 
Q 1069 694 975 541 
L 3222 541 
z
" transform="scale(0.015625)"/>
       </defs>
       <use xlink:href="#ArialMT-2212"/>
       <use xlink:href="#ArialMT-32" x="58.398438"/>
      </g>
     </g>
    </g>
    <g id="ytick_3">
     <g id="line2d_9">
      <g>
       <use xlink:href="#mc0085047aa" x="35.76" y="94.278333" style="fill: #262626; stroke: #262626; stroke-width: 1.25"/>
      </g>
     </g>
     <g id="text_9">
      <!-- −1 -->
      <g style="fill: #262626" transform="translate(18.278906 96.783568) scale(0.07 -0.07)">
       <defs>
        <path id="ArialMT-31" d="M 2384 0 
L 1822 0 
L 1822 3584 
Q 1619 3391 1289 3197 
Q 959 3003 697 2906 
L 697 3450 
Q 1169 3672 1522 3987 
Q 1875 4303 2022 4600 
L 2384 4600 
L 2384 0 
z
" transform="scale(0.015625)"/>
       </defs>
       <use xlink:href="#ArialMT-2212"/>
       <use xlink:href="#ArialMT-31" x="58.398438"/>
      </g>
     </g>
    </g>
    <g id="ytick_4">
     <g id="line2d_10">
      <g>
       <use xlink:href="#mc0085047aa" x="35.76" y="69.501667" style="fill: #262626; stroke: #262626; stroke-width: 1.25"/>
      </g>
     </g>
     <g id="text_10">
      <!-- 0 -->
      <g style="fill: #262626" transform="translate(22.367344 72.006901) scale(0.07 -0.07)">
       <defs>
        <path id="ArialMT-30" d="M 266 2259 
Q 266 3072 433 3567 
Q 600 4063 929 4331 
Q 1259 4600 1759 4600 
Q 2128 4600 2406 4451 
Q 2684 4303 2865 4023 
Q 3047 3744 3150 3342 
Q 3253 2941 3253 2259 
Q 3253 1453 3087 958 
Q 2922 463 2592 192 
Q 2263 -78 1759 -78 
Q 1097 -78 719 397 
Q 266 969 266 2259 
z
M 844 2259 
Q 844 1131 1108 757 
Q 1372 384 1759 384 
Q 2147 384 2411 759 
Q 2675 1134 2675 2259 
Q 2675 3391 2411 3762 
Q 2147 4134 1753 4134 
Q 1366 4134 1134 3806 
Q 844 3388 844 2259 
z
" transform="scale(0.015625)"/>
       </defs>
       <use xlink:href="#ArialMT-30"/>
      </g>
     </g>
    </g>
    <g id="ytick_5">
     <g id="line2d_11">
      <g>
       <use xlink:href="#mc0085047aa" x="35.76" y="44.725" style="fill: #262626; stroke: #262626; stroke-width: 1.25"/>
      </g>
     </g>
     <g id="text_11">
      <!-- 1 -->
      <g style="fill: #262626" transform="translate(22.367344 47.230234) scale(0.07 -0.07)">
       <use xlink:href="#ArialMT-31"/>
      </g>
     </g>
    </g>
    <g id="ytick_6">
     <g id="line2d_12">
      <g>
       <use xlink:href="#mc0085047aa" x="35.76" y="19.948333" style="fill: #262626; stroke: #262626; stroke-width: 1.25"/>
      </g>
     </g>
     <g id="text_12">
      <!-- 2 -->
      <g style="fill: #262626" transform="translate(22.367344 22.453568) scale(0.07 -0.07)">
       <use xlink:href="#ArialMT-32"/>
      </g>
     </g>
    </g>
    <g id="text_13">
     <!-- Estimated mutational fitness -->
     <g style="fill: #262626" transform="translate(12.887656 125.658047) rotate(-90) scale(0.07 -0.07)">
      <defs>
       <path id="ArialMT-45" d="M 506 0 
L 506 4581 
L 3819 4581 
L 3819 4041 
L 1113 4041 
L 1113 2638 
L 3647 2638 
L 3647 2100 
L 1113 2100 
L 1113 541 
L 3925 541 
L 3925 0 
L 506 0 
z
" transform="scale(0.015625)"/>
       <path id="ArialMT-73" d="M 197 991 
L 753 1078 
Q 800 744 1014 566 
Q 1228 388 1613 388 
Q 2000 388 2187 545 
Q 2375 703 2375 916 
Q 2375 1106 2209 1216 
Q 2094 1291 1634 1406 
Q 1016 1563 777 1677 
Q 538 1791 414 1992 
Q 291 2194 291 2438 
Q 291 2659 392 2848 
Q 494 3038 669 3163 
Q 800 3259 1026 3326 
Q 1253 3394 1513 3394 
Q 1903 3394 2198 3281 
Q 2494 3169 2634 2976 
Q 2775 2784 2828 2463 
L 2278 2388 
Q 2241 2644 2061 2787 
Q 1881 2931 1553 2931 
Q 1166 2931 1000 2803 
Q 834 2675 834 2503 
Q 834 2394 903 2306 
Q 972 2216 1119 2156 
Q 1203 2125 1616 2013 
Q 2213 1853 2448 1751 
Q 2684 1650 2818 1456 
Q 2953 1263 2953 975 
Q 2953 694 2789 445 
Q 2625 197 2315 61 
Q 2006 -75 1616 -75 
Q 969 -75 630 194 
Q 291 463 197 991 
z
" transform="scale(0.015625)"/>
       <path id="ArialMT-74" d="M 1650 503 
L 1731 6 
Q 1494 -44 1306 -44 
Q 1000 -44 831 53 
Q 663 150 594 308 
Q 525 466 525 972 
L 525 2881 
L 113 2881 
L 113 3319 
L 525 3319 
L 525 4141 
L 1084 4478 
L 1084 3319 
L 1650 3319 
L 1650 2881 
L 1084 2881 
L 1084 941 
Q 1084 700 1114 631 
Q 1144 563 1211 522 
Q 1278 481 1403 481 
Q 1497 481 1650 503 
z
" transform="scale(0.015625)"/>
       <path id="ArialMT-69" d="M 425 3934 
L 425 4581 
L 988 4581 
L 988 3934 
L 425 3934 
z
M 425 0 
L 425 3319 
L 988 3319 
L 988 0 
L 425 0 
z
" transform="scale(0.015625)"/>
       <path id="ArialMT-6d" d="M 422 0 
L 422 3319 
L 925 3319 
L 925 2853 
Q 1081 3097 1340 3245 
Q 1600 3394 1931 3394 
Q 2300 3394 2536 3241 
Q 2772 3088 2869 2813 
Q 3263 3394 3894 3394 
Q 4388 3394 4653 3120 
Q 4919 2847 4919 2278 
L 4919 0 
L 4359 0 
L 4359 2091 
Q 4359 2428 4304 2576 
Q 4250 2725 4106 2815 
Q 3963 2906 3769 2906 
Q 3419 2906 3187 2673 
Q 2956 2441 2956 1928 
L 2956 0 
L 2394 0 
L 2394 2156 
Q 2394 2531 2256 2718 
Q 2119 2906 1806 2906 
Q 1569 2906 1367 2781 
Q 1166 2656 1075 2415 
Q 984 2175 984 1722 
L 984 0 
L 422 0 
z
" transform="scale(0.015625)"/>
       <path id="ArialMT-61" d="M 2588 409 
Q 2275 144 1986 34 
Q 1697 -75 1366 -75 
Q 819 -75 525 192 
Q 231 459 231 875 
Q 231 1119 342 1320 
Q 453 1522 633 1644 
Q 813 1766 1038 1828 
Q 1203 1872 1538 1913 
Q 2219 1994 2541 2106 
Q 2544 2222 2544 2253 
Q 2544 2597 2384 2738 
Q 2169 2928 1744 2928 
Q 1347 2928 1158 2789 
Q 969 2650 878 2297 
L 328 2372 
Q 403 2725 575 2942 
Q 747 3159 1072 3276 
Q 1397 3394 1825 3394 
Q 2250 3394 2515 3294 
Q 2781 3194 2906 3042 
Q 3031 2891 3081 2659 
Q 3109 2516 3109 2141 
L 3109 1391 
Q 3109 606 3145 398 
Q 3181 191 3288 0 
L 2700 0 
Q 2613 175 2588 409 
z
M 2541 1666 
Q 2234 1541 1622 1453 
Q 1275 1403 1131 1340 
Q 988 1278 909 1158 
Q 831 1038 831 891 
Q 831 666 1001 516 
Q 1172 366 1500 366 
Q 1825 366 2078 508 
Q 2331 650 2450 897 
Q 2541 1088 2541 1459 
L 2541 1666 
z
" transform="scale(0.015625)"/>
       <path id="ArialMT-65" d="M 2694 1069 
L 3275 997 
Q 3138 488 2766 206 
Q 2394 -75 1816 -75 
Q 1088 -75 661 373 
Q 234 822 234 1631 
Q 234 2469 665 2931 
Q 1097 3394 1784 3394 
Q 2450 3394 2872 2941 
Q 3294 2488 3294 1666 
Q 3294 1616 3291 1516 
L 816 1516 
Q 847 969 1125 678 
Q 1403 388 1819 388 
Q 2128 388 2347 550 
Q 2566 713 2694 1069 
z
M 847 1978 
L 2700 1978 
Q 2663 2397 2488 2606 
Q 2219 2931 1791 2931 
Q 1403 2931 1139 2672 
Q 875 2413 847 1978 
z
" transform="scale(0.015625)"/>
       <path id="ArialMT-64" d="M 2575 0 
L 2575 419 
Q 2259 -75 1647 -75 
Q 1250 -75 917 144 
Q 584 363 401 755 
Q 219 1147 219 1656 
Q 219 2153 384 2558 
Q 550 2963 881 3178 
Q 1213 3394 1622 3394 
Q 1922 3394 2156 3267 
Q 2391 3141 2538 2938 
L 2538 4581 
L 3097 4581 
L 3097 0 
L 2575 0 
z
M 797 1656 
Q 797 1019 1065 703 
Q 1334 388 1700 388 
Q 2069 388 2326 689 
Q 2584 991 2584 1609 
Q 2584 2291 2321 2609 
Q 2059 2928 1675 2928 
Q 1300 2928 1048 2622 
Q 797 2316 797 1656 
z
" transform="scale(0.015625)"/>
       <path id="ArialMT-20" transform="scale(0.015625)"/>
       <path id="ArialMT-75" d="M 2597 0 
L 2597 488 
Q 2209 -75 1544 -75 
Q 1250 -75 995 37 
Q 741 150 617 320 
Q 494 491 444 738 
Q 409 903 409 1263 
L 409 3319 
L 972 3319 
L 972 1478 
Q 972 1038 1006 884 
Q 1059 663 1231 536 
Q 1403 409 1656 409 
Q 1909 409 2131 539 
Q 2353 669 2445 892 
Q 2538 1116 2538 1541 
L 2538 3319 
L 3100 3319 
L 3100 0 
L 2597 0 
z
" transform="scale(0.015625)"/>
       <path id="ArialMT-6f" d="M 213 1659 
Q 213 2581 725 3025 
Q 1153 3394 1769 3394 
Q 2453 3394 2887 2945 
Q 3322 2497 3322 1706 
Q 3322 1066 3130 698 
Q 2938 331 2570 128 
Q 2203 -75 1769 -75 
Q 1072 -75 642 372 
Q 213 819 213 1659 
z
M 791 1659 
Q 791 1022 1069 705 
Q 1347 388 1769 388 
Q 2188 388 2466 706 
Q 2744 1025 2744 1678 
Q 2744 2294 2464 2611 
Q 2184 2928 1769 2928 
Q 1347 2928 1069 2612 
Q 791 2297 791 1659 
z
" transform="scale(0.015625)"/>
       <path id="ArialMT-6e" d="M 422 0 
L 422 3319 
L 928 3319 
L 928 2847 
Q 1294 3394 1984 3394 
Q 2284 3394 2536 3286 
Q 2788 3178 2913 3003 
Q 3038 2828 3088 2588 
Q 3119 2431 3119 2041 
L 3119 0 
L 2556 0 
L 2556 2019 
Q 2556 2363 2490 2533 
Q 2425 2703 2258 2804 
Q 2091 2906 1866 2906 
Q 1506 2906 1245 2678 
Q 984 2450 984 1813 
L 984 0 
L 422 0 
z
" transform="scale(0.015625)"/>
       <path id="ArialMT-6c" d="M 409 0 
L 409 4581 
L 972 4581 
L 972 0 
L 409 0 
z
" transform="scale(0.015625)"/>
       <path id="ArialMT-66" d="M 556 0 
L 556 2881 
L 59 2881 
L 59 3319 
L 556 3319 
L 556 3672 
Q 556 4006 616 4169 
Q 697 4388 901 4523 
Q 1106 4659 1475 4659 
Q 1713 4659 2000 4603 
L 1916 4113 
Q 1741 4144 1584 4144 
Q 1328 4144 1222 4034 
Q 1116 3925 1116 3625 
L 1116 3319 
L 1763 3319 
L 1763 2881 
L 1116 2881 
L 1116 0 
L 556 0 
z
" transform="scale(0.015625)"/>
      </defs>
      <use xlink:href="#ArialMT-45"/>
      <use xlink:href="#ArialMT-73" x="66.699219"/>
      <use xlink:href="#ArialMT-74" x="116.699219"/>
      <use xlink:href="#ArialMT-69" x="144.482422"/>
      <use xlink:href="#ArialMT-6d" x="166.699219"/>
      <use xlink:href="#ArialMT-61" x="250"/>
      <use xlink:href="#ArialMT-74" x="305.615234"/>
      <use xlink:href="#ArialMT-65" x="333.398438"/>
      <use xlink:href="#ArialMT-64" x="389.013672"/>
      <use xlink:href="#ArialMT-20" x="444.628906"/>
      <use xlink:href="#ArialMT-6d" x="472.412109"/>
      <use xlink:href="#ArialMT-75" x="555.712891"/>
      <use xlink:href="#ArialMT-74" x="611.328125"/>
      <use xlink:href="#ArialMT-61" x="639.111328"/>
      <use xlink:href="#ArialMT-74" x="694.726562"/>
      <use xlink:href="#ArialMT-69" x="722.509766"/>
      <use xlink:href="#ArialMT-6f" x="744.726562"/>
      <use xlink:href="#ArialMT-6e" x="800.341797"/>
      <use xlink:href="#ArialMT-61" x="855.957031"/>
      <use xlink:href="#ArialMT-6c" x="911.572266"/>
      <use xlink:href="#ArialMT-20" x="933.789062"/>
      <use xlink:href="#ArialMT-66" x="961.572266"/>
      <use xlink:href="#ArialMT-69" x="989.355469"/>
      <use xlink:href="#ArialMT-74" x="1011.572266"/>
      <use xlink:href="#ArialMT-6e" x="1039.355469"/>
      <use xlink:href="#ArialMT-65" x="1094.970703"/>
      <use xlink:href="#ArialMT-73" x="1150.585938"/>
      <use xlink:href="#ArialMT-73" x="1200.585938"/>
     </g>
    </g>
   </g>
   <g id="PolyCollection_1">
    <path d="M 51.7588 226.96154 
L 51.745134 226.96154 
L 51.732569 224.720294 
L 51.71451 222.479048 
L 51.693017 220.237802 
L 51.672851 217.996556 
L 51.660015 215.75531 
L 51.658925 213.514064 
L 51.669972 211.272817 
L 51.689304 209.031571 
L 51.710971 206.790325 
L 51.729844 204.549079 
L 51.743379 202.307833 
L 51.751575 200.066587 
L 51.755823 197.825341 
L 51.757721 195.584095 
L 51.758456 193.342849 
L 51.758703 191.101603 
L 51.758776 188.860356 
L 51.758795 186.61911 
L 51.758799 184.377864 
L 51.7588 182.136618 
L 51.7588 179.895372 
L 51.7588 177.654126 
L 51.7588 175.41288 
L 51.7588 173.171634 
L 51.7588 170.930388 
L 51.758799 168.689142 
L 51.758793 166.447896 
L 51.758769 164.206649 
L 51.758679 161.965403 
L 51.758377 159.724157 
L 51.757503 157.482911 
L 51.7553 155.241665 
L 51.750492 153.000419 
L 51.741451 150.759173 
L 51.726924 148.517927 
L 51.707253 146.276681 
L 51.685374 144.035435 
L 51.666464 141.794188 
L 51.655703 139.552942 
L 51.655083 137.311696 
L 51.661362 135.07045 
L 51.666671 132.829204 
L 51.661156 130.587958 
L 51.635286 128.346712 
L 51.579732 126.105466 
L 51.483034 123.86422 
L 51.329919 121.622974 
L 51.103422 119.381727 
L 50.791189 117.140481 
L 50.392308 114.899235 
L 49.919727 112.657989 
L 49.396315 110.416743 
L 48.847092 108.175497 
L 48.291542 105.934251 
L 47.73778 103.693005 
L 47.178351 101.451759 
L 46.588925 99.210513 
L 45.934202 96.969267 
L 45.184702 94.72802 
L 44.341134 92.486774 
L 43.454207 90.245528 
L 42.625905 88.004282 
L 41.986954 85.763036 
L 41.65877 83.52179 
L 41.71613 81.280544 
L 42.164881 79.039298 
L 42.941167 76.798052 
L 43.930822 74.556806 
L 45.001227 72.315559 
L 46.03385 70.074313 
L 46.946474 67.833067 
L 47.700752 65.591821 
L 48.297804 63.350575 
L 48.766708 61.109329 
L 49.149177 58.868083 
L 49.483458 56.626837 
L 49.792248 54.385591 
L 50.07953 52.144345 
L 50.337529 49.903098 
L 50.559107 47.661852 
L 50.747144 45.420606 
L 50.914315 43.17936 
L 51.073961 40.938114 
L 51.229846 38.696868 
L 51.373223 36.455622 
L 51.489041 34.214376 
L 51.565894 31.97313 
L 51.602591 29.731884 
L 51.608233 27.490638 
L 51.597544 25.249391 
L 51.585168 23.008145 
L 51.581634 20.766899 
L 51.591719 18.525653 
L 51.61471 16.284407 
L 51.645911 14.043161 
L 51.678911 11.801915 
L 51.70801 9.560669 
L 51.729934 7.319423 
L 51.744194 5.078177 
L 51.7588 5.078177 
L 51.7588 5.078177 
L 51.7588 7.319423 
L 51.7588 9.560669 
L 51.7588 11.801915 
L 51.7588 14.043161 
L 51.7588 16.284407 
L 51.7588 18.525653 
L 51.7588 20.766899 
L 51.7588 23.008145 
L 51.7588 25.249391 
L 51.7588 27.490638 
L 51.7588 29.731884 
L 51.7588 31.97313 
L 51.7588 34.214376 
L 51.7588 36.455622 
L 51.7588 38.696868 
L 51.7588 40.938114 
L 51.7588 43.17936 
L 51.7588 45.420606 
L 51.7588 47.661852 
L 51.7588 49.903098 
L 51.7588 52.144345 
L 51.7588 54.385591 
L 51.7588 56.626837 
L 51.7588 58.868083 
L 51.7588 61.109329 
L 51.7588 63.350575 
L 51.7588 65.591821 
L 51.7588 67.833067 
L 51.7588 70.074313 
L 51.7588 72.315559 
L 51.7588 74.556806 
L 51.7588 76.798052 
L 51.7588 79.039298 
L 51.7588 81.280544 
L 51.7588 83.52179 
L 51.7588 85.763036 
L 51.7588 88.004282 
L 51.7588 90.245528 
L 51.7588 92.486774 
L 51.7588 94.72802 
L 51.7588 96.969267 
L 51.7588 99.210513 
L 51.7588 101.451759 
L 51.7588 103.693005 
L 51.7588 105.934251 
L 51.7588 108.175497 
L 51.7588 110.416743 
L 51.7588 112.657989 
L 51.7588 114.899235 
L 51.7588 117.140481 
L 51.7588 119.381727 
L 51.7588 121.622974 
L 51.7588 123.86422 
L 51.7588 126.105466 
L 51.7588 128.346712 
L 51.7588 130.587958 
L 51.7588 132.829204 
L 51.7588 135.07045 
L 51.7588 137.311696 
L 51.7588 139.552942 
L 51.7588 141.794188 
L 51.7588 144.035435 
L 51.7588 146.276681 
L 51.7588 148.517927 
L 51.7588 150.759173 
L 51.7588 153.000419 
L 51.7588 155.241665 
L 51.7588 157.482911 
L 51.7588 159.724157 
L 51.7588 161.965403 
L 51.7588 164.206649 
L 51.7588 166.447896 
L 51.7588 168.689142 
L 51.7588 170.930388 
L 51.7588 173.171634 
L 51.7588 175.41288 
L 51.7588 177.654126 
L 51.7588 179.895372 
L 51.7588 182.136618 
L 51.7588 184.377864 
L 51.7588 186.61911 
L 51.7588 188.860356 
L 51.7588 191.101603 
L 51.7588 193.342849 
L 51.7588 195.584095 
L 51.7588 197.825341 
L 51.7588 200.066587 
L 51.7588 202.307833 
L 51.7588 204.549079 
L 51.7588 206.790325 
L 51.7588 209.031571 
L 51.7588 211.272817 
L 51.7588 213.514064 
L 51.7588 215.75531 
L 51.7588 217.996556 
L 51.7588 220.237802 
L 51.7588 222.479048 
L 51.7588 224.720294 
L 51.7588 226.96154 
z
" clip-path="url(#pfeb027544e)" style="fill: #2b8e70"/>
   </g>
   <g id="PolyCollection_2">
    <path d="M 54.548084 223.867042 
L 54.5412 223.867042 
L 54.5412 221.844229 
L 54.5412 219.821416 
L 54.5412 217.798602 
L 54.5412 215.775789 
L 54.5412 213.752976 
L 54.5412 211.730163 
L 54.5412 209.70735 
L 54.5412 207.684537 
L 54.5412 205.661723 
L 54.5412 203.63891 
L 54.5412 201.616097 
L 54.5412 199.593284 
L 54.5412 197.570471 
L 54.5412 195.547658 
L 54.5412 193.524844 
L 54.5412 191.502031 
L 54.5412 189.479218 
L 54.5412 187.456405 
L 54.5412 185.433592 
L 54.5412 183.410778 
L 54.5412 181.387965 
L 54.5412 179.365152 
L 54.5412 177.342339 
L 54.5412 175.319526 
L 54.5412 173.296713 
L 54.5412 171.273899 
L 54.5412 169.251086 
L 54.5412 167.228273 
L 54.5412 165.20546 
L 54.5412 163.182647 
L 54.5412 161.159834 
L 54.5412 159.13702 
L 54.5412 157.114207 
L 54.5412 155.091394 
L 54.5412 153.068581 
L 54.5412 151.045768 
L 54.5412 149.022955 
L 54.5412 147.000141 
L 54.5412 144.977328 
L 54.5412 142.954515 
L 54.5412 140.931702 
L 54.5412 138.908889 
L 54.5412 136.886076 
L 54.5412 134.863262 
L 54.5412 132.840449 
L 54.5412 130.817636 
L 54.5412 128.794823 
L 54.5412 126.77201 
L 54.5412 124.749197 
L 54.5412 122.726383 
L 54.5412 120.70357 
L 54.5412 118.680757 
L 54.5412 116.657944 
L 54.5412 114.635131 
L 54.5412 112.612318 
L 54.5412 110.589504 
L 54.5412 108.566691 
L 54.5412 106.543878 
L 54.5412 104.521065 
L 54.5412 102.498252 
L 54.5412 100.475439 
L 54.5412 98.452625 
L 54.5412 96.429812 
L 54.5412 94.406999 
L 54.5412 92.384186 
L 54.5412 90.361373 
L 54.5412 88.33856 
L 54.5412 86.315746 
L 54.5412 84.292933 
L 54.5412 82.27012 
L 54.5412 80.247307 
L 54.5412 78.224494 
L 54.5412 76.201681 
L 54.5412 74.178867 
L 54.5412 72.156054 
L 54.5412 70.133241 
L 54.5412 68.110428 
L 54.5412 66.087615 
L 54.5412 64.064802 
L 54.5412 62.041988 
L 54.5412 60.019175 
L 54.5412 57.996362 
L 54.5412 55.973549 
L 54.5412 53.950736 
L 54.5412 51.927922 
L 54.5412 49.905109 
L 54.5412 47.882296 
L 54.5412 45.859483 
L 54.5412 43.83667 
L 54.5412 41.813857 
L 54.5412 39.791043 
L 54.5412 37.76823 
L 54.5412 35.745417 
L 54.5412 33.722604 
L 54.5412 31.699791 
L 54.5412 29.676978 
L 54.5412 27.654164 
L 54.5412 25.631351 
L 54.5412 23.608538 
L 54.548602 23.608538 
L 54.548602 23.608538 
L 54.558013 25.631351 
L 54.574296 27.654164 
L 54.599333 29.676978 
L 54.636175 31.699791 
L 54.691963 33.722604 
L 54.779294 35.745417 
L 54.911846 37.76823 
L 55.094264 39.791043 
L 55.314281 41.813857 
L 55.548413 43.83667 
L 55.782325 45.859483 
L 56.028159 47.882296 
L 56.317392 49.905109 
L 56.671966 51.927922 
L 57.08222 53.950736 
L 57.513331 55.973549 
L 57.93138 57.996362 
L 58.324784 60.019175 
L 58.708645 62.041988 
L 59.115533 64.064802 
L 59.579857 66.087615 
L 60.122859 68.110428 
L 60.747794 70.133241 
L 61.448233 72.156054 
L 62.212873 74.178867 
L 63.007408 76.201681 
L 63.747983 78.224494 
L 64.308114 80.247307 
L 64.571835 82.27012 
L 64.494319 84.292933 
L 64.124512 86.315746 
L 63.577922 88.33856 
L 62.97688 90.361373 
L 62.391932 92.384186 
L 61.823421 94.406999 
L 61.236904 96.429812 
L 60.61787 98.452625 
L 59.992117 100.475439 
L 59.396073 102.498252 
L 58.836518 104.521065 
L 58.28818 106.543878 
L 57.729315 108.566691 
L 57.169934 110.589504 
L 56.642273 112.612318 
L 56.173209 114.635131 
L 55.772956 116.657944 
L 55.442595 118.680757 
L 55.180389 120.70357 
L 54.9801 122.726383 
L 54.830674 124.749197 
L 54.721078 126.77201 
L 54.643951 128.794823 
L 54.59439 130.817636 
L 54.567353 132.840449 
L 54.557299 134.863262 
L 54.559248 136.886076 
L 54.568845 138.908889 
L 54.58113 140.931702 
L 54.590236 142.954515 
L 54.591465 144.977328 
L 54.584079 147.000141 
L 54.571625 149.022955 
L 54.559156 151.045768 
L 54.550013 153.068581 
L 54.544798 155.091394 
L 54.542422 157.114207 
L 54.541545 159.13702 
L 54.541281 161.159834 
L 54.541216 163.182647 
L 54.541203 165.20546 
L 54.5412 167.228273 
L 54.5412 169.251086 
L 54.5412 171.273899 
L 54.5412 173.296713 
L 54.5412 175.319526 
L 54.5412 177.342339 
L 54.5412 179.365152 
L 54.5412 181.387965 
L 54.5412 183.410778 
L 54.5412 185.433592 
L 54.5412 187.456405 
L 54.5412 189.479218 
L 54.5412 191.502031 
L 54.541203 193.524844 
L 54.541216 195.547658 
L 54.541284 197.570471 
L 54.541555 199.593284 
L 54.542452 201.616097 
L 54.544873 203.63891 
L 54.550162 205.661723 
L 54.559388 207.684537 
L 54.571901 209.70735 
L 54.584301 211.730163 
L 54.591526 213.752976 
L 54.590073 215.775789 
L 54.580674 217.798602 
L 54.567717 219.821416 
L 54.556015 221.844229 
L 54.548084 223.867042 
z
" clip-path="url(#pfeb027544e)" style="fill: #be631d"/>
   </g>
   <g id="PolyCollection_3">
    <path d="M 86.5388 217.410527 
L 86.532161 217.410527 
L 86.52523 215.250686 
L 86.515105 213.090844 
L 86.503452 210.931003 
L 86.49375 208.771161 
L 86.489749 206.61132 
L 86.493173 204.451479 
L 86.502541 202.291637 
L 86.514183 200.131796 
L 86.524522 197.971955 
L 86.531725 195.812113 
L 86.535805 193.652272 
L 86.537717 191.49243 
L 86.538465 189.332589 
L 86.538712 187.172748 
L 86.53878 185.012906 
L 86.538796 182.853065 
L 86.538799 180.693223 
L 86.5388 178.533382 
L 86.5388 176.373541 
L 86.5388 174.213699 
L 86.5388 172.053858 
L 86.5388 169.894016 
L 86.5388 167.734175 
L 86.5388 165.574334 
L 86.5388 163.414492 
L 86.5388 161.254651 
L 86.5388 159.094809 
L 86.5388 156.934968 
L 86.5388 154.775127 
L 86.5388 152.615285 
L 86.5388 150.455444 
L 86.5388 148.295603 
L 86.5388 146.135761 
L 86.5388 143.97592 
L 86.5388 141.816078 
L 86.5388 139.656237 
L 86.538798 137.496396 
L 86.538789 135.336554 
L 86.538744 133.176713 
L 86.538562 131.016871 
L 86.537931 128.85703 
L 86.536049 126.697189 
L 86.531227 124.537347 
L 86.520567 122.377506 
L 86.500118 120.217664 
L 86.465762 118.057823 
L 86.414526 115.897982 
L 86.345463 113.73814 
L 86.259496 111.578299 
L 86.158413 109.418457 
L 86.043424 107.258616 
L 85.913086 105.098775 
L 85.760671 102.938933 
L 85.572703 100.779092 
L 85.331363 98.619251 
L 85.021113 96.459409 
L 84.635807 94.299568 
L 84.181832 92.139726 
L 83.677892 89.979885 
L 83.157277 87.820044 
L 82.674133 85.660202 
L 82.3026 83.500361 
L 82.114326 81.340519 
L 82.138683 79.180678 
L 82.334528 77.020837 
L 82.600942 74.860995 
L 82.822751 72.701154 
L 82.917121 70.541312 
L 82.849643 68.381471 
L 82.615984 66.22163 
L 82.21068 64.061788 
L 81.610005 61.901947 
L 80.783882 59.742105 
L 79.733674 57.582264 
L 78.53627 55.422423 
L 77.364037 53.262581 
L 76.454628 51.10274 
L 76.032603 48.942899 
L 76.22138 46.783057 
L 76.99557 44.623216 
L 78.197775 42.463374 
L 79.604859 40.303533 
L 81.005996 38.143692 
L 82.256619 35.98385 
L 83.2921 33.824009 
L 84.109463 31.664167 
L 84.738415 29.504326 
L 85.218067 27.344485 
L 85.583681 25.184643 
L 85.86144 23.024802 
L 86.069011 20.86496 
L 86.219448 18.705119 
L 86.324895 16.545278 
L 86.397461 14.385436 
L 86.447651 12.225595 
L 86.482732 10.065753 
L 86.506816 7.905912 
L 86.522306 5.746071 
L 86.531258 3.586229 
L 86.5388 3.586229 
L 86.5388 3.586229 
L 86.5388 5.746071 
L 86.5388 7.905912 
L 86.5388 10.065753 
L 86.5388 12.225595 
L 86.5388 14.385436 
L 86.5388 16.545278 
L 86.5388 18.705119 
L 86.5388 20.86496 
L 86.5388 23.024802 
L 86.5388 25.184643 
L 86.5388 27.344485 
L 86.5388 29.504326 
L 86.5388 31.664167 
L 86.5388 33.824009 
L 86.5388 35.98385 
L 86.5388 38.143692 
L 86.5388 40.303533 
L 86.5388 42.463374 
L 86.5388 44.623216 
L 86.5388 46.783057 
L 86.5388 48.942899 
L 86.5388 51.10274 
L 86.5388 53.262581 
L 86.5388 55.422423 
L 86.5388 57.582264 
L 86.5388 59.742105 
L 86.5388 61.901947 
L 86.5388 64.061788 
L 86.5388 66.22163 
L 86.5388 68.381471 
L 86.5388 70.541312 
L 86.5388 72.701154 
L 86.5388 74.860995 
L 86.5388 77.020837 
L 86.5388 79.180678 
L 86.5388 81.340519 
L 86.5388 83.500361 
L 86.5388 85.660202 
L 86.5388 87.820044 
L 86.5388 89.979885 
L 86.5388 92.139726 
L 86.5388 94.299568 
L 86.5388 96.459409 
L 86.5388 98.619251 
L 86.5388 100.779092 
L 86.5388 102.938933 
L 86.5388 105.098775 
L 86.5388 107.258616 
L 86.5388 109.418457 
L 86.5388 111.578299 
L 86.5388 113.73814 
L 86.5388 115.897982 
L 86.5388 118.057823 
L 86.5388 120.217664 
L 86.5388 122.377506 
L 86.5388 124.537347 
L 86.5388 126.697189 
L 86.5388 128.85703 
L 86.5388 131.016871 
L 86.5388 133.176713 
L 86.5388 135.336554 
L 86.5388 137.496396 
L 86.5388 139.656237 
L 86.5388 141.816078 
L 86.5388 143.97592 
L 86.5388 146.135761 
L 86.5388 148.295603 
L 86.5388 150.455444 
L 86.5388 152.615285 
L 86.5388 154.775127 
L 86.5388 156.934968 
L 86.5388 159.094809 
L 86.5388 161.254651 
L 86.5388 163.414492 
L 86.5388 165.574334 
L 86.5388 167.734175 
L 86.5388 169.894016 
L 86.5388 172.053858 
L 86.5388 174.213699 
L 86.5388 176.373541 
L 86.5388 178.533382 
L 86.5388 180.693223 
L 86.5388 182.853065 
L 86.5388 185.012906 
L 86.5388 187.172748 
L 86.5388 189.332589 
L 86.5388 191.49243 
L 86.5388 193.652272 
L 86.5388 195.812113 
L 86.5388 197.971955 
L 86.5388 200.131796 
L 86.5388 202.291637 
L 86.5388 204.451479 
L 86.5388 206.61132 
L 86.5388 208.771161 
L 86.5388 210.931003 
L 86.5388 213.090844 
L 86.5388 215.250686 
L 86.5388 217.410527 
z
" clip-path="url(#pfeb027544e)" style="fill: #2b8e70"/>
   </g>
   <g id="PolyCollection_4">
    <path d="M 89.325489 228.527986 
L 89.3212 228.527986 
L 89.3212 226.376875 
L 89.3212 224.225765 
L 89.3212 222.074655 
L 89.3212 219.923544 
L 89.3212 217.772434 
L 89.3212 215.621323 
L 89.3212 213.470213 
L 89.3212 211.319103 
L 89.3212 209.167992 
L 89.3212 207.016882 
L 89.3212 204.865771 
L 89.3212 202.714661 
L 89.3212 200.563551 
L 89.3212 198.41244 
L 89.3212 196.26133 
L 89.3212 194.110219 
L 89.3212 191.959109 
L 89.3212 189.807999 
L 89.3212 187.656888 
L 89.3212 185.505778 
L 89.3212 183.354667 
L 89.3212 181.203557 
L 89.3212 179.052447 
L 89.3212 176.901336 
L 89.3212 174.750226 
L 89.3212 172.599116 
L 89.3212 170.448005 
L 89.3212 168.296895 
L 89.3212 166.145784 
L 89.3212 163.994674 
L 89.3212 161.843564 
L 89.3212 159.692453 
L 89.3212 157.541343 
L 89.3212 155.390232 
L 89.3212 153.239122 
L 89.3212 151.088012 
L 89.3212 148.936901 
L 89.3212 146.785791 
L 89.3212 144.63468 
L 89.3212 142.48357 
L 89.3212 140.33246 
L 89.3212 138.181349 
L 89.3212 136.030239 
L 89.3212 133.879128 
L 89.3212 131.728018 
L 89.3212 129.576908 
L 89.3212 127.425797 
L 89.3212 125.274687 
L 89.3212 123.123577 
L 89.3212 120.972466 
L 89.3212 118.821356 
L 89.3212 116.670245 
L 89.3212 114.519135 
L 89.3212 112.368025 
L 89.3212 110.216914 
L 89.3212 108.065804 
L 89.3212 105.914693 
L 89.3212 103.763583 
L 89.3212 101.612473 
L 89.3212 99.461362 
L 89.3212 97.310252 
L 89.3212 95.159141 
L 89.3212 93.008031 
L 89.3212 90.856921 
L 89.3212 88.70581 
L 89.3212 86.5547 
L 89.3212 84.403589 
L 89.3212 82.252479 
L 89.3212 80.101369 
L 89.3212 77.950258 
L 89.3212 75.799148 
L 89.3212 73.648038 
L 89.3212 71.496927 
L 89.3212 69.345817 
L 89.3212 67.194706 
L 89.3212 65.043596 
L 89.3212 62.892486 
L 89.3212 60.741375 
L 89.3212 58.590265 
L 89.3212 56.439154 
L 89.3212 54.288044 
L 89.3212 52.136934 
L 89.3212 49.985823 
L 89.3212 47.834713 
L 89.3212 45.683602 
L 89.3212 43.532492 
L 89.3212 41.381382 
L 89.3212 39.230271 
L 89.3212 37.079161 
L 89.3212 34.928051 
L 89.3212 32.77694 
L 89.3212 30.62583 
L 89.3212 28.474719 
L 89.3212 26.323609 
L 89.3212 24.172499 
L 89.3212 22.021388 
L 89.3212 19.870278 
L 89.3212 17.719167 
L 89.3212 15.568057 
L 89.325491 15.568057 
L 89.325491 15.568057 
L 89.330901 17.719167 
L 89.338985 19.870278 
L 89.347789 22.021388 
L 89.354209 24.172499 
L 89.357217 26.323609 
L 89.360983 28.474719 
L 89.374685 30.62583 
L 89.40943 32.77694 
L 89.476136 34.928051 
L 89.585816 37.079161 
L 89.747844 39.230271 
L 89.961988 41.381382 
L 90.210072 43.532492 
L 90.45966 45.683602 
L 90.682153 47.834713 
L 90.870547 49.985823 
L 91.039132 52.136934 
L 91.205402 54.288044 
L 91.376137 56.439154 
L 91.555114 58.590265 
L 91.760792 60.741375 
L 92.031058 62.892486 
L 92.410447 65.043596 
L 92.928046 67.194706 
L 93.57577 69.345817 
L 94.304395 71.496927 
L 95.048805 73.648038 
L 95.761861 75.799148 
L 96.422833 77.950258 
L 97.020794 80.101369 
L 97.546314 82.252479 
L 98.000138 84.403589 
L 98.383163 86.5547 
L 98.652512 88.70581 
L 98.69916 90.856921 
L 98.40833 93.008031 
L 97.769555 95.159141 
L 96.926906 97.310252 
L 96.105864 99.461362 
L 95.469871 101.612473 
L 95.025076 103.763583 
L 94.651139 105.914693 
L 94.223812 108.065804 
L 93.711867 110.216914 
L 93.168477 112.368025 
L 92.654065 114.519135 
L 92.183803 116.670245 
L 91.738483 118.821356 
L 91.302297 120.972466 
L 90.8814 123.123577 
L 90.496463 125.274687 
L 90.167635 127.425797 
L 89.90457 129.576908 
L 89.704487 131.728018 
L 89.557676 133.879128 
L 89.454649 136.030239 
L 89.388039 138.181349 
L 89.35014 140.33246 
L 89.331825 142.48357 
L 89.324467 144.63468 
L 89.322052 146.785791 
L 89.321479 148.936901 
L 89.321675 151.088012 
L 89.322739 153.239122 
L 89.325485 155.390232 
L 89.330878 157.541343 
L 89.338888 159.692453 
L 89.347355 161.843564 
L 89.352494 163.994674 
L 89.351495 166.145784 
L 89.344929 168.296895 
L 89.33624 170.448005 
L 89.328918 172.599116 
L 89.324436 174.750226 
L 89.322451 176.901336 
L 89.322191 179.052447 
L 89.323507 181.203557 
L 89.327031 183.354667 
L 89.333416 185.505778 
L 89.341945 187.656888 
L 89.349706 189.807999 
L 89.352895 191.959109 
L 89.349713 194.110219 
L 89.341955 196.26133 
L 89.333425 198.41244 
L 89.327036 200.563551 
L 89.32351 202.714661 
L 89.322192 204.865771 
L 89.32245 207.016882 
L 89.324432 209.167992 
L 89.328911 211.319103 
L 89.33623 213.470213 
L 89.34492 215.621323 
L 89.35149 217.772434 
L 89.352496 219.923544 
L 89.347364 222.074655 
L 89.338898 224.225765 
L 89.330886 226.376875 
L 89.325489 228.527986 
z
" clip-path="url(#pfeb027544e)" style="fill: #be631d"/>
   </g>
   <g id="PolyCollection_5">
    <path d="M 121.3188 200.746356 
L 121.313885 200.746356 
L 121.303798 198.261002 
L 121.289581 195.775648 
L 121.282487 193.290293 
L 121.290003 190.804939 
L 121.304228 188.319585 
L 121.314095 185.834231 
L 121.317831 183.348877 
L 121.318673 180.863523 
L 121.318789 178.378169 
L 121.318799 175.892814 
L 121.3188 173.40746 
L 121.3188 170.922106 
L 121.318795 168.436752 
L 121.318738 165.951398 
L 121.318326 163.466044 
L 121.316485 160.98069 
L 121.311592 158.495335 
L 121.304479 156.009981 
L 121.300631 153.524627 
L 121.303945 151.039273 
L 121.310002 148.553919 
L 121.310725 146.068565 
L 121.301968 143.583211 
L 121.288308 141.097856 
L 121.282578 138.612502 
L 121.291252 136.127148 
L 121.305107 133.641794 
L 121.312598 131.15644 
L 121.309935 128.671086 
L 121.296782 126.185732 
L 121.274294 123.700377 
L 121.246935 121.215023 
L 121.221298 118.729669 
L 121.198045 116.244315 
L 121.156928 113.758961 
L 121.058196 111.273607 
L 120.87932 108.788253 
L 120.642143 106.302898 
L 120.368106 103.817544 
L 120.021515 101.33219 
L 119.531463 98.846836 
L 118.86909 96.361482 
L 118.115155 93.876128 
L 117.388692 91.390774 
L 116.678606 88.905419 
L 115.874989 86.420065 
L 114.956169 83.934711 
L 114.063511 81.449357 
L 113.406369 78.964003 
L 113.056986 76.478649 
L 112.887446 73.993295 
L 112.764305 71.50794 
L 112.673417 69.022586 
L 112.635355 66.537232 
L 112.698514 64.051878 
L 112.995396 61.566524 
L 113.619649 59.08117 
L 114.523942 56.595816 
L 115.575683 54.110461 
L 116.598367 51.625107 
L 117.468224 49.139753 
L 118.192496 46.654399 
L 118.803463 44.169045 
L 119.284369 41.683691 
L 119.622916 39.198337 
L 119.865969 36.712982 
L 120.105755 34.227628 
L 120.390848 31.742274 
L 120.674527 29.25692 
L 120.887693 26.771566 
L 121.020524 24.286212 
L 121.105402 21.800858 
L 121.166637 19.315503 
L 121.21155 16.830149 
L 121.24365 14.344795 
L 121.266262 11.859441 
L 121.28244 9.374087 
L 121.293535 6.888733 
L 121.297762 4.403379 
L 121.296235 1.918024 
L 121.29422 -0.56733 
L 121.294107 -3.052684 
L 121.296639 -5.538038 
L 121.303112 -8.023392 
L 121.310638 -10.508746 
L 121.313975 -12.9941 
L 121.311021 -15.479455 
L 121.304357 -17.964809 
L 121.300638 -20.450163 
L 121.304161 -22.935517 
L 121.311211 -25.420871 
L 121.315846 -27.906225 
L 121.31593 -30.391579 
L 121.311445 -32.876934 
L 121.304396 -35.362288 
L 121.300643 -37.847642 
L 121.304191 -40.332996 
L 121.311299 -42.81835 
L 121.316343 -45.303704 
L 121.3188 -45.303704 
L 121.3188 -45.303704 
L 121.3188 -42.81835 
L 121.3188 -40.332996 
L 121.3188 -37.847642 
L 121.3188 -35.362288 
L 121.3188 -32.876934 
L 121.3188 -30.391579 
L 121.3188 -27.906225 
L 121.3188 -25.420871 
L 121.3188 -22.935517 
L 121.3188 -20.450163 
L 121.3188 -17.964809 
L 121.3188 -15.479455 
L 121.3188 -12.9941 
L 121.3188 -10.508746 
L 121.3188 -8.023392 
L 121.3188 -5.538038 
L 121.3188 -3.052684 
L 121.3188 -0.56733 
L 121.3188 1.918024 
L 121.3188 4.403379 
L 121.3188 6.888733 
L 121.3188 9.374087 
L 121.3188 11.859441 
L 121.3188 14.344795 
L 121.3188 16.830149 
L 121.3188 19.315503 
L 121.3188 21.800858 
L 121.3188 24.286212 
L 121.3188 26.771566 
L 121.3188 29.25692 
L 121.3188 31.742274 
L 121.3188 34.227628 
L 121.3188 36.712982 
L 121.3188 39.198337 
L 121.3188 41.683691 
L 121.3188 44.169045 
L 121.3188 46.654399 
L 121.3188 49.139753 
L 121.3188 51.625107 
L 121.3188 54.110461 
L 121.3188 56.595816 
L 121.3188 59.08117 
L 121.3188 61.566524 
L 121.3188 64.051878 
L 121.3188 66.537232 
L 121.3188 69.022586 
L 121.3188 71.50794 
L 121.3188 73.993295 
L 121.3188 76.478649 
L 121.3188 78.964003 
L 121.3188 81.449357 
L 121.3188 83.934711 
L 121.3188 86.420065 
L 121.3188 88.905419 
L 121.3188 91.390774 
L 121.3188 93.876128 
L 121.3188 96.361482 
L 121.3188 98.846836 
L 121.3188 101.33219 
L 121.3188 103.817544 
L 121.3188 106.302898 
L 121.3188 108.788253 
L 121.3188 111.273607 
L 121.3188 113.758961 
L 121.3188 116.244315 
L 121.3188 118.729669 
L 121.3188 121.215023 
L 121.3188 123.700377 
L 121.3188 126.185732 
L 121.3188 128.671086 
L 121.3188 131.15644 
L 121.3188 133.641794 
L 121.3188 136.127148 
L 121.3188 138.612502 
L 121.3188 141.097856 
L 121.3188 143.583211 
L 121.3188 146.068565 
L 121.3188 148.553919 
L 121.3188 151.039273 
L 121.3188 153.524627 
L 121.3188 156.009981 
L 121.3188 158.495335 
L 121.3188 160.98069 
L 121.3188 163.466044 
L 121.3188 165.951398 
L 121.3188 168.436752 
L 121.3188 170.922106 
L 121.3188 173.40746 
L 121.3188 175.892814 
L 121.3188 178.378169 
L 121.3188 180.863523 
L 121.3188 183.348877 
L 121.3188 185.834231 
L 121.3188 188.319585 
L 121.3188 190.804939 
L 121.3188 193.290293 
L 121.3188 195.775648 
L 121.3188 198.261002 
L 121.3188 200.746356 
z
" clip-path="url(#pfeb027544e)" style="fill: #2b8e70"/>
   </g>
   <g id="PolyCollection_6">
    <path d="M 124.103838 200.168777 
L 124.1012 200.168777 
L 124.1012 198.194579 
L 124.1012 196.220381 
L 124.1012 194.246182 
L 124.1012 192.271984 
L 124.1012 190.297786 
L 124.1012 188.323588 
L 124.1012 186.349389 
L 124.1012 184.375191 
L 124.1012 182.400993 
L 124.1012 180.426794 
L 124.1012 178.452596 
L 124.1012 176.478398 
L 124.1012 174.504199 
L 124.1012 172.530001 
L 124.1012 170.555803 
L 124.1012 168.581605 
L 124.1012 166.607406 
L 124.1012 164.633208 
L 124.1012 162.65901 
L 124.1012 160.684811 
L 124.1012 158.710613 
L 124.1012 156.736415 
L 124.1012 154.762216 
L 124.1012 152.788018 
L 124.1012 150.81382 
L 124.1012 148.839622 
L 124.1012 146.865423 
L 124.1012 144.891225 
L 124.1012 142.917027 
L 124.1012 140.942828 
L 124.1012 138.96863 
L 124.1012 136.994432 
L 124.1012 135.020233 
L 124.1012 133.046035 
L 124.1012 131.071837 
L 124.1012 129.097639 
L 124.1012 127.12344 
L 124.1012 125.149242 
L 124.1012 123.175044 
L 124.1012 121.200845 
L 124.1012 119.226647 
L 124.1012 117.252449 
L 124.1012 115.27825 
L 124.1012 113.304052 
L 124.1012 111.329854 
L 124.1012 109.355656 
L 124.1012 107.381457 
L 124.1012 105.407259 
L 124.1012 103.433061 
L 124.1012 101.458862 
L 124.1012 99.484664 
L 124.1012 97.510466 
L 124.1012 95.536267 
L 124.1012 93.562069 
L 124.1012 91.587871 
L 124.1012 89.613673 
L 124.1012 87.639474 
L 124.1012 85.665276 
L 124.1012 83.691078 
L 124.1012 81.716879 
L 124.1012 79.742681 
L 124.1012 77.768483 
L 124.1012 75.794284 
L 124.1012 73.820086 
L 124.1012 71.845888 
L 124.1012 69.87169 
L 124.1012 67.897491 
L 124.1012 65.923293 
L 124.1012 63.949095 
L 124.1012 61.974896 
L 124.1012 60.000698 
L 124.1012 58.0265 
L 124.1012 56.052301 
L 124.1012 54.078103 
L 124.1012 52.103905 
L 124.1012 50.129707 
L 124.1012 48.155508 
L 124.1012 46.18131 
L 124.1012 44.207112 
L 124.1012 42.232913 
L 124.1012 40.258715 
L 124.1012 38.284517 
L 124.1012 36.310318 
L 124.1012 34.33612 
L 124.1012 32.361922 
L 124.1012 30.387724 
L 124.1012 28.413525 
L 124.1012 26.439327 
L 124.1012 24.465129 
L 124.1012 22.49093 
L 124.1012 20.516732 
L 124.1012 18.542534 
L 124.1012 16.568335 
L 124.1012 14.594137 
L 124.1012 12.619939 
L 124.1012 10.645741 
L 124.1012 8.671542 
L 124.1012 6.697344 
L 124.1012 4.723146 
L 124.103913 4.723146 
L 124.103913 4.723146 
L 124.108752 6.697344 
L 124.116944 8.671542 
L 124.126964 10.645741 
L 124.136761 12.619939 
L 124.145644 14.594137 
L 124.153524 16.568335 
L 124.161375 18.542534 
L 124.173252 20.516732 
L 124.194461 22.49093 
L 124.229437 24.465129 
L 124.28185 26.439327 
L 124.35037 28.413525 
L 124.428166 30.387724 
L 124.519033 32.361922 
L 124.649903 34.33612 
L 124.851597 36.310318 
L 125.121168 38.284517 
L 125.40722 40.258715 
L 125.646693 42.232913 
L 125.829777 44.207112 
L 126.014605 46.18131 
L 126.263148 48.155508 
L 126.590473 50.129707 
L 127.004803 52.103905 
L 127.561342 54.078103 
L 128.313462 56.052301 
L 129.212745 58.0265 
L 130.118076 60.000698 
L 130.922463 61.974896 
L 131.633451 63.949095 
L 132.316527 65.923293 
L 132.998423 67.897491 
L 133.655746 69.87169 
L 134.240119 71.845888 
L 134.644899 73.820086 
L 134.729161 75.794284 
L 134.465211 77.768483 
L 133.996155 79.742681 
L 133.503734 81.716879 
L 133.047398 83.691078 
L 132.518602 85.665276 
L 131.761115 87.639474 
L 130.76459 89.613673 
L 129.71455 91.587871 
L 128.840696 93.562069 
L 128.224547 95.536267 
L 127.744532 97.510466 
L 127.221565 99.484664 
L 126.613699 101.458862 
L 126.024641 103.433061 
L 125.553345 105.407259 
L 125.208846 107.381457 
L 124.95109 109.355656 
L 124.746842 111.329854 
L 124.577018 113.304052 
L 124.428742 115.27825 
L 124.301849 117.252449 
L 124.209296 119.226647 
L 124.160989 121.200845 
L 124.152379 123.175044 
L 124.167464 125.149242 
L 124.187694 127.12344 
L 124.199514 129.097639 
L 124.197882 131.071837 
L 124.185354 133.046035 
L 124.168049 135.020233 
L 124.151626 136.994432 
L 124.139263 138.96863 
L 124.131763 140.942828 
L 124.128215 142.917027 
L 124.125903 144.891225 
L 124.12266 146.865423 
L 124.120099 148.839622 
L 124.120573 150.81382 
L 124.121902 152.788018 
L 124.119681 154.762216 
L 124.113557 156.736415 
L 124.107188 158.710613 
L 124.103285 160.684811 
L 124.10172 162.65901 
L 124.101293 164.633208 
L 124.101212 166.607406 
L 124.101201 168.581605 
L 124.1012 170.555803 
L 124.1012 172.530001 
L 124.1012 174.504199 
L 124.1012 176.478398 
L 124.101202 178.452596 
L 124.101216 180.426794 
L 124.101318 182.400993 
L 124.101831 184.375191 
L 124.103624 186.349389 
L 124.107871 188.323588 
L 124.114351 190.297786 
L 124.119778 192.271984 
L 124.120003 194.246182 
L 124.114836 196.220381 
L 124.108285 198.194579 
L 124.103838 200.168777 
z
" clip-path="url(#pfeb027544e)" style="fill: #be631d"/>
   </g>
   <g id="PolyCollection_7">
    <defs>
     <path id="m291b272a5a" d="M 156.0988 -26.715197 
L 156.082401 -26.715197 
L 156.072665 -28.242133 
L 156.059369 -29.769068 
L 156.042411 -31.296003 
L 156.022232 -32.822939 
L 155.999875 -34.349874 
L 155.976881 -35.876809 
L 155.955045 -37.403745 
L 155.936115 -38.93068 
L 155.921522 -40.457615 
L 155.912228 -41.98455 
L 155.908685 -43.511486 
L 155.910839 -45.038421 
L 155.918126 -46.565356 
L 155.92942 -48.092292 
L 155.942999 -49.619227 
L 155.956624 -51.146162 
L 155.967781 -52.673098 
L 155.974078 -54.200033 
L 155.973624 -55.726968 
L 155.965254 -57.253904 
L 155.948448 -58.780839 
L 155.922953 -60.307774 
L 155.888262 -61.83471 
L 155.843121 -63.361645 
L 155.785255 -64.88858 
L 155.711337 -66.415516 
L 155.617085 -67.942451 
L 155.497392 -69.469386 
L 155.346444 -70.996321 
L 155.157998 -72.523257 
L 154.926092 -74.050192 
L 154.646355 -75.577127 
L 154.317707 -77.104063 
L 153.943861 -78.630998 
L 153.533805 -80.157933 
L 153.100671 -81.684869 
L 152.659052 -83.211804 
L 152.221594 -84.738739 
L 151.796199 -86.265675 
L 151.385054 -87.79261 
L 150.985964 -89.319545 
L 150.595421 -90.846481 
L 150.212099 -92.373416 
L 149.839238 -93.900351 
L 149.484951 -95.427287 
L 149.160344 -96.954222 
L 148.876265 -98.481157 
L 148.639929 -100.008093 
L 148.452724 -101.535028 
L 148.310017 -103.061963 
L 148.203157 -104.588898 
L 148.123082 -106.115834 
L 148.064306 -107.642769 
L 148.027738 -109.169704 
L 148.021115 -110.69664 
L 148.056715 -112.223575 
L 148.147231 -113.75051 
L 148.301554 -115.277446 
L 148.522275 -116.804381 
L 148.805794 -118.331316 
L 149.144611 -119.858252 
L 149.530349 -121.385187 
L 149.955908 -122.912122 
L 150.415843 -124.439058 
L 150.905125 -125.965993 
L 151.417235 -127.492928 
L 151.942724 -129.019864 
L 152.468991 -130.546799 
L 152.98134 -132.073734 
L 153.464875 -133.60067 
L 153.906509 -135.127605 
L 154.296485 -136.65454 
L 154.629095 -138.181475 
L 154.902653 -139.708411 
L 155.118968 -141.235346 
L 155.282658 -142.762281 
L 155.400468 -144.289217 
L 155.480598 -145.816152 
L 155.531961 -147.343087 
L 155.563308 -148.870023 
L 155.582341 -150.396958 
L 155.595056 -151.923893 
L 155.605521 -153.450829 
L 155.616179 -154.977764 
L 155.628496 -156.504699 
L 155.643634 -158.031635 
L 155.662857 -159.55857 
L 155.6875 -161.085505 
L 155.718595 -162.612441 
L 155.756367 -164.139376 
L 155.799894 -165.666311 
L 155.847107 -167.193246 
L 155.895146 -168.720182 
L 155.940961 -170.247117 
L 155.981924 -171.774052 
L 156.016285 -173.300988 
L 156.043349 -174.827923 
L 156.063378 -176.354858 
L 156.077316 -177.881794 
L 156.0988 -177.881794 
L 156.0988 -177.881794 
L 156.0988 -176.354858 
L 156.0988 -174.827923 
L 156.0988 -173.300988 
L 156.0988 -171.774052 
L 156.0988 -170.247117 
L 156.0988 -168.720182 
L 156.0988 -167.193246 
L 156.0988 -165.666311 
L 156.0988 -164.139376 
L 156.0988 -162.612441 
L 156.0988 -161.085505 
L 156.0988 -159.55857 
L 156.0988 -158.031635 
L 156.0988 -156.504699 
L 156.0988 -154.977764 
L 156.0988 -153.450829 
L 156.0988 -151.923893 
L 156.0988 -150.396958 
L 156.0988 -148.870023 
L 156.0988 -147.343087 
L 156.0988 -145.816152 
L 156.0988 -144.289217 
L 156.0988 -142.762281 
L 156.0988 -141.235346 
L 156.0988 -139.708411 
L 156.0988 -138.181475 
L 156.0988 -136.65454 
L 156.0988 -135.127605 
L 156.0988 -133.60067 
L 156.0988 -132.073734 
L 156.0988 -130.546799 
L 156.0988 -129.019864 
L 156.0988 -127.492928 
L 156.0988 -125.965993 
L 156.0988 -124.439058 
L 156.0988 -122.912122 
L 156.0988 -121.385187 
L 156.0988 -119.858252 
L 156.0988 -118.331316 
L 156.0988 -116.804381 
L 156.0988 -115.277446 
L 156.0988 -113.75051 
L 156.0988 -112.223575 
L 156.0988 -110.69664 
L 156.0988 -109.169704 
L 156.0988 -107.642769 
L 156.0988 -106.115834 
L 156.0988 -104.588898 
L 156.0988 -103.061963 
L 156.0988 -101.535028 
L 156.0988 -100.008093 
L 156.0988 -98.481157 
L 156.0988 -96.954222 
L 156.0988 -95.427287 
L 156.0988 -93.900351 
L 156.0988 -92.373416 
L 156.0988 -90.846481 
L 156.0988 -89.319545 
L 156.0988 -87.79261 
L 156.0988 -86.265675 
L 156.0988 -84.738739 
L 156.0988 -83.211804 
L 156.0988 -81.684869 
L 156.0988 -80.157933 
L 156.0988 -78.630998 
L 156.0988 -77.104063 
L 156.0988 -75.577127 
L 156.0988 -74.050192 
L 156.0988 -72.523257 
L 156.0988 -70.996321 
L 156.0988 -69.469386 
L 156.0988 -67.942451 
L 156.0988 -66.415516 
L 156.0988 -64.88858 
L 156.0988 -63.361645 
L 156.0988 -61.83471 
L 156.0988 -60.307774 
L 156.0988 -58.780839 
L 156.0988 -57.253904 
L 156.0988 -55.726968 
L 156.0988 -54.200033 
L 156.0988 -52.673098 
L 156.0988 -51.146162 
L 156.0988 -49.619227 
L 156.0988 -48.092292 
L 156.0988 -46.565356 
L 156.0988 -45.038421 
L 156.0988 -43.511486 
L 156.0988 -41.98455 
L 156.0988 -40.457615 
L 156.0988 -38.93068 
L 156.0988 -37.403745 
L 156.0988 -35.876809 
L 156.0988 -34.349874 
L 156.0988 -32.822939 
L 156.0988 -31.296003 
L 156.0988 -29.769068 
L 156.0988 -28.242133 
L 156.0988 -26.715197 
z
"/>
    </defs>
    <g clip-path="url(#pfeb027544e)">
     <use xlink:href="#m291b272a5a" x="0" y="180" style="fill: #2b8e70"/>
    </g>
   </g>
   <g id="PolyCollection_8">
    <path d="M 158.888564 192.790064 
L 158.8812 192.790064 
L 158.8812 190.792345 
L 158.8812 188.794626 
L 158.8812 186.796907 
L 158.8812 184.799188 
L 158.8812 182.801468 
L 158.8812 180.803749 
L 158.8812 178.80603 
L 158.8812 176.808311 
L 158.8812 174.810592 
L 158.8812 172.812873 
L 158.8812 170.815154 
L 158.8812 168.817434 
L 158.8812 166.819715 
L 158.8812 164.821996 
L 158.8812 162.824277 
L 158.8812 160.826558 
L 158.8812 158.828839 
L 158.8812 156.83112 
L 158.8812 154.8334 
L 158.8812 152.835681 
L 158.8812 150.837962 
L 158.8812 148.840243 
L 158.8812 146.842524 
L 158.8812 144.844805 
L 158.8812 142.847086 
L 158.8812 140.849367 
L 158.8812 138.851647 
L 158.8812 136.853928 
L 158.8812 134.856209 
L 158.8812 132.85849 
L 158.8812 130.860771 
L 158.8812 128.863052 
L 158.8812 126.865333 
L 158.8812 124.867613 
L 158.8812 122.869894 
L 158.8812 120.872175 
L 158.8812 118.874456 
L 158.8812 116.876737 
L 158.8812 114.879018 
L 158.8812 112.881299 
L 158.8812 110.883579 
L 158.8812 108.88586 
L 158.8812 106.888141 
L 158.8812 104.890422 
L 158.8812 102.892703 
L 158.8812 100.894984 
L 158.8812 98.897265 
L 158.8812 96.899546 
L 158.8812 94.901826 
L 158.8812 92.904107 
L 158.8812 90.906388 
L 158.8812 88.908669 
L 158.8812 86.91095 
L 158.8812 84.913231 
L 158.8812 82.915512 
L 158.8812 80.917792 
L 158.8812 78.920073 
L 158.8812 76.922354 
L 158.8812 74.924635 
L 158.8812 72.926916 
L 158.8812 70.929197 
L 158.8812 68.931478 
L 158.8812 66.933758 
L 158.8812 64.936039 
L 158.8812 62.93832 
L 158.8812 60.940601 
L 158.8812 58.942882 
L 158.8812 56.945163 
L 158.8812 54.947444 
L 158.8812 52.949725 
L 158.8812 50.952005 
L 158.8812 48.954286 
L 158.8812 46.956567 
L 158.8812 44.958848 
L 158.8812 42.961129 
L 158.8812 40.96341 
L 158.8812 38.965691 
L 158.8812 36.967971 
L 158.8812 34.970252 
L 158.8812 32.972533 
L 158.8812 30.974814 
L 158.8812 28.977095 
L 158.8812 26.979376 
L 158.8812 24.981657 
L 158.8812 22.983937 
L 158.8812 20.986218 
L 158.8812 18.988499 
L 158.8812 16.99078 
L 158.8812 14.993061 
L 158.8812 12.995342 
L 158.8812 10.997623 
L 158.8812 8.999904 
L 158.8812 7.002184 
L 158.8812 5.004465 
L 158.8812 3.006746 
L 158.8812 1.009027 
L 158.8812 -0.988692 
L 158.8812 -2.986411 
L 158.8812 -4.98413 
L 158.889442 -4.98413 
L 158.889442 -4.98413 
L 158.896868 -2.986411 
L 158.908376 -0.988692 
L 158.924403 1.009027 
L 158.944468 3.006746 
L 158.967005 5.004465 
L 158.989523 7.002184 
L 159.009082 8.999904 
L 159.022969 10.997623 
L 159.029447 12.995342 
L 159.02837 14.993061 
L 159.021382 16.99078 
L 159.011555 18.988499 
L 159.002712 20.986218 
L 158.998895 22.983937 
L 159.004222 24.981657 
L 159.022761 26.979376 
L 159.057867 28.977095 
L 159.11111 30.974814 
L 159.181895 32.972533 
L 159.268938 34.970252 
L 159.373471 36.967971 
L 159.502206 38.965691 
L 159.667483 40.96341 
L 159.883471 42.961129 
L 160.159817 44.958848 
L 160.496012 46.956567 
L 160.879611 48.954286 
L 161.289644 50.952005 
L 161.704143 52.949725 
L 162.108803 54.947444 
L 162.502755 56.945163 
L 162.89803 58.942882 
L 163.311869 60.940601 
L 163.75513 62.93832 
L 164.223156 64.936039 
L 164.695005 66.933758 
L 165.142061 68.931478 
L 165.540928 70.929197 
L 165.882377 72.926916 
L 166.170772 74.924635 
L 166.414805 76.922354 
L 166.616044 78.920073 
L 166.762661 80.917792 
L 166.8316 82.915512 
L 166.797089 84.913231 
L 166.640547 86.91095 
L 166.3578 88.908669 
L 165.961959 90.906388 
L 165.482022 92.904107 
L 164.957722 94.901826 
L 164.431656 96.899546 
L 163.940702 98.897265 
L 163.509315 100.894984 
L 163.146417 102.892703 
L 162.845776 104.890422 
L 162.588742 106.888141 
L 162.348692 108.88586 
L 162.097302 110.883579 
L 161.81222 112.881299 
L 161.483955 114.879018 
L 161.118947 116.876737 
L 160.737182 118.874456 
L 160.365457 120.872175 
L 160.029418 122.869894 
L 159.747413 124.867613 
L 159.527732 126.865333 
L 159.36911 128.863052 
L 159.263328 130.860771 
L 159.198424 132.85849 
L 159.16138 134.856209 
L 159.139965 136.853928 
L 159.124138 138.851647 
L 159.107403 140.849367 
L 159.087693 142.847086 
L 159.066858 144.844805 
L 159.048359 146.842524 
L 159.034283 148.840243 
L 159.02358 150.837962 
L 159.012729 152.835681 
L 158.998184 154.8334 
L 158.978714 156.83112 
L 158.95604 158.828839 
L 158.93365 160.826558 
L 158.914931 162.824277 
L 158.901925 164.821996 
L 158.895169 166.819715 
L 158.894247 168.817434 
L 158.898333 170.815154 
L 158.906287 172.812873 
L 158.916417 174.810592 
L 158.926357 176.808311 
L 158.933442 178.80603 
L 158.935572 180.803749 
L 158.932072 182.801468 
L 158.923983 184.799188 
L 158.913539 186.796907 
L 158.903171 188.794626 
L 158.894617 190.792345 
L 158.888564 192.790064 
z
" clip-path="url(#pfeb027544e)" style="fill: #be631d"/>
   </g>
   <g id="PolyCollection_9">
    <path d="M 190.8788 202.402051 
L 190.874324 202.402051 
L 190.865117 200.131166 
L 190.852149 197.86028 
L 190.845727 195.589394 
L 190.85265 193.318508 
L 190.865626 191.047623 
L 190.874571 188.776737 
L 190.877935 186.505851 
L 190.878687 184.234966 
L 190.878791 181.96408 
L 190.8788 179.693194 
L 190.8788 177.422308 
L 190.8788 175.151423 
L 190.8788 172.880537 
L 190.8788 170.609651 
L 190.8788 168.338766 
L 190.8788 166.06788 
L 190.8788 163.796994 
L 190.8788 161.526109 
L 190.8788 159.255223 
L 190.8788 156.984337 
L 190.8788 154.713451 
L 190.8788 152.442566 
L 190.8788 150.17168 
L 190.8788 147.900794 
L 190.8788 145.629909 
L 190.8788 143.359023 
L 190.8788 141.088137 
L 190.8788 138.817251 
L 190.8788 136.546366 
L 190.8788 134.27548 
L 190.8788 132.004594 
L 190.878799 129.733709 
L 190.878787 127.462823 
L 190.878643 125.191937 
L 190.877569 122.921052 
L 190.872492 120.650166 
L 190.857275 118.37928 
L 190.827455 116.108394 
L 190.781894 113.837509 
L 190.701435 111.566623 
L 190.538371 109.295737 
L 190.268281 107.024852 
L 189.919295 104.753966 
L 189.502145 102.48308 
L 188.962281 100.212195 
L 188.202897 97.941309 
L 187.107584 95.670423 
L 185.636759 93.399537 
L 184.014763 91.128652 
L 182.627354 88.857766 
L 181.596022 86.58688 
L 180.761588 84.315995 
L 180.092172 82.045109 
L 179.7492 79.774223 
L 179.779839 77.503337 
L 180.036096 75.232452 
L 180.438374 72.961566 
L 181.057377 70.69068 
L 181.932064 68.419795 
L 183.015462 66.148909 
L 184.184903 63.878023 
L 185.300382 61.607138 
L 186.352422 59.336252 
L 187.389514 57.065366 
L 188.335277 54.79448 
L 189.033318 52.523595 
L 189.424454 50.252709 
L 189.62163 47.981823 
L 189.789789 45.710938 
L 189.985309 43.440052 
L 190.17268 41.169166 
L 190.330602 38.89828 
L 190.467693 36.627395 
L 190.587704 34.356509 
L 190.682931 32.085623 
L 190.749117 29.814738 
L 190.794833 27.543852 
L 190.826122 25.272966 
L 190.838546 23.002081 
L 190.835435 20.731195 
L 190.826572 18.460309 
L 190.811887 16.189423 
L 190.793194 13.918538 
L 190.788171 11.647652 
L 190.809141 9.376766 
L 190.842092 7.105881 
L 190.864946 4.834995 
L 190.870692 2.564109 
L 190.863217 0.293223 
L 190.850757 -1.977662 
L 190.845754 -4.248548 
L 190.853253 -6.519434 
L 190.862784 -8.790319 
L 190.86204 -11.061205 
L 190.851955 -13.332091 
L 190.845641 -15.602976 
L 190.852142 -17.873862 
L 190.865116 -20.144748 
L 190.874324 -22.415634 
L 190.8788 -22.415634 
L 190.8788 -22.415634 
L 190.8788 -20.144748 
L 190.8788 -17.873862 
L 190.8788 -15.602976 
L 190.8788 -13.332091 
L 190.8788 -11.061205 
L 190.8788 -8.790319 
L 190.8788 -6.519434 
L 190.8788 -4.248548 
L 190.8788 -1.977662 
L 190.8788 0.293223 
L 190.8788 2.564109 
L 190.8788 4.834995 
L 190.8788 7.105881 
L 190.8788 9.376766 
L 190.8788 11.647652 
L 190.8788 13.918538 
L 190.8788 16.189423 
L 190.8788 18.460309 
L 190.8788 20.731195 
L 190.8788 23.002081 
L 190.8788 25.272966 
L 190.8788 27.543852 
L 190.8788 29.814738 
L 190.8788 32.085623 
L 190.8788 34.356509 
L 190.8788 36.627395 
L 190.8788 38.89828 
L 190.8788 41.169166 
L 190.8788 43.440052 
L 190.8788 45.710938 
L 190.8788 47.981823 
L 190.8788 50.252709 
L 190.8788 52.523595 
L 190.8788 54.79448 
L 190.8788 57.065366 
L 190.8788 59.336252 
L 190.8788 61.607138 
L 190.8788 63.878023 
L 190.8788 66.148909 
L 190.8788 68.419795 
L 190.8788 70.69068 
L 190.8788 72.961566 
L 190.8788 75.232452 
L 190.8788 77.503337 
L 190.8788 79.774223 
L 190.8788 82.045109 
L 190.8788 84.315995 
L 190.8788 86.58688 
L 190.8788 88.857766 
L 190.8788 91.128652 
L 190.8788 93.399537 
L 190.8788 95.670423 
L 190.8788 97.941309 
L 190.8788 100.212195 
L 190.8788 102.48308 
L 190.8788 104.753966 
L 190.8788 107.024852 
L 190.8788 109.295737 
L 190.8788 111.566623 
L 190.8788 113.837509 
L 190.8788 116.108394 
L 190.8788 118.37928 
L 190.8788 120.650166 
L 190.8788 122.921052 
L 190.8788 125.191937 
L 190.8788 127.462823 
L 190.8788 129.733709 
L 190.8788 132.004594 
L 190.8788 134.27548 
L 190.8788 136.546366 
L 190.8788 138.817251 
L 190.8788 141.088137 
L 190.8788 143.359023 
L 190.8788 145.629909 
L 190.8788 147.900794 
L 190.8788 150.17168 
L 190.8788 152.442566 
L 190.8788 154.713451 
L 190.8788 156.984337 
L 190.8788 159.255223 
L 190.8788 161.526109 
L 190.8788 163.796994 
L 190.8788 166.06788 
L 190.8788 168.338766 
L 190.8788 170.609651 
L 190.8788 172.880537 
L 190.8788 175.151423 
L 190.8788 177.422308 
L 190.8788 179.693194 
L 190.8788 181.96408 
L 190.8788 184.234966 
L 190.8788 186.505851 
L 190.8788 188.776737 
L 190.8788 191.047623 
L 190.8788 193.318508 
L 190.8788 195.589394 
L 190.8788 197.86028 
L 190.8788 200.131166 
L 190.8788 202.402051 
z
" clip-path="url(#pfeb027544e)" style="fill: #2b8e70"/>
   </g>
   <g id="PolyCollection_10">
    <path d="M 193.666181 175.695975 
L 193.6612 175.695975 
L 193.6612 173.725474 
L 193.6612 171.754972 
L 193.6612 169.784471 
L 193.6612 167.81397 
L 193.6612 165.843468 
L 193.6612 163.872967 
L 193.6612 161.902465 
L 193.6612 159.931964 
L 193.6612 157.961463 
L 193.6612 155.990961 
L 193.6612 154.02046 
L 193.6612 152.049958 
L 193.6612 150.079457 
L 193.6612 148.108956 
L 193.6612 146.138454 
L 193.6612 144.167953 
L 193.6612 142.197451 
L 193.6612 140.22695 
L 193.6612 138.256449 
L 193.6612 136.285947 
L 193.6612 134.315446 
L 193.6612 132.344945 
L 193.6612 130.374443 
L 193.6612 128.403942 
L 193.6612 126.43344 
L 193.6612 124.462939 
L 193.6612 122.492438 
L 193.6612 120.521936 
L 193.6612 118.551435 
L 193.6612 116.580933 
L 193.6612 114.610432 
L 193.6612 112.639931 
L 193.6612 110.669429 
L 193.6612 108.698928 
L 193.6612 106.728426 
L 193.6612 104.757925 
L 193.6612 102.787424 
L 193.6612 100.816922 
L 193.6612 98.846421 
L 193.6612 96.87592 
L 193.6612 94.905418 
L 193.6612 92.934917 
L 193.6612 90.964415 
L 193.6612 88.993914 
L 193.6612 87.023413 
L 193.6612 85.052911 
L 193.6612 83.08241 
L 193.6612 81.111908 
L 193.6612 79.141407 
L 193.6612 77.170906 
L 193.6612 75.200404 
L 193.6612 73.229903 
L 193.6612 71.259401 
L 193.6612 69.2889 
L 193.6612 67.318399 
L 193.6612 65.347897 
L 193.6612 63.377396 
L 193.6612 61.406895 
L 193.6612 59.436393 
L 193.6612 57.465892 
L 193.6612 55.49539 
L 193.6612 53.524889 
L 193.6612 51.554388 
L 193.6612 49.583886 
L 193.6612 47.613385 
L 193.6612 45.642883 
L 193.6612 43.672382 
L 193.6612 41.701881 
L 193.6612 39.731379 
L 193.6612 37.760878 
L 193.6612 35.790376 
L 193.6612 33.819875 
L 193.6612 31.849374 
L 193.6612 29.878872 
L 193.6612 27.908371 
L 193.6612 25.93787 
L 193.6612 23.967368 
L 193.6612 21.996867 
L 193.6612 20.026365 
L 193.6612 18.055864 
L 193.6612 16.085363 
L 193.6612 14.114861 
L 193.6612 12.14436 
L 193.6612 10.173858 
L 193.6612 8.203357 
L 193.6612 6.232856 
L 193.6612 4.262354 
L 193.6612 2.291853 
L 193.6612 0.321351 
L 193.6612 -1.64915 
L 193.6612 -3.619651 
L 193.6612 -5.590153 
L 193.6612 -7.560654 
L 193.6612 -9.531155 
L 193.6612 -11.501657 
L 193.6612 -13.472158 
L 193.6612 -15.44266 
L 193.6612 -17.413161 
L 193.6612 -19.383662 
L 193.666181 -19.383662 
L 193.666181 -19.383662 
L 193.673905 -17.413161 
L 193.685372 -15.44266 
L 193.6955 -13.472158 
L 193.697505 -11.501657 
L 193.689861 -9.531155 
L 193.678077 -7.560654 
L 193.668613 -5.590153 
L 193.663629 -3.619651 
L 193.661794 -1.64915 
L 193.661318 0.321351 
L 193.661293 2.291853 
L 193.661653 4.262354 
L 193.66315 6.232856 
L 193.667505 8.203357 
L 193.676583 10.173858 
L 193.69009 12.14436 
L 193.705039 14.114861 
L 193.720194 16.085363 
L 193.73904 18.055864 
L 193.762978 20.026365 
L 193.784901 21.996867 
L 193.798471 23.967368 
L 193.811255 25.93787 
L 193.839285 27.908371 
L 193.889186 29.878872 
L 193.951266 31.849374 
L 194.01276 33.819875 
L 194.077871 35.790376 
L 194.164842 37.760878 
L 194.278762 39.731379 
L 194.410695 41.701881 
L 194.573609 43.672382 
L 194.811698 45.642883 
L 195.166125 47.613385 
L 195.640506 49.583886 
L 196.179315 51.554388 
L 196.679434 53.524889 
L 197.074185 55.49539 
L 197.427261 57.465892 
L 197.905746 59.436393 
L 198.642662 61.406895 
L 199.654722 63.377396 
L 200.883233 65.347897 
L 202.221258 67.318399 
L 203.463524 69.2889 
L 204.350319 71.259401 
L 204.757217 73.229903 
L 204.7908 75.200404 
L 204.665561 77.170906 
L 204.521453 79.141407 
L 204.343144 81.111908 
L 204.013735 83.08241 
L 203.437233 85.052911 
L 202.61234 87.023413 
L 201.62691 88.993914 
L 200.622432 90.964415 
L 199.725159 92.934917 
L 198.961414 94.905418 
L 198.25485 96.87592 
L 197.517324 98.846421 
L 196.728959 100.816922 
L 195.944535 102.787424 
L 195.246237 104.757925 
L 194.692384 106.728426 
L 194.299967 108.698928 
L 194.054109 110.669429 
L 193.918356 112.639931 
L 193.846185 114.610432 
L 193.800023 116.580933 
L 193.762556 118.551435 
L 193.730308 120.521936 
L 193.703541 122.492438 
L 193.683441 124.462939 
L 193.671458 126.43344 
L 193.667892 128.403942 
L 193.672066 130.374443 
L 193.682191 132.344945 
L 193.693293 134.315446 
L 193.698004 136.285947 
L 193.692698 138.256449 
L 193.681308 140.22695 
L 193.670775 142.197451 
L 193.664601 144.167953 
L 193.662101 146.138454 
L 193.661378 148.108956 
L 193.661226 150.079457 
L 193.661204 152.049958 
L 193.661215 154.02046 
L 193.661308 155.990961 
L 193.661793 157.961463 
L 193.663628 159.931964 
L 193.668613 161.902465 
L 193.678077 163.872967 
L 193.689861 165.843468 
L 193.697505 167.81397 
L 193.6955 169.784471 
L 193.685372 171.754972 
L 193.673905 173.725474 
L 193.666181 175.695975 
z
" clip-path="url(#pfeb027544e)" style="fill: #be631d"/>
   </g>
   <g id="PolyCollection_11">
    <defs>
     <path id="m191ea7165a" d="M 225.6588 -22.990461 
L 225.621816 -22.990461 
L 225.610323 -24.439204 
L 225.596458 -25.887946 
L 225.580131 -27.336688 
L 225.561372 -28.785431 
L 225.54035 -30.234173 
L 225.517386 -31.682915 
L 225.492939 -33.131658 
L 225.467577 -34.5804 
L 225.44193 -36.029143 
L 225.416615 -37.477885 
L 225.392164 -38.926627 
L 225.368936 -40.37537 
L 225.347045 -41.824112 
L 225.326309 -43.272854 
L 225.306227 -44.721597 
L 225.285999 -46.170339 
L 225.264576 -47.619081 
L 225.240756 -49.067824 
L 225.2133 -50.516566 
L 225.181061 -51.965309 
L 225.143108 -53.414051 
L 225.09883 -54.862793 
L 225.048002 -56.311536 
L 224.990804 -57.760278 
L 224.927801 -59.20902 
L 224.85987 -60.657763 
L 224.788102 -62.106505 
L 224.713683 -63.555247 
L 224.637774 -65.00399 
L 224.561408 -66.452732 
L 224.485423 -67.901475 
L 224.410419 -69.350217 
L 224.336761 -70.798959 
L 224.264617 -72.247702 
L 224.194007 -73.696444 
L 224.124867 -75.145186 
L 224.057094 -76.593929 
L 223.990575 -78.042671 
L 223.925173 -79.491413 
L 223.860671 -80.940156 
L 223.796692 -82.388898 
L 223.732584 -83.837641 
L 223.667309 -85.286383 
L 223.599346 -86.735125 
L 223.526645 -88.183868 
L 223.446639 -89.63261 
L 223.356342 -91.081352 
L 223.252519 -92.530095 
L 223.131934 -93.978837 
L 222.991644 -95.42758 
L 222.8293 -96.876322 
L 222.643428 -98.325064 
L 222.433656 -99.773807 
L 222.200831 -101.222549 
L 221.94704 -102.671291 
L 221.675513 -104.120034 
L 221.390432 -105.568776 
L 221.096663 -107.017518 
L 220.799465 -108.466261 
L 220.504202 -109.915003 
L 220.216091 -111.363746 
L 219.940025 -112.812488 
L 219.680454 -114.26123 
L 219.441347 -115.709973 
L 219.226202 -117.158715 
L 219.038087 -118.607457 
L 218.879698 -120.0562 
L 218.753402 -121.504942 
L 218.661266 -122.953684 
L 218.605067 -124.402427 
L 218.586281 -125.851169 
L 218.606062 -127.299912 
L 218.665216 -128.748654 
L 218.764165 -130.197396 
L 218.902915 -131.646139 
L 219.081003 -133.094881 
L 219.297442 -134.543623 
L 219.550646 -135.992366 
L 219.838346 -137.441108 
L 220.157506 -138.88985 
L 220.504265 -140.338593 
L 220.873912 -141.787335 
L 221.260925 -143.236078 
L 221.659083 -144.68482 
L 222.061659 -146.133562 
L 222.461682 -147.582305 
L 222.852251 -149.031047 
L 223.226873 -150.479789 
L 223.579785 -151.928532 
L 223.906234 -153.377274 
L 224.202681 -154.826017 
L 224.466904 -156.274759 
L 224.698013 -157.723501 
L 224.896357 -159.172244 
L 225.063361 -160.620986 
L 225.201301 -162.069728 
L 225.313061 -163.518471 
L 225.401873 -164.967213 
L 225.471094 -166.415955 
L 225.6588 -166.415955 
L 225.6588 -166.415955 
L 225.6588 -164.967213 
L 225.6588 -163.518471 
L 225.6588 -162.069728 
L 225.6588 -160.620986 
L 225.6588 -159.172244 
L 225.6588 -157.723501 
L 225.6588 -156.274759 
L 225.6588 -154.826017 
L 225.6588 -153.377274 
L 225.6588 -151.928532 
L 225.6588 -150.479789 
L 225.6588 -149.031047 
L 225.6588 -147.582305 
L 225.6588 -146.133562 
L 225.6588 -144.68482 
L 225.6588 -143.236078 
L 225.6588 -141.787335 
L 225.6588 -140.338593 
L 225.6588 -138.88985 
L 225.6588 -137.441108 
L 225.6588 -135.992366 
L 225.6588 -134.543623 
L 225.6588 -133.094881 
L 225.6588 -131.646139 
L 225.6588 -130.197396 
L 225.6588 -128.748654 
L 225.6588 -127.299912 
L 225.6588 -125.851169 
L 225.6588 -124.402427 
L 225.6588 -122.953684 
L 225.6588 -121.504942 
L 225.6588 -120.0562 
L 225.6588 -118.607457 
L 225.6588 -117.158715 
L 225.6588 -115.709973 
L 225.6588 -114.26123 
L 225.6588 -112.812488 
L 225.6588 -111.363746 
L 225.6588 -109.915003 
L 225.6588 -108.466261 
L 225.6588 -107.017518 
L 225.6588 -105.568776 
L 225.6588 -104.120034 
L 225.6588 -102.671291 
L 225.6588 -101.222549 
L 225.6588 -99.773807 
L 225.6588 -98.325064 
L 225.6588 -96.876322 
L 225.6588 -95.42758 
L 225.6588 -93.978837 
L 225.6588 -92.530095 
L 225.6588 -91.081352 
L 225.6588 -89.63261 
L 225.6588 -88.183868 
L 225.6588 -86.735125 
L 225.6588 -85.286383 
L 225.6588 -83.837641 
L 225.6588 -82.388898 
L 225.6588 -80.940156 
L 225.6588 -79.491413 
L 225.6588 -78.042671 
L 225.6588 -76.593929 
L 225.6588 -75.145186 
L 225.6588 -73.696444 
L 225.6588 -72.247702 
L 225.6588 -70.798959 
L 225.6588 -69.350217 
L 225.6588 -67.901475 
L 225.6588 -66.452732 
L 225.6588 -65.00399 
L 225.6588 -63.555247 
L 225.6588 -62.106505 
L 225.6588 -60.657763 
L 225.6588 -59.20902 
L 225.6588 -57.760278 
L 225.6588 -56.311536 
L 225.6588 -54.862793 
L 225.6588 -53.414051 
L 225.6588 -51.965309 
L 225.6588 -50.516566 
L 225.6588 -49.067824 
L 225.6588 -47.619081 
L 225.6588 -46.170339 
L 225.6588 -44.721597 
L 225.6588 -43.272854 
L 225.6588 -41.824112 
L 225.6588 -40.37537 
L 225.6588 -38.926627 
L 225.6588 -37.477885 
L 225.6588 -36.029143 
L 225.6588 -34.5804 
L 225.6588 -33.131658 
L 225.6588 -31.682915 
L 225.6588 -30.234173 
L 225.6588 -28.785431 
L 225.6588 -27.336688 
L 225.6588 -25.887946 
L 225.6588 -24.439204 
L 225.6588 -22.990461 
z
"/>
    </defs>
    <g clip-path="url(#pfeb027544e)">
     <use xlink:href="#m191ea7165a" x="0" y="180" style="fill: #2b8e70"/>
    </g>
   </g>
   <g id="PolyCollection_12">
    <defs>
     <path id="m9fa065552c" d="M 228.455201 -19.321987 
L 228.4412 -19.321987 
L 228.4412 -20.906832 
L 228.4412 -22.491676 
L 228.4412 -24.076521 
L 228.4412 -25.661366 
L 228.4412 -27.24621 
L 228.4412 -28.831055 
L 228.4412 -30.4159 
L 228.4412 -32.000744 
L 228.4412 -33.585589 
L 228.4412 -35.170434 
L 228.4412 -36.755278 
L 228.4412 -38.340123 
L 228.4412 -39.924968 
L 228.4412 -41.509813 
L 228.4412 -43.094657 
L 228.4412 -44.679502 
L 228.4412 -46.264347 
L 228.4412 -47.849191 
L 228.4412 -49.434036 
L 228.4412 -51.018881 
L 228.4412 -52.603725 
L 228.4412 -54.18857 
L 228.4412 -55.773415 
L 228.4412 -57.358259 
L 228.4412 -58.943104 
L 228.4412 -60.527949 
L 228.4412 -62.112793 
L 228.4412 -63.697638 
L 228.4412 -65.282483 
L 228.4412 -66.867327 
L 228.4412 -68.452172 
L 228.4412 -70.037017 
L 228.4412 -71.621861 
L 228.4412 -73.206706 
L 228.4412 -74.791551 
L 228.4412 -76.376395 
L 228.4412 -77.96124 
L 228.4412 -79.546085 
L 228.4412 -81.130929 
L 228.4412 -82.715774 
L 228.4412 -84.300619 
L 228.4412 -85.885463 
L 228.4412 -87.470308 
L 228.4412 -89.055153 
L 228.4412 -90.639997 
L 228.4412 -92.224842 
L 228.4412 -93.809687 
L 228.4412 -95.394531 
L 228.4412 -96.979376 
L 228.4412 -98.564221 
L 228.4412 -100.149066 
L 228.4412 -101.73391 
L 228.4412 -103.318755 
L 228.4412 -104.9036 
L 228.4412 -106.488444 
L 228.4412 -108.073289 
L 228.4412 -109.658134 
L 228.4412 -111.242978 
L 228.4412 -112.827823 
L 228.4412 -114.412668 
L 228.4412 -115.997512 
L 228.4412 -117.582357 
L 228.4412 -119.167202 
L 228.4412 -120.752046 
L 228.4412 -122.336891 
L 228.4412 -123.921736 
L 228.4412 -125.50658 
L 228.4412 -127.091425 
L 228.4412 -128.67627 
L 228.4412 -130.261114 
L 228.4412 -131.845959 
L 228.4412 -133.430804 
L 228.4412 -135.015648 
L 228.4412 -136.600493 
L 228.4412 -138.185338 
L 228.4412 -139.770182 
L 228.4412 -141.355027 
L 228.4412 -142.939872 
L 228.4412 -144.524716 
L 228.4412 -146.109561 
L 228.4412 -147.694406 
L 228.4412 -149.27925 
L 228.4412 -150.864095 
L 228.4412 -152.44894 
L 228.4412 -154.033784 
L 228.4412 -155.618629 
L 228.4412 -157.203474 
L 228.4412 -158.788319 
L 228.4412 -160.373163 
L 228.4412 -161.958008 
L 228.4412 -163.542853 
L 228.4412 -165.127697 
L 228.4412 -166.712542 
L 228.4412 -168.297387 
L 228.4412 -169.882231 
L 228.4412 -171.467076 
L 228.4412 -173.051921 
L 228.4412 -174.636765 
L 228.4412 -176.22161 
L 228.452971 -176.22161 
L 228.452971 -176.22161 
L 228.458005 -174.636765 
L 228.464503 -173.051921 
L 228.47263 -171.467076 
L 228.482514 -169.882231 
L 228.494261 -168.297387 
L 228.508003 -166.712542 
L 228.523979 -165.127697 
L 228.542634 -163.542853 
L 228.564728 -161.958008 
L 228.591433 -160.373163 
L 228.62437 -158.788319 
L 228.665599 -157.203474 
L 228.717514 -155.618629 
L 228.782673 -154.033784 
L 228.863568 -152.44894 
L 228.962383 -150.864095 
L 229.080754 -149.27925 
L 229.219582 -147.694406 
L 229.378893 -146.109561 
L 229.55777 -144.524716 
L 229.754335 -142.939872 
L 229.965785 -141.355027 
L 230.18848 -139.770182 
L 230.418081 -138.185338 
L 230.649753 -136.600493 
L 230.878427 -135.015648 
L 231.099116 -133.430804 
L 231.307244 -131.845959 
L 231.498969 -130.261114 
L 231.671432 -128.67627 
L 231.822923 -127.091425 
L 231.952938 -125.50658 
L 232.062131 -123.921736 
L 232.152197 -122.336891 
L 232.225677 -120.752046 
L 232.285742 -119.167202 
L 232.335939 -117.582357 
L 232.379925 -115.997512 
L 232.421202 -114.412668 
L 232.462877 -112.827823 
L 232.507461 -111.242978 
L 232.556755 -109.658134 
L 232.61181 -108.073289 
L 232.672963 -106.488444 
L 232.739929 -104.9036 
L 232.8119 -103.318755 
L 232.887634 -101.73391 
L 232.965533 -100.149066 
L 233.043709 -98.564221 
L 233.120085 -96.979376 
L 233.19255 -95.394531 
L 233.259178 -93.809687 
L 233.318478 -92.224842 
L 233.369641 -90.639997 
L 233.412712 -89.055153 
L 233.448614 -87.470308 
L 233.47902 -85.885463 
L 233.506039 -84.300619 
L 233.531764 -82.715774 
L 233.55775 -81.130929 
L 233.584476 -79.546085 
L 233.610907 -77.96124 
L 233.634215 -76.376395 
L 233.649752 -74.791551 
L 233.65131 -73.206706 
L 233.631688 -71.621861 
L 233.583502 -70.037017 
L 233.500147 -68.452172 
L 233.376744 -66.867327 
L 233.210906 -65.282483 
L 233.003177 -63.697638 
L 232.757049 -62.112793 
L 232.478563 -60.527949 
L 232.175588 -58.943104 
L 231.856917 -57.358259 
L 231.531385 -55.773415 
L 231.207124 -54.18857 
L 230.891081 -52.603725 
L 230.588802 -51.018881 
L 230.304444 -49.434036 
L 230.040924 -47.849191 
L 229.800129 -46.264347 
L 229.583106 -44.679502 
L 229.3902 -43.094657 
L 229.221142 -41.509813 
L 229.07511 -39.924968 
L 228.950785 -38.340123 
L 228.846438 -36.755278 
L 228.760045 -35.170434 
L 228.689421 -33.585589 
L 228.632358 -32.000744 
L 228.586747 -30.4159 
L 228.550663 -28.831055 
L 228.522411 -27.24621 
L 228.500542 -25.661366 
L 228.483829 -24.076521 
L 228.471249 -22.491676 
L 228.461945 -20.906832 
L 228.455201 -19.321987 
z
"/>
    </defs>
    <g clip-path="url(#pfeb027544e)">
     <use xlink:href="#m9fa065552c" x="0" y="180" style="fill: #be631d"/>
    </g>
   </g>
   <g id="patch_3">
    <path d="M 53.15 69.501667 
L 53.15 69.501667 
L 53.15 69.501667 
L 53.15 69.501667 
z
" clip-path="url(#pfeb027544e)" style="fill: #2b8e70"/>
   </g>
   <g id="patch_4">
    <path d="M 53.15 69.501667 
L 53.15 69.501667 
L 53.15 69.501667 
L 53.15 69.501667 
z
" clip-path="url(#pfeb027544e)" style="fill: #be631d"/>
   </g>
   <g id="line2d_13">
    <path d="M 49.2588 115.155153 
L 49.2588 51.953593 
" clip-path="url(#pfeb027544e)" style="fill: none; stroke: #000000; stroke-linecap: round"/>
   </g>
   <g id="line2d_14">
    <path d="M 49.2588 91.829903 
L 49.2588 75.099459 
" clip-path="url(#pfeb027544e)" style="fill: none; stroke: #000000; stroke-width: 5; stroke-linecap: round"/>
   </g>
   <g id="line2d_15">
    <path d="M 49.2588 83.29335 
" clip-path="url(#pfeb027544e)" style="fill: none; stroke: #373737; stroke-width: 1.5; stroke-linecap: round"/>
    <defs>
     <path id="m143c7db076" d="M 2.083333 0 
L -2.083333 -0 
" style="stroke: #ffffff"/>
    </defs>
    <g clip-path="url(#pfeb027544e)">
     <use xlink:href="#m143c7db076" x="49.2588" y="83.29335" style="fill: #ffffff; stroke: #ffffff"/>
    </g>
   </g>
   <g id="line2d_16">
    <path d="M 57.0412 124.976623 
L 57.0412 39.809309 
" clip-path="url(#pfeb027544e)" style="fill: none; stroke: #000000; stroke-linecap: round"/>
   </g>
   <g id="line2d_17">
    <path d="M 57.0412 93.652723 
L 57.0412 72.071998 
" clip-path="url(#pfeb027544e)" style="fill: none; stroke: #000000; stroke-width: 5; stroke-linecap: round"/>
   </g>
   <g id="line2d_18">
    <path d="M 57.0412 82.800295 
" clip-path="url(#pfeb027544e)" style="fill: none; stroke: #373737; stroke-width: 1.5; stroke-linecap: round"/>
    <g clip-path="url(#pfeb027544e)">
     <use xlink:href="#m143c7db076" x="57.0412" y="82.800295" style="fill: #ffffff; stroke: #ffffff"/>
    </g>
   </g>
   <g id="line2d_19">
    <path d="M 84.0388 112.878177 
L 84.0388 14.47269 
" clip-path="url(#pfeb027544e)" style="fill: none; stroke: #000000; stroke-linecap: round"/>
   </g>
   <g id="line2d_20">
    <path d="M 84.0388 73.782084 
L 84.0388 45.750258 
" clip-path="url(#pfeb027544e)" style="fill: none; stroke: #000000; stroke-width: 5; stroke-linecap: round"/>
   </g>
   <g id="line2d_21">
    <path d="M 84.0388 52.755365 
" clip-path="url(#pfeb027544e)" style="fill: none; stroke: #373737; stroke-width: 1.5; stroke-linecap: round"/>
    <g clip-path="url(#pfeb027544e)">
     <use xlink:href="#m143c7db076" x="84.0388" y="52.755365" style="fill: #ffffff; stroke: #ffffff"/>
    </g>
   </g>
   <g id="line2d_22">
    <path d="M 91.8212 133.053817 
L 91.8212 41.622961 
" clip-path="url(#pfeb027544e)" style="fill: none; stroke: #000000; stroke-linecap: round"/>
   </g>
   <g id="line2d_23">
    <path d="M 91.8212 99.98378 
L 91.8212 76.480882 
" clip-path="url(#pfeb027544e)" style="fill: none; stroke: #000000; stroke-width: 5; stroke-linecap: round"/>
   </g>
   <g id="line2d_24">
    <path d="M 91.8212 88.831183 
" clip-path="url(#pfeb027544e)" style="fill: none; stroke: #373737; stroke-width: 1.5; stroke-linecap: round"/>
    <g clip-path="url(#pfeb027544e)">
     <use xlink:href="#m143c7db076" x="91.8212" y="88.831183" style="fill: #ffffff; stroke: #ffffff"/>
    </g>
   </g>
   <g id="line2d_25">
    <path d="M 118.8188 111.671553 
L 118.8188 26.945264 
" clip-path="url(#pfeb027544e)" style="fill: none; stroke: #000000; stroke-linecap: round"/>
   </g>
   <g id="line2d_26">
    <path d="M 118.8188 80.501268 
L 118.8188 58.701518 
" clip-path="url(#pfeb027544e)" style="fill: none; stroke: #000000; stroke-width: 5; stroke-linecap: round"/>
   </g>
   <g id="line2d_27">
    <path d="M 118.8188 69.349972 
" clip-path="url(#pfeb027544e)" style="fill: none; stroke: #373737; stroke-width: 1.5; stroke-linecap: round"/>
    <g clip-path="url(#pfeb027544e)">
     <use xlink:href="#m143c7db076" x="118.8188" y="69.349972" style="fill: #ffffff; stroke: #ffffff"/>
    </g>
   </g>
   <g id="line2d_28">
    <path d="M 126.6012 115.643253 
L 126.6012 34.224649 
" clip-path="url(#pfeb027544e)" style="fill: none; stroke: #000000; stroke-linecap: round"/>
   </g>
   <g id="line2d_29">
    <path d="M 126.6012 85.706102 
L 126.6012 65.083244 
" clip-path="url(#pfeb027544e)" style="fill: none; stroke: #000000; stroke-width: 5; stroke-linecap: round"/>
   </g>
   <g id="line2d_30">
    <path d="M 126.6012 75.340288 
" clip-path="url(#pfeb027544e)" style="fill: none; stroke: #373737; stroke-width: 1.5; stroke-linecap: round"/>
    <g clip-path="url(#pfeb027544e)">
     <use xlink:href="#m143c7db076" x="126.6012" y="75.340288" style="fill: #ffffff; stroke: #ffffff"/>
    </g>
   </g>
   <g id="line2d_31">
    <path d="M 153.5988 117.00597 
L 153.5988 26.930398 
" clip-path="url(#pfeb027544e)" style="fill: none; stroke: #000000; stroke-linecap: round"/>
   </g>
   <g id="line2d_32">
    <path d="M 153.5988 83.883716 
L 153.5988 60.633354 
" clip-path="url(#pfeb027544e)" style="fill: none; stroke: #000000; stroke-width: 5; stroke-linecap: round"/>
   </g>
   <g id="line2d_33">
    <path d="M 153.5988 72.932987 
" clip-path="url(#pfeb027544e)" style="fill: none; stroke: #373737; stroke-width: 1.5; stroke-linecap: round"/>
    <g clip-path="url(#pfeb027544e)">
     <use xlink:href="#m143c7db076" x="153.5988" y="72.932987" style="fill: #ffffff; stroke: #ffffff"/>
    </g>
   </g>
   <g id="line2d_34">
    <path d="M 161.3812 132.345204 
L 161.3812 35.205805 
" clip-path="url(#pfeb027544e)" style="fill: none; stroke: #000000; stroke-linecap: round"/>
   </g>
   <g id="line2d_35">
    <path d="M 161.3812 95.475046 
L 161.3812 69.344436 
" clip-path="url(#pfeb027544e)" style="fill: none; stroke: #000000; stroke-width: 5; stroke-linecap: round"/>
   </g>
   <g id="line2d_36">
    <path d="M 161.3812 83.140231 
" clip-path="url(#pfeb027544e)" style="fill: none; stroke: #373737; stroke-width: 1.5; stroke-linecap: round"/>
    <g clip-path="url(#pfeb027544e)">
     <use xlink:href="#m143c7db076" x="161.3812" y="83.140231" style="fill: #ffffff; stroke: #ffffff"/>
    </g>
   </g>
   <g id="line2d_37">
    <path d="M 188.3788 109.005584 
L 188.3788 42.210168 
" clip-path="url(#pfeb027544e)" style="fill: none; stroke: #000000; stroke-linecap: round"/>
   </g>
   <g id="line2d_38">
    <path d="M 188.3788 85.563389 
L 188.3788 67.956098 
" clip-path="url(#pfeb027544e)" style="fill: none; stroke: #000000; stroke-width: 5; stroke-linecap: round"/>
   </g>
   <g id="line2d_39">
    <path d="M 188.3788 76.813757 
" clip-path="url(#pfeb027544e)" style="fill: none; stroke: #373737; stroke-width: 1.5; stroke-linecap: round"/>
    <g clip-path="url(#pfeb027544e)">
     <use xlink:href="#m143c7db076" x="188.3788" y="76.813757" style="fill: #ffffff; stroke: #ffffff"/>
    </g>
   </g>
   <g id="line2d_40">
    <path d="M 196.1612 110.554126 
L 196.1612 42.111062 
" clip-path="url(#pfeb027544e)" style="fill: none; stroke: #000000; stroke-linecap: round"/>
   </g>
   <g id="line2d_41">
    <path d="M 196.1612 86.153321 
L 196.1612 68.535699 
" clip-path="url(#pfeb027544e)" style="fill: none; stroke: #000000; stroke-width: 5; stroke-linecap: round"/>
   </g>
   <g id="line2d_42">
    <path d="M 196.1612 76.813757 
" clip-path="url(#pfeb027544e)" style="fill: none; stroke: #373737; stroke-width: 1.5; stroke-linecap: round"/>
    <g clip-path="url(#pfeb027544e)">
     <use xlink:href="#m143c7db076" x="196.1612" y="76.813757" style="fill: #ffffff; stroke: #ffffff"/>
    </g>
   </g>
   <g id="line2d_43">
    <path d="M 223.1588 105.281651 
L 223.1588 34.346054 
" clip-path="url(#pfeb027544e)" style="fill: none; stroke: #000000; stroke-linecap: round"/>
   </g>
   <g id="line2d_44">
    <path d="M 223.1588 72.465204 
L 223.1588 46.836715 
" clip-path="url(#pfeb027544e)" style="fill: none; stroke: #000000; stroke-width: 5; stroke-linecap: round"/>
   </g>
   <g id="line2d_45">
    <path d="M 223.1588 57.317989 
" clip-path="url(#pfeb027544e)" style="fill: none; stroke: #373737; stroke-width: 1.5; stroke-linecap: round"/>
    <g clip-path="url(#pfeb027544e)">
     <use xlink:href="#m143c7db076" x="223.1588" y="57.317989" style="fill: #ffffff; stroke: #ffffff"/>
    </g>
   </g>
   <g id="line2d_46">
    <path d="M 230.9412 143.207295 
L 230.9412 21.249108 
" clip-path="url(#pfeb027544e)" style="fill: none; stroke: #000000; stroke-linecap: round"/>
   </g>
   <g id="line2d_47">
    <path d="M 230.9412 109.202559 
L 230.9412 66.351314 
" clip-path="url(#pfeb027544e)" style="fill: none; stroke: #000000; stroke-width: 5; stroke-linecap: round"/>
   </g>
   <g id="line2d_48">
    <path d="M 230.9412 89.523939 
" clip-path="url(#pfeb027544e)" style="fill: none; stroke: #373737; stroke-width: 1.5; stroke-linecap: round"/>
    <g clip-path="url(#pfeb027544e)">
     <use xlink:href="#m143c7db076" x="230.9412" y="89.523939" style="fill: #ffffff; stroke: #ffffff"/>
    </g>
   </g>
   <g id="patch_5">
    <path d="M 35.76 156.22 
L 35.76 7.56 
" style="fill: none; stroke: #262626; stroke-width: 1.25; stroke-linejoin: miter; stroke-linecap: square"/>
   </g>
   <g id="patch_6">
    <path d="M 35.76 156.22 
L 244.44 156.22 
" style="fill: none; stroke: #262626; stroke-width: 1.25; stroke-linejoin: miter; stroke-linecap: square"/>
   </g>
   <g id="legend_1">
    <g id="patch_7">
     <path d="M 40.66 152.72 
L 95.67125 152.72 
Q 97.07125 152.72 97.07125 151.32 
L 97.07125 132.216563 
Q 97.07125 130.816563 95.67125 130.816563 
L 40.66 130.816563 
Q 39.26 130.816563 39.26 132.216563 
L 39.26 151.32 
Q 39.26 152.72 40.66 152.72 
z
" style="fill: #ffffff; opacity: 0.8; stroke: #cccccc; stroke-linejoin: miter"/>
    </g>
    <g id="patch_8">
     <path d="M 42.06 138.627031 
L 56.06 138.627031 
L 56.06 133.727031 
L 42.06 133.727031 
z
" style="fill: #2b8e70"/>
    </g>
    <g id="text_14">
     <!-- Unpaired -->
     <g style="fill: #262626" transform="translate(58.86 138.627031) scale(0.07 -0.07)">
      <defs>
       <path id="ArialMT-55" d="M 3500 4581 
L 4106 4581 
L 4106 1934 
Q 4106 1244 3950 837 
Q 3794 431 3386 176 
Q 2978 -78 2316 -78 
Q 1672 -78 1262 144 
Q 853 366 678 786 
Q 503 1206 503 1934 
L 503 4581 
L 1109 4581 
L 1109 1938 
Q 1109 1341 1220 1058 
Q 1331 775 1601 622 
Q 1872 469 2263 469 
Q 2931 469 3215 772 
Q 3500 1075 3500 1938 
L 3500 4581 
z
" transform="scale(0.015625)"/>
       <path id="ArialMT-70" d="M 422 -1272 
L 422 3319 
L 934 3319 
L 934 2888 
Q 1116 3141 1344 3267 
Q 1572 3394 1897 3394 
Q 2322 3394 2647 3175 
Q 2972 2956 3137 2557 
Q 3303 2159 3303 1684 
Q 3303 1175 3120 767 
Q 2938 359 2589 142 
Q 2241 -75 1856 -75 
Q 1575 -75 1351 44 
Q 1128 163 984 344 
L 984 -1272 
L 422 -1272 
z
M 931 1641 
Q 931 1000 1190 694 
Q 1450 388 1819 388 
Q 2194 388 2461 705 
Q 2728 1022 2728 1688 
Q 2728 2322 2467 2637 
Q 2206 2953 1844 2953 
Q 1484 2953 1207 2617 
Q 931 2281 931 1641 
z
" transform="scale(0.015625)"/>
       <path id="ArialMT-72" d="M 416 0 
L 416 3319 
L 922 3319 
L 922 2816 
Q 1116 3169 1280 3281 
Q 1444 3394 1641 3394 
Q 1925 3394 2219 3213 
L 2025 2691 
Q 1819 2813 1613 2813 
Q 1428 2813 1281 2702 
Q 1134 2591 1072 2394 
Q 978 2094 978 1738 
L 978 0 
L 416 0 
z
" transform="scale(0.015625)"/>
      </defs>
      <use xlink:href="#ArialMT-55"/>
      <use xlink:href="#ArialMT-6e" x="72.216797"/>
      <use xlink:href="#ArialMT-70" x="127.832031"/>
      <use xlink:href="#ArialMT-61" x="183.447266"/>
      <use xlink:href="#ArialMT-69" x="239.0625"/>
      <use xlink:href="#ArialMT-72" x="261.279297"/>
      <use xlink:href="#ArialMT-65" x="294.580078"/>
      <use xlink:href="#ArialMT-64" x="350.195312"/>
     </g>
    </g>
    <g id="patch_9">
     <path d="M 42.06 148.52875 
L 56.06 148.52875 
L 56.06 143.62875 
L 42.06 143.62875 
z
" style="fill: #be631d"/>
    </g>
    <g id="text_15">
     <!-- Basepaired -->
     <g style="fill: #262626" transform="translate(58.86 148.52875) scale(0.07 -0.07)">
      <defs>
       <path id="ArialMT-42" d="M 469 0 
L 469 4581 
L 2188 4581 
Q 2713 4581 3030 4442 
Q 3347 4303 3526 4014 
Q 3706 3725 3706 3409 
Q 3706 3116 3547 2856 
Q 3388 2597 3066 2438 
Q 3481 2316 3704 2022 
Q 3928 1728 3928 1328 
Q 3928 1006 3792 729 
Q 3656 453 3456 303 
Q 3256 153 2954 76 
Q 2653 0 2216 0 
L 469 0 
z
M 1075 2656 
L 2066 2656 
Q 2469 2656 2644 2709 
Q 2875 2778 2992 2937 
Q 3109 3097 3109 3338 
Q 3109 3566 3000 3739 
Q 2891 3913 2687 3977 
Q 2484 4041 1991 4041 
L 1075 4041 
L 1075 2656 
z
M 1075 541 
L 2216 541 
Q 2509 541 2628 563 
Q 2838 600 2978 687 
Q 3119 775 3209 942 
Q 3300 1109 3300 1328 
Q 3300 1584 3169 1773 
Q 3038 1963 2805 2039 
Q 2572 2116 2134 2116 
L 1075 2116 
L 1075 541 
z
" transform="scale(0.015625)"/>
      </defs>
      <use xlink:href="#ArialMT-42"/>
      <use xlink:href="#ArialMT-61" x="66.699219"/>
      <use xlink:href="#ArialMT-73" x="122.314453"/>
      <use xlink:href="#ArialMT-65" x="172.314453"/>
      <use xlink:href="#ArialMT-70" x="227.929688"/>
      <use xlink:href="#ArialMT-61" x="283.544922"/>
      <use xlink:href="#ArialMT-69" x="339.160156"/>
      <use xlink:href="#ArialMT-72" x="361.376953"/>
      <use xlink:href="#ArialMT-65" x="394.677734"/>
      <use xlink:href="#ArialMT-64" x="450.292969"/>
     </g>
    </g>
   </g>
  </g>
 </g>
 <defs>
  <clipPath id="pfeb027544e">
   <rect x="35.76" y="7.56" width="208.68" height="148.66"/>
  </clipPath>
 </defs>
</svg>
