<?xml version="1.0" encoding="utf-8" standalone="no"?>
<!DOCTYPE svg PUBLIC "-//W3C//DTD SVG 1.1//EN"
  "http://www.w3.org/Graphics/SVG/1.1/DTD/svg11.dtd">
<svg xmlns:xlink="http://www.w3.org/1999/xlink" width="252pt" height="180pt" viewBox="0 0 252 180" xmlns="http://www.w3.org/2000/svg" version="1.1">
 <metadata>
  <rdf:RDF xmlns:dc="http://purl.org/dc/elements/1.1/" xmlns:cc="http://creativecommons.org/ns#" xmlns:rdf="http://www.w3.org/1999/02/22-rdf-syntax-ns#">
   <cc:Work>
    <dc:type rdf:resource="http://purl.org/dc/dcmitype/StillImage"/>
    <dc:date>2024-11-22T14:45:48.124423</dc:date>
    <dc:format>image/svg+xml</dc:format>
    <dc:creator>
     <cc:Agent>
      <dc:title>Matplotlib v3.8.0, https://matplotlib.org/</dc:title>
     </cc:Agent>
    </dc:creator>
   </cc:Work>
  </rdf:RDF>
 </metadata>
 <defs>
  <style type="text/css">*{stroke-linejoin: round; stroke-linecap: butt}</style>
 </defs>
 <g id="figure_1">
  <g id="patch_1">
   <path d="M 0 180 
L 252 180 
L 252 0 
L 0 0 
z
" style="fill: #ffffff"/>
  </g>
  <g id="axes_1">
   <g id="patch_2">
    <path d="M 35.76 156.22 
L 244.44 156.22 
L 244.44 26.358 
L 35.76 26.358 
z
" style="fill: #ffffff"/>
   </g>
   <g id="matplotlib.axis_1">
    <g id="xtick_1">
     <g id="line2d_1">
      <defs>
       <path id="md5cde104b7" d="M 0 0 
L 0 6 
" style="stroke: #262626; stroke-width: 1.25"/>
      </defs>
      <g>
       <use xlink:href="#md5cde104b7" x="53.15" y="156.22" style="fill: #262626; stroke: #262626; stroke-width: 1.25"/>
      </g>
     </g>
     <g id="text_1">
      <!-- G→A -->
      <g style="fill: #262626" transform="translate(44.593047 170.730469) scale(0.07 -0.07)">
       <defs>
        <path id="ArialMT-47" d="M 2638 1797 
L 2638 2334 
L 4578 2338 
L 4578 638 
Q 4131 281 3656 101 
Q 3181 -78 2681 -78 
Q 2006 -78 1454 211 
Q 903 500 622 1047 
Q 341 1594 341 2269 
Q 341 2938 620 3517 
Q 900 4097 1425 4378 
Q 1950 4659 2634 4659 
Q 3131 4659 3532 4498 
Q 3934 4338 4162 4050 
Q 4391 3763 4509 3300 
L 3963 3150 
Q 3859 3500 3706 3700 
Q 3553 3900 3268 4020 
Q 2984 4141 2638 4141 
Q 2222 4141 1919 4014 
Q 1616 3888 1430 3681 
Q 1244 3475 1141 3228 
Q 966 2803 966 2306 
Q 966 1694 1177 1281 
Q 1388 869 1791 669 
Q 2194 469 2647 469 
Q 3041 469 3416 620 
Q 3791 772 3984 944 
L 3984 1797 
L 2638 1797 
z
" transform="scale(0.015625)"/>
        <path id="ArialMT-2192" d="M 4859 2738 
Q 5275 2284 5578 2048 
Q 5881 1813 6150 1697 
L 6150 1556 
Q 5841 1406 5550 1173 
Q 5259 941 4856 491 
L 4616 491 
Q 4909 1119 5231 1456 
L 247 1456 
L 247 1772 
L 5231 1772 
Q 4994 2075 4900 2222 
Q 4806 2369 4622 2738 
L 4859 2738 
z
" transform="scale(0.015625)"/>
        <path id="ArialMT-41" d="M -9 0 
L 1750 4581 
L 2403 4581 
L 4278 0 
L 3588 0 
L 3053 1388 
L 1138 1388 
L 634 0 
L -9 0 
z
M 1313 1881 
L 2866 1881 
L 2388 3150 
Q 2169 3728 2063 4100 
Q 1975 3659 1816 3225 
L 1313 1881 
z
" transform="scale(0.015625)"/>
       </defs>
       <use xlink:href="#ArialMT-47"/>
       <use xlink:href="#ArialMT-2192" x="77.783203"/>
       <use xlink:href="#ArialMT-41" x="177.783203"/>
      </g>
     </g>
    </g>
    <g id="xtick_2">
     <g id="line2d_2">
      <g>
       <use xlink:href="#md5cde104b7" x="87.93" y="156.22" style="fill: #262626; stroke: #262626; stroke-width: 1.25"/>
      </g>
     </g>
     <g id="text_2">
      <!-- C→U -->
      <g style="fill: #262626" transform="translate(79.374688 170.730469) scale(0.07 -0.07)">
       <defs>
        <path id="ArialMT-43" d="M 3763 1606 
L 4369 1453 
Q 4178 706 3683 314 
Q 3188 -78 2472 -78 
Q 1731 -78 1267 223 
Q 803 525 561 1097 
Q 319 1669 319 2325 
Q 319 3041 592 3573 
Q 866 4106 1370 4382 
Q 1875 4659 2481 4659 
Q 3169 4659 3637 4309 
Q 4106 3959 4291 3325 
L 3694 3184 
Q 3534 3684 3231 3912 
Q 2928 4141 2469 4141 
Q 1941 4141 1586 3887 
Q 1231 3634 1087 3207 
Q 944 2781 944 2328 
Q 944 1744 1114 1308 
Q 1284 872 1643 656 
Q 2003 441 2422 441 
Q 2931 441 3284 734 
Q 3638 1028 3763 1606 
z
" transform="scale(0.015625)"/>
        <path id="ArialMT-55" d="M 3500 4581 
L 4106 4581 
L 4106 1934 
Q 4106 1244 3950 837 
Q 3794 431 3386 176 
Q 2978 -78 2316 -78 
Q 1672 -78 1262 144 
Q 853 366 678 786 
Q 503 1206 503 1934 
L 503 4581 
L 1109 4581 
L 1109 1938 
Q 1109 1341 1220 1058 
Q 1331 775 1601 622 
Q 1872 469 2263 469 
Q 2931 469 3215 772 
Q 3500 1075 3500 1938 
L 3500 4581 
z
" transform="scale(0.015625)"/>
       </defs>
       <use xlink:href="#ArialMT-43"/>
       <use xlink:href="#ArialMT-2192" x="72.216797"/>
       <use xlink:href="#ArialMT-55" x="172.216797"/>
      </g>
     </g>
    </g>
    <g id="xtick_3">
     <g id="line2d_3">
      <g>
       <use xlink:href="#md5cde104b7" x="122.71" y="156.22" style="fill: #262626; stroke: #262626; stroke-width: 1.25"/>
      </g>
     </g>
     <g id="text_3">
      <!-- U→C -->
      <g style="fill: #262626" transform="translate(114.154688 170.730469) scale(0.07 -0.07)">
       <use xlink:href="#ArialMT-55"/>
       <use xlink:href="#ArialMT-2192" x="72.216797"/>
       <use xlink:href="#ArialMT-43" x="172.216797"/>
      </g>
     </g>
    </g>
    <g id="xtick_4">
     <g id="line2d_4">
      <g>
       <use xlink:href="#md5cde104b7" x="157.49" y="156.22" style="fill: #262626; stroke: #262626; stroke-width: 1.25"/>
      </g>
     </g>
     <g id="text_4">
      <!-- C→A -->
      <g style="fill: #262626" transform="translate(149.127734 170.730469) scale(0.07 -0.07)">
       <use xlink:href="#ArialMT-43"/>
       <use xlink:href="#ArialMT-2192" x="72.216797"/>
       <use xlink:href="#ArialMT-41" x="172.216797"/>
      </g>
     </g>
    </g>
    <g id="xtick_5">
     <g id="line2d_5">
      <g>
       <use xlink:href="#md5cde104b7" x="192.27" y="156.22" style="fill: #262626; stroke: #262626; stroke-width: 1.25"/>
      </g>
     </g>
     <g id="text_5">
      <!-- A→G -->
      <g style="fill: #262626" transform="translate(183.713047 170.730469) scale(0.07 -0.07)">
       <use xlink:href="#ArialMT-41"/>
       <use xlink:href="#ArialMT-2192" x="66.699219"/>
       <use xlink:href="#ArialMT-47" x="166.699219"/>
      </g>
     </g>
    </g>
    <g id="xtick_6">
     <g id="line2d_6">
      <g>
       <use xlink:href="#md5cde104b7" x="227.05" y="156.22" style="fill: #262626; stroke: #262626; stroke-width: 1.25"/>
      </g>
     </g>
     <g id="text_6">
      <!-- G→U -->
      <g style="fill: #262626" transform="translate(218.3 170.730469) scale(0.07 -0.07)">
       <use xlink:href="#ArialMT-47"/>
       <use xlink:href="#ArialMT-2192" x="77.783203"/>
       <use xlink:href="#ArialMT-55" x="177.783203"/>
      </g>
     </g>
    </g>
   </g>
   <g id="matplotlib.axis_2">
    <g id="ytick_1">
     <g id="line2d_7">
      <defs>
       <path id="m04b3ea0c87" d="M 0 0 
L -6 0 
" style="stroke: #262626; stroke-width: 1.25"/>
      </defs>
      <g>
       <use xlink:href="#m04b3ea0c87" x="35.76" y="145.398167" style="fill: #262626; stroke: #262626; stroke-width: 1.25"/>
      </g>
     </g>
     <g id="text_7">
      <!-- −3 -->
      <g style="fill: #262626" transform="translate(18.278906 147.903401) scale(0.07 -0.07)">
       <defs>
        <path id="ArialMT-2212" d="M 3381 1997 
L 356 1997 
L 356 2522 
L 3381 2522 
L 3381 1997 
z
" transform="scale(0.015625)"/>
        <path id="ArialMT-33" d="M 269 1209 
L 831 1284 
Q 928 806 1161 595 
Q 1394 384 1728 384 
Q 2125 384 2398 659 
Q 2672 934 2672 1341 
Q 2672 1728 2419 1979 
Q 2166 2231 1775 2231 
Q 1616 2231 1378 2169 
L 1441 2663 
Q 1497 2656 1531 2656 
Q 1891 2656 2178 2843 
Q 2466 3031 2466 3422 
Q 2466 3731 2256 3934 
Q 2047 4138 1716 4138 
Q 1388 4138 1169 3931 
Q 950 3725 888 3313 
L 325 3413 
Q 428 3978 793 4289 
Q 1159 4600 1703 4600 
Q 2078 4600 2393 4439 
Q 2709 4278 2876 4000 
Q 3044 3722 3044 3409 
Q 3044 3113 2884 2869 
Q 2725 2625 2413 2481 
Q 2819 2388 3044 2092 
Q 3269 1797 3269 1353 
Q 3269 753 2831 336 
Q 2394 -81 1725 -81 
Q 1122 -81 723 278 
Q 325 638 269 1209 
z
" transform="scale(0.015625)"/>
       </defs>
       <use xlink:href="#ArialMT-2212"/>
       <use xlink:href="#ArialMT-33" x="58.398438"/>
      </g>
     </g>
    </g>
    <g id="ytick_2">
     <g id="line2d_8">
      <g>
       <use xlink:href="#m04b3ea0c87" x="35.76" y="123.7545" style="fill: #262626; stroke: #262626; stroke-width: 1.25"/>
      </g>
     </g>
     <g id="text_8">
      <!-- −2 -->
      <g style="fill: #262626" transform="translate(18.278906 126.259734) scale(0.07 -0.07)">
       <defs>
        <path id="ArialMT-32" d="M 3222 541 
L 3222 0 
L 194 0 
Q 188 203 259 391 
Q 375 700 629 1000 
Q 884 1300 1366 1694 
Q 2113 2306 2375 2664 
Q 2638 3022 2638 3341 
Q 2638 3675 2398 3904 
Q 2159 4134 1775 4134 
Q 1369 4134 1125 3890 
Q 881 3647 878 3216 
L 300 3275 
Q 359 3922 746 4261 
Q 1134 4600 1788 4600 
Q 2447 4600 2831 4234 
Q 3216 3869 3216 3328 
Q 3216 3053 3103 2787 
Q 2991 2522 2730 2228 
Q 2469 1934 1863 1422 
Q 1356 997 1212 845 
Q 1069 694 975 541 
L 3222 541 
z
" transform="scale(0.015625)"/>
       </defs>
       <use xlink:href="#ArialMT-2212"/>
       <use xlink:href="#ArialMT-32" x="58.398438"/>
      </g>
     </g>
    </g>
    <g id="ytick_3">
     <g id="line2d_9">
      <g>
       <use xlink:href="#m04b3ea0c87" x="35.76" y="102.110833" style="fill: #262626; stroke: #262626; stroke-width: 1.25"/>
      </g>
     </g>
     <g id="text_9">
      <!-- −1 -->
      <g style="fill: #262626" transform="translate(18.278906 104.616068) scale(0.07 -0.07)">
       <defs>
        <path id="ArialMT-31" d="M 2384 0 
L 1822 0 
L 1822 3584 
Q 1619 3391 1289 3197 
Q 959 3003 697 2906 
L 697 3450 
Q 1169 3672 1522 3987 
Q 1875 4303 2022 4600 
L 2384 4600 
L 2384 0 
z
" transform="scale(0.015625)"/>
       </defs>
       <use xlink:href="#ArialMT-2212"/>
       <use xlink:href="#ArialMT-31" x="58.398438"/>
      </g>
     </g>
    </g>
    <g id="ytick_4">
     <g id="line2d_10">
      <g>
       <use xlink:href="#m04b3ea0c87" x="35.76" y="80.467167" style="fill: #262626; stroke: #262626; stroke-width: 1.25"/>
      </g>
     </g>
     <g id="text_10">
      <!-- 0 -->
      <g style="fill: #262626" transform="translate(22.367344 82.972401) scale(0.07 -0.07)">
       <defs>
        <path id="ArialMT-30" d="M 266 2259 
Q 266 3072 433 3567 
Q 600 4063 929 4331 
Q 1259 4600 1759 4600 
Q 2128 4600 2406 4451 
Q 2684 4303 2865 4023 
Q 3047 3744 3150 3342 
Q 3253 2941 3253 2259 
Q 3253 1453 3087 958 
Q 2922 463 2592 192 
Q 2263 -78 1759 -78 
Q 1097 -78 719 397 
Q 266 969 266 2259 
z
M 844 2259 
Q 844 1131 1108 757 
Q 1372 384 1759 384 
Q 2147 384 2411 759 
Q 2675 1134 2675 2259 
Q 2675 3391 2411 3762 
Q 2147 4134 1753 4134 
Q 1366 4134 1134 3806 
Q 844 3388 844 2259 
z
" transform="scale(0.015625)"/>
       </defs>
       <use xlink:href="#ArialMT-30"/>
      </g>
     </g>
    </g>
    <g id="ytick_5">
     <g id="line2d_11">
      <g>
       <use xlink:href="#m04b3ea0c87" x="35.76" y="58.8235" style="fill: #262626; stroke: #262626; stroke-width: 1.25"/>
      </g>
     </g>
     <g id="text_11">
      <!-- 1 -->
      <g style="fill: #262626" transform="translate(22.367344 61.328734) scale(0.07 -0.07)">
       <use xlink:href="#ArialMT-31"/>
      </g>
     </g>
    </g>
    <g id="ytick_6">
     <g id="line2d_12">
      <g>
       <use xlink:href="#m04b3ea0c87" x="35.76" y="37.179833" style="fill: #262626; stroke: #262626; stroke-width: 1.25"/>
      </g>
     </g>
     <g id="text_12">
      <!-- 2 -->
      <g style="fill: #262626" transform="translate(22.367344 39.685068) scale(0.07 -0.07)">
       <use xlink:href="#ArialMT-32"/>
      </g>
     </g>
    </g>
    <g id="text_13">
     <!-- Estimated mutational fitness -->
     <g style="fill: #262626" transform="translate(12.887656 135.057047) rotate(-90) scale(0.07 -0.07)">
      <defs>
       <path id="ArialMT-45" d="M 506 0 
L 506 4581 
L 3819 4581 
L 3819 4041 
L 1113 4041 
L 1113 2638 
L 3647 2638 
L 3647 2100 
L 1113 2100 
L 1113 541 
L 3925 541 
L 3925 0 
L 506 0 
z
" transform="scale(0.015625)"/>
       <path id="ArialMT-73" d="M 197 991 
L 753 1078 
Q 800 744 1014 566 
Q 1228 388 1613 388 
Q 2000 388 2187 545 
Q 2375 703 2375 916 
Q 2375 1106 2209 1216 
Q 2094 1291 1634 1406 
Q 1016 1563 777 1677 
Q 538 1791 414 1992 
Q 291 2194 291 2438 
Q 291 2659 392 2848 
Q 494 3038 669 3163 
Q 800 3259 1026 3326 
Q 1253 3394 1513 3394 
Q 1903 3394 2198 3281 
Q 2494 3169 2634 2976 
Q 2775 2784 2828 2463 
L 2278 2388 
Q 2241 2644 2061 2787 
Q 1881 2931 1553 2931 
Q 1166 2931 1000 2803 
Q 834 2675 834 2503 
Q 834 2394 903 2306 
Q 972 2216 1119 2156 
Q 1203 2125 1616 2013 
Q 2213 1853 2448 1751 
Q 2684 1650 2818 1456 
Q 2953 1263 2953 975 
Q 2953 694 2789 445 
Q 2625 197 2315 61 
Q 2006 -75 1616 -75 
Q 969 -75 630 194 
Q 291 463 197 991 
z
" transform="scale(0.015625)"/>
       <path id="ArialMT-74" d="M 1650 503 
L 1731 6 
Q 1494 -44 1306 -44 
Q 1000 -44 831 53 
Q 663 150 594 308 
Q 525 466 525 972 
L 525 2881 
L 113 2881 
L 113 3319 
L 525 3319 
L 525 4141 
L 1084 4478 
L 1084 3319 
L 1650 3319 
L 1650 2881 
L 1084 2881 
L 1084 941 
Q 1084 700 1114 631 
Q 1144 563 1211 522 
Q 1278 481 1403 481 
Q 1497 481 1650 503 
z
" transform="scale(0.015625)"/>
       <path id="ArialMT-69" d="M 425 3934 
L 425 4581 
L 988 4581 
L 988 3934 
L 425 3934 
z
M 425 0 
L 425 3319 
L 988 3319 
L 988 0 
L 425 0 
z
" transform="scale(0.015625)"/>
       <path id="ArialMT-6d" d="M 422 0 
L 422 3319 
L 925 3319 
L 925 2853 
Q 1081 3097 1340 3245 
Q 1600 3394 1931 3394 
Q 2300 3394 2536 3241 
Q 2772 3088 2869 2813 
Q 3263 3394 3894 3394 
Q 4388 3394 4653 3120 
Q 4919 2847 4919 2278 
L 4919 0 
L 4359 0 
L 4359 2091 
Q 4359 2428 4304 2576 
Q 4250 2725 4106 2815 
Q 3963 2906 3769 2906 
Q 3419 2906 3187 2673 
Q 2956 2441 2956 1928 
L 2956 0 
L 2394 0 
L 2394 2156 
Q 2394 2531 2256 2718 
Q 2119 2906 1806 2906 
Q 1569 2906 1367 2781 
Q 1166 2656 1075 2415 
Q 984 2175 984 1722 
L 984 0 
L 422 0 
z
" transform="scale(0.015625)"/>
       <path id="ArialMT-61" d="M 2588 409 
Q 2275 144 1986 34 
Q 1697 -75 1366 -75 
Q 819 -75 525 192 
Q 231 459 231 875 
Q 231 1119 342 1320 
Q 453 1522 633 1644 
Q 813 1766 1038 1828 
Q 1203 1872 1538 1913 
Q 2219 1994 2541 2106 
Q 2544 2222 2544 2253 
Q 2544 2597 2384 2738 
Q 2169 2928 1744 2928 
Q 1347 2928 1158 2789 
Q 969 2650 878 2297 
L 328 2372 
Q 403 2725 575 2942 
Q 747 3159 1072 3276 
Q 1397 3394 1825 3394 
Q 2250 3394 2515 3294 
Q 2781 3194 2906 3042 
Q 3031 2891 3081 2659 
Q 3109 2516 3109 2141 
L 3109 1391 
Q 3109 606 3145 398 
Q 3181 191 3288 0 
L 2700 0 
Q 2613 175 2588 409 
z
M 2541 1666 
Q 2234 1541 1622 1453 
Q 1275 1403 1131 1340 
Q 988 1278 909 1158 
Q 831 1038 831 891 
Q 831 666 1001 516 
Q 1172 366 1500 366 
Q 1825 366 2078 508 
Q 2331 650 2450 897 
Q 2541 1088 2541 1459 
L 2541 1666 
z
" transform="scale(0.015625)"/>
       <path id="ArialMT-65" d="M 2694 1069 
L 3275 997 
Q 3138 488 2766 206 
Q 2394 -75 1816 -75 
Q 1088 -75 661 373 
Q 234 822 234 1631 
Q 234 2469 665 2931 
Q 1097 3394 1784 3394 
Q 2450 3394 2872 2941 
Q 3294 2488 3294 1666 
Q 3294 1616 3291 1516 
L 816 1516 
Q 847 969 1125 678 
Q 1403 388 1819 388 
Q 2128 388 2347 550 
Q 2566 713 2694 1069 
z
M 847 1978 
L 2700 1978 
Q 2663 2397 2488 2606 
Q 2219 2931 1791 2931 
Q 1403 2931 1139 2672 
Q 875 2413 847 1978 
z
" transform="scale(0.015625)"/>
       <path id="ArialMT-64" d="M 2575 0 
L 2575 419 
Q 2259 -75 1647 -75 
Q 1250 -75 917 144 
Q 584 363 401 755 
Q 219 1147 219 1656 
Q 219 2153 384 2558 
Q 550 2963 881 3178 
Q 1213 3394 1622 3394 
Q 1922 3394 2156 3267 
Q 2391 3141 2538 2938 
L 2538 4581 
L 3097 4581 
L 3097 0 
L 2575 0 
z
M 797 1656 
Q 797 1019 1065 703 
Q 1334 388 1700 388 
Q 2069 388 2326 689 
Q 2584 991 2584 1609 
Q 2584 2291 2321 2609 
Q 2059 2928 1675 2928 
Q 1300 2928 1048 2622 
Q 797 2316 797 1656 
z
" transform="scale(0.015625)"/>
       <path id="ArialMT-20" transform="scale(0.015625)"/>
       <path id="ArialMT-75" d="M 2597 0 
L 2597 488 
Q 2209 -75 1544 -75 
Q 1250 -75 995 37 
Q 741 150 617 320 
Q 494 491 444 738 
Q 409 903 409 1263 
L 409 3319 
L 972 3319 
L 972 1478 
Q 972 1038 1006 884 
Q 1059 663 1231 536 
Q 1403 409 1656 409 
Q 1909 409 2131 539 
Q 2353 669 2445 892 
Q 2538 1116 2538 1541 
L 2538 3319 
L 3100 3319 
L 3100 0 
L 2597 0 
z
" transform="scale(0.015625)"/>
       <path id="ArialMT-6f" d="M 213 1659 
Q 213 2581 725 3025 
Q 1153 3394 1769 3394 
Q 2453 3394 2887 2945 
Q 3322 2497 3322 1706 
Q 3322 1066 3130 698 
Q 2938 331 2570 128 
Q 2203 -75 1769 -75 
Q 1072 -75 642 372 
Q 213 819 213 1659 
z
M 791 1659 
Q 791 1022 1069 705 
Q 1347 388 1769 388 
Q 2188 388 2466 706 
Q 2744 1025 2744 1678 
Q 2744 2294 2464 2611 
Q 2184 2928 1769 2928 
Q 1347 2928 1069 2612 
Q 791 2297 791 1659 
z
" transform="scale(0.015625)"/>
       <path id="ArialMT-6e" d="M 422 0 
L 422 3319 
L 928 3319 
L 928 2847 
Q 1294 3394 1984 3394 
Q 2284 3394 2536 3286 
Q 2788 3178 2913 3003 
Q 3038 2828 3088 2588 
Q 3119 2431 3119 2041 
L 3119 0 
L 2556 0 
L 2556 2019 
Q 2556 2363 2490 2533 
Q 2425 2703 2258 2804 
Q 2091 2906 1866 2906 
Q 1506 2906 1245 2678 
Q 984 2450 984 1813 
L 984 0 
L 422 0 
z
" transform="scale(0.015625)"/>
       <path id="ArialMT-6c" d="M 409 0 
L 409 4581 
L 972 4581 
L 972 0 
L 409 0 
z
" transform="scale(0.015625)"/>
       <path id="ArialMT-66" d="M 556 0 
L 556 2881 
L 59 2881 
L 59 3319 
L 556 3319 
L 556 3672 
Q 556 4006 616 4169 
Q 697 4388 901 4523 
Q 1106 4659 1475 4659 
Q 1713 4659 2000 4603 
L 1916 4113 
Q 1741 4144 1584 4144 
Q 1328 4144 1222 4034 
Q 1116 3925 1116 3625 
L 1116 3319 
L 1763 3319 
L 1763 2881 
L 1116 2881 
L 1116 0 
L 556 0 
z
" transform="scale(0.015625)"/>
      </defs>
      <use xlink:href="#ArialMT-45"/>
      <use xlink:href="#ArialMT-73" x="66.699219"/>
      <use xlink:href="#ArialMT-74" x="116.699219"/>
      <use xlink:href="#ArialMT-69" x="144.482422"/>
      <use xlink:href="#ArialMT-6d" x="166.699219"/>
      <use xlink:href="#ArialMT-61" x="250"/>
      <use xlink:href="#ArialMT-74" x="305.615234"/>
      <use xlink:href="#ArialMT-65" x="333.398438"/>
      <use xlink:href="#ArialMT-64" x="389.013672"/>
      <use xlink:href="#ArialMT-20" x="444.628906"/>
      <use xlink:href="#ArialMT-6d" x="472.412109"/>
      <use xlink:href="#ArialMT-75" x="555.712891"/>
      <use xlink:href="#ArialMT-74" x="611.328125"/>
      <use xlink:href="#ArialMT-61" x="639.111328"/>
      <use xlink:href="#ArialMT-74" x="694.726562"/>
      <use xlink:href="#ArialMT-69" x="722.509766"/>
      <use xlink:href="#ArialMT-6f" x="744.726562"/>
      <use xlink:href="#ArialMT-6e" x="800.341797"/>
      <use xlink:href="#ArialMT-61" x="855.957031"/>
      <use xlink:href="#ArialMT-6c" x="911.572266"/>
      <use xlink:href="#ArialMT-20" x="933.789062"/>
      <use xlink:href="#ArialMT-66" x="961.572266"/>
      <use xlink:href="#ArialMT-69" x="989.355469"/>
      <use xlink:href="#ArialMT-74" x="1011.572266"/>
      <use xlink:href="#ArialMT-6e" x="1039.355469"/>
      <use xlink:href="#ArialMT-65" x="1094.970703"/>
      <use xlink:href="#ArialMT-73" x="1150.585938"/>
      <use xlink:href="#ArialMT-73" x="1200.585938"/>
     </g>
    </g>
   </g>
   <g id="PolyCollection_1">
    <path d="M 51.7588 220.419308 
L 51.745351 220.419308 
L 51.732892 218.433275 
L 51.714967 216.447242 
L 51.693666 214.461209 
L 51.673796 212.475175 
L 51.661368 210.489142 
L 51.660716 208.503109 
L 51.67208 206.517076 
L 51.69146 204.531042 
L 51.712874 202.545009 
L 51.731291 200.558976 
L 51.744328 198.572943 
L 51.752114 196.58691 
L 51.756087 194.600876 
L 51.757833 192.614843 
L 51.758497 190.62881 
L 51.758717 188.642777 
L 51.75878 186.656743 
L 51.758796 184.67071 
L 51.758799 182.684677 
L 51.7588 180.698644 
L 51.7588 178.71261 
L 51.7588 176.726577 
L 51.7588 174.740544 
L 51.7588 172.754511 
L 51.7588 170.768478 
L 51.7588 168.782444 
L 51.758797 166.796411 
L 51.758787 164.810378 
L 51.758743 162.824345 
L 51.758584 160.838311 
L 51.758086 158.852278 
L 51.756724 156.866245 
L 51.753501 154.880212 
L 51.746917 152.894179 
L 51.735395 150.908145 
L 51.718298 148.922112 
L 51.697189 146.936079 
L 51.676295 144.950046 
L 51.661178 142.964012 
L 51.655755 140.977979 
L 51.659407 138.991946 
L 51.666261 137.005913 
L 51.667168 135.019879 
L 51.652578 133.033846 
L 51.613721 131.047813 
L 51.541091 129.06178 
L 51.422031 127.075747 
L 51.240772 125.089713 
L 50.982631 123.10368 
L 50.640344 121.117647 
L 50.218151 119.131614 
L 49.730799 117.14558 
L 49.198419 115.159547 
L 48.640272 113.173514 
L 48.069297 111.187481 
L 47.487433 109.201448 
L 46.882234 107.215414 
L 46.22811 105.229381 
L 45.497004 103.243348 
L 44.679049 101.257315 
L 43.804965 99.271281 
L 42.956074 97.285248 
L 42.252015 95.299215 
L 41.818552 93.313182 
L 41.748865 91.327149 
L 42.074009 89.341115 
L 42.753169 87.355082 
L 43.68643 85.369049 
L 44.744328 83.383016 
L 45.801624 81.396982 
L 46.762478 79.410949 
L 47.571866 77.424916 
L 48.216164 75.438883 
L 48.716588 73.452849 
L 49.115875 71.466816 
L 49.459336 69.480783 
L 49.776906 67.49475 
L 50.075298 65.508717 
L 50.344366 63.522683 
L 50.572551 61.53665 
L 50.760152 59.550617 
L 50.921154 57.564584 
L 51.073382 55.57855 
L 51.225847 53.592517 
L 51.373373 51.606484 
L 51.501426 49.620451 
L 51.595695 47.634418 
L 51.649055 45.648384 
L 51.663128 43.662351 
L 51.646652 41.676318 
L 51.613406 39.690285 
L 51.579844 37.704251 
L 51.561094 35.718218 
L 51.565838 33.732185 
L 51.593111 31.746152 
L 51.63377 29.760118 
L 51.675907 27.774085 
L 51.71052 25.788052 
L 51.734097 23.802019 
L 51.7588 23.802019 
L 51.7588 23.802019 
L 51.7588 25.788052 
L 51.7588 27.774085 
L 51.7588 29.760118 
L 51.7588 31.746152 
L 51.7588 33.732185 
L 51.7588 35.718218 
L 51.7588 37.704251 
L 51.7588 39.690285 
L 51.7588 41.676318 
L 51.7588 43.662351 
L 51.7588 45.648384 
L 51.7588 47.634418 
L 51.7588 49.620451 
L 51.7588 51.606484 
L 51.7588 53.592517 
L 51.7588 55.57855 
L 51.7588 57.564584 
L 51.7588 59.550617 
L 51.7588 61.53665 
L 51.7588 63.522683 
L 51.7588 65.508717 
L 51.7588 67.49475 
L 51.7588 69.480783 
L 51.7588 71.466816 
L 51.7588 73.452849 
L 51.7588 75.438883 
L 51.7588 77.424916 
L 51.7588 79.410949 
L 51.7588 81.396982 
L 51.7588 83.383016 
L 51.7588 85.369049 
L 51.7588 87.355082 
L 51.7588 89.341115 
L 51.7588 91.327149 
L 51.7588 93.313182 
L 51.7588 95.299215 
L 51.7588 97.285248 
L 51.7588 99.271281 
L 51.7588 101.257315 
L 51.7588 103.243348 
L 51.7588 105.229381 
L 51.7588 107.215414 
L 51.7588 109.201448 
L 51.7588 111.187481 
L 51.7588 113.173514 
L 51.7588 115.159547 
L 51.7588 117.14558 
L 51.7588 119.131614 
L 51.7588 121.117647 
L 51.7588 123.10368 
L 51.7588 125.089713 
L 51.7588 127.075747 
L 51.7588 129.06178 
L 51.7588 131.047813 
L 51.7588 133.033846 
L 51.7588 135.019879 
L 51.7588 137.005913 
L 51.7588 138.991946 
L 51.7588 140.977979 
L 51.7588 142.964012 
L 51.7588 144.950046 
L 51.7588 146.936079 
L 51.7588 148.922112 
L 51.7588 150.908145 
L 51.7588 152.894179 
L 51.7588 154.880212 
L 51.7588 156.866245 
L 51.7588 158.852278 
L 51.7588 160.838311 
L 51.7588 162.824345 
L 51.7588 164.810378 
L 51.7588 166.796411 
L 51.7588 168.782444 
L 51.7588 170.768478 
L 51.7588 172.754511 
L 51.7588 174.740544 
L 51.7588 176.726577 
L 51.7588 178.71261 
L 51.7588 180.698644 
L 51.7588 182.684677 
L 51.7588 184.67071 
L 51.7588 186.656743 
L 51.7588 188.642777 
L 51.7588 190.62881 
L 51.7588 192.614843 
L 51.7588 194.600876 
L 51.7588 196.58691 
L 51.7588 198.572943 
L 51.7588 200.558976 
L 51.7588 202.545009 
L 51.7588 204.531042 
L 51.7588 206.517076 
L 51.7588 208.503109 
L 51.7588 210.489142 
L 51.7588 212.475175 
L 51.7588 214.461209 
L 51.7588 216.447242 
L 51.7588 218.433275 
L 51.7588 220.419308 
z
" clip-path="url(#p3eeeadaee6)" style="fill: #2b8e70"/>
   </g>
   <g id="PolyCollection_2">
    <defs>
     <path id="m222cecbd02" d="M 54.548158 37.636861 
L 54.5412 37.636861 
L 54.5412 35.850018 
L 54.5412 34.063175 
L 54.5412 32.276333 
L 54.5412 30.48949 
L 54.5412 28.702647 
L 54.5412 26.915804 
L 54.5412 25.128961 
L 54.5412 23.342119 
L 54.5412 21.555276 
L 54.5412 19.768433 
L 54.5412 17.98159 
L 54.5412 16.194747 
L 54.5412 14.407905 
L 54.5412 12.621062 
L 54.5412 10.834219 
L 54.5412 9.047376 
L 54.5412 7.260533 
L 54.5412 5.473691 
L 54.5412 3.686848 
L 54.5412 1.900005 
L 54.5412 0.113162 
L 54.5412 -1.673681 
L 54.5412 -3.460523 
L 54.5412 -5.247366 
L 54.5412 -7.034209 
L 54.5412 -8.821052 
L 54.5412 -10.607894 
L 54.5412 -12.394737 
L 54.5412 -14.18158 
L 54.5412 -15.968423 
L 54.5412 -17.755266 
L 54.5412 -19.542108 
L 54.5412 -21.328951 
L 54.5412 -23.115794 
L 54.5412 -24.902637 
L 54.5412 -26.68948 
L 54.5412 -28.476322 
L 54.5412 -30.263165 
L 54.5412 -32.050008 
L 54.5412 -33.836851 
L 54.5412 -35.623694 
L 54.5412 -37.410536 
L 54.5412 -39.197379 
L 54.5412 -40.984222 
L 54.5412 -42.771065 
L 54.5412 -44.557908 
L 54.5412 -46.34475 
L 54.5412 -48.131593 
L 54.5412 -49.918436 
L 54.5412 -51.705279 
L 54.5412 -53.492122 
L 54.5412 -55.278964 
L 54.5412 -57.065807 
L 54.5412 -58.85265 
L 54.5412 -60.639493 
L 54.5412 -62.426336 
L 54.5412 -64.213178 
L 54.5412 -66.000021 
L 54.5412 -67.786864 
L 54.5412 -69.573707 
L 54.5412 -71.36055 
L 54.5412 -73.147392 
L 54.5412 -74.934235 
L 54.5412 -76.721078 
L 54.5412 -78.507921 
L 54.5412 -80.294764 
L 54.5412 -82.081606 
L 54.5412 -83.868449 
L 54.5412 -85.655292 
L 54.5412 -87.442135 
L 54.5412 -89.228978 
L 54.5412 -91.01582 
L 54.5412 -92.802663 
L 54.5412 -94.589506 
L 54.5412 -96.376349 
L 54.5412 -98.163192 
L 54.5412 -99.950034 
L 54.5412 -101.736877 
L 54.5412 -103.52372 
L 54.5412 -105.310563 
L 54.5412 -107.097406 
L 54.5412 -108.884248 
L 54.5412 -110.671091 
L 54.5412 -112.457934 
L 54.5412 -114.244777 
L 54.5412 -116.03162 
L 54.5412 -117.818462 
L 54.5412 -119.605305 
L 54.5412 -121.392148 
L 54.5412 -123.178991 
L 54.5412 -124.965834 
L 54.5412 -126.752676 
L 54.5412 -128.539519 
L 54.5412 -130.326362 
L 54.5412 -132.113205 
L 54.5412 -133.900048 
L 54.5412 -135.68689 
L 54.5412 -137.473733 
L 54.5412 -139.260576 
L 54.548884 -139.260576 
L 54.548884 -139.260576 
L 54.559013 -137.473733 
L 54.577072 -135.68689 
L 54.605854 -133.900048 
L 54.649659 -132.113205 
L 54.716873 -130.326362 
L 54.820325 -128.539519 
L 54.971495 -126.752676 
L 55.170388 -124.965834 
L 55.400993 -123.178991 
L 55.64195 -121.392148 
L 55.887086 -119.605305 
L 56.154806 -117.818462 
L 56.472971 -116.03162 
L 56.853604 -114.244777 
L 57.283192 -112.457934 
L 57.733302 -110.671091 
L 58.175924 -108.884248 
L 58.595421 -107.097406 
L 59.000204 -105.310563 
L 59.427045 -103.52372 
L 59.924107 -101.736877 
L 60.520827 -99.950034 
L 61.213851 -98.163192 
L 61.978855 -96.376349 
L 62.780771 -94.589506 
L 63.558158 -92.802663 
L 64.204778 -91.01582 
L 64.593642 -89.228978 
L 64.6435 -87.442135 
L 64.370834 -85.655292 
L 63.878027 -83.868449 
L 63.288538 -82.081606 
L 62.681685 -80.294764 
L 62.071415 -78.507921 
L 61.437121 -76.721078 
L 60.775948 -74.934235 
L 60.126478 -73.147392 
L 59.538413 -71.36055 
L 59.021437 -69.573707 
L 58.532817 -67.786864 
L 58.017668 -66.000021 
L 57.455704 -64.213178 
L 56.87134 -62.426336 
L 56.312855 -60.639493 
L 55.828322 -58.85265 
L 55.448898 -57.065807 
L 55.178271 -55.278964 
L 54.993507 -53.492122 
L 54.861084 -51.705279 
L 54.756894 -49.918436 
L 54.673853 -48.131593 
L 54.61465 -46.34475 
L 54.581118 -44.557908 
L 54.569889 -42.771065 
L 54.573728 -40.984222 
L 54.583812 -39.197379 
L 54.591624 -37.410536 
L 54.591509 -35.623694 
L 54.582931 -33.836851 
L 54.569902 -32.050008 
L 54.55756 -30.263165 
L 54.548927 -28.476322 
L 54.544224 -26.68948 
L 54.542181 -24.902637 
L 54.541464 -23.115794 
L 54.541259 -21.328951 
L 54.541211 -19.542108 
L 54.541202 -17.755266 
L 54.5412 -15.968423 
L 54.5412 -14.18158 
L 54.5412 -12.394737 
L 54.5412 -10.607894 
L 54.5412 -8.821052 
L 54.5412 -7.034209 
L 54.5412 -5.247366 
L 54.5412 -3.460523 
L 54.5412 -1.673681 
L 54.5412 0.113162 
L 54.5412 1.900005 
L 54.5412 3.686848 
L 54.5412 5.473691 
L 54.5412 7.260533 
L 54.5412 9.047376 
L 54.541202 10.834219 
L 54.541213 12.621062 
L 54.541269 14.407905 
L 54.541505 16.194747 
L 54.542312 17.98159 
L 54.544561 19.768433 
L 54.549623 21.555276 
L 54.55869 23.342119 
L 54.571294 25.128961 
L 54.584107 26.915804 
L 54.591892 28.702647 
L 54.590826 30.48949 
L 54.581458 32.276333 
L 54.568262 34.063175 
L 54.556274 35.850018 
L 54.548158 37.636861 
z
"/>
    </defs>
    <g clip-path="url(#p3eeeadaee6)">
     <use xlink:href="#m222cecbd02" x="0" y="180" style="fill: #be631d"/>
    </g>
   </g>
   <g id="PolyCollection_3">
    <path d="M 86.5388 204.508427 
L 86.532169 204.508427 
L 86.525427 202.673562 
L 86.515608 200.838697 
L 86.504214 199.003833 
L 86.494445 197.168968 
L 86.489885 195.334103 
L 86.492413 193.499238 
L 86.500971 191.664373 
L 86.512272 189.829509 
L 86.522803 187.994644 
L 86.530504 186.159779 
L 86.535101 184.324914 
L 86.537381 182.490049 
L 86.538332 180.655185 
L 86.538667 178.82032 
L 86.538768 176.985455 
L 86.538793 175.15059 
L 86.538799 173.315726 
L 86.5388 171.480861 
L 86.5388 169.645996 
L 86.5388 167.811131 
L 86.5388 165.976266 
L 86.5388 164.141402 
L 86.5388 162.306537 
L 86.5388 160.471672 
L 86.5388 158.636807 
L 86.5388 156.801942 
L 86.5388 154.967078 
L 86.5388 153.132213 
L 86.5388 151.297348 
L 86.5388 149.462483 
L 86.5388 147.627618 
L 86.5388 145.792754 
L 86.5388 143.957889 
L 86.5388 142.123024 
L 86.538798 140.288159 
L 86.538787 138.453294 
L 86.53874 136.61843 
L 86.538561 134.783565 
L 86.53797 132.9487 
L 86.536295 131.113835 
L 86.532192 129.27897 
L 86.52347 127.444106 
L 86.507258 125.609241 
L 86.480592 123.774376 
L 86.441065 121.939511 
L 86.387026 120.104646 
L 86.317304 118.269782 
L 86.231167 116.434917 
L 86.12884 114.600052 
L 86.011425 112.765187 
L 85.878601 110.930323 
L 85.724632 109.095458 
L 85.536105 107.260593 
L 85.294658 105.425728 
L 84.98421 103.590863 
L 84.598484 101.755999 
L 84.144719 99.921134 
L 83.64389 98.086269 
L 83.131782 96.251404 
L 82.662318 94.416539 
L 82.304984 92.581675 
L 82.124895 90.74681 
L 82.148328 88.911945 
L 82.337276 87.07708 
L 82.597671 85.242215 
L 82.820173 83.407351 
L 82.924672 81.572486 
L 82.878026 79.737621 
L 82.678192 77.902756 
L 82.323056 76.067891 
L 81.790313 74.233027 
L 81.04506 72.398162 
L 80.073891 70.563297 
L 78.927848 68.728432 
L 77.747319 66.893567 
L 76.745341 65.058703 
L 76.146051 63.223838 
L 76.104316 61.388973 
L 76.648311 59.554108 
L 77.673891 57.719243 
L 78.989206 55.884379 
L 80.383597 54.049514 
L 81.688279 52.214649 
L 82.806296 50.379784 
L 83.708783 48.54492 
L 84.411718 46.710055 
L 84.950889 44.87519 
L 85.364434 43.040325 
L 85.683568 41.20546 
L 85.929601 39.370596 
L 86.115799 37.535731 
L 86.251766 35.700866 
L 86.347134 33.866001 
L 86.412341 32.031136 
L 86.45699 30.196272 
L 86.48801 28.361407 
L 86.509385 26.526542 
L 86.52332 24.691677 
L 86.531544 22.856812 
L 86.5388 22.856812 
L 86.5388 22.856812 
L 86.5388 24.691677 
L 86.5388 26.526542 
L 86.5388 28.361407 
L 86.5388 30.196272 
L 86.5388 32.031136 
L 86.5388 33.866001 
L 86.5388 35.700866 
L 86.5388 37.535731 
L 86.5388 39.370596 
L 86.5388 41.20546 
L 86.5388 43.040325 
L 86.5388 44.87519 
L 86.5388 46.710055 
L 86.5388 48.54492 
L 86.5388 50.379784 
L 86.5388 52.214649 
L 86.5388 54.049514 
L 86.5388 55.884379 
L 86.5388 57.719243 
L 86.5388 59.554108 
L 86.5388 61.388973 
L 86.5388 63.223838 
L 86.5388 65.058703 
L 86.5388 66.893567 
L 86.5388 68.728432 
L 86.5388 70.563297 
L 86.5388 72.398162 
L 86.5388 74.233027 
L 86.5388 76.067891 
L 86.5388 77.902756 
L 86.5388 79.737621 
L 86.5388 81.572486 
L 86.5388 83.407351 
L 86.5388 85.242215 
L 86.5388 87.07708 
L 86.5388 88.911945 
L 86.5388 90.74681 
L 86.5388 92.581675 
L 86.5388 94.416539 
L 86.5388 96.251404 
L 86.5388 98.086269 
L 86.5388 99.921134 
L 86.5388 101.755999 
L 86.5388 103.590863 
L 86.5388 105.425728 
L 86.5388 107.260593 
L 86.5388 109.095458 
L 86.5388 110.930323 
L 86.5388 112.765187 
L 86.5388 114.600052 
L 86.5388 116.434917 
L 86.5388 118.269782 
L 86.5388 120.104646 
L 86.5388 121.939511 
L 86.5388 123.774376 
L 86.5388 125.609241 
L 86.5388 127.444106 
L 86.5388 129.27897 
L 86.5388 131.113835 
L 86.5388 132.9487 
L 86.5388 134.783565 
L 86.5388 136.61843 
L 86.5388 138.453294 
L 86.5388 140.288159 
L 86.5388 142.123024 
L 86.5388 143.957889 
L 86.5388 145.792754 
L 86.5388 147.627618 
L 86.5388 149.462483 
L 86.5388 151.297348 
L 86.5388 153.132213 
L 86.5388 154.967078 
L 86.5388 156.801942 
L 86.5388 158.636807 
L 86.5388 160.471672 
L 86.5388 162.306537 
L 86.5388 164.141402 
L 86.5388 165.976266 
L 86.5388 167.811131 
L 86.5388 169.645996 
L 86.5388 171.480861 
L 86.5388 173.315726 
L 86.5388 175.15059 
L 86.5388 176.985455 
L 86.5388 178.82032 
L 86.5388 180.655185 
L 86.5388 182.490049 
L 86.5388 184.324914 
L 86.5388 186.159779 
L 86.5388 187.994644 
L 86.5388 189.829509 
L 86.5388 191.664373 
L 86.5388 193.499238 
L 86.5388 195.334103 
L 86.5388 197.168968 
L 86.5388 199.003833 
L 86.5388 200.838697 
L 86.5388 202.673562 
L 86.5388 204.508427 
z
" clip-path="url(#p3eeeadaee6)" style="fill: #2b8e70"/>
   </g>
   <g id="PolyCollection_4">
    <path d="M 89.325537 221.559702 
L 89.3212 221.559702 
L 89.3212 219.658149 
L 89.3212 217.756597 
L 89.3212 215.855044 
L 89.3212 213.953491 
L 89.3212 212.051938 
L 89.3212 210.150386 
L 89.3212 208.248833 
L 89.3212 206.34728 
L 89.3212 204.445727 
L 89.3212 202.544175 
L 89.3212 200.642622 
L 89.3212 198.741069 
L 89.3212 196.839516 
L 89.3212 194.937964 
L 89.3212 193.036411 
L 89.3212 191.134858 
L 89.3212 189.233305 
L 89.3212 187.331753 
L 89.3212 185.4302 
L 89.3212 183.528647 
L 89.3212 181.627094 
L 89.3212 179.725542 
L 89.3212 177.823989 
L 89.3212 175.922436 
L 89.3212 174.020883 
L 89.3212 172.119331 
L 89.3212 170.217778 
L 89.3212 168.316225 
L 89.3212 166.414672 
L 89.3212 164.51312 
L 89.3212 162.611567 
L 89.3212 160.710014 
L 89.3212 158.808461 
L 89.3212 156.906909 
L 89.3212 155.005356 
L 89.3212 153.103803 
L 89.3212 151.20225 
L 89.3212 149.300698 
L 89.3212 147.399145 
L 89.3212 145.497592 
L 89.3212 143.596039 
L 89.3212 141.694487 
L 89.3212 139.792934 
L 89.3212 137.891381 
L 89.3212 135.989829 
L 89.3212 134.088276 
L 89.3212 132.186723 
L 89.3212 130.28517 
L 89.3212 128.383618 
L 89.3212 126.482065 
L 89.3212 124.580512 
L 89.3212 122.678959 
L 89.3212 120.777407 
L 89.3212 118.875854 
L 89.3212 116.974301 
L 89.3212 115.072748 
L 89.3212 113.171196 
L 89.3212 111.269643 
L 89.3212 109.36809 
L 89.3212 107.466537 
L 89.3212 105.564985 
L 89.3212 103.663432 
L 89.3212 101.761879 
L 89.3212 99.860326 
L 89.3212 97.958774 
L 89.3212 96.057221 
L 89.3212 94.155668 
L 89.3212 92.254115 
L 89.3212 90.352563 
L 89.3212 88.45101 
L 89.3212 86.549457 
L 89.3212 84.647904 
L 89.3212 82.746352 
L 89.3212 80.844799 
L 89.3212 78.943246 
L 89.3212 77.041693 
L 89.3212 75.140141 
L 89.3212 73.238588 
L 89.3212 71.337035 
L 89.3212 69.435482 
L 89.3212 67.53393 
L 89.3212 65.632377 
L 89.3212 63.730824 
L 89.3212 61.829271 
L 89.3212 59.927719 
L 89.3212 58.026166 
L 89.3212 56.124613 
L 89.3212 54.22306 
L 89.3212 52.321508 
L 89.3212 50.419955 
L 89.3212 48.518402 
L 89.3212 46.616849 
L 89.3212 44.715297 
L 89.3212 42.813744 
L 89.3212 40.912191 
L 89.3212 39.010638 
L 89.3212 37.109086 
L 89.3212 35.207533 
L 89.3212 33.30598 
L 89.325539 33.30598 
L 89.325539 33.30598 
L 89.331096 35.207533 
L 89.339401 37.109086 
L 89.348336 39.010638 
L 89.354583 40.912191 
L 89.357115 42.813744 
L 89.360501 44.715297 
L 89.374656 46.616849 
L 89.411628 48.518402 
L 89.483242 50.419955 
L 89.600701 52.321508 
L 89.771962 54.22306 
L 89.994136 56.124613 
L 90.247377 58.026166 
L 90.500382 59.927719 
L 90.727071 61.829271 
L 90.920828 63.730824 
L 91.093016 65.632377 
L 91.25877 67.53393 
L 91.428761 69.435482 
L 91.61662 71.337035 
L 91.848298 73.238588 
L 92.159541 75.140141 
L 92.585043 77.041693 
L 93.144537 78.943246 
L 93.827947 80.844799 
L 94.59101 82.746352 
L 95.371393 84.647904 
L 96.114045 86.549457 
L 96.785101 88.45101 
L 97.371653 90.352563 
L 97.878954 92.254115 
L 98.319813 94.155668 
L 98.678511 96.057221 
L 98.870761 97.958774 
L 98.764184 99.860326 
L 98.278445 101.761879 
L 97.482792 103.663432 
L 96.586671 105.564985 
L 95.814291 107.466537 
L 95.262688 109.36809 
L 94.861429 111.269643 
L 94.463799 113.171196 
L 93.978854 115.072748 
L 93.423345 116.974301 
L 92.868008 118.875854 
L 92.359224 120.777407 
L 91.895962 122.678959 
L 91.459501 124.580512 
L 91.042953 126.482065 
L 90.653979 128.383618 
L 90.305665 130.28517 
L 90.010771 132.186723 
L 89.7774 134.088276 
L 89.605017 135.989829 
L 89.485428 137.891381 
L 89.40775 139.792934 
L 89.361631 141.694487 
L 89.337508 143.596039 
L 89.326761 145.497592 
L 89.32278 147.399145 
L 89.321578 149.300698 
L 89.321322 151.20225 
L 89.321455 153.103803 
L 89.322141 155.005356 
L 89.324108 156.906909 
L 89.328442 158.808461 
L 89.335715 160.710014 
L 89.344611 162.611567 
L 89.351587 164.51312 
L 89.352939 166.414672 
L 89.347877 168.316225 
L 89.339245 170.217778 
L 89.331025 172.119331 
L 89.325524 174.020883 
L 89.32283 175.922436 
L 89.322119 177.823989 
L 89.322988 179.725542 
L 89.325914 181.627094 
L 89.331705 183.528647 
L 89.340102 185.4302 
L 89.348575 187.331753 
L 89.353104 189.233305 
L 89.351122 191.134858 
L 89.343783 193.036411 
L 89.334917 194.937964 
L 89.327912 196.839516 
L 89.323887 198.741069 
L 89.322276 200.642622 
L 89.322342 202.544175 
L 89.324125 204.445727 
L 89.328398 206.34728 
L 89.335641 208.248833 
L 89.344535 210.150386 
L 89.351546 212.051938 
L 89.352956 213.953491 
L 89.347943 215.855044 
L 89.339323 217.756597 
L 89.331084 219.658149 
L 89.325537 221.559702 
z
" clip-path="url(#p3eeeadaee6)" style="fill: #be631d"/>
   </g>
   <g id="PolyCollection_5">
    <path d="M 121.3188 197.464981 
L 121.316356 197.464981 
L 121.311205 195.255889 
L 121.304013 193.046798 
L 121.300763 190.837707 
L 121.305015 188.628615 
L 121.312199 186.419524 
L 121.31682 184.210432 
L 121.318427 182.001341 
L 121.318747 179.79225 
L 121.318691 177.583158 
L 121.318049 175.374067 
L 121.315467 173.164975 
L 121.309525 170.955884 
L 121.302624 168.746793 
L 121.301039 166.537701 
L 121.305974 164.32861 
L 121.310306 162.119518 
L 121.308168 159.910427 
L 121.302423 157.701336 
L 121.301107 155.492244 
L 121.306681 153.283153 
L 121.313557 151.074061 
L 121.317022 148.86497 
L 121.316212 146.655879 
L 121.309571 144.446787 
L 121.296221 142.237696 
L 121.284019 140.028604 
L 121.284658 137.819513 
L 121.29521 135.610421 
L 121.301044 133.40133 
L 121.296407 131.192239 
L 121.285206 128.983147 
L 121.267493 126.774056 
L 121.24217 124.564964 
L 121.21562 122.355873 
L 121.182132 120.146782 
L 121.104687 117.93769 
L 120.952823 115.728599 
L 120.742761 113.519507 
L 120.495254 111.310416 
L 120.18421 109.101325 
L 119.761225 106.892233 
L 119.189963 104.683142 
L 118.468558 102.47405 
L 117.667751 100.264959 
L 116.871792 98.055868 
L 116.059199 95.846776 
L 115.165247 93.637685 
L 114.263755 91.428593 
L 113.547754 89.219502 
L 113.137021 87.010411 
L 112.975686 84.801319 
L 112.902478 82.592228 
L 112.808296 80.383136 
L 112.707853 78.174045 
L 112.721439 75.964954 
L 113.004739 73.755862 
L 113.636587 71.546771 
L 114.567786 69.337679 
L 115.642303 67.128588 
L 116.664244 64.919497 
L 117.520675 62.710405 
L 118.224334 60.501314 
L 118.810088 58.292222 
L 119.277385 56.083131 
L 119.623892 53.874039 
L 119.883773 51.664948 
L 120.135477 49.455857 
L 120.427141 47.246765 
L 120.711446 45.037674 
L 120.91628 42.828582 
L 121.035474 40.619491 
L 121.111372 38.4104 
L 121.173083 36.201308 
L 121.221828 33.992217 
L 121.253276 31.783125 
L 121.272209 29.574034 
L 121.28786 27.364943 
L 121.302023 25.155851 
L 121.309076 22.94676 
L 121.305094 20.737668 
L 121.293406 18.528577 
L 121.284911 16.319486 
L 121.288608 14.110394 
L 121.300191 11.901303 
L 121.307791 9.692211 
L 121.306293 7.48312 
L 121.301411 5.274029 
L 121.301827 3.064937 
L 121.308291 0.855846 
L 121.314715 -1.353246 
L 121.317763 -3.562337 
L 121.318276 -5.771428 
L 121.316805 -7.98052 
L 121.312199 -10.189611 
L 121.305015 -12.398703 
L 121.300763 -14.607794 
L 121.304013 -16.816885 
L 121.311205 -19.025977 
L 121.316356 -21.235068 
L 121.3188 -21.235068 
L 121.3188 -21.235068 
L 121.3188 -19.025977 
L 121.3188 -16.816885 
L 121.3188 -14.607794 
L 121.3188 -12.398703 
L 121.3188 -10.189611 
L 121.3188 -7.98052 
L 121.3188 -5.771428 
L 121.3188 -3.562337 
L 121.3188 -1.353246 
L 121.3188 0.855846 
L 121.3188 3.064937 
L 121.3188 5.274029 
L 121.3188 7.48312 
L 121.3188 9.692211 
L 121.3188 11.901303 
L 121.3188 14.110394 
L 121.3188 16.319486 
L 121.3188 18.528577 
L 121.3188 20.737668 
L 121.3188 22.94676 
L 121.3188 25.155851 
L 121.3188 27.364943 
L 121.3188 29.574034 
L 121.3188 31.783125 
L 121.3188 33.992217 
L 121.3188 36.201308 
L 121.3188 38.4104 
L 121.3188 40.619491 
L 121.3188 42.828582 
L 121.3188 45.037674 
L 121.3188 47.246765 
L 121.3188 49.455857 
L 121.3188 51.664948 
L 121.3188 53.874039 
L 121.3188 56.083131 
L 121.3188 58.292222 
L 121.3188 60.501314 
L 121.3188 62.710405 
L 121.3188 64.919497 
L 121.3188 67.128588 
L 121.3188 69.337679 
L 121.3188 71.546771 
L 121.3188 73.755862 
L 121.3188 75.964954 
L 121.3188 78.174045 
L 121.3188 80.383136 
L 121.3188 82.592228 
L 121.3188 84.801319 
L 121.3188 87.010411 
L 121.3188 89.219502 
L 121.3188 91.428593 
L 121.3188 93.637685 
L 121.3188 95.846776 
L 121.3188 98.055868 
L 121.3188 100.264959 
L 121.3188 102.47405 
L 121.3188 104.683142 
L 121.3188 106.892233 
L 121.3188 109.101325 
L 121.3188 111.310416 
L 121.3188 113.519507 
L 121.3188 115.728599 
L 121.3188 117.93769 
L 121.3188 120.146782 
L 121.3188 122.355873 
L 121.3188 124.564964 
L 121.3188 126.774056 
L 121.3188 128.983147 
L 121.3188 131.192239 
L 121.3188 133.40133 
L 121.3188 135.610421 
L 121.3188 137.819513 
L 121.3188 140.028604 
L 121.3188 142.237696 
L 121.3188 144.446787 
L 121.3188 146.655879 
L 121.3188 148.86497 
L 121.3188 151.074061 
L 121.3188 153.283153 
L 121.3188 155.492244 
L 121.3188 157.701336 
L 121.3188 159.910427 
L 121.3188 162.119518 
L 121.3188 164.32861 
L 121.3188 166.537701 
L 121.3188 168.746793 
L 121.3188 170.955884 
L 121.3188 173.164975 
L 121.3188 175.374067 
L 121.3188 177.583158 
L 121.3188 179.79225 
L 121.3188 182.001341 
L 121.3188 184.210432 
L 121.3188 186.419524 
L 121.3188 188.628615 
L 121.3188 190.837707 
L 121.3188 193.046798 
L 121.3188 195.255889 
L 121.3188 197.464981 
z
" clip-path="url(#p3eeeadaee6)" style="fill: #2b8e70"/>
   </g>
   <g id="PolyCollection_6">
    <defs>
     <path id="me5494c3a2c" d="M 124.10387 16.968378 
L 124.1012 16.968378 
L 124.1012 15.222065 
L 124.1012 13.475752 
L 124.1012 11.729439 
L 124.1012 9.983126 
L 124.1012 8.236813 
L 124.1012 6.4905 
L 124.1012 4.744188 
L 124.1012 2.997875 
L 124.1012 1.251562 
L 124.1012 -0.494751 
L 124.1012 -2.241064 
L 124.1012 -3.987377 
L 124.1012 -5.73369 
L 124.1012 -7.480003 
L 124.1012 -9.226315 
L 124.1012 -10.972628 
L 124.1012 -12.718941 
L 124.1012 -14.465254 
L 124.1012 -16.211567 
L 124.1012 -17.95788 
L 124.1012 -19.704193 
L 124.1012 -21.450505 
L 124.1012 -23.196818 
L 124.1012 -24.943131 
L 124.1012 -26.689444 
L 124.1012 -28.435757 
L 124.1012 -30.18207 
L 124.1012 -31.928383 
L 124.1012 -33.674695 
L 124.1012 -35.421008 
L 124.1012 -37.167321 
L 124.1012 -38.913634 
L 124.1012 -40.659947 
L 124.1012 -42.40626 
L 124.1012 -44.152573 
L 124.1012 -45.898885 
L 124.1012 -47.645198 
L 124.1012 -49.391511 
L 124.1012 -51.137824 
L 124.1012 -52.884137 
L 124.1012 -54.63045 
L 124.1012 -56.376763 
L 124.1012 -58.123075 
L 124.1012 -59.869388 
L 124.1012 -61.615701 
L 124.1012 -63.362014 
L 124.1012 -65.108327 
L 124.1012 -66.85464 
L 124.1012 -68.600953 
L 124.1012 -70.347265 
L 124.1012 -72.093578 
L 124.1012 -73.839891 
L 124.1012 -75.586204 
L 124.1012 -77.332517 
L 124.1012 -79.07883 
L 124.1012 -80.825143 
L 124.1012 -82.571456 
L 124.1012 -84.317768 
L 124.1012 -86.064081 
L 124.1012 -87.810394 
L 124.1012 -89.556707 
L 124.1012 -91.30302 
L 124.1012 -93.049333 
L 124.1012 -94.795646 
L 124.1012 -96.541958 
L 124.1012 -98.288271 
L 124.1012 -100.034584 
L 124.1012 -101.780897 
L 124.1012 -103.52721 
L 124.1012 -105.273523 
L 124.1012 -107.019836 
L 124.1012 -108.766148 
L 124.1012 -110.512461 
L 124.1012 -112.258774 
L 124.1012 -114.005087 
L 124.1012 -115.7514 
L 124.1012 -117.497713 
L 124.1012 -119.244026 
L 124.1012 -120.990338 
L 124.1012 -122.736651 
L 124.1012 -124.482964 
L 124.1012 -126.229277 
L 124.1012 -127.97559 
L 124.1012 -129.721903 
L 124.1012 -131.468216 
L 124.1012 -133.214528 
L 124.1012 -134.960841 
L 124.1012 -136.707154 
L 124.1012 -138.453467 
L 124.1012 -140.19978 
L 124.1012 -141.946093 
L 124.1012 -143.692406 
L 124.1012 -145.438719 
L 124.1012 -147.185031 
L 124.1012 -148.931344 
L 124.1012 -150.677657 
L 124.1012 -152.42397 
L 124.1012 -154.170283 
L 124.1012 -155.916596 
L 124.103928 -155.916596 
L 124.103928 -155.916596 
L 124.108845 -154.170283 
L 124.117076 -152.42397 
L 124.126915 -150.677657 
L 124.136462 -148.931344 
L 124.145467 -147.185031 
L 124.153876 -145.438719 
L 124.162691 -143.692406 
L 124.177025 -141.946093 
L 124.20354 -140.19978 
L 124.246629 -138.453467 
L 124.307078 -136.707154 
L 124.379411 -134.960841 
L 124.45932 -133.214528 
L 124.561695 -131.468216 
L 124.717952 -129.721903 
L 124.945358 -127.97559 
L 125.220784 -126.229277 
L 125.488378 -124.482964 
L 125.706928 -122.736651 
L 125.893857 -120.990338 
L 126.107478 -119.244026 
L 126.391901 -117.497713 
L 126.762018 -115.7514 
L 127.240135 -114.005087 
L 127.873421 -112.258774 
L 128.680589 -110.512461 
L 129.595779 -108.766148 
L 130.51184 -107.019836 
L 131.366128 -105.273523 
L 132.138586 -103.52721 
L 132.81374 -101.780897 
L 133.413794 -100.034584 
L 134.002829 -98.288271 
L 134.556588 -96.541958 
L 134.886569 -94.795646 
L 134.822644 -93.049333 
L 134.422122 -91.30302 
L 133.887143 -89.556707 
L 133.350296 -87.810394 
L 132.803268 -86.064081 
L 132.144223 -84.317768 
L 131.27981 -82.571456 
L 130.253005 -80.825143 
L 129.253099 -79.07883 
L 128.450129 -77.332517 
L 127.845069 -75.586204 
L 127.314103 -73.839891 
L 126.764432 -72.093578 
L 126.209003 -70.347265 
L 125.714012 -68.600953 
L 125.317212 -66.85464 
L 125.008943 -65.108327 
L 124.764992 -63.362014 
L 124.569797 -61.615701 
L 124.416664 -59.869388 
L 124.302648 -58.123075 
L 124.226405 -56.376763 
L 124.186402 -54.63045 
L 124.174594 -52.884137 
L 124.174563 -51.137824 
L 124.172098 -49.391511 
L 124.164897 -47.645198 
L 124.158761 -45.898885 
L 124.157737 -44.152573 
L 124.159521 -42.40626 
L 124.15835 -40.659947 
L 124.151598 -38.913634 
L 124.142087 -37.167321 
L 124.134034 -35.421008 
L 124.129447 -33.674695 
L 124.127064 -31.928383 
L 124.124112 -30.18207 
L 124.120867 -28.435757 
L 124.12031 -26.689444 
L 124.121933 -24.943131 
L 124.121073 -23.196818 
L 124.115656 -21.450505 
L 124.108792 -19.704193 
L 124.104042 -17.95788 
L 124.101956 -16.211567 
L 124.101343 -14.465254 
L 124.101219 -12.718941 
L 124.101202 -10.972628 
L 124.1012 -9.226315 
L 124.1012 -7.480003 
L 124.1012 -5.73369 
L 124.1012 -3.987377 
L 124.101201 -2.241064 
L 124.101212 -0.494751 
L 124.101294 1.251562 
L 124.101738 2.997875 
L 124.103381 4.744188 
L 124.107479 6.4905 
L 124.11403 8.236813 
L 124.119808 9.983126 
L 124.120353 11.729439 
L 124.115193 13.475752 
L 124.108455 15.222065 
L 124.10387 16.968378 
z
"/>
    </defs>
    <g clip-path="url(#p3eeeadaee6)">
     <use xlink:href="#me5494c3a2c" x="0" y="180" style="fill: #be631d"/>
    </g>
   </g>
   <g id="PolyCollection_7">
    <defs>
     <path id="m6e938d9a31" d="M 156.0988 -31.549002 
L 156.081464 -31.549002 
L 156.07123 -32.829258 
L 156.05713 -34.109513 
L 156.038883 -35.389769 
L 156.016745 -36.670024 
L 155.991639 -37.95028 
L 155.965155 -39.230536 
L 155.939389 -40.510791 
L 155.916642 -41.791047 
L 155.899016 -43.071302 
L 155.888014 -44.351558 
L 155.884201 -45.631813 
L 155.887033 -46.912069 
L 155.894862 -48.192324 
L 155.905167 -49.47258 
L 155.914973 -50.752835 
L 155.921366 -52.033091 
L 155.921986 -53.313346 
L 155.915336 -54.593602 
L 155.900777 -55.873857 
L 155.878176 -57.154113 
L 155.847279 -58.434368 
L 155.806974 -59.714624 
L 155.754662 -60.994879 
L 155.685924 -62.275135 
L 155.594584 -63.55539 
L 155.473199 -64.835646 
L 155.313907 -66.115901 
L 155.10955 -67.396157 
L 154.854971 -68.676412 
L 154.548323 -69.956668 
L 154.192141 -71.236923 
L 153.793847 -72.517179 
L 153.36532 -73.797434 
L 152.921335 -75.07769 
L 152.477053 -76.357945 
L 152.045163 -77.638201 
L 151.633591 -78.918456 
L 151.24461 -80.198712 
L 150.875752 -81.478967 
L 150.522167 -82.759223 
L 150.179555 -84.039478 
L 149.846537 -85.319734 
L 149.525666 -86.599989 
L 149.222872 -87.880245 
L 148.945741 -89.1605 
L 148.701403 -90.440756 
L 148.494769 -91.721011 
L 148.327641 -93.001267 
L 148.198871 -94.281522 
L 148.105467 -95.561778 
L 148.044281 -96.842033 
L 148.013752 -98.122289 
L 148.015102 -99.402544 
L 148.052508 -100.6828 
L 148.132149 -101.963055 
L 148.26046 -103.243311 
L 148.442281 -104.523566 
L 148.679608 -105.803822 
L 148.971314 -107.084077 
L 149.313749 -108.364333 
L 149.701718 -109.644589 
L 150.129278 -110.924844 
L 150.589967 -112.2051 
L 151.076495 -113.485355 
L 151.580194 -114.765611 
L 152.090652 -116.045866 
L 152.595872 -117.326122 
L 153.083049 -118.606377 
L 153.53979 -119.886633 
L 153.955458 -121.166888 
L 154.322259 -122.447144 
L 154.63583 -123.727399 
L 154.895235 -125.007655 
L 155.102522 -126.28791 
L 155.262032 -127.568166 
L 155.379689 -128.848421 
L 155.46237 -130.128677 
L 155.517368 -131.408932 
L 155.551894 -132.689188 
L 155.572615 -133.969443 
L 155.585249 -135.249699 
L 155.594307 -136.529954 
L 155.603057 -137.81021 
L 155.613687 -139.090465 
L 155.627617 -140.370721 
L 155.645821 -141.650976 
L 155.669026 -142.931232 
L 155.697743 -144.211487 
L 155.732112 -145.491743 
L 155.771693 -146.771998 
L 155.81531 -148.052254 
L 155.861073 -149.332509 
L 155.90662 -150.612765 
L 155.949508 -151.89302 
L 155.98766 -153.173276 
L 156.019689 -154.453531 
L 156.045056 -155.733787 
L 156.064007 -157.014042 
L 156.077362 -158.294298 
L 156.0988 -158.294298 
L 156.0988 -158.294298 
L 156.0988 -157.014042 
L 156.0988 -155.733787 
L 156.0988 -154.453531 
L 156.0988 -153.173276 
L 156.0988 -151.89302 
L 156.0988 -150.612765 
L 156.0988 -149.332509 
L 156.0988 -148.052254 
L 156.0988 -146.771998 
L 156.0988 -145.491743 
L 156.0988 -144.211487 
L 156.0988 -142.931232 
L 156.0988 -141.650976 
L 156.0988 -140.370721 
L 156.0988 -139.090465 
L 156.0988 -137.81021 
L 156.0988 -136.529954 
L 156.0988 -135.249699 
L 156.0988 -133.969443 
L 156.0988 -132.689188 
L 156.0988 -131.408932 
L 156.0988 -130.128677 
L 156.0988 -128.848421 
L 156.0988 -127.568166 
L 156.0988 -126.28791 
L 156.0988 -125.007655 
L 156.0988 -123.727399 
L 156.0988 -122.447144 
L 156.0988 -121.166888 
L 156.0988 -119.886633 
L 156.0988 -118.606377 
L 156.0988 -117.326122 
L 156.0988 -116.045866 
L 156.0988 -114.765611 
L 156.0988 -113.485355 
L 156.0988 -112.2051 
L 156.0988 -110.924844 
L 156.0988 -109.644589 
L 156.0988 -108.364333 
L 156.0988 -107.084077 
L 156.0988 -105.803822 
L 156.0988 -104.523566 
L 156.0988 -103.243311 
L 156.0988 -101.963055 
L 156.0988 -100.6828 
L 156.0988 -99.402544 
L 156.0988 -98.122289 
L 156.0988 -96.842033 
L 156.0988 -95.561778 
L 156.0988 -94.281522 
L 156.0988 -93.001267 
L 156.0988 -91.721011 
L 156.0988 -90.440756 
L 156.0988 -89.1605 
L 156.0988 -87.880245 
L 156.0988 -86.599989 
L 156.0988 -85.319734 
L 156.0988 -84.039478 
L 156.0988 -82.759223 
L 156.0988 -81.478967 
L 156.0988 -80.198712 
L 156.0988 -78.918456 
L 156.0988 -77.638201 
L 156.0988 -76.357945 
L 156.0988 -75.07769 
L 156.0988 -73.797434 
L 156.0988 -72.517179 
L 156.0988 -71.236923 
L 156.0988 -69.956668 
L 156.0988 -68.676412 
L 156.0988 -67.396157 
L 156.0988 -66.115901 
L 156.0988 -64.835646 
L 156.0988 -63.55539 
L 156.0988 -62.275135 
L 156.0988 -60.994879 
L 156.0988 -59.714624 
L 156.0988 -58.434368 
L 156.0988 -57.154113 
L 156.0988 -55.873857 
L 156.0988 -54.593602 
L 156.0988 -53.313346 
L 156.0988 -52.033091 
L 156.0988 -50.752835 
L 156.0988 -49.47258 
L 156.0988 -48.192324 
L 156.0988 -46.912069 
L 156.0988 -45.631813 
L 156.0988 -44.351558 
L 156.0988 -43.071302 
L 156.0988 -41.791047 
L 156.0988 -40.510791 
L 156.0988 -39.230536 
L 156.0988 -37.95028 
L 156.0988 -36.670024 
L 156.0988 -35.389769 
L 156.0988 -34.109513 
L 156.0988 -32.829258 
L 156.0988 -31.549002 
z
"/>
    </defs>
    <g clip-path="url(#p3eeeadaee6)">
     <use xlink:href="#m6e938d9a31" x="0" y="180" style="fill: #2b8e70"/>
    </g>
   </g>
   <g id="PolyCollection_8">
    <defs>
     <path id="m0760b18d4c" d="M 158.888687 10.377567 
L 158.8812 10.377567 
L 158.8812 8.610841 
L 158.8812 6.844115 
L 158.8812 5.077389 
L 158.8812 3.310664 
L 158.8812 1.543938 
L 158.8812 -0.222788 
L 158.8812 -1.989514 
L 158.8812 -3.75624 
L 158.8812 -5.522966 
L 158.8812 -7.289692 
L 158.8812 -9.056418 
L 158.8812 -10.823144 
L 158.8812 -12.58987 
L 158.8812 -14.356595 
L 158.8812 -16.123321 
L 158.8812 -17.890047 
L 158.8812 -19.656773 
L 158.8812 -21.423499 
L 158.8812 -23.190225 
L 158.8812 -24.956951 
L 158.8812 -26.723677 
L 158.8812 -28.490403 
L 158.8812 -30.257129 
L 158.8812 -32.023854 
L 158.8812 -33.79058 
L 158.8812 -35.557306 
L 158.8812 -37.324032 
L 158.8812 -39.090758 
L 158.8812 -40.857484 
L 158.8812 -42.62421 
L 158.8812 -44.390936 
L 158.8812 -46.157662 
L 158.8812 -47.924387 
L 158.8812 -49.691113 
L 158.8812 -51.457839 
L 158.8812 -53.224565 
L 158.8812 -54.991291 
L 158.8812 -56.758017 
L 158.8812 -58.524743 
L 158.8812 -60.291469 
L 158.8812 -62.058195 
L 158.8812 -63.824921 
L 158.8812 -65.591646 
L 158.8812 -67.358372 
L 158.8812 -69.125098 
L 158.8812 -70.891824 
L 158.8812 -72.65855 
L 158.8812 -74.425276 
L 158.8812 -76.192002 
L 158.8812 -77.958728 
L 158.8812 -79.725454 
L 158.8812 -81.49218 
L 158.8812 -83.258905 
L 158.8812 -85.025631 
L 158.8812 -86.792357 
L 158.8812 -88.559083 
L 158.8812 -90.325809 
L 158.8812 -92.092535 
L 158.8812 -93.859261 
L 158.8812 -95.625987 
L 158.8812 -97.392713 
L 158.8812 -99.159439 
L 158.8812 -100.926164 
L 158.8812 -102.69289 
L 158.8812 -104.459616 
L 158.8812 -106.226342 
L 158.8812 -107.993068 
L 158.8812 -109.759794 
L 158.8812 -111.52652 
L 158.8812 -113.293246 
L 158.8812 -115.059972 
L 158.8812 -116.826697 
L 158.8812 -118.593423 
L 158.8812 -120.360149 
L 158.8812 -122.126875 
L 158.8812 -123.893601 
L 158.8812 -125.660327 
L 158.8812 -127.427053 
L 158.8812 -129.193779 
L 158.8812 -130.960505 
L 158.8812 -132.727231 
L 158.8812 -134.493956 
L 158.8812 -136.260682 
L 158.8812 -138.027408 
L 158.8812 -139.794134 
L 158.8812 -141.56086 
L 158.8812 -143.327586 
L 158.8812 -145.094312 
L 158.8812 -146.861038 
L 158.8812 -148.627764 
L 158.8812 -150.39449 
L 158.8812 -152.161215 
L 158.8812 -153.927941 
L 158.8812 -155.694667 
L 158.8812 -157.461393 
L 158.8812 -159.228119 
L 158.8812 -160.994845 
L 158.8812 -162.761571 
L 158.8812 -164.528297 
L 158.888907 -164.528297 
L 158.888907 -164.528297 
L 158.895577 -162.761571 
L 158.905428 -160.994845 
L 158.91823 -159.228119 
L 158.932814 -157.461393 
L 158.947284 -155.694667 
L 158.959624 -153.927941 
L 158.968355 -152.161215 
L 158.972918 -150.39449 
L 158.973708 -148.627764 
L 158.971955 -146.861038 
L 158.969582 -145.094312 
L 158.969001 -143.327586 
L 158.972785 -141.56086 
L 158.9834 -139.794134 
L 159.003145 -138.027408 
L 159.034159 -136.260682 
L 159.078186 -134.493956 
L 159.136188 -132.727231 
L 159.208646 -130.960505 
L 159.297276 -129.193779 
L 159.407673 -127.427053 
L 159.550857 -125.660327 
L 159.741483 -123.893601 
L 159.992387 -122.126875 
L 160.307873 -120.360149 
L 160.679837 -118.593423 
L 161.089728 -116.826697 
L 161.516047 -115.059972 
L 161.943564 -113.293246 
L 162.368984 -111.52652 
L 162.799529 -109.759794 
L 163.244927 -107.993068 
L 163.707489 -106.226342 
L 164.17673 -104.459616 
L 164.632622 -102.69289 
L 165.055925 -100.926164 
L 165.43846 -99.159439 
L 165.785318 -97.392713 
L 166.106252 -95.625987 
L 166.401734 -93.859261 
L 166.6539 -92.092535 
L 166.829617 -90.325809 
L 166.894189 -88.559083 
L 166.826669 -86.792357 
L 166.627633 -85.025631 
L 166.316908 -83.258905 
L 165.925819 -81.49218 
L 165.489793 -79.725454 
L 165.043049 -77.958728 
L 164.613406 -76.192002 
L 164.216503 -74.425276 
L 163.852695 -72.65855 
L 163.510627 -70.891824 
L 163.176656 -69.125098 
L 162.843536 -67.358372 
L 162.511824 -65.591646 
L 162.183874 -63.824921 
L 161.856977 -62.058195 
L 161.522552 -60.291469 
L 161.1724 -58.524743 
L 160.806781 -56.758017 
L 160.438017 -54.991291 
L 160.087396 -53.224565 
L 159.777878 -51.457839 
L 159.526886 -49.691113 
L 159.342078 -47.924387 
L 159.220778 -46.157662 
L 159.152283 -44.390936 
L 159.121655 -42.62421 
L 159.113466 -40.857484 
L 159.114373 -39.090758 
L 159.114463 -37.324032 
L 159.107973 -35.557306 
L 159.093708 -33.79058 
L 159.074548 -32.023854 
L 159.055364 -30.257129 
L 159.039891 -28.490403 
L 159.028397 -26.723677 
L 159.017807 -24.956951 
L 159.004121 -23.190225 
L 158.985269 -21.423499 
L 158.962389 -19.656773 
L 158.938931 -17.890047 
L 158.918663 -16.123321 
L 158.904078 -14.356595 
L 158.896003 -12.58987 
L 158.894119 -10.823144 
L 158.897605 -9.056418 
L 158.905328 -7.289692 
L 158.915609 -5.522966 
L 158.926037 -3.75624 
L 158.933787 -1.989514 
L 158.93652 -0.222788 
L 158.933357 1.543938 
L 158.925263 3.310664 
L 158.914555 5.077389 
L 158.903823 6.844115 
L 158.894949 8.610841 
L 158.888687 10.377567 
z
"/>
    </defs>
    <g clip-path="url(#p3eeeadaee6)">
     <use xlink:href="#m0760b18d4c" x="0" y="180" style="fill: #be631d"/>
    </g>
   </g>
   <g id="PolyCollection_9">
    <path d="M 190.8788 198.606826 
L 190.874291 198.606826 
L 190.865342 196.703957 
L 190.852595 194.801088 
L 190.845506 192.898219 
L 190.8512 190.99535 
L 190.863871 189.09248 
L 190.873531 187.189611 
L 190.877587 185.286742 
L 190.878618 183.383873 
L 190.878782 181.481004 
L 190.878799 179.578134 
L 190.8788 177.675265 
L 190.8788 175.772396 
L 190.8788 173.869527 
L 190.8788 171.966658 
L 190.8788 170.063789 
L 190.8788 168.160919 
L 190.8788 166.25805 
L 190.8788 164.355181 
L 190.8788 162.452312 
L 190.8788 160.549443 
L 190.8788 158.646573 
L 190.8788 156.743704 
L 190.8788 154.840835 
L 190.8788 152.937966 
L 190.8788 151.035097 
L 190.8788 149.132227 
L 190.8788 147.229358 
L 190.8788 145.326489 
L 190.8788 143.42362 
L 190.8788 141.520751 
L 190.8788 139.617882 
L 190.8788 137.715012 
L 190.8788 135.812143 
L 190.878799 133.909274 
L 190.878788 132.006405 
L 190.878656 130.103536 
L 190.87765 128.200666 
L 190.872809 126.297797 
L 190.858318 124.394928 
L 190.83209 122.492059 
L 190.802997 120.58919 
L 190.771514 118.686321 
L 190.700631 116.783451 
L 190.540762 114.880582 
L 190.281127 112.977713 
L 189.939014 111.074844 
L 189.507784 109.171975 
L 188.94716 107.269105 
L 188.203435 105.366236 
L 187.194055 103.463367 
L 185.853461 101.560498 
L 184.316762 99.657629 
L 182.929825 97.75476 
L 181.927862 95.85189 
L 181.2224 93.949021 
L 180.591311 92.046152 
L 180.023735 90.143283 
L 179.7492 88.240414 
L 179.872332 86.337544 
L 180.234996 84.434675 
L 180.703566 82.531806 
L 181.330599 80.628937 
L 182.228589 78.726068 
L 183.383773 76.823198 
L 184.594212 74.920329 
L 185.673609 73.01746 
L 186.645086 71.114591 
L 187.592454 69.211722 
L 188.46154 67.308853 
L 189.112593 65.405983 
L 189.487997 63.503114 
L 189.676484 61.600245 
L 189.819739 59.697376 
L 189.981737 57.794507 
L 190.142891 55.891637 
L 190.288233 53.988768 
L 190.429182 52.085899 
L 190.564769 50.18303 
L 190.673672 48.280161 
L 190.743432 46.377292 
L 190.786837 44.474422 
L 190.818657 42.571553 
L 190.836405 40.668684 
L 190.838278 38.765815 
L 190.833743 36.862946 
L 190.826484 34.960076 
L 190.812141 33.057207 
L 190.796133 31.154338 
L 190.794236 29.251469 
L 190.81365 27.3486 
L 190.842682 25.44573 
L 190.863834 23.542861 
L 190.869956 21.639992 
L 190.863248 19.737123 
L 190.851127 17.834254 
L 190.8455 15.931385 
L 190.852594 14.028515 
L 190.865342 12.125646 
L 190.874291 10.222777 
L 190.8788 10.222777 
L 190.8788 10.222777 
L 190.8788 12.125646 
L 190.8788 14.028515 
L 190.8788 15.931385 
L 190.8788 17.834254 
L 190.8788 19.737123 
L 190.8788 21.639992 
L 190.8788 23.542861 
L 190.8788 25.44573 
L 190.8788 27.3486 
L 190.8788 29.251469 
L 190.8788 31.154338 
L 190.8788 33.057207 
L 190.8788 34.960076 
L 190.8788 36.862946 
L 190.8788 38.765815 
L 190.8788 40.668684 
L 190.8788 42.571553 
L 190.8788 44.474422 
L 190.8788 46.377292 
L 190.8788 48.280161 
L 190.8788 50.18303 
L 190.8788 52.085899 
L 190.8788 53.988768 
L 190.8788 55.891637 
L 190.8788 57.794507 
L 190.8788 59.697376 
L 190.8788 61.600245 
L 190.8788 63.503114 
L 190.8788 65.405983 
L 190.8788 67.308853 
L 190.8788 69.211722 
L 190.8788 71.114591 
L 190.8788 73.01746 
L 190.8788 74.920329 
L 190.8788 76.823198 
L 190.8788 78.726068 
L 190.8788 80.628937 
L 190.8788 82.531806 
L 190.8788 84.434675 
L 190.8788 86.337544 
L 190.8788 88.240414 
L 190.8788 90.143283 
L 190.8788 92.046152 
L 190.8788 93.949021 
L 190.8788 95.85189 
L 190.8788 97.75476 
L 190.8788 99.657629 
L 190.8788 101.560498 
L 190.8788 103.463367 
L 190.8788 105.366236 
L 190.8788 107.269105 
L 190.8788 109.171975 
L 190.8788 111.074844 
L 190.8788 112.977713 
L 190.8788 114.880582 
L 190.8788 116.783451 
L 190.8788 118.686321 
L 190.8788 120.58919 
L 190.8788 122.492059 
L 190.8788 124.394928 
L 190.8788 126.297797 
L 190.8788 128.200666 
L 190.8788 130.103536 
L 190.8788 132.006405 
L 190.8788 133.909274 
L 190.8788 135.812143 
L 190.8788 137.715012 
L 190.8788 139.617882 
L 190.8788 141.520751 
L 190.8788 143.42362 
L 190.8788 145.326489 
L 190.8788 147.229358 
L 190.8788 149.132227 
L 190.8788 151.035097 
L 190.8788 152.937966 
L 190.8788 154.840835 
L 190.8788 156.743704 
L 190.8788 158.646573 
L 190.8788 160.549443 
L 190.8788 162.452312 
L 190.8788 164.355181 
L 190.8788 166.25805 
L 190.8788 168.160919 
L 190.8788 170.063789 
L 190.8788 171.966658 
L 190.8788 173.869527 
L 190.8788 175.772396 
L 190.8788 177.675265 
L 190.8788 179.578134 
L 190.8788 181.481004 
L 190.8788 183.383873 
L 190.8788 185.286742 
L 190.8788 187.189611 
L 190.8788 189.09248 
L 190.8788 190.99535 
L 190.8788 192.898219 
L 190.8788 194.801088 
L 190.8788 196.703957 
L 190.8788 198.606826 
z
" clip-path="url(#p3eeeadaee6)" style="fill: #2b8e70"/>
   </g>
   <g id="PolyCollection_10">
    <defs>
     <path id="m56edadbdff" d="M 193.666253 -4.662542 
L 193.6612 -4.662542 
L 193.6612 -6.403756 
L 193.6612 -8.14497 
L 193.6612 -9.886185 
L 193.6612 -11.627399 
L 193.6612 -13.368613 
L 193.6612 -15.109827 
L 193.6612 -16.851041 
L 193.6612 -18.592255 
L 193.6612 -20.333469 
L 193.6612 -22.074683 
L 193.6612 -23.815897 
L 193.6612 -25.557112 
L 193.6612 -27.298326 
L 193.6612 -29.03954 
L 193.6612 -30.780754 
L 193.6612 -32.521968 
L 193.6612 -34.263182 
L 193.6612 -36.004396 
L 193.6612 -37.74561 
L 193.6612 -39.486824 
L 193.6612 -41.228039 
L 193.6612 -42.969253 
L 193.6612 -44.710467 
L 193.6612 -46.451681 
L 193.6612 -48.192895 
L 193.6612 -49.934109 
L 193.6612 -51.675323 
L 193.6612 -53.416537 
L 193.6612 -55.157751 
L 193.6612 -56.898966 
L 193.6612 -58.64018 
L 193.6612 -60.381394 
L 193.6612 -62.122608 
L 193.6612 -63.863822 
L 193.6612 -65.605036 
L 193.6612 -67.34625 
L 193.6612 -69.087464 
L 193.6612 -70.828679 
L 193.6612 -72.569893 
L 193.6612 -74.311107 
L 193.6612 -76.052321 
L 193.6612 -77.793535 
L 193.6612 -79.534749 
L 193.6612 -81.275963 
L 193.6612 -83.017177 
L 193.6612 -84.758391 
L 193.6612 -86.499606 
L 193.6612 -88.24082 
L 193.6612 -89.982034 
L 193.6612 -91.723248 
L 193.6612 -93.464462 
L 193.6612 -95.205676 
L 193.6612 -96.94689 
L 193.6612 -98.688104 
L 193.6612 -100.429318 
L 193.6612 -102.170533 
L 193.6612 -103.911747 
L 193.6612 -105.652961 
L 193.6612 -107.394175 
L 193.6612 -109.135389 
L 193.6612 -110.876603 
L 193.6612 -112.617817 
L 193.6612 -114.359031 
L 193.6612 -116.100245 
L 193.6612 -117.84146 
L 193.6612 -119.582674 
L 193.6612 -121.323888 
L 193.6612 -123.065102 
L 193.6612 -124.806316 
L 193.6612 -126.54753 
L 193.6612 -128.288744 
L 193.6612 -130.029958 
L 193.6612 -131.771172 
L 193.6612 -133.512387 
L 193.6612 -135.253601 
L 193.6612 -136.994815 
L 193.6612 -138.736029 
L 193.6612 -140.477243 
L 193.6612 -142.218457 
L 193.6612 -143.959671 
L 193.6612 -145.700885 
L 193.6612 -147.4421 
L 193.6612 -149.183314 
L 193.6612 -150.924528 
L 193.6612 -152.665742 
L 193.6612 -154.406956 
L 193.6612 -156.14817 
L 193.6612 -157.889384 
L 193.6612 -159.630598 
L 193.6612 -161.371812 
L 193.6612 -163.113027 
L 193.6612 -164.854241 
L 193.6612 -166.595455 
L 193.6612 -168.336669 
L 193.6612 -170.077883 
L 193.6612 -171.819097 
L 193.6612 -173.560311 
L 193.6612 -175.301525 
L 193.6612 -177.042739 
L 193.666253 -177.042739 
L 193.666253 -177.042739 
L 193.674249 -175.301525 
L 193.686101 -173.560311 
L 193.696318 -171.819097 
L 193.697802 -170.077883 
L 193.689393 -168.336669 
L 193.677249 -166.595455 
L 193.667951 -164.854241 
L 193.663299 -163.113027 
L 193.661684 -161.371812 
L 193.661302 -159.630598 
L 193.661356 -157.889384 
L 193.661982 -156.14817 
L 193.664311 -154.406956 
L 193.670401 -152.665742 
L 193.681643 -150.924528 
L 193.696332 -149.183314 
L 193.711267 -147.4421 
L 193.727565 -145.700885 
L 193.749405 -143.959671 
L 193.773189 -142.218457 
L 193.787554 -140.477243 
L 193.79147 -138.736029 
L 193.8019 -136.994815 
L 193.835653 -135.253601 
L 193.892536 -133.512387 
L 193.961282 -131.771172 
L 194.036157 -130.029958 
L 194.123951 -128.288744 
L 194.231837 -126.54753 
L 194.355733 -124.806316 
L 194.500748 -123.065102 
L 194.705157 -121.323888 
L 195.015418 -119.582674 
L 195.44108 -117.84146 
L 195.94147 -116.100245 
L 196.440204 -114.359031 
L 196.869106 -112.617817 
L 197.241749 -110.876603 
L 197.68101 -109.135389 
L 198.34195 -107.394175 
L 199.308101 -105.652961 
L 200.553317 -103.911747 
L 201.937512 -102.170533 
L 203.216125 -100.429318 
L 204.144154 -98.688104 
L 204.6361 -96.94689 
L 204.7908 -95.205676 
L 204.765948 -93.464462 
L 204.666674 -91.723248 
L 204.502476 -89.982034 
L 204.198108 -88.24082 
L 203.67597 -86.499606 
L 202.944467 -84.758391 
L 202.092792 -83.017177 
L 201.210581 -81.275963 
L 200.327861 -79.534749 
L 199.434322 -77.793535 
L 198.535674 -76.052321 
L 197.65588 -74.311107 
L 196.802447 -72.569893 
L 195.984321 -70.828679 
L 195.252935 -69.087464 
L 194.675546 -67.34625 
L 194.275621 -65.605036 
L 194.02712 -63.863822 
L 193.888631 -62.122608 
L 193.82197 -60.381394 
L 193.791971 -58.64018 
L 193.769171 -56.898966 
L 193.739435 -55.157751 
L 193.706773 -53.416537 
L 193.681666 -51.675323 
L 193.66824 -49.934109 
L 193.663569 -48.192895 
L 193.664082 -46.451681 
L 193.669088 -44.710467 
L 193.679016 -42.969253 
L 193.691096 -41.228039 
L 193.698285 -39.486824 
L 193.695197 -37.74561 
L 193.684233 -36.004396 
L 193.672733 -34.263182 
L 193.665467 -32.521968 
L 193.662367 -30.780754 
L 193.661436 -29.03954 
L 193.661235 -27.298326 
L 193.661205 -25.557112 
L 193.661211 -23.815897 
L 193.661282 -22.074683 
L 193.661682 -20.333469 
L 193.663299 -18.592255 
L 193.667951 -16.851041 
L 193.677249 -15.109827 
L 193.689393 -13.368613 
L 193.697802 -11.627399 
L 193.696318 -9.886185 
L 193.686101 -8.14497 
L 193.674249 -6.403756 
L 193.666253 -4.662542 
z
"/>
    </defs>
    <g clip-path="url(#p3eeeadaee6)">
     <use xlink:href="#m56edadbdff" x="0" y="180" style="fill: #be631d"/>
    </g>
   </g>
   <g id="PolyCollection_11">
    <defs>
     <path id="mad28ac01a4" d="M 225.6588 -25.606352 
L 225.621569 -25.606352 
L 225.610105 -26.843 
L 225.596279 -28.079648 
L 225.579986 -29.316296 
L 225.561231 -30.552944 
L 225.540145 -31.789592 
L 225.516994 -33.02624 
L 225.492165 -34.262888 
L 225.466143 -35.499535 
L 225.439461 -36.736183 
L 225.412635 -37.972831 
L 225.386092 -39.209479 
L 225.360097 -40.446127 
L 225.334687 -41.682775 
L 225.309628 -42.919423 
L 225.284399 -44.156071 
L 225.258221 -45.392719 
L 225.230107 -46.629367 
L 225.198963 -47.866015 
L 225.163697 -49.102663 
L 225.123348 -50.339311 
L 225.0772 -51.575959 
L 225.024873 -52.812607 
L 224.966379 -54.049255 
L 224.902133 -55.285903 
L 224.83291 -56.522551 
L 224.759768 -57.759199 
L 224.683939 -58.995847 
L 224.606701 -60.232495 
L 224.529258 -61.469143 
L 224.452642 -62.705791 
L 224.377642 -63.942438 
L 224.304778 -65.179086 
L 224.234306 -66.415734 
L 224.166263 -67.652382 
L 224.10052 -68.88903 
L 224.036845 -70.125678 
L 223.974945 -71.362326 
L 223.914485 -72.598974 
L 223.855063 -73.835622 
L 223.796161 -75.07227 
L 223.737056 -76.308918 
L 223.676724 -77.545566 
L 223.613748 -78.782214 
L 223.546258 -80.018862 
L 223.471921 -81.25551 
L 223.387994 -82.492158 
L 223.291456 -83.728806 
L 223.179204 -84.965454 
L 223.048308 -86.202102 
L 222.896283 -87.43875 
L 222.721367 -88.675398 
L 222.522757 -89.912046 
L 222.300769 -91.148694 
L 222.056914 -92.385342 
L 221.793865 -93.621989 
L 221.515335 -94.858637 
L 221.225861 -96.095285 
L 220.93055 -97.331933 
L 220.63479 -98.568581 
L 220.343985 -99.805229 
L 220.063317 -101.041877 
L 219.797575 -102.278525 
L 219.551038 -103.515173 
L 219.327425 -104.751821 
L 219.129891 -105.988469 
L 218.961063 -107.225117 
L 218.82309 -108.461765 
L 218.717704 -109.698413 
L 218.64629 -110.935061 
L 218.609929 -112.171709 
L 218.609453 -113.408357 
L 218.645468 -114.645005 
L 218.718374 -115.881653 
L 218.828355 -117.118301 
L 218.975346 -118.354949 
L 219.158965 -119.591597 
L 219.378427 -120.828245 
L 219.63242 -122.064893 
L 219.918989 -123.30154 
L 220.235409 -124.538188 
L 220.578109 -125.774836 
L 220.942637 -127.011484 
L 221.3237 -128.248132 
L 221.71529 -129.48478 
L 222.11088 -130.721428 
L 222.503707 -131.958076 
L 222.88708 -133.194724 
L 223.254715 -134.431372 
L 223.601056 -135.66802 
L 223.921528 -136.904668 
L 224.212736 -138.141316 
L 224.472554 -139.377964 
L 224.700133 -140.614612 
L 224.895809 -141.85126 
L 225.060947 -143.087908 
L 225.197725 -144.324556 
L 225.308904 -145.561204 
L 225.397587 -146.797852 
L 225.467 -148.0345 
L 225.6588 -148.0345 
L 225.6588 -148.0345 
L 225.6588 -146.797852 
L 225.6588 -145.561204 
L 225.6588 -144.324556 
L 225.6588 -143.087908 
L 225.6588 -141.85126 
L 225.6588 -140.614612 
L 225.6588 -139.377964 
L 225.6588 -138.141316 
L 225.6588 -136.904668 
L 225.6588 -135.66802 
L 225.6588 -134.431372 
L 225.6588 -133.194724 
L 225.6588 -131.958076 
L 225.6588 -130.721428 
L 225.6588 -129.48478 
L 225.6588 -128.248132 
L 225.6588 -127.011484 
L 225.6588 -125.774836 
L 225.6588 -124.538188 
L 225.6588 -123.30154 
L 225.6588 -122.064893 
L 225.6588 -120.828245 
L 225.6588 -119.591597 
L 225.6588 -118.354949 
L 225.6588 -117.118301 
L 225.6588 -115.881653 
L 225.6588 -114.645005 
L 225.6588 -113.408357 
L 225.6588 -112.171709 
L 225.6588 -110.935061 
L 225.6588 -109.698413 
L 225.6588 -108.461765 
L 225.6588 -107.225117 
L 225.6588 -105.988469 
L 225.6588 -104.751821 
L 225.6588 -103.515173 
L 225.6588 -102.278525 
L 225.6588 -101.041877 
L 225.6588 -99.805229 
L 225.6588 -98.568581 
L 225.6588 -97.331933 
L 225.6588 -96.095285 
L 225.6588 -94.858637 
L 225.6588 -93.621989 
L 225.6588 -92.385342 
L 225.6588 -91.148694 
L 225.6588 -89.912046 
L 225.6588 -88.675398 
L 225.6588 -87.43875 
L 225.6588 -86.202102 
L 225.6588 -84.965454 
L 225.6588 -83.728806 
L 225.6588 -82.492158 
L 225.6588 -81.25551 
L 225.6588 -80.018862 
L 225.6588 -78.782214 
L 225.6588 -77.545566 
L 225.6588 -76.308918 
L 225.6588 -75.07227 
L 225.6588 -73.835622 
L 225.6588 -72.598974 
L 225.6588 -71.362326 
L 225.6588 -70.125678 
L 225.6588 -68.88903 
L 225.6588 -67.652382 
L 225.6588 -66.415734 
L 225.6588 -65.179086 
L 225.6588 -63.942438 
L 225.6588 -62.705791 
L 225.6588 -61.469143 
L 225.6588 -60.232495 
L 225.6588 -58.995847 
L 225.6588 -57.759199 
L 225.6588 -56.522551 
L 225.6588 -55.285903 
L 225.6588 -54.049255 
L 225.6588 -52.812607 
L 225.6588 -51.575959 
L 225.6588 -50.339311 
L 225.6588 -49.102663 
L 225.6588 -47.866015 
L 225.6588 -46.629367 
L 225.6588 -45.392719 
L 225.6588 -44.156071 
L 225.6588 -42.919423 
L 225.6588 -41.682775 
L 225.6588 -40.446127 
L 225.6588 -39.209479 
L 225.6588 -37.972831 
L 225.6588 -36.736183 
L 225.6588 -35.499535 
L 225.6588 -34.262888 
L 225.6588 -33.02624 
L 225.6588 -31.789592 
L 225.6588 -30.552944 
L 225.6588 -29.316296 
L 225.6588 -28.079648 
L 225.6588 -26.843 
L 225.6588 -25.606352 
z
"/>
    </defs>
    <g clip-path="url(#p3eeeadaee6)">
     <use xlink:href="#mad28ac01a4" x="0" y="180" style="fill: #2b8e70"/>
    </g>
   </g>
   <g id="PolyCollection_12">
    <defs>
     <path id="m18e2d02c22" d="M 228.456241 -20.373119 
L 228.4412 -20.373119 
L 228.4412 -21.758863 
L 228.4412 -23.144608 
L 228.4412 -24.530352 
L 228.4412 -25.916097 
L 228.4412 -27.301842 
L 228.4412 -28.687586 
L 228.4412 -30.073331 
L 228.4412 -31.459076 
L 228.4412 -32.84482 
L 228.4412 -34.230565 
L 228.4412 -35.616309 
L 228.4412 -37.002054 
L 228.4412 -38.387799 
L 228.4412 -39.773543 
L 228.4412 -41.159288 
L 228.4412 -42.545033 
L 228.4412 -43.930777 
L 228.4412 -45.316522 
L 228.4412 -46.702266 
L 228.4412 -48.088011 
L 228.4412 -49.473756 
L 228.4412 -50.8595 
L 228.4412 -52.245245 
L 228.4412 -53.63099 
L 228.4412 -55.016734 
L 228.4412 -56.402479 
L 228.4412 -57.788223 
L 228.4412 -59.173968 
L 228.4412 -60.559713 
L 228.4412 -61.945457 
L 228.4412 -63.331202 
L 228.4412 -64.716947 
L 228.4412 -66.102691 
L 228.4412 -67.488436 
L 228.4412 -68.87418 
L 228.4412 -70.259925 
L 228.4412 -71.64567 
L 228.4412 -73.031414 
L 228.4412 -74.417159 
L 228.4412 -75.802904 
L 228.4412 -77.188648 
L 228.4412 -78.574393 
L 228.4412 -79.960137 
L 228.4412 -81.345882 
L 228.4412 -82.731627 
L 228.4412 -84.117371 
L 228.4412 -85.503116 
L 228.4412 -86.888861 
L 228.4412 -88.274605 
L 228.4412 -89.66035 
L 228.4412 -91.046094 
L 228.4412 -92.431839 
L 228.4412 -93.817584 
L 228.4412 -95.203328 
L 228.4412 -96.589073 
L 228.4412 -97.974818 
L 228.4412 -99.360562 
L 228.4412 -100.746307 
L 228.4412 -102.132051 
L 228.4412 -103.517796 
L 228.4412 -104.903541 
L 228.4412 -106.289285 
L 228.4412 -107.67503 
L 228.4412 -109.060774 
L 228.4412 -110.446519 
L 228.4412 -111.832264 
L 228.4412 -113.218008 
L 228.4412 -114.603753 
L 228.4412 -115.989498 
L 228.4412 -117.375242 
L 228.4412 -118.760987 
L 228.4412 -120.146731 
L 228.4412 -121.532476 
L 228.4412 -122.918221 
L 228.4412 -124.303965 
L 228.4412 -125.68971 
L 228.4412 -127.075455 
L 228.4412 -128.461199 
L 228.4412 -129.846944 
L 228.4412 -131.232688 
L 228.4412 -132.618433 
L 228.4412 -134.004178 
L 228.4412 -135.389922 
L 228.4412 -136.775667 
L 228.4412 -138.161412 
L 228.4412 -139.547156 
L 228.4412 -140.932901 
L 228.4412 -142.318645 
L 228.4412 -143.70439 
L 228.4412 -145.090135 
L 228.4412 -146.475879 
L 228.4412 -147.861624 
L 228.4412 -149.247369 
L 228.4412 -150.633113 
L 228.4412 -152.018858 
L 228.4412 -153.404602 
L 228.4412 -154.790347 
L 228.4412 -156.176092 
L 228.4412 -157.561836 
L 228.453103 -157.561836 
L 228.453103 -157.561836 
L 228.458149 -156.176092 
L 228.464618 -154.790347 
L 228.472634 -153.404602 
L 228.482258 -152.018858 
L 228.493504 -150.633113 
L 228.50638 -149.247369 
L 228.520975 -147.861624 
L 228.537561 -146.475879 
L 228.556725 -145.090135 
L 228.579478 -143.70439 
L 228.607338 -142.318645 
L 228.642334 -140.932901 
L 228.686945 -139.547156 
L 228.743939 -138.161412 
L 228.816152 -136.775667 
L 228.906228 -135.389922 
L 229.016348 -134.004178 
L 229.147989 -132.618433 
L 229.301733 -131.232688 
L 229.477138 -129.846944 
L 229.672674 -128.461199 
L 229.88573 -127.075455 
L 230.112677 -125.68971 
L 230.349023 -124.303965 
L 230.589626 -122.918221 
L 230.829003 -121.532476 
L 231.061687 -120.146731 
L 231.28262 -118.760987 
L 231.487514 -117.375242 
L 231.673149 -115.989498 
L 231.837544 -114.603753 
L 231.980002 -113.218008 
L 232.101026 -111.832264 
L 232.202135 -110.446519 
L 232.28562 -109.060774 
L 232.354282 -107.67503 
L 232.41118 -106.289285 
L 232.459407 -104.903541 
L 232.501905 -103.517796 
L 232.541329 -102.132051 
L 232.57996 -100.746307 
L 232.619672 -99.360562 
L 232.66194 -97.974818 
L 232.707876 -96.589073 
L 232.758244 -95.203328 
L 232.813466 -93.817584 
L 232.873569 -92.431839 
L 232.938117 -91.046094 
L 233.006164 -89.66035 
L 233.076267 -88.274605 
L 233.146615 -86.888861 
L 233.215271 -85.503116 
L 233.280495 -84.117371 
L 233.341073 -82.731627 
L 233.396559 -81.345882 
L 233.447353 -79.960137 
L 233.494566 -78.574393 
L 233.53969 -77.188648 
L 233.584116 -75.802904 
L 233.628606 -74.417159 
L 233.672791 -73.031414 
L 233.714816 -71.64567 
L 233.751165 -70.259925 
L 233.776738 -68.87418 
L 233.785165 -67.488436 
L 233.769371 -66.102691 
L 233.722321 -64.716947 
L 233.637868 -63.331202 
L 233.511589 -61.945457 
L 233.34147 -60.559713 
L 233.128317 -59.173968 
L 232.875807 -57.788223 
L 232.590148 -56.402479 
L 232.279435 -55.016734 
L 231.952777 -53.63099 
L 231.619404 -52.245245 
L 231.287864 -50.8595 
L 230.965452 -49.473756 
L 230.657913 -48.088011 
L 230.369396 -46.702266 
L 230.102614 -45.316522 
L 229.859095 -43.930777 
L 229.639459 -42.545033 
L 229.443658 -41.159288 
L 229.271137 -39.773543 
L 229.120947 -38.387799 
L 228.991813 -37.002054 
L 228.882183 -35.616309 
L 228.790299 -34.230565 
L 228.714265 -32.84482 
L 228.652139 -31.459076 
L 228.602012 -30.073331 
L 228.562079 -28.687586 
L 228.530686 -27.301842 
L 228.506355 -25.916097 
L 228.487789 -24.530352 
L 228.473864 -23.144608 
L 228.463619 -21.758863 
L 228.456241 -20.373119 
z
"/>
    </defs>
    <g clip-path="url(#p3eeeadaee6)">
     <use xlink:href="#m18e2d02c22" x="0" y="180" style="fill: #be631d"/>
    </g>
   </g>
   <g id="patch_3">
    <path d="M 53.15 80.467167 
L 53.15 80.467167 
L 53.15 80.467167 
L 53.15 80.467167 
z
" clip-path="url(#p3eeeadaee6)" style="fill: #2b8e70"/>
   </g>
   <g id="patch_4">
    <path d="M 53.15 80.467167 
L 53.15 80.467167 
L 53.15 80.467167 
L 53.15 80.467167 
z
" clip-path="url(#p3eeeadaee6)" style="fill: #be631d"/>
   </g>
   <g id="line2d_13">
    <path d="M 49.2588 119.722285 
L 49.2588 63.024969 
" clip-path="url(#p3eeeadaee6)" style="fill: none; stroke: #000000; stroke-linecap: round"/>
   </g>
   <g id="line2d_14">
    <path d="M 49.2588 100.236925 
L 49.2588 85.164925 
" clip-path="url(#p3eeeadaee6)" style="fill: none; stroke: #000000; stroke-width: 5; stroke-linecap: round"/>
   </g>
   <g id="line2d_15">
    <path d="M 49.2588 92.364041 
" clip-path="url(#p3eeeadaee6)" style="fill: none; stroke: #373737; stroke-width: 1.5; stroke-linecap: round"/>
    <defs>
     <path id="m6bc97b8b71" d="M 2.083333 0 
L -2.083333 -0 
" style="stroke: #ffffff"/>
    </defs>
    <g clip-path="url(#p3eeeadaee6)">
     <use xlink:href="#m6bc97b8b71" x="49.2588" y="92.364041" style="fill: #ffffff; stroke: #ffffff"/>
    </g>
   </g>
   <g id="line2d_16">
    <path d="M 57.0412 127.988001 
L 57.0412 54.594328 
" clip-path="url(#p3eeeadaee6)" style="fill: none; stroke: #000000; stroke-linecap: round"/>
   </g>
   <g id="line2d_17">
    <path d="M 57.0412 101.457952 
L 57.0412 82.669843 
" clip-path="url(#p3eeeadaee6)" style="fill: none; stroke: #000000; stroke-width: 5; stroke-linecap: round"/>
   </g>
   <g id="line2d_18">
    <path d="M 57.0412 91.979433 
" clip-path="url(#p3eeeadaee6)" style="fill: none; stroke: #373737; stroke-width: 1.5; stroke-linecap: round"/>
    <g clip-path="url(#p3eeeadaee6)">
     <use xlink:href="#m6bc97b8b71" x="57.0412" y="91.979433" style="fill: #ffffff; stroke: #ffffff"/>
    </g>
   </g>
   <g id="line2d_19">
    <path d="M 84.0388 119.198508 
L 84.0388 32.303515 
" clip-path="url(#p3eeeadaee6)" style="fill: none; stroke: #000000; stroke-linecap: round"/>
   </g>
   <g id="line2d_20">
    <path d="M 84.0388 84.289222 
L 84.0388 59.747252 
" clip-path="url(#p3eeeadaee6)" style="fill: none; stroke: #000000; stroke-width: 5; stroke-linecap: round"/>
   </g>
   <g id="line2d_21">
    <path d="M 84.0388 65.892538 
" clip-path="url(#p3eeeadaee6)" style="fill: none; stroke: #373737; stroke-width: 1.5; stroke-linecap: round"/>
    <g clip-path="url(#p3eeeadaee6)">
     <use xlink:href="#m6bc97b8b71" x="84.0388" y="65.892538" style="fill: #ffffff; stroke: #ffffff"/>
    </g>
   </g>
   <g id="line2d_22">
    <path d="M 91.8212 136.44851 
L 91.8212 57.143951 
" clip-path="url(#p3eeeadaee6)" style="fill: none; stroke: #000000; stroke-linecap: round"/>
   </g>
   <g id="line2d_23">
    <path d="M 91.8212 106.703619 
L 91.8212 86.757682 
" clip-path="url(#p3eeeadaee6)" style="fill: none; stroke: #000000; stroke-width: 5; stroke-linecap: round"/>
   </g>
   <g id="line2d_24">
    <path d="M 91.8212 97.362213 
" clip-path="url(#p3eeeadaee6)" style="fill: none; stroke: #373737; stroke-width: 1.5; stroke-linecap: round"/>
    <g clip-path="url(#p3eeeadaee6)">
     <use xlink:href="#m6bc97b8b71" x="91.8212" y="97.362213" style="fill: #ffffff; stroke: #ffffff"/>
    </g>
   </g>
   <g id="line2d_25">
    <path d="M 118.8188 118.122818 
L 118.8188 43.027952 
" clip-path="url(#p3eeeadaee6)" style="fill: none; stroke: #000000; stroke-linecap: round"/>
   </g>
   <g id="line2d_26">
    <path d="M 118.8188 90.274994 
L 118.8188 71.070352 
" clip-path="url(#p3eeeadaee6)" style="fill: none; stroke: #000000; stroke-width: 5; stroke-linecap: round"/>
   </g>
   <g id="line2d_27">
    <path d="M 118.8188 80.492295 
" clip-path="url(#p3eeeadaee6)" style="fill: none; stroke: #373737; stroke-width: 1.5; stroke-linecap: round"/>
    <g clip-path="url(#p3eeeadaee6)">
     <use xlink:href="#m6bc97b8b71" x="118.8188" y="80.492295" style="fill: #ffffff; stroke: #ffffff"/>
    </g>
   </g>
   <g id="line2d_28">
    <path d="M 126.6012 119.67034 
L 126.6012 50.663838 
" clip-path="url(#p3eeeadaee6)" style="fill: none; stroke: #000000; stroke-linecap: round"/>
   </g>
   <g id="line2d_29">
    <path d="M 126.6012 94.345086 
L 126.6012 76.655717 
" clip-path="url(#p3eeeadaee6)" style="fill: none; stroke: #000000; stroke-width: 5; stroke-linecap: round"/>
   </g>
   <g id="line2d_30">
    <path d="M 126.6012 85.486549 
" clip-path="url(#p3eeeadaee6)" style="fill: none; stroke: #373737; stroke-width: 1.5; stroke-linecap: round"/>
    <g clip-path="url(#p3eeeadaee6)">
     <use xlink:href="#m6bc97b8b71" x="126.6012" y="85.486549" style="fill: #ffffff; stroke: #ffffff"/>
    </g>
   </g>
   <g id="line2d_31">
    <path d="M 153.5988 121.103151 
L 153.5988 45.95634 
" clip-path="url(#p3eeeadaee6)" style="fill: none; stroke: #000000; stroke-linecap: round"/>
   </g>
   <g id="line2d_32">
    <path d="M 153.5988 92.78869 
L 153.5988 73.228875 
" clip-path="url(#p3eeeadaee6)" style="fill: none; stroke: #000000; stroke-width: 5; stroke-linecap: round"/>
   </g>
   <g id="line2d_33">
    <path d="M 153.5988 82.810667 
" clip-path="url(#p3eeeadaee6)" style="fill: none; stroke: #373737; stroke-width: 1.5; stroke-linecap: round"/>
    <g clip-path="url(#p3eeeadaee6)">
     <use xlink:href="#m6bc97b8b71" x="153.5988" y="82.810667" style="fill: #ffffff; stroke: #ffffff"/>
    </g>
   </g>
   <g id="line2d_34">
    <path d="M 161.3812 137.597789 
L 161.3812 49.555682 
" clip-path="url(#p3eeeadaee6)" style="fill: none; stroke: #000000; stroke-linecap: round"/>
   </g>
   <g id="line2d_35">
    <path d="M 161.3812 104.03712 
L 161.3812 80.26003 
" clip-path="url(#p3eeeadaee6)" style="fill: none; stroke: #000000; stroke-width: 5; stroke-linecap: round"/>
   </g>
   <g id="line2d_36">
    <path d="M 161.3812 91.462366 
" clip-path="url(#p3eeeadaee6)" style="fill: none; stroke: #373737; stroke-width: 1.5; stroke-linecap: round"/>
    <g clip-path="url(#p3eeeadaee6)">
     <use xlink:href="#m6bc97b8b71" x="161.3812" y="91.462366" style="fill: #ffffff; stroke: #ffffff"/>
    </g>
   </g>
   <g id="line2d_37">
    <path d="M 188.3788 114.627366 
L 188.3788 56.490313 
" clip-path="url(#p3eeeadaee6)" style="fill: none; stroke: #000000; stroke-linecap: round"/>
   </g>
   <g id="line2d_38">
    <path d="M 188.3788 94.219336 
L 188.3788 79.103464 
" clip-path="url(#p3eeeadaee6)" style="fill: none; stroke: #000000; stroke-width: 5; stroke-linecap: round"/>
   </g>
   <g id="line2d_39">
    <path d="M 188.3788 86.936892 
" clip-path="url(#p3eeeadaee6)" style="fill: none; stroke: #373737; stroke-width: 1.5; stroke-linecap: round"/>
    <g clip-path="url(#p3eeeadaee6)">
     <use xlink:href="#m6bc97b8b71" x="188.3788" y="86.936892" style="fill: #ffffff; stroke: #ffffff"/>
    </g>
   </g>
   <g id="line2d_40">
    <path d="M 196.1612 117.105566 
L 196.1612 56.252232 
" clip-path="url(#p3eeeadaee6)" style="fill: none; stroke: #000000; stroke-linecap: round"/>
   </g>
   <g id="line2d_41">
    <path d="M 196.1612 95.150447 
L 196.1612 79.561552 
" clip-path="url(#p3eeeadaee6)" style="fill: none; stroke: #000000; stroke-width: 5; stroke-linecap: round"/>
   </g>
   <g id="line2d_42">
    <path d="M 196.1612 86.936892 
" clip-path="url(#p3eeeadaee6)" style="fill: none; stroke: #373737; stroke-width: 1.5; stroke-linecap: round"/>
    <g clip-path="url(#p3eeeadaee6)">
     <use xlink:href="#m6bc97b8b71" x="196.1612" y="86.936892" style="fill: #ffffff; stroke: #ffffff"/>
    </g>
   </g>
   <g id="line2d_43">
    <path d="M 223.1588 112.465163 
L 223.1588 49.873844 
" clip-path="url(#p3eeeadaee6)" style="fill: none; stroke: #000000; stroke-linecap: round"/>
   </g>
   <g id="line2d_44">
    <path d="M 223.1588 82.551192 
L 223.1588 60.609535 
" clip-path="url(#p3eeeadaee6)" style="fill: none; stroke: #000000; stroke-width: 5; stroke-linecap: round"/>
   </g>
   <g id="line2d_45">
    <path d="M 223.1588 70.176036 
" clip-path="url(#p3eeeadaee6)" style="fill: none; stroke: #373737; stroke-width: 1.5; stroke-linecap: round"/>
    <g clip-path="url(#p3eeeadaee6)">
     <use xlink:href="#m6bc97b8b71" x="223.1588" y="70.176036" style="fill: #ffffff; stroke: #ffffff"/>
    </g>
   </g>
   <g id="line2d_46">
    <path d="M 230.9412 144.363599 
L 230.9412 37.701446 
" clip-path="url(#p3eeeadaee6)" style="fill: none; stroke: #000000; stroke-linecap: round"/>
   </g>
   <g id="line2d_47">
    <path d="M 230.9412 114.226958 
L 230.9412 77.873823 
" clip-path="url(#p3eeeadaee6)" style="fill: none; stroke: #000000; stroke-width: 5; stroke-linecap: round"/>
   </g>
   <g id="line2d_48">
    <path d="M 230.9412 97.766949 
" clip-path="url(#p3eeeadaee6)" style="fill: none; stroke: #373737; stroke-width: 1.5; stroke-linecap: round"/>
    <g clip-path="url(#p3eeeadaee6)">
     <use xlink:href="#m6bc97b8b71" x="230.9412" y="97.766949" style="fill: #ffffff; stroke: #ffffff"/>
    </g>
   </g>
   <g id="patch_5">
    <path d="M 35.76 156.22 
L 35.76 26.358 
" style="fill: none; stroke: #262626; stroke-width: 1.25; stroke-linejoin: miter; stroke-linecap: square"/>
   </g>
   <g id="patch_6">
    <path d="M 35.76 156.22 
L 244.44 156.22 
" style="fill: none; stroke: #262626; stroke-width: 1.25; stroke-linejoin: miter; stroke-linecap: square"/>
   </g>
   <g id="text_14">
    <!-- Relative -->
    <g style="fill: #262626" transform="translate(10.471406 13.64387) scale(0.07 -0.07)">
     <defs>
      <path id="ArialMT-52" d="M 503 0 
L 503 4581 
L 2534 4581 
Q 3147 4581 3465 4457 
Q 3784 4334 3975 4021 
Q 4166 3709 4166 3331 
Q 4166 2844 3850 2509 
Q 3534 2175 2875 2084 
Q 3116 1969 3241 1856 
Q 3506 1613 3744 1247 
L 4541 0 
L 3778 0 
L 3172 953 
Q 2906 1366 2734 1584 
Q 2563 1803 2427 1890 
Q 2291 1978 2150 2013 
Q 2047 2034 1813 2034 
L 1109 2034 
L 1109 0 
L 503 0 
z
M 1109 2559 
L 2413 2559 
Q 2828 2559 3062 2645 
Q 3297 2731 3419 2920 
Q 3541 3109 3541 3331 
Q 3541 3656 3305 3865 
Q 3069 4075 2559 4075 
L 1109 4075 
L 1109 2559 
z
" transform="scale(0.015625)"/>
      <path id="ArialMT-76" d="M 1344 0 
L 81 3319 
L 675 3319 
L 1388 1331 
Q 1503 1009 1600 663 
Q 1675 925 1809 1294 
L 2547 3319 
L 3125 3319 
L 1869 0 
L 1344 0 
z
" transform="scale(0.015625)"/>
     </defs>
     <use xlink:href="#ArialMT-52"/>
     <use xlink:href="#ArialMT-65" x="72.216797"/>
     <use xlink:href="#ArialMT-6c" x="127.832031"/>
     <use xlink:href="#ArialMT-61" x="150.048828"/>
     <use xlink:href="#ArialMT-74" x="205.664062"/>
     <use xlink:href="#ArialMT-69" x="233.447266"/>
     <use xlink:href="#ArialMT-76" x="255.664062"/>
     <use xlink:href="#ArialMT-65" x="305.664062"/>
    </g>
    <!-- rate -->
    <g style="fill: #262626" transform="translate(23.699219 21.047682) scale(0.07 -0.07)">
     <defs>
      <path id="ArialMT-72" d="M 416 0 
L 416 3319 
L 922 3319 
L 922 2816 
Q 1116 3169 1280 3281 
Q 1444 3394 1641 3394 
Q 1925 3394 2219 3213 
L 2025 2691 
Q 1819 2813 1613 2813 
Q 1428 2813 1281 2702 
Q 1134 2591 1072 2394 
Q 978 2094 978 1738 
L 978 0 
L 416 0 
z
" transform="scale(0.015625)"/>
     </defs>
     <use xlink:href="#ArialMT-72"/>
     <use xlink:href="#ArialMT-61" x="33.300781"/>
     <use xlink:href="#ArialMT-74" x="88.916016"/>
     <use xlink:href="#ArialMT-65" x="116.699219"/>
    </g>
   </g>
   <g id="text_15">
    <!-- 1.0 -->
    <g style="fill: #262626" transform="translate(48.285 17.345776) scale(0.07 -0.07)">
     <defs>
      <path id="ArialMT-2e" d="M 581 0 
L 581 641 
L 1222 641 
L 1222 0 
L 581 0 
z
" transform="scale(0.015625)"/>
     </defs>
     <use xlink:href="#ArialMT-31"/>
     <use xlink:href="#ArialMT-2e" x="55.615234"/>
     <use xlink:href="#ArialMT-30" x="83.398438"/>
    </g>
   </g>
   <g id="text_16">
    <!-- 4.3 -->
    <g style="fill: #262626" transform="translate(83.065 17.345776) scale(0.07 -0.07)">
     <defs>
      <path id="ArialMT-34" d="M 2069 0 
L 2069 1097 
L 81 1097 
L 81 1613 
L 2172 4581 
L 2631 4581 
L 2631 1613 
L 3250 1613 
L 3250 1097 
L 2631 1097 
L 2631 0 
L 2069 0 
z
M 2069 1613 
L 2069 3678 
L 634 1613 
L 2069 1613 
z
" transform="scale(0.015625)"/>
     </defs>
     <use xlink:href="#ArialMT-34"/>
     <use xlink:href="#ArialMT-2e" x="55.615234"/>
     <use xlink:href="#ArialMT-33" x="83.398438"/>
    </g>
   </g>
   <g id="text_17">
    <!-- 1.3 -->
    <g style="fill: #262626" transform="translate(117.845 17.345776) scale(0.07 -0.07)">
     <use xlink:href="#ArialMT-31"/>
     <use xlink:href="#ArialMT-2e" x="55.615234"/>
     <use xlink:href="#ArialMT-33" x="83.398438"/>
    </g>
   </g>
   <g id="text_18">
    <!-- 1.5 -->
    <g style="fill: #262626" transform="translate(152.625 17.345776) scale(0.07 -0.07)">
     <defs>
      <path id="ArialMT-35" d="M 266 1200 
L 856 1250 
Q 922 819 1161 601 
Q 1400 384 1738 384 
Q 2144 384 2425 690 
Q 2706 997 2706 1503 
Q 2706 1984 2436 2262 
Q 2166 2541 1728 2541 
Q 1456 2541 1237 2417 
Q 1019 2294 894 2097 
L 366 2166 
L 809 4519 
L 3088 4519 
L 3088 3981 
L 1259 3981 
L 1013 2750 
Q 1425 3038 1878 3038 
Q 2478 3038 2890 2622 
Q 3303 2206 3303 1553 
Q 3303 931 2941 478 
Q 2500 -78 1738 -78 
Q 1113 -78 717 272 
Q 322 622 266 1200 
z
" transform="scale(0.015625)"/>
     </defs>
     <use xlink:href="#ArialMT-31"/>
     <use xlink:href="#ArialMT-2e" x="55.615234"/>
     <use xlink:href="#ArialMT-35" x="83.398438"/>
    </g>
   </g>
   <g id="text_19">
    <!-- 1.0 -->
    <g style="fill: #262626" transform="translate(187.405 17.345776) scale(0.07 -0.07)">
     <use xlink:href="#ArialMT-31"/>
     <use xlink:href="#ArialMT-2e" x="55.615234"/>
     <use xlink:href="#ArialMT-30" x="83.398438"/>
    </g>
   </g>
   <g id="text_20">
    <!-- 3.6 -->
    <g style="fill: #262626" transform="translate(222.185 17.345776) scale(0.07 -0.07)">
     <defs>
      <path id="ArialMT-36" d="M 3184 3459 
L 2625 3416 
Q 2550 3747 2413 3897 
Q 2184 4138 1850 4138 
Q 1581 4138 1378 3988 
Q 1113 3794 959 3422 
Q 806 3050 800 2363 
Q 1003 2672 1297 2822 
Q 1591 2972 1913 2972 
Q 2475 2972 2870 2558 
Q 3266 2144 3266 1488 
Q 3266 1056 3080 686 
Q 2894 316 2569 119 
Q 2244 -78 1831 -78 
Q 1128 -78 684 439 
Q 241 956 241 2144 
Q 241 3472 731 4075 
Q 1159 4600 1884 4600 
Q 2425 4600 2770 4297 
Q 3116 3994 3184 3459 
z
M 888 1484 
Q 888 1194 1011 928 
Q 1134 663 1356 523 
Q 1578 384 1822 384 
Q 2178 384 2434 671 
Q 2691 959 2691 1453 
Q 2691 1928 2437 2201 
Q 2184 2475 1800 2475 
Q 1419 2475 1153 2201 
Q 888 1928 888 1484 
z
" transform="scale(0.015625)"/>
     </defs>
     <use xlink:href="#ArialMT-33"/>
     <use xlink:href="#ArialMT-2e" x="55.615234"/>
     <use xlink:href="#ArialMT-36" x="83.398438"/>
    </g>
   </g>
   <g id="legend_1">
    <g id="patch_7">
     <path d="M 40.66 152.72 
L 95.67125 152.72 
Q 97.07125 152.72 97.07125 151.32 
L 97.07125 132.216563 
Q 97.07125 130.816563 95.67125 130.816563 
L 40.66 130.816563 
Q 39.26 130.816563 39.26 132.216563 
L 39.26 151.32 
Q 39.26 152.72 40.66 152.72 
z
" style="fill: #ffffff; opacity: 0.8; stroke: #cccccc; stroke-linejoin: miter"/>
    </g>
    <g id="patch_8">
     <path d="M 42.06 138.627031 
L 56.06 138.627031 
L 56.06 133.727031 
L 42.06 133.727031 
z
" style="fill: #2b8e70"/>
    </g>
    <g id="text_21">
     <!-- Unpaired -->
     <g style="fill: #262626" transform="translate(58.86 138.627031) scale(0.07 -0.07)">
      <defs>
       <path id="ArialMT-70" d="M 422 -1272 
L 422 3319 
L 934 3319 
L 934 2888 
Q 1116 3141 1344 3267 
Q 1572 3394 1897 3394 
Q 2322 3394 2647 3175 
Q 2972 2956 3137 2557 
Q 3303 2159 3303 1684 
Q 3303 1175 3120 767 
Q 2938 359 2589 142 
Q 2241 -75 1856 -75 
Q 1575 -75 1351 44 
Q 1128 163 984 344 
L 984 -1272 
L 422 -1272 
z
M 931 1641 
Q 931 1000 1190 694 
Q 1450 388 1819 388 
Q 2194 388 2461 705 
Q 2728 1022 2728 1688 
Q 2728 2322 2467 2637 
Q 2206 2953 1844 2953 
Q 1484 2953 1207 2617 
Q 931 2281 931 1641 
z
" transform="scale(0.015625)"/>
      </defs>
      <use xlink:href="#ArialMT-55"/>
      <use xlink:href="#ArialMT-6e" x="72.216797"/>
      <use xlink:href="#ArialMT-70" x="127.832031"/>
      <use xlink:href="#ArialMT-61" x="183.447266"/>
      <use xlink:href="#ArialMT-69" x="239.0625"/>
      <use xlink:href="#ArialMT-72" x="261.279297"/>
      <use xlink:href="#ArialMT-65" x="294.580078"/>
      <use xlink:href="#ArialMT-64" x="350.195312"/>
     </g>
    </g>
    <g id="patch_9">
     <path d="M 42.06 148.52875 
L 56.06 148.52875 
L 56.06 143.62875 
L 42.06 143.62875 
z
" style="fill: #be631d"/>
    </g>
    <g id="text_22">
     <!-- Basepaired -->
     <g style="fill: #262626" transform="translate(58.86 148.52875) scale(0.07 -0.07)">
      <defs>
       <path id="ArialMT-42" d="M 469 0 
L 469 4581 
L 2188 4581 
Q 2713 4581 3030 4442 
Q 3347 4303 3526 4014 
Q 3706 3725 3706 3409 
Q 3706 3116 3547 2856 
Q 3388 2597 3066 2438 
Q 3481 2316 3704 2022 
Q 3928 1728 3928 1328 
Q 3928 1006 3792 729 
Q 3656 453 3456 303 
Q 3256 153 2954 76 
Q 2653 0 2216 0 
L 469 0 
z
M 1075 2656 
L 2066 2656 
Q 2469 2656 2644 2709 
Q 2875 2778 2992 2937 
Q 3109 3097 3109 3338 
Q 3109 3566 3000 3739 
Q 2891 3913 2687 3977 
Q 2484 4041 1991 4041 
L 1075 4041 
L 1075 2656 
z
M 1075 541 
L 2216 541 
Q 2509 541 2628 563 
Q 2838 600 2978 687 
Q 3119 775 3209 942 
Q 3300 1109 3300 1328 
Q 3300 1584 3169 1773 
Q 3038 1963 2805 2039 
Q 2572 2116 2134 2116 
L 1075 2116 
L 1075 541 
z
" transform="scale(0.015625)"/>
      </defs>
      <use xlink:href="#ArialMT-42"/>
      <use xlink:href="#ArialMT-61" x="66.699219"/>
      <use xlink:href="#ArialMT-73" x="122.314453"/>
      <use xlink:href="#ArialMT-65" x="172.314453"/>
      <use xlink:href="#ArialMT-70" x="227.929688"/>
      <use xlink:href="#ArialMT-61" x="283.544922"/>
      <use xlink:href="#ArialMT-69" x="339.160156"/>
      <use xlink:href="#ArialMT-72" x="361.376953"/>
      <use xlink:href="#ArialMT-65" x="394.677734"/>
      <use xlink:href="#ArialMT-64" x="450.292969"/>
     </g>
    </g>
   </g>
  </g>
 </g>
 <defs>
  <clipPath id="p3eeeadaee6">
   <rect x="35.76" y="26.358" width="208.68" height="129.862"/>
  </clipPath>
 </defs>
</svg>
