<?xml version="1.0" encoding="utf-8" standalone="no"?>
<!DOCTYPE svg PUBLIC "-//W3C//DTD SVG 1.1//EN"
  "http://www.w3.org/Graphics/SVG/1.1/DTD/svg11.dtd">
<svg xmlns:xlink="http://www.w3.org/1999/xlink" width="252pt" height="180pt" viewBox="0 0 252 180" xmlns="http://www.w3.org/2000/svg" version="1.1">
 <metadata>
  <rdf:RDF xmlns:dc="http://purl.org/dc/elements/1.1/" xmlns:cc="http://creativecommons.org/ns#" xmlns:rdf="http://www.w3.org/1999/02/22-rdf-syntax-ns#">
   <cc:Work>
    <dc:type rdf:resource="http://purl.org/dc/dcmitype/StillImage"/>
    <dc:date>2024-11-22T16:14:48.694985</dc:date>
    <dc:format>image/svg+xml</dc:format>
    <dc:creator>
     <cc:Agent>
      <dc:title>Matplotlib v3.8.0, https://matplotlib.org/</dc:title>
     </cc:Agent>
    </dc:creator>
   </cc:Work>
  </rdf:RDF>
 </metadata>
 <defs>
  <style type="text/css">*{stroke-linejoin: round; stroke-linecap: butt}</style>
 </defs>
 <g id="figure_1">
  <g id="patch_1">
   <path d="M 0 180 
L 252 180 
L 252 0 
L 0 0 
z
" style="fill: #ffffff"/>
  </g>
  <g id="axes_1">
   <g id="patch_2">
    <path d="M 35.76 145.5 
L 243.713 145.5 
L 243.713 7.56 
L 35.76 7.56 
z
" style="fill: #ffffff"/>
   </g>
   <g id="matplotlib.axis_1">
    <g id="xtick_1">
     <g id="line2d_1">
      <defs>
       <path id="m226c32c8ab" d="M 0 0 
L 0 6 
" style="stroke: #262626; stroke-width: 1.25"/>
      </defs>
      <g>
       <use xlink:href="#m226c32c8ab" x="61.754125" y="145.5" style="fill: #262626; stroke: #262626; stroke-width: 1.25"/>
      </g>
     </g>
     <g id="text_1">
      <!-- A -->
      <g style="fill: #262626" transform="translate(59.419516 160.010469) scale(0.07 -0.07)">
       <defs>
        <path id="ArialMT-41" d="M -9 0 
L 1750 4581 
L 2403 4581 
L 4278 0 
L 3588 0 
L 3053 1388 
L 1138 1388 
L 634 0 
L -9 0 
z
M 1313 1881 
L 2866 1881 
L 2388 3150 
Q 2169 3728 2063 4100 
Q 1975 3659 1816 3225 
L 1313 1881 
z
" transform="scale(0.015625)"/>
       </defs>
       <use xlink:href="#ArialMT-41"/>
      </g>
     </g>
    </g>
    <g id="xtick_2">
     <g id="line2d_2">
      <g>
       <use xlink:href="#m226c32c8ab" x="113.742375" y="145.5" style="fill: #262626; stroke: #262626; stroke-width: 1.25"/>
      </g>
     </g>
     <g id="text_2">
      <!-- G -->
      <g style="fill: #262626" transform="translate(111.020031 160.010469) scale(0.07 -0.07)">
       <defs>
        <path id="ArialMT-47" d="M 2638 1797 
L 2638 2334 
L 4578 2338 
L 4578 638 
Q 4131 281 3656 101 
Q 3181 -78 2681 -78 
Q 2006 -78 1454 211 
Q 903 500 622 1047 
Q 341 1594 341 2269 
Q 341 2938 620 3517 
Q 900 4097 1425 4378 
Q 1950 4659 2634 4659 
Q 3131 4659 3532 4498 
Q 3934 4338 4162 4050 
Q 4391 3763 4509 3300 
L 3963 3150 
Q 3859 3500 3706 3700 
Q 3553 3900 3268 4020 
Q 2984 4141 2638 4141 
Q 2222 4141 1919 4014 
Q 1616 3888 1430 3681 
Q 1244 3475 1141 3228 
Q 966 2803 966 2306 
Q 966 1694 1177 1281 
Q 1388 869 1791 669 
Q 2194 469 2647 469 
Q 3041 469 3416 620 
Q 3791 772 3984 944 
L 3984 1797 
L 2638 1797 
z
" transform="scale(0.015625)"/>
       </defs>
       <use xlink:href="#ArialMT-47"/>
      </g>
     </g>
    </g>
    <g id="xtick_3">
     <g id="line2d_3">
      <g>
       <use xlink:href="#m226c32c8ab" x="165.730625" y="145.5" style="fill: #262626; stroke: #262626; stroke-width: 1.25"/>
      </g>
     </g>
     <g id="text_3">
      <!-- C -->
      <g style="fill: #262626" transform="translate(163.202969 160.010469) scale(0.07 -0.07)">
       <defs>
        <path id="ArialMT-43" d="M 3763 1606 
L 4369 1453 
Q 4178 706 3683 314 
Q 3188 -78 2472 -78 
Q 1731 -78 1267 223 
Q 803 525 561 1097 
Q 319 1669 319 2325 
Q 319 3041 592 3573 
Q 866 4106 1370 4382 
Q 1875 4659 2481 4659 
Q 3169 4659 3637 4309 
Q 4106 3959 4291 3325 
L 3694 3184 
Q 3534 3684 3231 3912 
Q 2928 4141 2469 4141 
Q 1941 4141 1586 3887 
Q 1231 3634 1087 3207 
Q 944 2781 944 2328 
Q 944 1744 1114 1308 
Q 1284 872 1643 656 
Q 2003 441 2422 441 
Q 2931 441 3284 734 
Q 3638 1028 3763 1606 
z
" transform="scale(0.015625)"/>
       </defs>
       <use xlink:href="#ArialMT-43"/>
      </g>
     </g>
    </g>
    <g id="xtick_4">
     <g id="line2d_4">
      <g>
       <use xlink:href="#m226c32c8ab" x="217.718875" y="145.5" style="fill: #262626; stroke: #262626; stroke-width: 1.25"/>
      </g>
     </g>
     <g id="text_4">
      <!-- U -->
      <g style="fill: #262626" transform="translate(215.191219 160.010469) scale(0.07 -0.07)">
       <defs>
        <path id="ArialMT-55" d="M 3500 4581 
L 4106 4581 
L 4106 1934 
Q 4106 1244 3950 837 
Q 3794 431 3386 176 
Q 2978 -78 2316 -78 
Q 1672 -78 1262 144 
Q 853 366 678 786 
Q 503 1206 503 1934 
L 503 4581 
L 1109 4581 
L 1109 1938 
Q 1109 1341 1220 1058 
Q 1331 775 1601 622 
Q 1872 469 2263 469 
Q 2931 469 3215 772 
Q 3500 1075 3500 1938 
L 3500 4581 
z
" transform="scale(0.015625)"/>
       </defs>
       <use xlink:href="#ArialMT-55"/>
      </g>
     </g>
    </g>
    <g id="text_5">
     <!-- 3′ context of synonymous C→U mutation -->
     <g style="fill: #262626" transform="translate(76.444469 170.4975) scale(0.07 -0.07)">
      <defs>
       <path id="ArialMT-33" d="M 269 1209 
L 831 1284 
Q 928 806 1161 595 
Q 1394 384 1728 384 
Q 2125 384 2398 659 
Q 2672 934 2672 1341 
Q 2672 1728 2419 1979 
Q 2166 2231 1775 2231 
Q 1616 2231 1378 2169 
L 1441 2663 
Q 1497 2656 1531 2656 
Q 1891 2656 2178 2843 
Q 2466 3031 2466 3422 
Q 2466 3731 2256 3934 
Q 2047 4138 1716 4138 
Q 1388 4138 1169 3931 
Q 950 3725 888 3313 
L 325 3413 
Q 428 3978 793 4289 
Q 1159 4600 1703 4600 
Q 2078 4600 2393 4439 
Q 2709 4278 2876 4000 
Q 3044 3722 3044 3409 
Q 3044 3113 2884 2869 
Q 2725 2625 2413 2481 
Q 2819 2388 3044 2092 
Q 3269 1797 3269 1353 
Q 3269 753 2831 336 
Q 2394 -81 1725 -81 
Q 1122 -81 723 278 
Q 325 638 269 1209 
z
" transform="scale(0.015625)"/>
       <path id="ArialMT-2032" d="M 400 2959 
L 438 3816 
L 600 4581 
L 1244 4581 
L 1078 3816 
L 750 2959 
L 400 2959 
z
" transform="scale(0.015625)"/>
       <path id="ArialMT-20" transform="scale(0.015625)"/>
       <path id="ArialMT-63" d="M 2588 1216 
L 3141 1144 
Q 3050 572 2676 248 
Q 2303 -75 1759 -75 
Q 1078 -75 664 370 
Q 250 816 250 1647 
Q 250 2184 428 2587 
Q 606 2991 970 3192 
Q 1334 3394 1763 3394 
Q 2303 3394 2647 3120 
Q 2991 2847 3088 2344 
L 2541 2259 
Q 2463 2594 2264 2762 
Q 2066 2931 1784 2931 
Q 1359 2931 1093 2626 
Q 828 2322 828 1663 
Q 828 994 1084 691 
Q 1341 388 1753 388 
Q 2084 388 2306 591 
Q 2528 794 2588 1216 
z
" transform="scale(0.015625)"/>
       <path id="ArialMT-6f" d="M 213 1659 
Q 213 2581 725 3025 
Q 1153 3394 1769 3394 
Q 2453 3394 2887 2945 
Q 3322 2497 3322 1706 
Q 3322 1066 3130 698 
Q 2938 331 2570 128 
Q 2203 -75 1769 -75 
Q 1072 -75 642 372 
Q 213 819 213 1659 
z
M 791 1659 
Q 791 1022 1069 705 
Q 1347 388 1769 388 
Q 2188 388 2466 706 
Q 2744 1025 2744 1678 
Q 2744 2294 2464 2611 
Q 2184 2928 1769 2928 
Q 1347 2928 1069 2612 
Q 791 2297 791 1659 
z
" transform="scale(0.015625)"/>
       <path id="ArialMT-6e" d="M 422 0 
L 422 3319 
L 928 3319 
L 928 2847 
Q 1294 3394 1984 3394 
Q 2284 3394 2536 3286 
Q 2788 3178 2913 3003 
Q 3038 2828 3088 2588 
Q 3119 2431 3119 2041 
L 3119 0 
L 2556 0 
L 2556 2019 
Q 2556 2363 2490 2533 
Q 2425 2703 2258 2804 
Q 2091 2906 1866 2906 
Q 1506 2906 1245 2678 
Q 984 2450 984 1813 
L 984 0 
L 422 0 
z
" transform="scale(0.015625)"/>
       <path id="ArialMT-74" d="M 1650 503 
L 1731 6 
Q 1494 -44 1306 -44 
Q 1000 -44 831 53 
Q 663 150 594 308 
Q 525 466 525 972 
L 525 2881 
L 113 2881 
L 113 3319 
L 525 3319 
L 525 4141 
L 1084 4478 
L 1084 3319 
L 1650 3319 
L 1650 2881 
L 1084 2881 
L 1084 941 
Q 1084 700 1114 631 
Q 1144 563 1211 522 
Q 1278 481 1403 481 
Q 1497 481 1650 503 
z
" transform="scale(0.015625)"/>
       <path id="ArialMT-65" d="M 2694 1069 
L 3275 997 
Q 3138 488 2766 206 
Q 2394 -75 1816 -75 
Q 1088 -75 661 373 
Q 234 822 234 1631 
Q 234 2469 665 2931 
Q 1097 3394 1784 3394 
Q 2450 3394 2872 2941 
Q 3294 2488 3294 1666 
Q 3294 1616 3291 1516 
L 816 1516 
Q 847 969 1125 678 
Q 1403 388 1819 388 
Q 2128 388 2347 550 
Q 2566 713 2694 1069 
z
M 847 1978 
L 2700 1978 
Q 2663 2397 2488 2606 
Q 2219 2931 1791 2931 
Q 1403 2931 1139 2672 
Q 875 2413 847 1978 
z
" transform="scale(0.015625)"/>
       <path id="ArialMT-78" d="M 47 0 
L 1259 1725 
L 138 3319 
L 841 3319 
L 1350 2541 
Q 1494 2319 1581 2169 
Q 1719 2375 1834 2534 
L 2394 3319 
L 3066 3319 
L 1919 1756 
L 3153 0 
L 2463 0 
L 1781 1031 
L 1600 1309 
L 728 0 
L 47 0 
z
" transform="scale(0.015625)"/>
       <path id="ArialMT-66" d="M 556 0 
L 556 2881 
L 59 2881 
L 59 3319 
L 556 3319 
L 556 3672 
Q 556 4006 616 4169 
Q 697 4388 901 4523 
Q 1106 4659 1475 4659 
Q 1713 4659 2000 4603 
L 1916 4113 
Q 1741 4144 1584 4144 
Q 1328 4144 1222 4034 
Q 1116 3925 1116 3625 
L 1116 3319 
L 1763 3319 
L 1763 2881 
L 1116 2881 
L 1116 0 
L 556 0 
z
" transform="scale(0.015625)"/>
       <path id="ArialMT-73" d="M 197 991 
L 753 1078 
Q 800 744 1014 566 
Q 1228 388 1613 388 
Q 2000 388 2187 545 
Q 2375 703 2375 916 
Q 2375 1106 2209 1216 
Q 2094 1291 1634 1406 
Q 1016 1563 777 1677 
Q 538 1791 414 1992 
Q 291 2194 291 2438 
Q 291 2659 392 2848 
Q 494 3038 669 3163 
Q 800 3259 1026 3326 
Q 1253 3394 1513 3394 
Q 1903 3394 2198 3281 
Q 2494 3169 2634 2976 
Q 2775 2784 2828 2463 
L 2278 2388 
Q 2241 2644 2061 2787 
Q 1881 2931 1553 2931 
Q 1166 2931 1000 2803 
Q 834 2675 834 2503 
Q 834 2394 903 2306 
Q 972 2216 1119 2156 
Q 1203 2125 1616 2013 
Q 2213 1853 2448 1751 
Q 2684 1650 2818 1456 
Q 2953 1263 2953 975 
Q 2953 694 2789 445 
Q 2625 197 2315 61 
Q 2006 -75 1616 -75 
Q 969 -75 630 194 
Q 291 463 197 991 
z
" transform="scale(0.015625)"/>
       <path id="ArialMT-79" d="M 397 -1278 
L 334 -750 
Q 519 -800 656 -800 
Q 844 -800 956 -737 
Q 1069 -675 1141 -563 
Q 1194 -478 1313 -144 
Q 1328 -97 1363 -6 
L 103 3319 
L 709 3319 
L 1400 1397 
Q 1534 1031 1641 628 
Q 1738 1016 1872 1384 
L 2581 3319 
L 3144 3319 
L 1881 -56 
Q 1678 -603 1566 -809 
Q 1416 -1088 1222 -1217 
Q 1028 -1347 759 -1347 
Q 597 -1347 397 -1278 
z
" transform="scale(0.015625)"/>
       <path id="ArialMT-6d" d="M 422 0 
L 422 3319 
L 925 3319 
L 925 2853 
Q 1081 3097 1340 3245 
Q 1600 3394 1931 3394 
Q 2300 3394 2536 3241 
Q 2772 3088 2869 2813 
Q 3263 3394 3894 3394 
Q 4388 3394 4653 3120 
Q 4919 2847 4919 2278 
L 4919 0 
L 4359 0 
L 4359 2091 
Q 4359 2428 4304 2576 
Q 4250 2725 4106 2815 
Q 3963 2906 3769 2906 
Q 3419 2906 3187 2673 
Q 2956 2441 2956 1928 
L 2956 0 
L 2394 0 
L 2394 2156 
Q 2394 2531 2256 2718 
Q 2119 2906 1806 2906 
Q 1569 2906 1367 2781 
Q 1166 2656 1075 2415 
Q 984 2175 984 1722 
L 984 0 
L 422 0 
z
" transform="scale(0.015625)"/>
       <path id="ArialMT-75" d="M 2597 0 
L 2597 488 
Q 2209 -75 1544 -75 
Q 1250 -75 995 37 
Q 741 150 617 320 
Q 494 491 444 738 
Q 409 903 409 1263 
L 409 3319 
L 972 3319 
L 972 1478 
Q 972 1038 1006 884 
Q 1059 663 1231 536 
Q 1403 409 1656 409 
Q 1909 409 2131 539 
Q 2353 669 2445 892 
Q 2538 1116 2538 1541 
L 2538 3319 
L 3100 3319 
L 3100 0 
L 2597 0 
z
" transform="scale(0.015625)"/>
       <path id="ArialMT-2192" d="M 4859 2738 
Q 5275 2284 5578 2048 
Q 5881 1813 6150 1697 
L 6150 1556 
Q 5841 1406 5550 1173 
Q 5259 941 4856 491 
L 4616 491 
Q 4909 1119 5231 1456 
L 247 1456 
L 247 1772 
L 5231 1772 
Q 4994 2075 4900 2222 
Q 4806 2369 4622 2738 
L 4859 2738 
z
" transform="scale(0.015625)"/>
       <path id="ArialMT-61" d="M 2588 409 
Q 2275 144 1986 34 
Q 1697 -75 1366 -75 
Q 819 -75 525 192 
Q 231 459 231 875 
Q 231 1119 342 1320 
Q 453 1522 633 1644 
Q 813 1766 1038 1828 
Q 1203 1872 1538 1913 
Q 2219 1994 2541 2106 
Q 2544 2222 2544 2253 
Q 2544 2597 2384 2738 
Q 2169 2928 1744 2928 
Q 1347 2928 1158 2789 
Q 969 2650 878 2297 
L 328 2372 
Q 403 2725 575 2942 
Q 747 3159 1072 3276 
Q 1397 3394 1825 3394 
Q 2250 3394 2515 3294 
Q 2781 3194 2906 3042 
Q 3031 2891 3081 2659 
Q 3109 2516 3109 2141 
L 3109 1391 
Q 3109 606 3145 398 
Q 3181 191 3288 0 
L 2700 0 
Q 2613 175 2588 409 
z
M 2541 1666 
Q 2234 1541 1622 1453 
Q 1275 1403 1131 1340 
Q 988 1278 909 1158 
Q 831 1038 831 891 
Q 831 666 1001 516 
Q 1172 366 1500 366 
Q 1825 366 2078 508 
Q 2331 650 2450 897 
Q 2541 1088 2541 1459 
L 2541 1666 
z
" transform="scale(0.015625)"/>
       <path id="ArialMT-69" d="M 425 3934 
L 425 4581 
L 988 4581 
L 988 3934 
L 425 3934 
z
M 425 0 
L 425 3319 
L 988 3319 
L 988 0 
L 425 0 
z
" transform="scale(0.015625)"/>
      </defs>
      <use xlink:href="#ArialMT-33"/>
      <use xlink:href="#ArialMT-2032" x="55.615234"/>
      <use xlink:href="#ArialMT-20" x="74.365234"/>
      <use xlink:href="#ArialMT-63" x="102.148438"/>
      <use xlink:href="#ArialMT-6f" x="152.148438"/>
      <use xlink:href="#ArialMT-6e" x="207.763672"/>
      <use xlink:href="#ArialMT-74" x="263.378906"/>
      <use xlink:href="#ArialMT-65" x="291.162109"/>
      <use xlink:href="#ArialMT-78" x="346.777344"/>
      <use xlink:href="#ArialMT-74" x="396.777344"/>
      <use xlink:href="#ArialMT-20" x="424.560547"/>
      <use xlink:href="#ArialMT-6f" x="452.34375"/>
      <use xlink:href="#ArialMT-66" x="507.958984"/>
      <use xlink:href="#ArialMT-20" x="535.742188"/>
      <use xlink:href="#ArialMT-73" x="563.525391"/>
      <use xlink:href="#ArialMT-79" x="613.525391"/>
      <use xlink:href="#ArialMT-6e" x="663.525391"/>
      <use xlink:href="#ArialMT-6f" x="719.140625"/>
      <use xlink:href="#ArialMT-6e" x="774.755859"/>
      <use xlink:href="#ArialMT-79" x="830.371094"/>
      <use xlink:href="#ArialMT-6d" x="880.371094"/>
      <use xlink:href="#ArialMT-6f" x="963.671875"/>
      <use xlink:href="#ArialMT-75" x="1019.287109"/>
      <use xlink:href="#ArialMT-73" x="1074.902344"/>
      <use xlink:href="#ArialMT-20" x="1124.902344"/>
      <use xlink:href="#ArialMT-43" x="1152.685547"/>
      <use xlink:href="#ArialMT-2192" x="1224.902344"/>
      <use xlink:href="#ArialMT-55" x="1324.902344"/>
      <use xlink:href="#ArialMT-20" x="1397.119141"/>
      <use xlink:href="#ArialMT-6d" x="1424.902344"/>
      <use xlink:href="#ArialMT-75" x="1508.203125"/>
      <use xlink:href="#ArialMT-74" x="1563.818359"/>
      <use xlink:href="#ArialMT-61" x="1591.601562"/>
      <use xlink:href="#ArialMT-74" x="1647.216797"/>
      <use xlink:href="#ArialMT-69" x="1675"/>
      <use xlink:href="#ArialMT-6f" x="1697.216797"/>
      <use xlink:href="#ArialMT-6e" x="1752.832031"/>
     </g>
    </g>
   </g>
   <g id="matplotlib.axis_2">
    <g id="ytick_1">
     <g id="line2d_5">
      <defs>
       <path id="me96636b886" d="M 0 0 
L -6 0 
" style="stroke: #262626; stroke-width: 1.25"/>
      </defs>
      <g>
       <use xlink:href="#me96636b886" x="35.76" y="134.005" style="fill: #262626; stroke: #262626; stroke-width: 1.25"/>
      </g>
     </g>
     <g id="text_6">
      <!-- −3 -->
      <g style="fill: #262626" transform="translate(18.278906 136.510234) scale(0.07 -0.07)">
       <defs>
        <path id="ArialMT-2212" d="M 3381 1997 
L 356 1997 
L 356 2522 
L 3381 2522 
L 3381 1997 
z
" transform="scale(0.015625)"/>
       </defs>
       <use xlink:href="#ArialMT-2212"/>
       <use xlink:href="#ArialMT-33" x="58.398438"/>
      </g>
     </g>
    </g>
    <g id="ytick_2">
     <g id="line2d_6">
      <g>
       <use xlink:href="#me96636b886" x="35.76" y="111.015" style="fill: #262626; stroke: #262626; stroke-width: 1.25"/>
      </g>
     </g>
     <g id="text_7">
      <!-- −2 -->
      <g style="fill: #262626" transform="translate(18.278906 113.520234) scale(0.07 -0.07)">
       <defs>
        <path id="ArialMT-32" d="M 3222 541 
L 3222 0 
L 194 0 
Q 188 203 259 391 
Q 375 700 629 1000 
Q 884 1300 1366 1694 
Q 2113 2306 2375 2664 
Q 2638 3022 2638 3341 
Q 2638 3675 2398 3904 
Q 2159 4134 1775 4134 
Q 1369 4134 1125 3890 
Q 881 3647 878 3216 
L 300 3275 
Q 359 3922 746 4261 
Q 1134 4600 1788 4600 
Q 2447 4600 2831 4234 
Q 3216 3869 3216 3328 
Q 3216 3053 3103 2787 
Q 2991 2522 2730 2228 
Q 2469 1934 1863 1422 
Q 1356 997 1212 845 
Q 1069 694 975 541 
L 3222 541 
z
" transform="scale(0.015625)"/>
       </defs>
       <use xlink:href="#ArialMT-2212"/>
       <use xlink:href="#ArialMT-32" x="58.398438"/>
      </g>
     </g>
    </g>
    <g id="ytick_3">
     <g id="line2d_7">
      <g>
       <use xlink:href="#me96636b886" x="35.76" y="88.025" style="fill: #262626; stroke: #262626; stroke-width: 1.25"/>
      </g>
     </g>
     <g id="text_8">
      <!-- −1 -->
      <g style="fill: #262626" transform="translate(18.278906 90.530234) scale(0.07 -0.07)">
       <defs>
        <path id="ArialMT-31" d="M 2384 0 
L 1822 0 
L 1822 3584 
Q 1619 3391 1289 3197 
Q 959 3003 697 2906 
L 697 3450 
Q 1169 3672 1522 3987 
Q 1875 4303 2022 4600 
L 2384 4600 
L 2384 0 
z
" transform="scale(0.015625)"/>
       </defs>
       <use xlink:href="#ArialMT-2212"/>
       <use xlink:href="#ArialMT-31" x="58.398438"/>
      </g>
     </g>
    </g>
    <g id="ytick_4">
     <g id="line2d_8">
      <g>
       <use xlink:href="#me96636b886" x="35.76" y="65.035" style="fill: #262626; stroke: #262626; stroke-width: 1.25"/>
      </g>
     </g>
     <g id="text_9">
      <!-- 0 -->
      <g style="fill: #262626" transform="translate(22.367344 67.540234) scale(0.07 -0.07)">
       <defs>
        <path id="ArialMT-30" d="M 266 2259 
Q 266 3072 433 3567 
Q 600 4063 929 4331 
Q 1259 4600 1759 4600 
Q 2128 4600 2406 4451 
Q 2684 4303 2865 4023 
Q 3047 3744 3150 3342 
Q 3253 2941 3253 2259 
Q 3253 1453 3087 958 
Q 2922 463 2592 192 
Q 2263 -78 1759 -78 
Q 1097 -78 719 397 
Q 266 969 266 2259 
z
M 844 2259 
Q 844 1131 1108 757 
Q 1372 384 1759 384 
Q 2147 384 2411 759 
Q 2675 1134 2675 2259 
Q 2675 3391 2411 3762 
Q 2147 4134 1753 4134 
Q 1366 4134 1134 3806 
Q 844 3388 844 2259 
z
" transform="scale(0.015625)"/>
       </defs>
       <use xlink:href="#ArialMT-30"/>
      </g>
     </g>
    </g>
    <g id="ytick_5">
     <g id="line2d_9">
      <g>
       <use xlink:href="#me96636b886" x="35.76" y="42.045" style="fill: #262626; stroke: #262626; stroke-width: 1.25"/>
      </g>
     </g>
     <g id="text_10">
      <!-- 1 -->
      <g style="fill: #262626" transform="translate(22.367344 44.550234) scale(0.07 -0.07)">
       <use xlink:href="#ArialMT-31"/>
      </g>
     </g>
    </g>
    <g id="ytick_6">
     <g id="line2d_10">
      <g>
       <use xlink:href="#me96636b886" x="35.76" y="19.055" style="fill: #262626; stroke: #262626; stroke-width: 1.25"/>
      </g>
     </g>
     <g id="text_11">
      <!-- 2 -->
      <g style="fill: #262626" transform="translate(22.367344 21.560234) scale(0.07 -0.07)">
       <use xlink:href="#ArialMT-32"/>
      </g>
     </g>
    </g>
    <g id="text_12">
     <!-- Estimated mutational fitness -->
     <g style="fill: #262626" transform="translate(12.887656 120.298047) rotate(-90) scale(0.07 -0.07)">
      <defs>
       <path id="ArialMT-45" d="M 506 0 
L 506 4581 
L 3819 4581 
L 3819 4041 
L 1113 4041 
L 1113 2638 
L 3647 2638 
L 3647 2100 
L 1113 2100 
L 1113 541 
L 3925 541 
L 3925 0 
L 506 0 
z
" transform="scale(0.015625)"/>
       <path id="ArialMT-64" d="M 2575 0 
L 2575 419 
Q 2259 -75 1647 -75 
Q 1250 -75 917 144 
Q 584 363 401 755 
Q 219 1147 219 1656 
Q 219 2153 384 2558 
Q 550 2963 881 3178 
Q 1213 3394 1622 3394 
Q 1922 3394 2156 3267 
Q 2391 3141 2538 2938 
L 2538 4581 
L 3097 4581 
L 3097 0 
L 2575 0 
z
M 797 1656 
Q 797 1019 1065 703 
Q 1334 388 1700 388 
Q 2069 388 2326 689 
Q 2584 991 2584 1609 
Q 2584 2291 2321 2609 
Q 2059 2928 1675 2928 
Q 1300 2928 1048 2622 
Q 797 2316 797 1656 
z
" transform="scale(0.015625)"/>
       <path id="ArialMT-6c" d="M 409 0 
L 409 4581 
L 972 4581 
L 972 0 
L 409 0 
z
" transform="scale(0.015625)"/>
      </defs>
      <use xlink:href="#ArialMT-45"/>
      <use xlink:href="#ArialMT-73" x="66.699219"/>
      <use xlink:href="#ArialMT-74" x="116.699219"/>
      <use xlink:href="#ArialMT-69" x="144.482422"/>
      <use xlink:href="#ArialMT-6d" x="166.699219"/>
      <use xlink:href="#ArialMT-61" x="250"/>
      <use xlink:href="#ArialMT-74" x="305.615234"/>
      <use xlink:href="#ArialMT-65" x="333.398438"/>
      <use xlink:href="#ArialMT-64" x="389.013672"/>
      <use xlink:href="#ArialMT-20" x="444.628906"/>
      <use xlink:href="#ArialMT-6d" x="472.412109"/>
      <use xlink:href="#ArialMT-75" x="555.712891"/>
      <use xlink:href="#ArialMT-74" x="611.328125"/>
      <use xlink:href="#ArialMT-61" x="639.111328"/>
      <use xlink:href="#ArialMT-74" x="694.726562"/>
      <use xlink:href="#ArialMT-69" x="722.509766"/>
      <use xlink:href="#ArialMT-6f" x="744.726562"/>
      <use xlink:href="#ArialMT-6e" x="800.341797"/>
      <use xlink:href="#ArialMT-61" x="855.957031"/>
      <use xlink:href="#ArialMT-6c" x="911.572266"/>
      <use xlink:href="#ArialMT-20" x="933.789062"/>
      <use xlink:href="#ArialMT-66" x="961.572266"/>
      <use xlink:href="#ArialMT-69" x="989.355469"/>
      <use xlink:href="#ArialMT-74" x="1011.572266"/>
      <use xlink:href="#ArialMT-6e" x="1039.355469"/>
      <use xlink:href="#ArialMT-65" x="1094.970703"/>
      <use xlink:href="#ArialMT-73" x="1150.585938"/>
      <use xlink:href="#ArialMT-73" x="1200.585938"/>
     </g>
    </g>
   </g>
   <g id="PolyCollection_1">
    <defs>
     <path id="mcfb12e1006" d="M 59.674595 -73.622088 
L 59.640029 -73.622088 
L 59.621901 -74.605131 
L 59.596496 -75.588174 
L 59.561977 -76.571217 
L 59.516492 -77.55426 
L 59.458348 -78.537303 
L 59.386213 -79.520346 
L 59.299325 -80.503389 
L 59.197649 -81.486432 
L 59.08195 -82.469475 
L 58.953749 -83.452518 
L 58.81512 -84.435561 
L 58.668363 -85.418604 
L 58.515588 -86.401647 
L 58.358289 -87.38469 
L 58.197017 -88.367733 
L 58.031244 -89.350776 
L 57.859475 -90.333819 
L 57.679618 -91.316862 
L 57.489574 -92.299905 
L 57.287914 -93.282948 
L 57.074539 -94.265991 
L 56.851173 -95.249034 
L 56.621601 -96.232077 
L 56.391579 -97.21512 
L 56.168408 -98.198163 
L 55.960205 -99.181206 
L 55.77493 -100.164249 
L 55.619304 -101.147292 
L 55.497744 -102.130335 
L 55.411507 -103.113378 
L 55.358226 -104.096421 
L 55.331967 -105.079464 
L 55.323879 -106.062507 
L 55.323361 -107.04555 
L 55.319566 -108.028593 
L 55.302934 -109.011636 
L 55.26645 -109.994679 
L 55.206333 -110.977722 
L 55.122008 -111.960765 
L 55.01536 -112.943808 
L 54.889415 -113.926851 
L 54.74674 -114.909894 
L 54.587864 -115.892937 
L 54.410045 -116.87598 
L 54.206617 -117.859023 
L 53.967051 -118.842066 
L 53.677763 -119.825109 
L 53.323576 -120.808152 
L 52.889647 -121.791195 
L 52.363646 -122.774239 
L 51.737878 -123.757282 
L 51.011119 -124.740325 
L 50.189921 -125.723368 
L 49.289255 -126.706411 
L 48.332412 -127.689454 
L 47.350178 -128.672497 
L 46.379354 -129.65554 
L 45.46074 -130.638583 
L 44.636708 -131.621626 
L 43.948539 -132.604669 
L 43.433652 -133.587712 
L 43.122934 -134.570755 
L 43.038355 -135.553798 
L 43.191095 -136.536841 
L 43.580412 -137.519884 
L 44.19343 -138.502927 
L 45.00593 -139.48597 
L 45.984137 -140.469013 
L 47.087325 -141.452056 
L 48.270959 -142.435099 
L 49.490014 -143.418142 
L 50.702123 -144.401185 
L 51.870223 -145.384228 
L 52.964478 -146.367271 
L 53.963366 -147.350314 
L 54.853922 -148.333357 
L 55.631209 -149.3164 
L 56.297172 -150.299443 
L 56.859088 -151.282486 
L 57.327807 -152.265529 
L 57.716041 -153.248572 
L 58.036856 -154.231615 
L 58.302534 -155.214658 
L 58.523835 -156.197701 
L 58.709661 -157.180744 
L 58.867051 -158.163787 
L 59.001377 -159.14683 
L 59.116656 -160.129873 
L 59.215861 -161.112916 
L 59.301211 -162.095959 
L 59.374383 -163.079002 
L 59.436689 -164.062045 
L 59.489196 -165.045088 
L 59.532834 -166.028131 
L 59.568474 -167.011174 
L 59.59698 -167.994217 
L 59.619239 -168.97726 
L 59.63616 -169.960303 
L 59.648655 -170.943346 
L 59.674595 -170.943346 
L 59.674595 -170.943346 
L 59.674595 -169.960303 
L 59.674595 -168.97726 
L 59.674595 -167.994217 
L 59.674595 -167.011174 
L 59.674595 -166.028131 
L 59.674595 -165.045088 
L 59.674595 -164.062045 
L 59.674595 -163.079002 
L 59.674595 -162.095959 
L 59.674595 -161.112916 
L 59.674595 -160.129873 
L 59.674595 -159.14683 
L 59.674595 -158.163787 
L 59.674595 -157.180744 
L 59.674595 -156.197701 
L 59.674595 -155.214658 
L 59.674595 -154.231615 
L 59.674595 -153.248572 
L 59.674595 -152.265529 
L 59.674595 -151.282486 
L 59.674595 -150.299443 
L 59.674595 -149.3164 
L 59.674595 -148.333357 
L 59.674595 -147.350314 
L 59.674595 -146.367271 
L 59.674595 -145.384228 
L 59.674595 -144.401185 
L 59.674595 -143.418142 
L 59.674595 -142.435099 
L 59.674595 -141.452056 
L 59.674595 -140.469013 
L 59.674595 -139.48597 
L 59.674595 -138.502927 
L 59.674595 -137.519884 
L 59.674595 -136.536841 
L 59.674595 -135.553798 
L 59.674595 -134.570755 
L 59.674595 -133.587712 
L 59.674595 -132.604669 
L 59.674595 -131.621626 
L 59.674595 -130.638583 
L 59.674595 -129.65554 
L 59.674595 -128.672497 
L 59.674595 -127.689454 
L 59.674595 -126.706411 
L 59.674595 -125.723368 
L 59.674595 -124.740325 
L 59.674595 -123.757282 
L 59.674595 -122.774239 
L 59.674595 -121.791195 
L 59.674595 -120.808152 
L 59.674595 -119.825109 
L 59.674595 -118.842066 
L 59.674595 -117.859023 
L 59.674595 -116.87598 
L 59.674595 -115.892937 
L 59.674595 -114.909894 
L 59.674595 -113.926851 
L 59.674595 -112.943808 
L 59.674595 -111.960765 
L 59.674595 -110.977722 
L 59.674595 -109.994679 
L 59.674595 -109.011636 
L 59.674595 -108.028593 
L 59.674595 -107.04555 
L 59.674595 -106.062507 
L 59.674595 -105.079464 
L 59.674595 -104.096421 
L 59.674595 -103.113378 
L 59.674595 -102.130335 
L 59.674595 -101.147292 
L 59.674595 -100.164249 
L 59.674595 -99.181206 
L 59.674595 -98.198163 
L 59.674595 -97.21512 
L 59.674595 -96.232077 
L 59.674595 -95.249034 
L 59.674595 -94.265991 
L 59.674595 -93.282948 
L 59.674595 -92.299905 
L 59.674595 -91.316862 
L 59.674595 -90.333819 
L 59.674595 -89.350776 
L 59.674595 -88.367733 
L 59.674595 -87.38469 
L 59.674595 -86.401647 
L 59.674595 -85.418604 
L 59.674595 -84.435561 
L 59.674595 -83.452518 
L 59.674595 -82.469475 
L 59.674595 -81.486432 
L 59.674595 -80.503389 
L 59.674595 -79.520346 
L 59.674595 -78.537303 
L 59.674595 -77.55426 
L 59.674595 -76.571217 
L 59.674595 -75.588174 
L 59.674595 -74.605131 
L 59.674595 -73.622088 
z
"/>
    </defs>
    <g clip-path="url(#p61baa7005a)">
     <use xlink:href="#mcfb12e1006" x="0" y="180" style="fill: #2b8e70"/>
    </g>
   </g>
   <g id="PolyCollection_2">
    <path d="M 63.847968 216.488438 
L 63.833655 216.488438 
L 63.833655 214.567846 
L 63.833655 212.647254 
L 63.833655 210.726662 
L 63.833655 208.80607 
L 63.833655 206.885477 
L 63.833655 204.964885 
L 63.833655 203.044293 
L 63.833655 201.123701 
L 63.833655 199.203109 
L 63.833655 197.282516 
L 63.833655 195.361924 
L 63.833655 193.441332 
L 63.833655 191.52074 
L 63.833655 189.600148 
L 63.833655 187.679555 
L 63.833655 185.758963 
L 63.833655 183.838371 
L 63.833655 181.917779 
L 63.833655 179.997187 
L 63.833655 178.076594 
L 63.833655 176.156002 
L 63.833655 174.23541 
L 63.833655 172.314818 
L 63.833655 170.394226 
L 63.833655 168.473633 
L 63.833655 166.553041 
L 63.833655 164.632449 
L 63.833655 162.711857 
L 63.833655 160.791265 
L 63.833655 158.870672 
L 63.833655 156.95008 
L 63.833655 155.029488 
L 63.833655 153.108896 
L 63.833655 151.188304 
L 63.833655 149.267711 
L 63.833655 147.347119 
L 63.833655 145.426527 
L 63.833655 143.505935 
L 63.833655 141.585343 
L 63.833655 139.66475 
L 63.833655 137.744158 
L 63.833655 135.823566 
L 63.833655 133.902974 
L 63.833655 131.982382 
L 63.833655 130.061789 
L 63.833655 128.141197 
L 63.833655 126.220605 
L 63.833655 124.300013 
L 63.833655 122.379421 
L 63.833655 120.458828 
L 63.833655 118.538236 
L 63.833655 116.617644 
L 63.833655 114.697052 
L 63.833655 112.77646 
L 63.833655 110.855867 
L 63.833655 108.935275 
L 63.833655 107.014683 
L 63.833655 105.094091 
L 63.833655 103.173499 
L 63.833655 101.252906 
L 63.833655 99.332314 
L 63.833655 97.411722 
L 63.833655 95.49113 
L 63.833655 93.570538 
L 63.833655 91.649945 
L 63.833655 89.729353 
L 63.833655 87.808761 
L 63.833655 85.888169 
L 63.833655 83.967577 
L 63.833655 82.046984 
L 63.833655 80.126392 
L 63.833655 78.2058 
L 63.833655 76.285208 
L 63.833655 74.364616 
L 63.833655 72.444023 
L 63.833655 70.523431 
L 63.833655 68.602839 
L 63.833655 66.682247 
L 63.833655 64.761655 
L 63.833655 62.841062 
L 63.833655 60.92047 
L 63.833655 58.999878 
L 63.833655 57.079286 
L 63.833655 55.158694 
L 63.833655 53.238101 
L 63.833655 51.317509 
L 63.833655 49.396917 
L 63.833655 47.476325 
L 63.833655 45.555733 
L 63.833655 43.63514 
L 63.833655 41.714548 
L 63.833655 39.793956 
L 63.833655 37.873364 
L 63.833655 35.952772 
L 63.833655 34.032179 
L 63.833655 32.111587 
L 63.833655 30.190995 
L 63.833655 28.270403 
L 63.833655 26.349811 
L 63.85523 26.349811 
L 63.85523 26.349811 
L 63.882874 28.270403 
L 63.935643 30.190995 
L 64.027143 32.111587 
L 64.172042 34.032179 
L 64.382089 35.952772 
L 64.660712 37.873364 
L 64.998238 39.793956 
L 65.370723 41.714548 
L 65.743981 43.63514 
L 66.081381 45.555733 
L 66.352281 47.476325 
L 66.539634 49.396917 
L 66.647816 51.317509 
L 66.710574 53.238101 
L 66.794207 55.158694 
L 66.988214 57.079286 
L 67.380162 58.999878 
L 68.022377 60.92047 
L 68.907861 62.841062 
L 69.972499 64.761655 
L 71.125536 66.682247 
L 72.28896 68.602839 
L 73.41892 70.523431 
L 74.499917 72.444023 
L 75.527807 74.364616 
L 76.500368 76.285208 
L 77.411574 78.2058 
L 78.231965 80.126392 
L 78.87871 82.046984 
L 79.211101 83.967577 
L 79.082501 85.888169 
L 78.430737 87.808761 
L 77.343474 89.729353 
L 76.042362 91.649945 
L 74.786983 93.570538 
L 73.758508 95.49113 
L 72.995585 97.411722 
L 72.414016 99.332314 
L 71.882926 101.252906 
L 71.299668 103.173499 
L 70.621951 105.094091 
L 69.856573 107.014683 
L 69.032276 108.935275 
L 68.181615 110.855867 
L 67.336838 112.77646 
L 66.531497 114.697052 
L 65.800381 116.617644 
L 65.175774 118.538236 
L 64.680818 120.458828 
L 64.322512 122.379421 
L 64.088836 124.300013 
L 63.953088 126.220605 
L 63.883424 128.141197 
L 63.852021 130.061789 
L 63.839633 131.982382 
L 63.835366 133.902974 
L 63.834085 135.823566 
L 63.83375 137.744158 
L 63.833673 139.66475 
L 63.833658 141.585343 
L 63.833655 143.505935 
L 63.833655 145.426527 
L 63.833655 147.347119 
L 63.833655 149.267711 
L 63.833655 151.188304 
L 63.833655 153.108896 
L 63.833655 155.029488 
L 63.833655 156.95008 
L 63.833655 158.870672 
L 63.833655 160.791265 
L 63.833655 162.711857 
L 63.833655 164.632449 
L 63.833655 166.553041 
L 63.833655 168.473633 
L 63.833655 170.394226 
L 63.833655 172.314818 
L 63.833655 174.23541 
L 63.833655 176.156002 
L 63.833655 178.076594 
L 63.833655 179.997187 
L 63.833656 181.917779 
L 63.833663 183.838371 
L 63.833691 185.758963 
L 63.833806 187.679555 
L 63.8342 189.600148 
L 63.83537 191.52074 
L 63.838343 193.441332 
L 63.844791 195.361924 
L 63.856644 197.282516 
L 63.874897 199.203109 
L 63.897951 201.123701 
L 63.920761 203.044293 
L 63.936204 204.964885 
L 63.938571 206.885477 
L 63.926932 208.80607 
L 63.905721 210.726662 
L 63.882039 212.647254 
L 63.861885 214.567846 
L 63.847968 216.488438 
z
" clip-path="url(#p61baa7005a)" style="fill: #be631d"/>
   </g>
   <g id="PolyCollection_3">
    <defs>
     <path id="mf687c9679a" d="M 111.662845 -84.837056 
L 111.565446 -84.837056 
L 111.531958 -85.722406 
L 111.489347 -86.607756 
L 111.435922 -87.493106 
L 111.369902 -88.378455 
L 111.289475 -89.263805 
L 111.192871 -90.149155 
L 111.078442 -91.034504 
L 110.944769 -91.919854 
L 110.790772 -92.805204 
L 110.615826 -93.690554 
L 110.419896 -94.575903 
L 110.203651 -95.461253 
L 109.96858 -96.346603 
L 109.717083 -97.231952 
L 109.452521 -98.117302 
L 109.179222 -99.002652 
L 108.902415 -99.888002 
L 108.628098 -100.773351 
L 108.362808 -101.658701 
L 108.113324 -102.544051 
L 107.886291 -103.4294 
L 107.687802 -104.31475 
L 107.522955 -105.2001 
L 107.39544 -106.08545 
L 107.307184 -106.970799 
L 107.2581 -107.856149 
L 107.245966 -108.741499 
L 107.266465 -109.626848 
L 107.313367 -110.512198 
L 107.37886 -111.397548 
L 107.45398 -112.282898 
L 107.52911 -113.168247 
L 107.59449 -114.053597 
L 107.640693 -114.938947 
L 107.659027 -115.824296 
L 107.641836 -116.709646 
L 107.582691 -117.594996 
L 107.47648 -118.480346 
L 107.319413 -119.365695 
L 107.10899 -120.251045 
L 106.843937 -121.136395 
L 106.524174 -122.021744 
L 106.150806 -122.907094 
L 105.726161 -123.792444 
L 105.253848 -124.677794 
L 104.738839 -125.563143 
L 104.187518 -126.448493 
L 103.607681 -127.333843 
L 103.008454 -128.219192 
L 102.400114 -129.104542 
L 101.793795 -129.989892 
L 101.201114 -130.875242 
L 100.633706 -131.760591 
L 100.102743 -132.645941 
L 99.618453 -133.531291 
L 99.189691 -134.41664 
L 98.823613 -135.30199 
L 98.525474 -136.18734 
L 98.298571 -137.07269 
L 98.144335 -137.958039 
L 98.062553 -138.843389 
L 98.051689 -139.728739 
L 98.10926 -140.614088 
L 98.232218 -141.499438 
L 98.417283 -142.384788 
L 98.661193 -143.270138 
L 98.960838 -144.155487 
L 99.313264 -145.040837 
L 99.715567 -145.926187 
L 100.164706 -146.811536 
L 100.65726 -147.696886 
L 101.189201 -148.582236 
L 101.755713 -149.467585 
L 102.351101 -150.352935 
L 102.968805 -151.238285 
L 103.601532 -152.123635 
L 104.241485 -153.008984 
L 104.880657 -153.894334 
L 105.51117 -154.779684 
L 106.125596 -155.665033 
L 106.717246 -156.550383 
L 107.280389 -157.435733 
L 107.810396 -158.321083 
L 108.303798 -159.206432 
L 108.758276 -160.091782 
L 109.172584 -160.977132 
L 109.546444 -161.862481 
L 109.880408 -162.747831 
L 110.175718 -163.633181 
L 110.43417 -164.518531 
L 110.657989 -165.40388 
L 110.849714 -166.28923 
L 111.012098 -167.17458 
L 111.148019 -168.059929 
L 111.260399 -168.945279 
L 111.352132 -169.830629 
L 111.426019 -170.715979 
L 111.484714 -171.601328 
L 111.530679 -172.486678 
L 111.662845 -172.486678 
L 111.662845 -172.486678 
L 111.662845 -171.601328 
L 111.662845 -170.715979 
L 111.662845 -169.830629 
L 111.662845 -168.945279 
L 111.662845 -168.059929 
L 111.662845 -167.17458 
L 111.662845 -166.28923 
L 111.662845 -165.40388 
L 111.662845 -164.518531 
L 111.662845 -163.633181 
L 111.662845 -162.747831 
L 111.662845 -161.862481 
L 111.662845 -160.977132 
L 111.662845 -160.091782 
L 111.662845 -159.206432 
L 111.662845 -158.321083 
L 111.662845 -157.435733 
L 111.662845 -156.550383 
L 111.662845 -155.665033 
L 111.662845 -154.779684 
L 111.662845 -153.894334 
L 111.662845 -153.008984 
L 111.662845 -152.123635 
L 111.662845 -151.238285 
L 111.662845 -150.352935 
L 111.662845 -149.467585 
L 111.662845 -148.582236 
L 111.662845 -147.696886 
L 111.662845 -146.811536 
L 111.662845 -145.926187 
L 111.662845 -145.040837 
L 111.662845 -144.155487 
L 111.662845 -143.270138 
L 111.662845 -142.384788 
L 111.662845 -141.499438 
L 111.662845 -140.614088 
L 111.662845 -139.728739 
L 111.662845 -138.843389 
L 111.662845 -137.958039 
L 111.662845 -137.07269 
L 111.662845 -136.18734 
L 111.662845 -135.30199 
L 111.662845 -134.41664 
L 111.662845 -133.531291 
L 111.662845 -132.645941 
L 111.662845 -131.760591 
L 111.662845 -130.875242 
L 111.662845 -129.989892 
L 111.662845 -129.104542 
L 111.662845 -128.219192 
L 111.662845 -127.333843 
L 111.662845 -126.448493 
L 111.662845 -125.563143 
L 111.662845 -124.677794 
L 111.662845 -123.792444 
L 111.662845 -122.907094 
L 111.662845 -122.021744 
L 111.662845 -121.136395 
L 111.662845 -120.251045 
L 111.662845 -119.365695 
L 111.662845 -118.480346 
L 111.662845 -117.594996 
L 111.662845 -116.709646 
L 111.662845 -115.824296 
L 111.662845 -114.938947 
L 111.662845 -114.053597 
L 111.662845 -113.168247 
L 111.662845 -112.282898 
L 111.662845 -111.397548 
L 111.662845 -110.512198 
L 111.662845 -109.626848 
L 111.662845 -108.741499 
L 111.662845 -107.856149 
L 111.662845 -106.970799 
L 111.662845 -106.08545 
L 111.662845 -105.2001 
L 111.662845 -104.31475 
L 111.662845 -103.4294 
L 111.662845 -102.544051 
L 111.662845 -101.658701 
L 111.662845 -100.773351 
L 111.662845 -99.888002 
L 111.662845 -99.002652 
L 111.662845 -98.117302 
L 111.662845 -97.231952 
L 111.662845 -96.346603 
L 111.662845 -95.461253 
L 111.662845 -94.575903 
L 111.662845 -93.690554 
L 111.662845 -92.805204 
L 111.662845 -91.919854 
L 111.662845 -91.034504 
L 111.662845 -90.149155 
L 111.662845 -89.263805 
L 111.662845 -88.378455 
L 111.662845 -87.493106 
L 111.662845 -86.607756 
L 111.662845 -85.722406 
L 111.662845 -84.837056 
z
"/>
    </defs>
    <g clip-path="url(#p61baa7005a)">
     <use xlink:href="#mf687c9679a" x="0" y="180" style="fill: #2b8e70"/>
    </g>
   </g>
   <g id="PolyCollection_4">
    <defs>
     <path id="m9e2ce4d2d9" d="M 115.880936 -60.001525 
L 115.821905 -60.001525 
L 115.821905 -60.976304 
L 115.821905 -61.951083 
L 115.821905 -62.925861 
L 115.821905 -63.90064 
L 115.821905 -64.875419 
L 115.821905 -65.850197 
L 115.821905 -66.824976 
L 115.821905 -67.799755 
L 115.821905 -68.774533 
L 115.821905 -69.749312 
L 115.821905 -70.724091 
L 115.821905 -71.698869 
L 115.821905 -72.673648 
L 115.821905 -73.648427 
L 115.821905 -74.623205 
L 115.821905 -75.597984 
L 115.821905 -76.572763 
L 115.821905 -77.547541 
L 115.821905 -78.52232 
L 115.821905 -79.497099 
L 115.821905 -80.471877 
L 115.821905 -81.446656 
L 115.821905 -82.421435 
L 115.821905 -83.396213 
L 115.821905 -84.370992 
L 115.821905 -85.345771 
L 115.821905 -86.320549 
L 115.821905 -87.295328 
L 115.821905 -88.270107 
L 115.821905 -89.244885 
L 115.821905 -90.219664 
L 115.821905 -91.194443 
L 115.821905 -92.169221 
L 115.821905 -93.144 
L 115.821905 -94.118779 
L 115.821905 -95.093557 
L 115.821905 -96.068336 
L 115.821905 -97.043115 
L 115.821905 -98.017893 
L 115.821905 -98.992672 
L 115.821905 -99.967451 
L 115.821905 -100.942229 
L 115.821905 -101.917008 
L 115.821905 -102.891787 
L 115.821905 -103.866565 
L 115.821905 -104.841344 
L 115.821905 -105.816123 
L 115.821905 -106.790901 
L 115.821905 -107.76568 
L 115.821905 -108.740459 
L 115.821905 -109.715238 
L 115.821905 -110.690016 
L 115.821905 -111.664795 
L 115.821905 -112.639574 
L 115.821905 -113.614352 
L 115.821905 -114.589131 
L 115.821905 -115.56391 
L 115.821905 -116.538688 
L 115.821905 -117.513467 
L 115.821905 -118.488246 
L 115.821905 -119.463024 
L 115.821905 -120.437803 
L 115.821905 -121.412582 
L 115.821905 -122.38736 
L 115.821905 -123.362139 
L 115.821905 -124.336918 
L 115.821905 -125.311696 
L 115.821905 -126.286475 
L 115.821905 -127.261254 
L 115.821905 -128.236032 
L 115.821905 -129.210811 
L 115.821905 -130.18559 
L 115.821905 -131.160368 
L 115.821905 -132.135147 
L 115.821905 -133.109926 
L 115.821905 -134.084704 
L 115.821905 -135.059483 
L 115.821905 -136.034262 
L 115.821905 -137.00904 
L 115.821905 -137.983819 
L 115.821905 -138.958598 
L 115.821905 -139.933376 
L 115.821905 -140.908155 
L 115.821905 -141.882934 
L 115.821905 -142.857712 
L 115.821905 -143.832491 
L 115.821905 -144.80727 
L 115.821905 -145.782048 
L 115.821905 -146.756827 
L 115.821905 -147.731606 
L 115.821905 -148.706384 
L 115.821905 -149.681163 
L 115.821905 -150.655942 
L 115.821905 -151.63072 
L 115.821905 -152.605499 
L 115.821905 -153.580278 
L 115.821905 -154.555056 
L 115.821905 -155.529835 
L 115.821905 -156.504614 
L 115.903618 -156.504614 
L 115.903618 -156.504614 
L 115.9408 -155.529835 
L 115.989922 -154.555056 
L 116.052588 -153.580278 
L 116.129752 -152.605499 
L 116.221413 -151.63072 
L 116.326392 -150.655942 
L 116.442235 -149.681163 
L 116.565317 -148.706384 
L 116.691155 -147.731606 
L 116.814926 -146.756827 
L 116.93213 -145.782048 
L 117.039309 -144.80727 
L 117.134711 -143.832491 
L 117.218824 -142.857712 
L 117.294676 -141.882934 
L 117.3679 -140.908155 
L 117.446538 -139.933376 
L 117.540641 -138.958598 
L 117.661689 -137.983819 
L 117.821895 -137.00904 
L 118.033433 -136.034262 
L 118.307634 -135.059483 
L 118.654186 -134.084704 
L 119.080398 -133.109926 
L 119.590546 -132.135147 
L 120.185383 -131.160368 
L 120.861806 -130.18559 
L 121.612731 -129.210811 
L 122.427186 -128.236032 
L 123.290629 -127.261254 
L 124.185515 -126.286475 
L 125.092151 -125.311696 
L 125.989826 -124.336918 
L 126.858213 -123.362139 
L 127.678922 -122.38736 
L 128.437032 -121.412582 
L 129.122351 -120.437803 
L 129.730134 -119.463024 
L 130.261045 -118.488246 
L 130.720261 -117.513467 
L 131.115806 -116.538688 
L 131.456377 -115.56391 
L 131.749065 -114.589131 
L 131.997428 -113.614352 
L 132.200331 -112.639574 
L 132.351782 -111.664795 
L 132.441801 -110.690016 
L 132.458145 -109.715238 
L 132.388497 -108.740459 
L 132.22272 -107.76568 
L 131.954761 -106.790901 
L 131.58391 -105.816123 
L 131.115309 -104.841344 
L 130.559702 -103.866565 
L 129.932547 -102.891787 
L 129.252655 -101.917008 
L 128.540526 -100.942229 
L 127.816542 -99.967451 
L 127.099207 -98.992672 
L 126.403593 -98.017893 
L 125.740228 -97.043115 
L 125.114579 -96.068336 
L 124.527258 -95.093557 
L 123.97494 -94.118779 
L 123.451849 -93.144 
L 122.951509 -92.169221 
L 122.468415 -91.194443 
L 121.999262 -90.219664 
L 121.543511 -89.244885 
L 121.103199 -88.270107 
L 120.682142 -87.295328 
L 120.284753 -86.320549 
L 119.91484 -85.345771 
L 119.574659 -84.370992 
L 119.264433 -83.396213 
L 118.982389 -82.421435 
L 118.725226 -81.446656 
L 118.48884 -80.471877 
L 118.269085 -79.497099 
L 118.06239 -78.52232 
L 117.866119 -77.547541 
L 117.678652 -76.572763 
L 117.499235 -75.597984 
L 117.327716 -74.623205 
L 117.164257 -73.648427 
L 117.00912 -72.673648 
L 116.862557 -71.698869 
L 116.724806 -70.724091 
L 116.596136 -69.749312 
L 116.476911 -68.774533 
L 116.367604 -67.799755 
L 116.268754 -66.824976 
L 116.180866 -65.850197 
L 116.104288 -64.875419 
L 116.039085 -63.90064 
L 115.984968 -62.925861 
L 115.941273 -61.951083 
L 115.907005 -60.976304 
L 115.880936 -60.001525 
z
"/>
    </defs>
    <g clip-path="url(#p61baa7005a)">
     <use xlink:href="#m9e2ce4d2d9" x="0" y="180" style="fill: #be631d"/>
    </g>
   </g>
   <g id="PolyCollection_5">
    <path d="M 163.651095 204.158322 
L 163.615332 204.158322 
L 163.594829 202.06051 
L 163.567572 199.962697 
L 163.534113 197.864885 
L 163.496505 195.767072 
L 163.458346 193.66926 
L 163.424341 191.571447 
L 163.399404 189.473635 
L 163.387504 187.375822 
L 163.390634 185.27801 
L 163.408263 183.180197 
L 163.437485 181.082385 
L 163.473805 178.984572 
L 163.51226 176.88676 
L 163.548515 174.788947 
L 163.579583 172.691135 
L 163.604057 170.593322 
L 163.621903 168.49551 
L 163.634002 166.397697 
L 163.641651 164.299885 
L 163.646172 162.202072 
L 163.648674 160.10426 
L 163.649971 158.006447 
L 163.650603 155.908635 
L 163.650892 153.810822 
L 163.651016 151.71301 
L 163.651066 149.615197 
L 163.651084 147.517385 
L 163.65109 145.419572 
L 163.651088 143.32176 
L 163.651077 141.223947 
L 163.651044 139.126135 
L 163.650958 137.028322 
L 163.650751 134.93051 
L 163.650276 132.832697 
L 163.649253 130.734885 
L 163.647176 128.637072 
L 163.643208 126.53926 
L 163.636071 124.441447 
L 163.623986 122.343635 
L 163.60472 120.245822 
L 163.575796 118.14801 
L 163.534853 116.050197 
L 163.480079 113.952385 
L 163.410504 111.854572 
L 163.325867 109.75676 
L 163.225836 107.658947 
L 163.108507 105.561135 
L 162.968478 103.463322 
L 162.795119 101.36551 
L 162.571874 99.267697 
L 162.277395 97.169885 
L 161.888873 95.072072 
L 161.387311 92.97426 
L 160.76372 90.876447 
L 160.024634 88.778635 
L 159.195147 86.680822 
L 158.317921 84.58301 
L 157.447475 82.485197 
L 156.640454 80.387385 
L 155.944036 78.289572 
L 155.385838 76.19176 
L 154.968765 74.093947 
L 154.672932 71.996135 
L 154.464323 69.898322 
L 154.307193 67.80051 
L 154.175664 65.702697 
L 154.060483 63.604885 
L 153.969194 61.507072 
L 153.921001 59.40926 
L 153.939576 57.311447 
L 154.047173 55.213635 
L 154.261671 53.115822 
L 154.595941 51.01801 
L 155.057577 48.920197 
L 155.6473 46.822385 
L 156.35593 44.724572 
L 157.161481 42.62676 
L 158.028614 40.528947 
L 158.911905 38.431135 
L 159.762637 36.333322 
L 160.537165 34.23551 
L 161.20413 32.137697 
L 161.748365 30.039885 
L 162.17071 27.942072 
L 162.484484 25.84426 
L 162.710292 23.746447 
L 162.870912 21.648635 
L 162.987451 19.550822 
L 163.077135 17.45301 
L 163.152485 15.355197 
L 163.221413 13.257385 
L 163.287829 11.159572 
L 163.352525 9.06176 
L 163.414231 6.963947 
L 163.470717 4.866135 
L 163.519798 2.768322 
L 163.560037 0.67051 
L 163.591072 -1.427303 
L 163.61356 -3.525115 
L 163.651095 -3.525115 
L 163.651095 -3.525115 
L 163.651095 -1.427303 
L 163.651095 0.67051 
L 163.651095 2.768322 
L 163.651095 4.866135 
L 163.651095 6.963947 
L 163.651095 9.06176 
L 163.651095 11.159572 
L 163.651095 13.257385 
L 163.651095 15.355197 
L 163.651095 17.45301 
L 163.651095 19.550822 
L 163.651095 21.648635 
L 163.651095 23.746447 
L 163.651095 25.84426 
L 163.651095 27.942072 
L 163.651095 30.039885 
L 163.651095 32.137697 
L 163.651095 34.23551 
L 163.651095 36.333322 
L 163.651095 38.431135 
L 163.651095 40.528947 
L 163.651095 42.62676 
L 163.651095 44.724572 
L 163.651095 46.822385 
L 163.651095 48.920197 
L 163.651095 51.01801 
L 163.651095 53.115822 
L 163.651095 55.213635 
L 163.651095 57.311447 
L 163.651095 59.40926 
L 163.651095 61.507072 
L 163.651095 63.604885 
L 163.651095 65.702697 
L 163.651095 67.80051 
L 163.651095 69.898322 
L 163.651095 71.996135 
L 163.651095 74.093947 
L 163.651095 76.19176 
L 163.651095 78.289572 
L 163.651095 80.387385 
L 163.651095 82.485197 
L 163.651095 84.58301 
L 163.651095 86.680822 
L 163.651095 88.778635 
L 163.651095 90.876447 
L 163.651095 92.97426 
L 163.651095 95.072072 
L 163.651095 97.169885 
L 163.651095 99.267697 
L 163.651095 101.36551 
L 163.651095 103.463322 
L 163.651095 105.561135 
L 163.651095 107.658947 
L 163.651095 109.75676 
L 163.651095 111.854572 
L 163.651095 113.952385 
L 163.651095 116.050197 
L 163.651095 118.14801 
L 163.651095 120.245822 
L 163.651095 122.343635 
L 163.651095 124.441447 
L 163.651095 126.53926 
L 163.651095 128.637072 
L 163.651095 130.734885 
L 163.651095 132.832697 
L 163.651095 134.93051 
L 163.651095 137.028322 
L 163.651095 139.126135 
L 163.651095 141.223947 
L 163.651095 143.32176 
L 163.651095 145.419572 
L 163.651095 147.517385 
L 163.651095 149.615197 
L 163.651095 151.71301 
L 163.651095 153.810822 
L 163.651095 155.908635 
L 163.651095 158.006447 
L 163.651095 160.10426 
L 163.651095 162.202072 
L 163.651095 164.299885 
L 163.651095 166.397697 
L 163.651095 168.49551 
L 163.651095 170.593322 
L 163.651095 172.691135 
L 163.651095 174.788947 
L 163.651095 176.88676 
L 163.651095 178.984572 
L 163.651095 181.082385 
L 163.651095 183.180197 
L 163.651095 185.27801 
L 163.651095 187.375822 
L 163.651095 189.473635 
L 163.651095 191.571447 
L 163.651095 193.66926 
L 163.651095 195.767072 
L 163.651095 197.864885 
L 163.651095 199.962697 
L 163.651095 202.06051 
L 163.651095 204.158322 
z
" clip-path="url(#p61baa7005a)" style="fill: #2b8e70"/>
   </g>
   <g id="PolyCollection_6">
    <defs>
     <path id="m3f52b17a35" d="M 167.848154 13.240527 
L 167.810155 13.240527 
L 167.810155 11.630081 
L 167.810155 10.019635 
L 167.810155 8.409188 
L 167.810155 6.798742 
L 167.810155 5.188296 
L 167.810155 3.57785 
L 167.810155 1.967403 
L 167.810155 0.356957 
L 167.810155 -1.253489 
L 167.810155 -2.863935 
L 167.810155 -4.474381 
L 167.810155 -6.084828 
L 167.810155 -7.695274 
L 167.810155 -9.30572 
L 167.810155 -10.916166 
L 167.810155 -12.526613 
L 167.810155 -14.137059 
L 167.810155 -15.747505 
L 167.810155 -17.357951 
L 167.810155 -18.968397 
L 167.810155 -20.578844 
L 167.810155 -22.18929 
L 167.810155 -23.799736 
L 167.810155 -25.410182 
L 167.810155 -27.020629 
L 167.810155 -28.631075 
L 167.810155 -30.241521 
L 167.810155 -31.851967 
L 167.810155 -33.462413 
L 167.810155 -35.07286 
L 167.810155 -36.683306 
L 167.810155 -38.293752 
L 167.810155 -39.904198 
L 167.810155 -41.514645 
L 167.810155 -43.125091 
L 167.810155 -44.735537 
L 167.810155 -46.345983 
L 167.810155 -47.95643 
L 167.810155 -49.566876 
L 167.810155 -51.177322 
L 167.810155 -52.787768 
L 167.810155 -54.398214 
L 167.810155 -56.008661 
L 167.810155 -57.619107 
L 167.810155 -59.229553 
L 167.810155 -60.839999 
L 167.810155 -62.450446 
L 167.810155 -64.060892 
L 167.810155 -65.671338 
L 167.810155 -67.281784 
L 167.810155 -68.89223 
L 167.810155 -70.502677 
L 167.810155 -72.113123 
L 167.810155 -73.723569 
L 167.810155 -75.334015 
L 167.810155 -76.944462 
L 167.810155 -78.554908 
L 167.810155 -80.165354 
L 167.810155 -81.7758 
L 167.810155 -83.386246 
L 167.810155 -84.996693 
L 167.810155 -86.607139 
L 167.810155 -88.217585 
L 167.810155 -89.828031 
L 167.810155 -91.438478 
L 167.810155 -93.048924 
L 167.810155 -94.65937 
L 167.810155 -96.269816 
L 167.810155 -97.880262 
L 167.810155 -99.490709 
L 167.810155 -101.101155 
L 167.810155 -102.711601 
L 167.810155 -104.322047 
L 167.810155 -105.932494 
L 167.810155 -107.54294 
L 167.810155 -109.153386 
L 167.810155 -110.763832 
L 167.810155 -112.374279 
L 167.810155 -113.984725 
L 167.810155 -115.595171 
L 167.810155 -117.205617 
L 167.810155 -118.816063 
L 167.810155 -120.42651 
L 167.810155 -122.036956 
L 167.810155 -123.647402 
L 167.810155 -125.257848 
L 167.810155 -126.868295 
L 167.810155 -128.478741 
L 167.810155 -130.089187 
L 167.810155 -131.699633 
L 167.810155 -133.310079 
L 167.810155 -134.920526 
L 167.810155 -136.530972 
L 167.810155 -138.141418 
L 167.810155 -139.751864 
L 167.810155 -141.362311 
L 167.810155 -142.972757 
L 167.810155 -144.583203 
L 167.810155 -146.193649 
L 167.911072 -146.193649 
L 167.911072 -146.193649 
L 167.985842 -144.583203 
L 168.098567 -142.972757 
L 168.257593 -141.362311 
L 168.467933 -139.751864 
L 168.729534 -138.141418 
L 169.036812 -136.530972 
L 169.379867 -134.920526 
L 169.747113 -133.310079 
L 170.128338 -131.699633 
L 170.516955 -130.089187 
L 170.910665 -128.478741 
L 171.310675 -126.868295 
L 171.720491 -125.257848 
L 172.145531 -123.647402 
L 172.594146 -122.036956 
L 173.079384 -120.42651 
L 173.619895 -118.816063 
L 174.23829 -117.205617 
L 174.956381 -115.595171 
L 175.78831 -113.984725 
L 176.733694 -112.374279 
L 177.772976 -110.763832 
L 178.866378 -109.153386 
L 179.956911 -107.54294 
L 180.977168 -105.932494 
L 181.859108 -104.322047 
L 182.545168 -102.711601 
L 182.998179 -101.101155 
L 183.207207 -99.490709 
L 183.187413 -97.880262 
L 182.973987 -96.269816 
L 182.612153 -94.65937 
L 182.146195 -93.048924 
L 181.610291 -91.438478 
L 181.023095 -89.828031 
L 180.387123 -88.217585 
L 179.692902 -86.607139 
L 178.926584 -84.996693 
L 178.078496 -83.386246 
L 177.149677 -81.7758 
L 176.154313 -80.165354 
L 175.117833 -78.554908 
L 174.07221 -76.944462 
L 173.050733 -75.334015 
L 172.084009 -73.723569 
L 171.197709 -72.113123 
L 170.411554 -70.502677 
L 169.738713 -68.89223 
L 169.185196 -67.281784 
L 168.749442 -65.671338 
L 168.422636 -64.060892 
L 168.190113 -62.450446 
L 168.033729 -60.839999 
L 167.93461 -59.229553 
L 167.875549 -57.619107 
L 167.842527 -56.008661 
L 167.825229 -54.398214 
L 167.816749 -52.787768 
L 167.812862 -51.177322 
L 167.811197 -49.566876 
L 167.810531 -47.95643 
L 167.810282 -46.345983 
L 167.810195 -44.735537 
L 167.810167 -43.125091 
L 167.810158 -41.514645 
L 167.810156 -39.904198 
L 167.810155 -38.293752 
L 167.810155 -36.683306 
L 167.810155 -35.07286 
L 167.810155 -33.462413 
L 167.810155 -31.851967 
L 167.810156 -30.241521 
L 167.810157 -28.631075 
L 167.810163 -27.020629 
L 167.810182 -25.410182 
L 167.810234 -23.799736 
L 167.810377 -22.18929 
L 167.810734 -20.578844 
L 167.811563 -18.968397 
L 167.813354 -17.357951 
L 167.816937 -15.747505 
L 167.823574 -14.137059 
L 167.834935 -12.526613 
L 167.852863 -10.916166 
L 167.878853 -9.30572 
L 167.913291 -7.695274 
L 167.954666 -6.084828 
L 167.999135 -4.474381 
L 168.040807 -2.863935 
L 168.072894 -1.253489 
L 168.089485 0.356957 
L 168.087318 1.967403 
L 168.066827 3.57785 
L 168.031999 5.188296 
L 167.989109 6.798742 
L 167.944884 8.409188 
L 167.904824 10.019635 
L 167.872239 11.630081 
L 167.848154 13.240527 
z
"/>
    </defs>
    <g clip-path="url(#p61baa7005a)">
     <use xlink:href="#m3f52b17a35" x="0" y="180" style="fill: #be631d"/>
    </g>
   </g>
   <g id="PolyCollection_7">
    <defs>
     <path id="m956e2cd16c" d="M 215.639345 -61.461298 
L 215.612743 -61.461298 
L 215.60084 -62.536468 
L 215.584911 -63.611639 
L 215.564106 -64.686809 
L 215.537549 -65.761979 
L 215.504365 -66.837149 
L 215.463712 -67.912319 
L 215.414804 -68.98749 
L 215.356945 -70.06266 
L 215.289554 -71.13783 
L 215.212213 -72.213 
L 215.124704 -73.28817 
L 215.027054 -74.363341 
L 214.919555 -75.438511 
L 214.802748 -76.513681 
L 214.677337 -77.588851 
L 214.544042 -78.664021 
L 214.403385 -79.739192 
L 214.255446 -80.814362 
L 214.099635 -81.889532 
L 213.934549 -82.964702 
L 213.757964 -84.039872 
L 213.566986 -85.115043 
L 213.358382 -86.190213 
L 213.129038 -87.265383 
L 212.876477 -88.340553 
L 212.599356 -89.415723 
L 212.297869 -90.490894 
L 211.97399 -91.566064 
L 211.631561 -92.641234 
L 211.276223 -93.716404 
L 210.915256 -94.791574 
L 210.557353 -95.866745 
L 210.212363 -96.941915 
L 209.890993 -98.017085 
L 209.604418 -99.092255 
L 209.363761 -100.167425 
L 209.179389 -101.242596 
L 209.060048 -102.317766 
L 209.011895 -103.392936 
L 209.037565 -104.468106 
L 209.135422 -105.543276 
L 209.299161 -106.618447 
L 209.517837 -107.693617 
L 209.776353 -108.768787 
L 210.056327 -109.843957 
L 210.337201 -110.919127 
L 210.597414 -111.994298 
L 210.815513 -113.069468 
L 210.971082 -114.144638 
L 211.045496 -115.219808 
L 211.022523 -116.294978 
L 210.88887 -117.370148 
L 210.634758 -118.445319 
L 210.254594 -119.520489 
L 209.747732 -120.595659 
L 209.119302 -121.670829 
L 208.380975 -122.745999 
L 207.551521 -123.82117 
L 206.656985 -124.89634 
L 205.730301 -125.97151 
L 204.810198 -127.04668 
L 203.939335 -128.12185 
L 203.161699 -129.197021 
L 202.519426 -130.272191 
L 202.049386 -131.347361 
L 201.779903 -132.422531 
L 201.728106 -133.497701 
L 201.898304 -134.572872 
L 202.281659 -135.648042 
L 202.857255 -136.723212 
L 203.594386 -137.798382 
L 204.455731 -138.873552 
L 205.400931 -139.948723 
L 206.390054 -141.023893 
L 207.386541 -142.099063 
L 208.359315 -143.174233 
L 209.283972 -144.249403 
L 210.143089 -145.324574 
L 210.925834 -146.399744 
L 211.627105 -147.474914 
L 212.246429 -148.550084 
L 212.786803 -149.625254 
L 213.253608 -150.700425 
L 213.653668 -151.775595 
L 213.994471 -152.850765 
L 214.283557 -153.925935 
L 214.528071 -155.001105 
L 214.734466 -156.076276 
L 214.908343 -157.151446 
L 215.054419 -158.226616 
L 215.176594 -159.301786 
L 215.278076 -160.376956 
L 215.361554 -161.452127 
L 215.429347 -162.527297 
L 215.483539 -163.602467 
L 215.526065 -164.677637 
L 215.558745 -165.752807 
L 215.58329 -166.827978 
L 215.601278 -167.903148 
L 215.639345 -167.903148 
L 215.639345 -167.903148 
L 215.639345 -166.827978 
L 215.639345 -165.752807 
L 215.639345 -164.677637 
L 215.639345 -163.602467 
L 215.639345 -162.527297 
L 215.639345 -161.452127 
L 215.639345 -160.376956 
L 215.639345 -159.301786 
L 215.639345 -158.226616 
L 215.639345 -157.151446 
L 215.639345 -156.076276 
L 215.639345 -155.001105 
L 215.639345 -153.925935 
L 215.639345 -152.850765 
L 215.639345 -151.775595 
L 215.639345 -150.700425 
L 215.639345 -149.625254 
L 215.639345 -148.550084 
L 215.639345 -147.474914 
L 215.639345 -146.399744 
L 215.639345 -145.324574 
L 215.639345 -144.249403 
L 215.639345 -143.174233 
L 215.639345 -142.099063 
L 215.639345 -141.023893 
L 215.639345 -139.948723 
L 215.639345 -138.873552 
L 215.639345 -137.798382 
L 215.639345 -136.723212 
L 215.639345 -135.648042 
L 215.639345 -134.572872 
L 215.639345 -133.497701 
L 215.639345 -132.422531 
L 215.639345 -131.347361 
L 215.639345 -130.272191 
L 215.639345 -129.197021 
L 215.639345 -128.12185 
L 215.639345 -127.04668 
L 215.639345 -125.97151 
L 215.639345 -124.89634 
L 215.639345 -123.82117 
L 215.639345 -122.745999 
L 215.639345 -121.670829 
L 215.639345 -120.595659 
L 215.639345 -119.520489 
L 215.639345 -118.445319 
L 215.639345 -117.370148 
L 215.639345 -116.294978 
L 215.639345 -115.219808 
L 215.639345 -114.144638 
L 215.639345 -113.069468 
L 215.639345 -111.994298 
L 215.639345 -110.919127 
L 215.639345 -109.843957 
L 215.639345 -108.768787 
L 215.639345 -107.693617 
L 215.639345 -106.618447 
L 215.639345 -105.543276 
L 215.639345 -104.468106 
L 215.639345 -103.392936 
L 215.639345 -102.317766 
L 215.639345 -101.242596 
L 215.639345 -100.167425 
L 215.639345 -99.092255 
L 215.639345 -98.017085 
L 215.639345 -96.941915 
L 215.639345 -95.866745 
L 215.639345 -94.791574 
L 215.639345 -93.716404 
L 215.639345 -92.641234 
L 215.639345 -91.566064 
L 215.639345 -90.490894 
L 215.639345 -89.415723 
L 215.639345 -88.340553 
L 215.639345 -87.265383 
L 215.639345 -86.190213 
L 215.639345 -85.115043 
L 215.639345 -84.039872 
L 215.639345 -82.964702 
L 215.639345 -81.889532 
L 215.639345 -80.814362 
L 215.639345 -79.739192 
L 215.639345 -78.664021 
L 215.639345 -77.588851 
L 215.639345 -76.513681 
L 215.639345 -75.438511 
L 215.639345 -74.363341 
L 215.639345 -73.28817 
L 215.639345 -72.213 
L 215.639345 -71.13783 
L 215.639345 -70.06266 
L 215.639345 -68.98749 
L 215.639345 -67.912319 
L 215.639345 -66.837149 
L 215.639345 -65.761979 
L 215.639345 -64.686809 
L 215.639345 -63.611639 
L 215.639345 -62.536468 
L 215.639345 -61.461298 
z
"/>
    </defs>
    <g clip-path="url(#p61baa7005a)">
     <use xlink:href="#m956e2cd16c" x="0" y="180" style="fill: #2b8e70"/>
    </g>
   </g>
   <g id="PolyCollection_8">
    <defs>
     <path id="mb663b459d2" d="M 219.813498 -13.488651 
L 219.798405 -13.488651 
L 219.798405 -15.041096 
L 219.798405 -16.59354 
L 219.798405 -18.145985 
L 219.798405 -19.69843 
L 219.798405 -21.250874 
L 219.798405 -22.803319 
L 219.798405 -24.355764 
L 219.798405 -25.908209 
L 219.798405 -27.460653 
L 219.798405 -29.013098 
L 219.798405 -30.565543 
L 219.798405 -32.117987 
L 219.798405 -33.670432 
L 219.798405 -35.222877 
L 219.798405 -36.775321 
L 219.798405 -38.327766 
L 219.798405 -39.880211 
L 219.798405 -41.432655 
L 219.798405 -42.9851 
L 219.798405 -44.537545 
L 219.798405 -46.08999 
L 219.798405 -47.642434 
L 219.798405 -49.194879 
L 219.798405 -50.747324 
L 219.798405 -52.299768 
L 219.798405 -53.852213 
L 219.798405 -55.404658 
L 219.798405 -56.957102 
L 219.798405 -58.509547 
L 219.798405 -60.061992 
L 219.798405 -61.614437 
L 219.798405 -63.166881 
L 219.798405 -64.719326 
L 219.798405 -66.271771 
L 219.798405 -67.824215 
L 219.798405 -69.37666 
L 219.798405 -70.929105 
L 219.798405 -72.481549 
L 219.798405 -74.033994 
L 219.798405 -75.586439 
L 219.798405 -77.138884 
L 219.798405 -78.691328 
L 219.798405 -80.243773 
L 219.798405 -81.796218 
L 219.798405 -83.348662 
L 219.798405 -84.901107 
L 219.798405 -86.453552 
L 219.798405 -88.005996 
L 219.798405 -89.558441 
L 219.798405 -91.110886 
L 219.798405 -92.663331 
L 219.798405 -94.215775 
L 219.798405 -95.76822 
L 219.798405 -97.320665 
L 219.798405 -98.873109 
L 219.798405 -100.425554 
L 219.798405 -101.977999 
L 219.798405 -103.530443 
L 219.798405 -105.082888 
L 219.798405 -106.635333 
L 219.798405 -108.187778 
L 219.798405 -109.740222 
L 219.798405 -111.292667 
L 219.798405 -112.845112 
L 219.798405 -114.397556 
L 219.798405 -115.950001 
L 219.798405 -117.502446 
L 219.798405 -119.05489 
L 219.798405 -120.607335 
L 219.798405 -122.15978 
L 219.798405 -123.712225 
L 219.798405 -125.264669 
L 219.798405 -126.817114 
L 219.798405 -128.369559 
L 219.798405 -129.922003 
L 219.798405 -131.474448 
L 219.798405 -133.026893 
L 219.798405 -134.579337 
L 219.798405 -136.131782 
L 219.798405 -137.684227 
L 219.798405 -139.236672 
L 219.798405 -140.789116 
L 219.798405 -142.341561 
L 219.798405 -143.894006 
L 219.798405 -145.44645 
L 219.798405 -146.998895 
L 219.798405 -148.55134 
L 219.798405 -150.103784 
L 219.798405 -151.656229 
L 219.798405 -153.208674 
L 219.798405 -154.761118 
L 219.798405 -156.313563 
L 219.798405 -157.866008 
L 219.798405 -159.418453 
L 219.798405 -160.970897 
L 219.798405 -162.523342 
L 219.798405 -164.075787 
L 219.798405 -165.628231 
L 219.798405 -167.180676 
L 219.813499 -167.180676 
L 219.813499 -167.180676 
L 219.824158 -165.628231 
L 219.838857 -164.075787 
L 219.85691 -162.523342 
L 219.876351 -160.970897 
L 219.894177 -159.418453 
L 219.907257 -157.866008 
L 219.913726 -156.313563 
L 219.914451 -154.761118 
L 219.914069 -153.208674 
L 219.921277 -151.656229 
L 219.948257 -150.103784 
L 220.009183 -148.55134 
L 220.117725 -146.998895 
L 220.283595 -145.44645 
L 220.508696 -143.894006 
L 220.784167 -142.341561 
L 221.089956 -140.789116 
L 221.398021 -139.236672 
L 221.678757 -137.684227 
L 221.908589 -136.131782 
L 222.075825 -134.579337 
L 222.182468 -133.026893 
L 222.241592 -131.474448 
L 222.272092 -129.922003 
L 222.293775 -128.369559 
L 222.325212 -126.817114 
L 222.384782 -125.264669 
L 222.493141 -123.712225 
L 222.67448 -122.15978 
L 222.954704 -120.607335 
L 223.356605 -119.05489 
L 223.893819 -117.502446 
L 224.566026 -115.950001 
L 225.3574 -114.397556 
L 226.239158 -112.845112 
L 227.175776 -111.292667 
L 228.133173 -109.740222 
L 229.08618 -108.187778 
L 230.022111 -106.635333 
L 230.938035 -105.082888 
L 231.831631 -103.530443 
L 232.688771 -101.977999 
L 233.473641 -100.425554 
L 234.127379 -98.873109 
L 234.578302 -97.320665 
L 234.761769 -95.76822 
L 234.64292 -94.215775 
L 234.233172 -92.663331 
L 233.592702 -91.110886 
L 232.816103 -89.558441 
L 232.005151 -88.005996 
L 231.238703 -86.453552 
L 230.552005 -84.901107 
L 229.934319 -83.348662 
L 229.345435 -81.796218 
L 228.742386 -80.243773 
L 228.102798 -78.691328 
L 227.433964 -77.138884 
L 226.765395 -75.586439 
L 226.13151 -74.033994 
L 225.555103 -72.481549 
L 225.03956 -70.929105 
L 224.571457 -69.37666 
L 224.129642 -67.824215 
L 223.694952 -66.271771 
L 223.256366 -64.719326 
L 222.812441 -63.166881 
L 222.36935 -61.614437 
L 221.937611 -60.061992 
L 221.529111 -58.509547 
L 221.155047 -56.957102 
L 220.82464 -55.404658 
L 220.544271 -53.852213 
L 220.316833 -52.299768 
L 220.141404 -50.747324 
L 220.013437 -49.194879 
L 219.92561 -47.642434 
L 219.869159 -46.08999 
L 219.83534 -44.537545 
L 219.816603 -42.9851 
L 219.807242 -41.432655 
L 219.803531 -39.880211 
L 219.803494 -38.327766 
L 219.806502 -36.775321 
L 219.812792 -35.222877 
L 219.822929 -33.670432 
L 219.837182 -32.117987 
L 219.854921 -30.565543 
L 219.874246 -29.013098 
L 219.892093 -27.460653 
L 219.904939 -25.908209 
L 219.909915 -24.355764 
L 219.905845 -22.803319 
L 219.893694 -21.250874 
L 219.876198 -19.69843 
L 219.856866 -18.145985 
L 219.838845 -16.59354 
L 219.824155 -15.041096 
L 219.813498 -13.488651 
z
"/>
    </defs>
    <g clip-path="url(#p61baa7005a)">
     <use xlink:href="#mb663b459d2" x="0" y="180" style="fill: #be631d"/>
    </g>
   </g>
   <g id="patch_3">
    <path d="M 61.754125 65.035 
L 61.754125 65.035 
L 61.754125 65.035 
L 61.754125 65.035 
z
" clip-path="url(#p61baa7005a)" style="fill: #2b8e70"/>
   </g>
   <g id="patch_4">
    <path d="M 61.754125 65.035 
L 61.754125 65.035 
L 61.754125 65.035 
L 61.754125 65.035 
z
" clip-path="url(#p61baa7005a)" style="fill: #be631d"/>
   </g>
   <g id="line2d_11">
    <path d="M 57.174595 89.319337 
L 57.174595 19.452727 
" clip-path="url(#p61baa7005a)" style="fill: none; stroke: #000000; stroke-linecap: round"/>
   </g>
   <g id="line2d_12">
    <path d="M 57.174595 61.060834 
L 57.174595 42.187423 
" clip-path="url(#p61baa7005a)" style="fill: none; stroke: #000000; stroke-width: 5; stroke-linecap: round"/>
   </g>
   <g id="line2d_13">
    <path d="M 57.174595 47.868597 
" clip-path="url(#p61baa7005a)" style="fill: none; stroke: #373737; stroke-width: 1.5; stroke-linecap: round"/>
    <defs>
     <path id="md19ebd950d" d="M 2.083333 0 
L -2.083333 -0 
" style="stroke: #ffffff"/>
    </defs>
    <g clip-path="url(#p61baa7005a)">
     <use xlink:href="#md19ebd950d" x="57.174595" y="47.868597" style="fill: #ffffff; stroke: #ffffff"/>
    </g>
   </g>
   <g id="line2d_14">
    <path d="M 66.333655 117.079762 
L 66.333655 43.33198 
" clip-path="url(#p61baa7005a)" style="fill: none; stroke: #000000; stroke-linecap: round"/>
   </g>
   <g id="line2d_15">
    <path d="M 66.333655 93.86561 
L 66.333655 73.528656 
" clip-path="url(#p61baa7005a)" style="fill: none; stroke: #000000; stroke-width: 5; stroke-linecap: round"/>
   </g>
   <g id="line2d_16">
    <path d="M 66.333655 84.086353 
" clip-path="url(#p61baa7005a)" style="fill: none; stroke: #373737; stroke-width: 1.5; stroke-linecap: round"/>
    <g clip-path="url(#p61baa7005a)">
     <use xlink:href="#md19ebd950d" x="66.333655" y="84.086353" style="fill: #ffffff; stroke: #ffffff"/>
    </g>
   </g>
   <g id="line2d_17">
    <path d="M 109.162845 77.21924 
L 109.162845 20.887303 
" clip-path="url(#p61baa7005a)" style="fill: none; stroke: #000000; stroke-linecap: round"/>
   </g>
   <g id="line2d_18">
    <path d="M 109.162845 52.02197 
L 109.162845 34.445656 
" clip-path="url(#p61baa7005a)" style="fill: none; stroke: #000000; stroke-width: 5; stroke-linecap: round"/>
   </g>
   <g id="line2d_19">
    <path d="M 109.162845 42.144777 
" clip-path="url(#p61baa7005a)" style="fill: none; stroke: #373737; stroke-width: 1.5; stroke-linecap: round"/>
    <g clip-path="url(#p61baa7005a)">
     <use xlink:href="#md19ebd950d" x="109.162845" y="42.144777" style="fill: #ffffff; stroke: #ffffff"/>
    </g>
   </g>
   <g id="line2d_20">
    <path d="M 118.321905 104.099608 
L 118.321905 34.375536 
" clip-path="url(#p61baa7005a)" style="fill: none; stroke: #000000; stroke-linecap: round"/>
   </g>
   <g id="line2d_21">
    <path d="M 118.321905 79.176896 
L 118.321905 60.895536 
" clip-path="url(#p61baa7005a)" style="fill: none; stroke: #000000; stroke-width: 5; stroke-linecap: round"/>
   </g>
   <g id="line2d_22">
    <path d="M 118.321905 70.535358 
" clip-path="url(#p61baa7005a)" style="fill: none; stroke: #373737; stroke-width: 1.5; stroke-linecap: round"/>
    <g clip-path="url(#p61baa7005a)">
     <use xlink:href="#md19ebd950d" x="118.321905" y="70.535358" style="fill: #ffffff; stroke: #ffffff"/>
    </g>
   </g>
   <g id="line2d_23">
    <path d="M 161.151095 103.042068 
L 161.151095 13.875353 
" clip-path="url(#p61baa7005a)" style="fill: none; stroke: #000000; stroke-linecap: round"/>
   </g>
   <g id="line2d_24">
    <path d="M 161.151095 74.979899 
L 161.151095 49.399329 
" clip-path="url(#p61baa7005a)" style="fill: none; stroke: #000000; stroke-width: 5; stroke-linecap: round"/>
   </g>
   <g id="line2d_25">
    <path d="M 161.151095 61.424535 
" clip-path="url(#p61baa7005a)" style="fill: none; stroke: #373737; stroke-width: 1.5; stroke-linecap: round"/>
    <g clip-path="url(#p61baa7005a)">
     <use xlink:href="#md19ebd950d" x="161.151095" y="61.424535" style="fill: #ffffff; stroke: #ffffff"/>
    </g>
   </g>
   <g id="line2d_26">
    <path d="M 170.310155 108.083775 
L 170.310155 46.066411 
" clip-path="url(#p61baa7005a)" style="fill: none; stroke: #000000; stroke-linecap: round"/>
   </g>
   <g id="line2d_27">
    <path d="M 170.310155 91.822948 
L 170.310155 72.892522 
" clip-path="url(#p61baa7005a)" style="fill: none; stroke: #000000; stroke-width: 5; stroke-linecap: round"/>
   </g>
   <g id="line2d_28">
    <path d="M 170.310155 81.517451 
" clip-path="url(#p61baa7005a)" style="fill: none; stroke: #373737; stroke-width: 1.5; stroke-linecap: round"/>
    <g clip-path="url(#p61baa7005a)">
     <use xlink:href="#md19ebd950d" x="170.310155" y="81.517451" style="fill: #ffffff; stroke: #ffffff"/>
    </g>
   </g>
   <g id="line2d_29">
    <path d="M 213.139345 106.175605 
L 213.139345 24.459949 
" clip-path="url(#p61baa7005a)" style="fill: none; stroke: #000000; stroke-linecap: round"/>
   </g>
   <g id="line2d_30">
    <path d="M 213.139345 74.107314 
L 213.139345 45.306361 
" clip-path="url(#p61baa7005a)" style="fill: none; stroke: #000000; stroke-width: 5; stroke-linecap: round"/>
   </g>
   <g id="line2d_31">
    <path d="M 213.139345 51.408597 
" clip-path="url(#p61baa7005a)" style="fill: none; stroke: #373737; stroke-width: 1.5; stroke-linecap: round"/>
    <g clip-path="url(#p61baa7005a)">
     <use xlink:href="#md19ebd950d" x="213.139345" y="51.408597" style="fill: #ffffff; stroke: #ffffff"/>
    </g>
   </g>
   <g id="line2d_32">
    <path d="M 222.298405 124.498635 
L 222.298405 40.387421 
" clip-path="url(#p61baa7005a)" style="fill: none; stroke: #000000; stroke-linecap: round"/>
   </g>
   <g id="line2d_33">
    <path d="M 222.298405 97.15203 
L 222.298405 74.353192 
" clip-path="url(#p61baa7005a)" style="fill: none; stroke: #000000; stroke-width: 5; stroke-linecap: round"/>
   </g>
   <g id="line2d_34">
    <path d="M 222.298405 85.327813 
" clip-path="url(#p61baa7005a)" style="fill: none; stroke: #373737; stroke-width: 1.5; stroke-linecap: round"/>
    <g clip-path="url(#p61baa7005a)">
     <use xlink:href="#md19ebd950d" x="222.298405" y="85.327813" style="fill: #ffffff; stroke: #ffffff"/>
    </g>
   </g>
   <g id="patch_5">
    <path d="M 35.76 145.5 
L 35.76 7.56 
" style="fill: none; stroke: #262626; stroke-width: 1.25; stroke-linejoin: miter; stroke-linecap: square"/>
   </g>
   <g id="patch_6">
    <path d="M 35.76 145.5 
L 243.713 145.5 
" style="fill: none; stroke: #262626; stroke-width: 1.25; stroke-linejoin: miter; stroke-linecap: square"/>
   </g>
   <g id="legend_1">
    <g id="patch_7">
     <path d="M 184.14757 142 
L 239.15882 142 
Q 240.55882 142 240.55882 140.6 
L 240.55882 121.496563 
Q 240.55882 120.096563 239.15882 120.096563 
L 184.14757 120.096563 
Q 182.74757 120.096563 182.74757 121.496563 
L 182.74757 140.6 
Q 182.74757 142 184.14757 142 
z
" style="fill: #ffffff; opacity: 0.8; stroke: #cccccc; stroke-linejoin: miter"/>
    </g>
    <g id="patch_8">
     <path d="M 185.54757 127.907031 
L 199.54757 127.907031 
L 199.54757 123.007031 
L 185.54757 123.007031 
z
" style="fill: #2b8e70"/>
    </g>
    <g id="text_13">
     <!-- Unpaired -->
     <g style="fill: #262626" transform="translate(202.34757 127.907031) scale(0.07 -0.07)">
      <defs>
       <path id="ArialMT-70" d="M 422 -1272 
L 422 3319 
L 934 3319 
L 934 2888 
Q 1116 3141 1344 3267 
Q 1572 3394 1897 3394 
Q 2322 3394 2647 3175 
Q 2972 2956 3137 2557 
Q 3303 2159 3303 1684 
Q 3303 1175 3120 767 
Q 2938 359 2589 142 
Q 2241 -75 1856 -75 
Q 1575 -75 1351 44 
Q 1128 163 984 344 
L 984 -1272 
L 422 -1272 
z
M 931 1641 
Q 931 1000 1190 694 
Q 1450 388 1819 388 
Q 2194 388 2461 705 
Q 2728 1022 2728 1688 
Q 2728 2322 2467 2637 
Q 2206 2953 1844 2953 
Q 1484 2953 1207 2617 
Q 931 2281 931 1641 
z
" transform="scale(0.015625)"/>
       <path id="ArialMT-72" d="M 416 0 
L 416 3319 
L 922 3319 
L 922 2816 
Q 1116 3169 1280 3281 
Q 1444 3394 1641 3394 
Q 1925 3394 2219 3213 
L 2025 2691 
Q 1819 2813 1613 2813 
Q 1428 2813 1281 2702 
Q 1134 2591 1072 2394 
Q 978 2094 978 1738 
L 978 0 
L 416 0 
z
" transform="scale(0.015625)"/>
      </defs>
      <use xlink:href="#ArialMT-55"/>
      <use xlink:href="#ArialMT-6e" x="72.216797"/>
      <use xlink:href="#ArialMT-70" x="127.832031"/>
      <use xlink:href="#ArialMT-61" x="183.447266"/>
      <use xlink:href="#ArialMT-69" x="239.0625"/>
      <use xlink:href="#ArialMT-72" x="261.279297"/>
      <use xlink:href="#ArialMT-65" x="294.580078"/>
      <use xlink:href="#ArialMT-64" x="350.195312"/>
     </g>
    </g>
    <g id="patch_9">
     <path d="M 185.54757 137.80875 
L 199.54757 137.80875 
L 199.54757 132.90875 
L 185.54757 132.90875 
z
" style="fill: #be631d"/>
    </g>
    <g id="text_14">
     <!-- Basepaired -->
     <g style="fill: #262626" transform="translate(202.34757 137.80875) scale(0.07 -0.07)">
      <defs>
       <path id="ArialMT-42" d="M 469 0 
L 469 4581 
L 2188 4581 
Q 2713 4581 3030 4442 
Q 3347 4303 3526 4014 
Q 3706 3725 3706 3409 
Q 3706 3116 3547 2856 
Q 3388 2597 3066 2438 
Q 3481 2316 3704 2022 
Q 3928 1728 3928 1328 
Q 3928 1006 3792 729 
Q 3656 453 3456 303 
Q 3256 153 2954 76 
Q 2653 0 2216 0 
L 469 0 
z
M 1075 2656 
L 2066 2656 
Q 2469 2656 2644 2709 
Q 2875 2778 2992 2937 
Q 3109 3097 3109 3338 
Q 3109 3566 3000 3739 
Q 2891 3913 2687 3977 
Q 2484 4041 1991 4041 
L 1075 4041 
L 1075 2656 
z
M 1075 541 
L 2216 541 
Q 2509 541 2628 563 
Q 2838 600 2978 687 
Q 3119 775 3209 942 
Q 3300 1109 3300 1328 
Q 3300 1584 3169 1773 
Q 3038 1963 2805 2039 
Q 2572 2116 2134 2116 
L 1075 2116 
L 1075 541 
z
" transform="scale(0.015625)"/>
      </defs>
      <use xlink:href="#ArialMT-42"/>
      <use xlink:href="#ArialMT-61" x="66.699219"/>
      <use xlink:href="#ArialMT-73" x="122.314453"/>
      <use xlink:href="#ArialMT-65" x="172.314453"/>
      <use xlink:href="#ArialMT-70" x="227.929688"/>
      <use xlink:href="#ArialMT-61" x="283.544922"/>
      <use xlink:href="#ArialMT-69" x="339.160156"/>
      <use xlink:href="#ArialMT-72" x="361.376953"/>
      <use xlink:href="#ArialMT-65" x="394.677734"/>
      <use xlink:href="#ArialMT-64" x="450.292969"/>
     </g>
    </g>
   </g>
  </g>
 </g>
 <defs>
  <clipPath id="p61baa7005a">
   <rect x="35.76" y="7.56" width="207.953" height="137.94"/>
  </clipPath>
 </defs>
</svg>
